<svg width="114" height="117" viewBox="0 0 114 117" fill="none" xmlns="http://www.w3.org/2000/svg">
<path d="M113.382 33.5929C113.372 32.876 113.355 32.1585 113.339 31.4416C113.33 31.0887 113.055 30.8282 112.707 30.8113C107.569 30.5625 102.4 31.012 97.3769 32.114C92.357 33.2154 87.4792 34.9822 82.9218 37.353C78.6848 39.557 74.7349 42.3046 71.1741 45.4818C71.0256 45.6141 70.8789 45.7487 70.7321 45.8821C70.5696 44.3003 70.3459 42.7248 70.1171 41.1517C69.8459 39.2889 69.5489 37.4419 69.4215 35.5628C69.2032 32.3282 69.3376 29.0842 69.2062 25.8473C69.0594 22.2341 68.533 18.6466 67.3808 15.209C66.7135 13.2169 65.8866 11.247 64.8524 9.4152C63.9562 7.82747 62.8909 6.33864 61.7359 4.92882C60.3625 3.25213 58.85 1.64157 57.1844 0.246383C57.1574 0.223559 57.1304 0.200735 57.1034 0.178496C56.8375 -0.039795 56.473 -0.0784203 56.2095 0.178496C53.3348 2.98293 50.7148 6.04134 48.3689 9.29816C46.0453 12.524 43.9999 15.9487 42.2579 19.5204C40.4995 23.126 39.0416 26.8803 37.9206 30.7311C36.7702 34.682 35.9785 38.7365 35.5594 42.8296C35.0793 47.5249 35.1286 52.2735 35.8511 56.9418C35.8781 57.118 35.9069 57.2936 35.9362 57.4697C32.5668 56.1612 29.0752 55.1674 25.5161 54.5155C18.1075 53.1589 10.4565 53.2221 3.07717 54.7373C2.19797 54.9175 1.32405 55.12 0.454242 55.3412C0.102093 55.4308 -0.0469838 55.786 0.0128816 56.1167C1.04233 61.8244 2.20443 67.7604 5.93075 72.4043C9.35013 76.6665 14.3049 79.2626 18.307 82.8969C20.4534 84.8457 22.1537 87.141 23.7343 89.555C25.3524 92.0271 26.8878 94.564 28.8023 96.826C32.3842 101.058 37.356 104.115 42.7392 105.463C44.1108 105.807 45.5106 105.99 46.8992 106.247C48.204 106.489 49.5028 106.768 50.8151 106.969C53.2825 107.346 55.7429 107.337 58.09 106.391C58.5577 106.203 59.0138 105.991 59.4598 105.758C59.5455 105.949 59.6294 106.142 59.7116 106.335C60.3056 107.751 60.8062 109.205 61.2182 110.684C61.541 111.842 61.8104 113.016 62.0217 114.199C62.0992 114.633 62.1684 115.068 62.2283 115.505C62.2647 115.78 62.2976 116.056 62.321 116.332C62.3375 116.522 62.3827 116.715 62.53 116.847C62.9021 117.183 63.6087 116.936 63.5894 116.398C63.5894 116.393 63.59 116.388 63.5894 116.383C63.5911 116.04 63.5947 115.696 63.5982 115.353C63.6081 114.447 63.6228 113.54 63.6404 112.633C63.6657 111.333 63.6979 110.033 63.7379 108.734C63.7848 107.202 63.8423 105.671 63.9145 104.14C63.9885 102.565 64.0771 100.992 64.191 99.4203C64.2003 99.2874 64.2103 99.1552 64.2203 99.0223C64.5783 98.2785 64.8988 97.5177 65.1746 96.737C65.6864 95.2868 66.0039 93.7763 66.116 92.2489C67.2318 92.4818 68.3768 92.5778 69.5143 92.4806C70.775 92.3729 71.9993 92.0663 73.1913 91.6519C74.4949 91.1984 75.7608 90.6442 77.038 90.1227C78.3749 89.5767 79.7442 89.1085 81.0572 88.504C85.7672 86.3363 89.8216 82.7535 92.5672 78.3666C95.6444 73.4489 96.7243 67.5773 99.8707 62.697C102.727 58.268 106.896 54.8649 109.756 50.4364C111.308 48.0323 112.317 45.3595 112.825 42.5481C113.358 39.5944 113.424 36.5852 113.382 33.5917V33.5929ZM111.275 43.763C111.255 43.7648 111.236 43.7677 111.216 43.7695C111.005 43.7905 110.792 43.8081 110.579 43.821C110.149 43.8479 109.719 43.859 109.288 43.8549C108.853 43.8508 108.419 43.8303 107.986 43.7946C107.774 43.7771 107.561 43.756 107.349 43.7308C107.296 43.7244 107.244 43.718 107.19 43.7115C107.166 43.7086 107.141 43.7051 107.117 43.7022C107.108 43.701 107.099 43.6998 107.09 43.6986C107.086 43.6986 107.076 43.6969 107.07 43.6957C106.96 43.6805 106.85 43.6647 106.741 43.6477C105.89 43.5149 105.048 43.3223 104.224 43.0707C103.812 42.9449 103.405 42.8044 103.003 42.6499C102.9 42.6101 102.797 42.5691 102.694 42.5276C102.649 42.5089 102.603 42.4901 102.558 42.4714C102.549 42.4673 102.539 42.4632 102.529 42.4597C102.528 42.4591 102.527 42.4585 102.524 42.4574C102.494 42.4445 102.464 42.4316 102.434 42.4187C102.238 42.3345 102.044 42.2467 101.851 42.156C101.07 41.7861 100.316 41.3589 99.5996 40.8767C99.7498 40.7456 99.9001 40.6145 100.052 40.4846C101.495 39.2497 102.993 38.0851 104.531 36.9767C105.527 37.3869 106.571 37.6526 107.643 37.7773C108.753 37.906 109.878 37.8721 110.98 37.6924C111.353 37.6316 111.722 37.5531 112.086 37.4572C112.003 39.5903 111.78 41.7135 111.273 43.7636L111.275 43.763ZM99.4546 37.4689C99.5503 36.3364 99.7352 35.2257 100.016 34.1079C100.125 33.6719 100.249 33.2394 100.386 32.811C101.744 32.5804 103.111 32.3984 104.482 32.2662C104.071 33.3646 103.809 34.5164 103.854 35.6974C103.868 36.0637 103.91 36.4307 103.982 36.7906C102.981 37.518 101.998 38.2689 101.037 39.0496C100.486 39.4967 99.9441 39.9538 99.4083 40.4184C99.3572 39.4352 99.3719 38.4491 99.4552 37.4683L99.4546 37.4689ZM112.104 36.9626C111.772 37.0545 111.436 37.1324 111.097 37.1944C110.962 37.2195 110.827 37.2418 110.691 37.2617C110.656 37.267 110.622 37.2716 110.588 37.2763C110.575 37.2781 110.562 37.2798 110.549 37.2816C110.547 37.2816 110.543 37.2822 110.536 37.2833C110.464 37.2927 110.391 37.3015 110.318 37.3097C110.05 37.3395 109.779 37.36 109.509 37.3717C108.969 37.3945 108.426 37.3811 107.887 37.3296C107.751 37.3167 107.614 37.3015 107.478 37.2833C107.475 37.2833 107.472 37.2828 107.471 37.2822C107.456 37.2804 107.441 37.2781 107.426 37.2757C107.392 37.271 107.358 37.2658 107.324 37.2611C107.256 37.2512 107.188 37.24 107.12 37.2289C106.85 37.1833 106.58 37.1283 106.314 37.0633C106.022 36.9925 105.733 36.91 105.448 36.8157C105.301 36.7672 105.156 36.7157 105.012 36.6612C105.003 36.6577 104.995 36.6542 104.986 36.6513C107.014 35.211 109.11 33.865 111.244 32.5822C111.525 32.413 111.807 32.2451 112.09 32.0783C112.126 33.6912 112.153 35.3281 112.105 36.9615L112.104 36.9626ZM110.853 32.011C110.991 32.0133 111.128 32.0163 111.266 32.0198C108.924 33.4226 106.623 34.8956 104.406 36.4851C104.369 36.2685 104.347 36.0567 104.334 35.822C104.314 35.4703 104.321 35.1168 104.352 34.7657C104.369 34.5866 104.385 34.4537 104.413 34.2858C104.44 34.1155 104.475 33.9464 104.513 33.7784C104.59 33.439 104.687 33.1036 104.798 32.7735C104.861 32.5892 104.928 32.4066 104.999 32.2252C105 32.2234 105.001 32.2211 105.002 32.2193C106.946 32.0496 108.899 31.9794 110.853 32.0116L110.853 32.011ZM99.8602 32.9029C99.6013 33.7456 99.3942 34.6041 99.241 35.4726C99.0379 36.625 98.924 37.7937 98.9064 38.9635C98.897 39.5798 98.9152 40.196 98.9587 40.8105C97.1733 42.386 95.4712 44.0556 93.8496 45.799C93.6905 44.3038 93.6277 42.7986 93.6635 41.2951C93.7028 39.6213 93.8625 37.9587 94.1413 36.3253C94.2686 35.5803 94.4206 34.8394 94.5967 34.1044C95.0498 33.9785 95.5047 33.858 95.9607 33.7433C97.2507 33.4179 98.5519 33.1381 99.8608 32.9035L99.8602 32.9029ZM102.572 57.221C101.748 57.1432 100.944 57.0004 100.128 56.7827C99.1594 56.524 98.2556 56.1793 97.3728 55.7451C96.5142 55.3231 95.6931 54.8286 94.9043 54.2884C94.1061 53.7418 93.3859 53.1841 92.6446 52.5713C91.9004 51.9557 91.1762 51.3166 90.4572 50.6717C90.4208 50.6389 90.3838 50.6061 90.3475 50.5728C91.4309 49.2203 92.5589 47.8994 93.731 46.6184C94.5057 47.1983 95.3151 47.7315 96.1538 48.2149C97.0442 48.7275 97.9674 49.1846 98.9147 49.5837C99.8737 49.9881 100.856 50.3369 101.856 50.6231C102.845 50.9058 103.852 51.1287 104.868 51.2897C105.716 51.4243 106.57 51.5168 107.428 51.5665C105.934 53.5411 104.22 55.3576 102.572 57.221H102.572ZM96.2078 61.5365C96.9966 61.8437 97.7972 62.1211 98.6071 62.3681C97.8688 63.5713 97.2267 64.8249 96.6445 66.1148C95.8433 65.9093 95.0598 65.636 94.2909 65.3329C93.3707 64.9701 92.4715 64.575 91.5612 64.1537C90.6615 63.737 89.7723 63.298 88.8942 62.8369C88.0121 62.374 87.1423 61.8894 86.2842 61.3832C85.4267 60.8769 84.5816 60.3497 83.7499 59.8019C83.7188 59.7814 83.6883 59.7609 83.6572 59.7404C84.6197 58.4237 85.5553 57.0864 86.4979 55.755C87.1722 56.3268 87.8677 56.874 88.5838 57.3919C89.3626 57.9549 90.1655 58.4851 90.9895 58.9802C91.8136 59.4753 92.6587 59.9353 93.5221 60.359C94.3995 60.7897 95.2963 61.1824 96.2078 61.5371V61.5365ZM92.9058 75.1267C91.9644 74.9459 91.0318 74.7241 90.1115 74.4561C89.5575 74.2951 89.0081 74.1178 88.4646 73.9247C88.1929 73.8281 87.9223 73.7275 87.6529 73.6233C87.5203 73.5718 87.3876 73.5191 87.2556 73.4659C87.1916 73.4401 87.1276 73.4138 87.0637 73.3874C87.032 73.374 86.9997 73.3611 86.968 73.3476C86.9521 73.3412 86.9363 73.3342 86.9199 73.3277C86.9157 73.326 86.8993 73.319 86.8905 73.3155C85.8153 72.8613 84.7665 72.3446 83.7488 71.774C82.6911 71.1811 81.667 70.5303 80.6762 69.8327C79.6327 69.0983 78.6402 68.324 77.6654 67.4988C77.5955 67.4397 77.5257 67.3795 77.4558 67.3198C78.2194 66.4238 78.9959 65.5389 79.7636 64.6464C80.5677 65.3317 81.4105 65.9726 82.2867 66.5625C83.2211 67.1916 84.1936 67.764 85.1973 68.2766C86.2073 68.7928 87.2491 69.2487 88.3132 69.6425C89.3702 70.0341 90.4507 70.363 91.5471 70.6257C92.5513 70.8663 93.569 71.05 94.5938 71.1794C94.0708 72.5125 93.5303 73.8375 92.9058 75.1267ZM83.497 85.7382C82.7352 85.2542 81.9839 84.7526 81.2473 84.2312C80.8001 83.9152 80.3576 83.5921 79.9203 83.2626C79.4877 82.9367 79.0834 82.6224 78.6508 82.2753C77.7998 81.5924 76.9693 80.8843 76.1611 80.1516C75.3494 79.4165 74.5606 78.6563 73.7947 77.8738C73.0323 77.0937 72.2933 76.2914 71.5796 75.4668C71.5327 75.4123 71.4857 75.3573 71.4388 75.3029C71.7721 74.8008 72.1108 74.3022 72.4541 73.8071C72.5158 73.7187 72.578 73.6309 72.6396 73.5425C73.3856 74.3379 74.1585 75.108 74.9603 75.8478C75.8254 76.646 76.7216 77.4109 77.646 78.1401C78.5833 78.8792 79.5476 79.5839 80.5389 80.2487C81.5202 80.9071 82.5274 81.528 83.5568 82.1086C84.4877 82.6335 85.4373 83.1257 86.4034 83.5839C85.4878 84.3675 84.517 85.088 83.4964 85.7387L83.497 85.7382ZM65.5462 85.8137C65.4417 85.2571 65.3278 84.7017 65.1946 84.1534C65.5174 84.1387 65.8402 84.1153 66.1618 84.0825C65.9423 84.6485 65.7375 85.2214 65.5503 85.8008C65.5491 85.8049 65.5473 85.8096 65.5462 85.8137ZM60.8989 102.221C60.8766 102.247 60.8561 102.276 60.8397 102.307C60.8385 102.308 60.8379 102.31 60.8373 102.312C60.8344 102.316 60.832 102.32 60.8291 102.324C60.4552 102.874 60.0667 103.414 59.6682 103.946C58.9181 101.937 57.9356 100.037 56.7829 98.2399C57.8658 98.1299 58.9381 97.9221 59.9834 97.6201C61.1584 97.2801 62.3011 96.823 63.3892 96.2659C63.6416 96.1366 63.891 96.0002 64.1376 95.8597C63.4104 98.1322 62.2336 100.245 60.8995 102.221H60.8989ZM40.1391 103.319C39.0099 102.886 37.9118 102.375 36.8542 101.79C37.5919 101.236 38.3138 100.659 39.017 100.061C39.9173 99.2951 40.7871 98.4945 41.6252 97.6611C42.4633 96.8283 43.2686 95.9627 44.0392 95.0673C44.8204 94.1602 45.5658 93.2221 46.2742 92.2571C46.9732 91.3049 47.6346 90.3258 48.2562 89.3221C48.2803 89.2835 48.3037 89.2443 48.3278 89.2057C48.7868 89.6411 49.2404 90.0812 49.69 90.5265C49.7452 90.5809 49.7998 90.636 49.8549 90.6904C49.3531 91.5922 48.8267 92.4806 48.2738 93.3526C47.6881 94.2761 47.0747 95.1815 46.4344 96.0681C46.1157 96.5093 45.79 96.9465 45.4578 97.3778C45.3727 97.4884 45.3169 97.5604 45.2265 97.6757C45.142 97.784 45.0569 97.8917 44.9718 97.9994C44.801 98.2141 44.6285 98.4277 44.4547 98.6402C43.7616 99.4864 43.0426 100.312 42.3002 101.115C41.6011 101.869 40.8804 102.605 40.1397 103.319L40.1391 103.319ZM29.0353 94.701C29.0318 94.7022 29.0277 94.7045 29.0218 94.7068C29.0077 94.7127 28.9942 94.7185 28.9801 94.7244C28.9455 94.739 28.9109 94.7531 28.8762 94.7677C28.8481 94.7794 28.8199 94.7911 28.7911 94.8022C27.9207 93.6657 27.1214 92.4759 26.3384 91.2733C27.1894 90.9853 28.0264 90.6564 28.8463 90.2889C29.8734 89.8289 30.8717 89.3069 31.836 88.7281C32.8115 88.1423 33.7494 87.4968 34.6485 86.8004C35.5377 86.1121 36.3858 85.3706 37.1858 84.5812C37.9857 83.7917 38.737 82.9542 39.4343 82.0734C39.4753 82.0219 39.5153 81.9693 39.5557 81.9172C40.4866 82.6399 41.4268 83.3516 42.3571 84.0749C42.3547 84.0779 42.3524 84.0808 42.3501 84.0837C42.2978 84.1504 42.2456 84.2177 42.1928 84.2845C42.0936 84.4103 41.9938 84.5361 41.8928 84.6608C41.6892 84.9142 41.4826 85.1652 41.2731 85.4139C40.8646 85.9003 40.4449 86.3772 40.0147 86.8443C39.1883 87.7408 38.3203 88.5994 37.4082 89.4087C36.9692 89.7979 36.5202 90.1754 36.0607 90.5406C35.8165 90.7343 35.6463 90.866 35.398 91.0521C35.1656 91.2259 34.9314 91.3962 34.6943 91.5636C33.7564 92.2249 32.7804 92.8329 31.7727 93.3825C31.2661 93.6587 30.752 93.9197 30.2308 94.1661C29.9685 94.2902 29.7044 94.4101 29.4391 94.5266C29.3094 94.5834 29.1785 94.6395 29.0482 94.6951C29.0429 94.6975 29.0388 94.6992 29.0359 94.7004L29.0353 94.701ZM34.287 86.4867C34.2905 86.4837 34.2923 86.4826 34.287 86.4867V86.4867ZM20.6576 83.4294C21.2956 83.0835 21.9225 82.7172 22.5364 82.3304C23.3516 81.8171 24.1445 81.2688 24.9134 80.6882C25.6916 80.1 26.4452 79.4809 27.1712 78.8295C27.8879 78.1863 28.5769 77.5121 29.2354 76.8105C29.8939 76.1088 30.5225 75.3784 31.1182 74.6223C31.1394 74.5954 31.1605 74.5678 31.1816 74.5409C32.3725 75.657 33.5575 76.7789 34.7642 77.8773C34.1156 78.5264 33.4536 79.1619 32.7757 79.7805C32.0397 80.4529 31.2867 81.1072 30.5178 81.7428C29.7478 82.3789 28.9825 82.98 28.1907 83.5693C27.3931 84.1633 26.5814 84.7398 25.7527 85.291C24.9703 85.8119 24.1662 86.3047 23.3205 86.7167C22.5029 85.5684 21.6325 84.4594 20.6576 83.4294ZM32.4271 65.7946C32.4165 64.5294 32.2434 63.2659 31.8936 62.0492C31.5672 60.9138 31.093 59.8212 30.5172 58.7894C30.09 58.0245 29.6064 57.293 29.0863 56.5884C31.3401 57.1677 33.5569 57.8858 35.7214 58.7373C36.0976 59.7744 36.404 60.836 36.6382 61.914C36.9158 63.1933 37.0919 64.4937 37.167 65.8005C37.2427 67.1179 37.2181 68.4405 37.093 69.7543C36.9686 71.0635 36.7409 72.3621 36.4152 73.6362C36.0906 74.9032 35.6704 76.1486 35.1474 77.3483C35.1216 77.4074 35.0946 77.4659 35.0682 77.5244C34.6468 77.1435 34.2283 76.759 33.8128 76.3715C32.9776 75.5926 32.15 74.8066 31.3184 74.0242C31.3137 74.0195 31.309 74.0148 31.3037 74.0107C31.1957 73.9095 31.0877 73.8082 30.9797 73.7076C31.3894 72.43 31.7509 71.1361 32.0115 69.8193C32.2733 68.4955 32.4376 67.1454 32.4265 65.7946H32.4271ZM36.7403 74.2583C37.1007 72.9614 37.3548 71.6364 37.5103 70.2998C37.6647 68.9719 37.7169 67.6329 37.6653 66.2968C37.6136 64.9583 37.4593 63.6229 37.2028 62.3078C36.9821 61.1766 36.6834 60.0611 36.3072 58.9714C38.2804 59.7732 40.209 60.6867 42.0795 61.708C42.2432 61.7975 42.4058 61.8876 42.5684 61.9784C42.6752 63.157 42.6077 64.3538 42.542 65.5313C42.4669 66.8843 42.3442 68.2356 42.1728 69.5799C42.0061 70.8908 41.7901 72.1953 41.5272 73.4904C41.2666 74.7779 40.9585 76.0555 40.6028 77.3202C40.2507 78.5714 39.8521 79.8098 39.4055 81.0306C39.3891 81.0756 39.372 81.1213 39.355 81.1663C38.0116 80.1059 36.7086 78.9975 35.435 77.8551C35.9597 76.6905 36.3976 75.4878 36.7391 74.2577L36.7403 74.2583ZM61.9161 55.9938C60.6695 57.8045 59.5279 59.6878 58.4996 61.6301C56.8469 61.8344 55.1888 61.9953 53.5273 62.1112C52.033 62.2154 50.5364 62.2833 49.0391 62.3154C48.9898 60.7874 48.9482 59.2594 48.9176 57.7313C50.0128 57.7179 51.1068 57.6605 52.1979 57.5628C53.9857 57.4024 55.764 57.135 57.5236 56.7797C59.0877 56.4637 60.6366 56.0769 62.169 55.6333C62.0851 55.7538 62 55.8732 61.9167 55.9944L61.9161 55.9938ZM63.2671 67.5404C64.1223 68.3574 65.0297 69.1188 65.9805 69.8228C66.9242 70.5216 67.912 71.16 68.9373 71.733C69.9668 72.3077 71.0332 72.8145 72.1278 73.2528C72.1625 73.2669 72.1977 73.2798 72.2323 73.2938C71.7815 73.9335 71.3372 74.579 70.9035 75.2321C70.8841 75.2297 70.8648 75.2274 70.8454 75.2245C70.7967 75.218 70.826 75.2221 70.8366 75.2233C70.8208 75.221 70.8049 75.2192 70.7885 75.2169C70.7486 75.2116 70.7087 75.2057 70.6687 75.1999C70.5373 75.1812 70.4058 75.1613 70.2743 75.1402C70.0079 75.0981 69.742 75.0513 69.4767 74.9998C68.9467 74.8973 68.4197 74.778 67.8967 74.6416C66.8509 74.3689 65.8232 74.0289 64.8201 73.6262C64.3436 73.4348 63.8611 73.223 63.3704 72.9883C62.8827 72.7554 62.4026 72.5067 61.9302 72.2439C60.9899 71.7195 60.0825 71.1366 59.2157 70.4987C59.1088 70.4197 59.002 70.3401 58.8964 70.26C58.8706 70.2407 58.8453 70.2208 58.8195 70.2014C58.8136 70.1973 58.8107 70.1944 58.8072 70.1921C58.8054 70.1909 58.8042 70.1897 58.8007 70.1868C58.7878 70.1769 58.7755 70.1669 58.7626 70.157C58.7086 70.1148 58.6546 70.0727 58.6006 70.0305C58.3887 69.8638 58.1792 69.6929 57.9732 69.5196C57.6069 69.2112 57.2495 68.8917 56.902 68.5622C57.3493 66.9505 58.0266 65.3955 58.7567 63.8997C58.9369 63.531 59.1223 63.1646 59.3102 62.8C59.8014 63.5456 60.3296 64.2666 60.8913 64.9613C61.6261 65.8707 62.4202 66.7322 63.266 67.5404H63.2671ZM62.7466 81.188C62.5447 81.4759 62.3381 81.7598 62.1238 82.0389C62.1051 82.0635 62.0863 82.0881 62.0675 82.1126C62.0387 82.1501 62.0558 82.1279 62.0622 82.1197C62.0528 82.132 62.0434 82.1443 62.0335 82.1565C61.9906 82.2116 61.9478 82.266 61.9043 82.3204C61.8181 82.4293 61.7306 82.5375 61.642 82.6452C61.4724 82.8512 61.2998 83.0549 61.1243 83.2556C60.413 84.0679 59.6494 84.8351 58.8406 85.5509C58.4374 85.9079 58.0231 86.252 57.5987 86.5832C57.5711 86.6049 57.5435 86.626 57.516 86.6476C57.5136 86.6494 57.5054 86.6558 57.5007 86.6593C57.4913 86.6669 57.4813 86.674 57.4719 86.6816C57.4168 86.7237 57.361 86.7664 57.3053 86.808C57.2002 86.887 57.094 86.9654 56.9877 87.0432C56.7688 87.203 56.547 87.3593 56.3228 87.512C55.4301 88.1206 54.4992 88.6737 53.5361 89.1647C53.0566 89.4093 52.5694 89.6387 52.0752 89.8518C52.0148 89.8781 51.9543 89.9038 51.8939 89.929C51.8921 89.9296 51.8921 89.9296 51.891 89.9302C51.8892 89.9308 51.8886 89.9314 51.8863 89.9319C51.8687 89.9395 51.8505 89.9472 51.8329 89.9542C51.8006 89.9676 51.7683 89.9811 51.736 89.994C51.611 90.0455 51.4848 90.0958 51.3586 90.1455C51.1063 90.2444 50.8527 90.3392 50.5974 90.43C50.5152 90.4592 50.4325 90.4873 50.3497 90.5154C50.345 90.5107 50.3397 90.5055 50.335 90.5008C50.3251 90.4879 50.3133 90.4762 50.3004 90.4662C49.7646 89.9314 49.2217 89.4029 48.6729 88.8814C49.582 88.2898 50.4548 87.6443 51.287 86.9496C52.1832 86.2017 53.0313 85.3958 53.8248 84.5402C54.6295 83.6723 55.379 82.7523 56.068 81.7908C56.75 80.8392 57.371 79.8449 57.9256 78.8143C58.418 77.8996 58.8571 76.9562 59.2415 75.9911C60.572 77.614 61.8022 79.3351 62.746 81.1874L62.7466 81.188ZM58.7772 75.887C58.7244 76.0192 58.6704 76.1515 58.6153 76.2832C58.6076 76.3007 58.6006 76.3189 58.5929 76.3364C58.5924 76.3382 58.5894 76.3446 58.5871 76.3499C58.5742 76.3797 58.5613 76.4102 58.5489 76.44C58.5202 76.5073 58.4908 76.5746 58.4615 76.6419C58.2273 77.1756 57.9755 77.7012 57.7073 78.2185C57.172 79.2503 56.5699 80.2475 55.9072 81.2026C55.7441 81.4379 55.578 81.6702 55.4078 81.8996C55.3203 82.0179 55.2323 82.1349 55.1431 82.2514C55.0585 82.3614 54.9957 82.4427 54.8954 82.5697C54.5356 83.0244 54.1611 83.4675 53.7732 83.8982C52.9979 84.7602 52.168 85.5737 51.29 86.331C51.0675 86.523 50.8421 86.7108 50.6138 86.8958C50.5023 86.9859 50.3908 87.0748 50.2781 87.1626C50.2505 87.1843 50.2235 87.2053 50.1959 87.227C50.1836 87.2364 50.1713 87.2457 50.1596 87.2557C50.156 87.2586 50.1543 87.2598 50.1513 87.2621C50.1502 87.2633 50.1472 87.265 50.1431 87.2685C50.085 87.313 50.0263 87.3575 49.9676 87.402C49.5022 87.7537 49.025 88.0902 48.5373 88.4103C48.4657 88.4572 48.3941 88.5028 48.3219 88.549C47.6704 87.9369 47.009 87.3358 46.337 86.7459C47.1105 85.8892 47.8506 85.0031 48.5555 84.0896C49.3091 83.1134 50.021 82.1056 50.6872 81.068C51.3504 80.0351 51.9678 78.9723 52.533 77.8832C53.1029 76.7853 53.6188 75.6599 54.0778 74.5111C54.4769 73.5103 54.8302 72.4914 55.1319 71.4568C55.8421 72.1649 56.534 72.8917 57.2067 73.6373C57.7766 74.2694 58.3453 74.9149 58.8999 75.5768C58.86 75.6804 58.8201 75.7834 58.779 75.8864L58.7772 75.887ZM55.4459 69.2095C55.3984 69.4301 55.3561 69.6513 55.318 69.8737C54.7903 69.3646 54.2521 68.8654 53.7057 68.3767C54.3742 68.2842 55.0403 68.1795 55.7047 68.0612C55.7153 68.0595 55.7253 68.0572 55.7358 68.0554C55.6267 68.437 55.5298 68.8215 55.4459 69.2095ZM50.3667 62.649C52.2531 62.5817 54.1371 62.4565 56.0158 62.2751C56.7747 62.2019 57.533 62.1188 58.2901 62.0263C57.351 63.8329 56.456 65.7039 55.8544 67.6574C55.0773 67.7991 54.2973 67.9261 53.515 68.0326C53.458 68.0402 53.4011 68.0472 53.3442 68.0548C51.9896 66.8639 50.5792 65.7361 49.1201 64.6745C49.0961 64.012 49.0732 63.349 49.0515 62.6859C49.4899 62.6765 49.9289 62.6642 50.3673 62.6484L50.3667 62.649ZM48.7122 63.6814C48.7204 63.9207 48.7292 64.1601 48.738 64.3995C47.9187 63.8131 47.0841 63.2477 46.2354 62.704C47.0501 62.7111 47.8647 62.707 48.6788 62.6929C48.6893 63.0224 48.7005 63.3519 48.7122 63.6808V63.6814ZM49.8414 66.7977C49.6466 67.8389 49.4148 68.8736 49.1442 69.8977C48.822 71.1191 48.4463 72.3264 48.0191 73.5156C47.5936 74.7001 47.117 75.8665 46.5893 77.0094C46.0599 78.1565 45.4807 79.2807 44.8527 80.378C44.2253 81.4748 43.5497 82.5446 42.8278 83.5816C42.7861 83.6419 42.7433 83.7016 42.701 83.7613C41.7197 82.9952 40.7296 82.2396 39.7459 81.473C40.1861 80.292 40.5829 79.0952 40.935 77.8849C41.3048 76.6132 41.6258 75.3281 41.8993 74.0324C42.1757 72.7203 42.4035 71.3988 42.5831 70.0704C42.7656 68.7208 42.9018 67.3654 42.9886 66.0059C43.0679 64.7641 43.1471 63.5029 43.0632 62.2575C45.4278 63.6094 47.6939 65.1275 49.8414 66.7977ZM45.0352 81.0083C45.6767 79.9134 46.2701 78.7903 46.8135 77.6438C47.3611 76.488 47.8588 75.3088 48.3049 74.1102C48.7474 72.921 49.1383 71.7131 49.4752 70.49C49.7816 69.3798 50.0433 68.2573 50.2605 67.126C51.8229 68.3644 53.3207 69.6829 54.7457 71.0769C54.471 72.0478 54.1518 73.0053 53.7908 73.9475C53.3588 75.0729 52.8729 76.1626 52.3259 77.2482C51.7736 78.3438 51.1685 79.4124 50.5164 80.4523C49.869 81.4853 49.1759 82.4895 48.4411 83.4634C47.7186 84.4208 46.9392 85.3654 46.1292 86.2696C46.0799 86.3246 46.0294 86.3796 45.9801 86.4346C45.9684 86.4246 45.9572 86.4141 45.9455 86.4042C45.0082 85.5936 44.0462 84.817 43.0737 84.0539C43.7698 83.0666 44.4254 82.0512 45.0358 81.0095L45.0352 81.0083ZM46.0523 87.1275C46.7026 87.6999 47.3435 88.2822 47.9756 88.875C47.3946 89.8242 46.7783 90.7524 46.1286 91.6566C45.4378 92.6176 44.7464 93.5036 43.9793 94.4113C43.2199 95.3102 42.4252 96.1805 41.5982 97.0185C40.7742 97.8536 39.9179 98.6572 39.0316 99.4261C38.5873 99.8124 38.1348 100.189 37.6759 100.558C37.2427 100.906 36.8477 101.211 36.4081 101.537C35.2407 100.861 34.1262 100.095 33.0785 99.2447C33.9536 98.8076 34.8076 98.3288 35.6369 97.8097C36.6945 97.1478 37.7105 96.4216 38.6824 95.6403C39.645 94.8666 40.5617 94.0362 41.4263 93.1554C42.3025 92.2623 43.123 91.3172 43.8878 90.3275C44.642 89.3514 45.338 88.3307 45.969 87.2709C45.9971 87.2235 46.0247 87.1749 46.0529 87.1275H46.0523ZM53.4117 89.7558C54.3853 89.2782 55.3285 88.7381 56.2335 88.1411C57.1556 87.5325 58.0395 86.8647 58.8776 86.1455C59.7005 85.4391 60.4781 84.6812 61.2047 83.8765C61.838 83.1749 62.4326 82.438 62.9837 81.6702C62.9978 81.6995 63.0118 81.7287 63.0259 81.758C63.6393 83.0631 63.9691 84.429 64.2543 85.8336C64.3541 86.324 64.4504 86.8156 64.5372 87.3083C64.5771 87.5331 64.6147 87.7584 64.6499 87.9843C64.664 88.0756 64.6775 88.1669 64.691 88.2582C64.5085 88.4203 64.323 88.58 64.1352 88.7363C63.9662 88.8768 63.7954 89.0155 63.6222 89.1512C63.5806 89.184 63.5389 89.2168 63.4972 89.249C63.4902 89.2542 63.4831 89.2601 63.4761 89.2654C63.472 89.2683 63.4597 89.2782 63.4579 89.2794C63.435 89.297 63.4127 89.3139 63.3898 89.3315C63.3024 89.3982 63.2143 89.4643 63.1263 89.5293C62.4191 90.0525 61.6825 90.5359 60.9207 90.9772C60.1559 91.4202 59.3659 91.8205 58.556 92.1745C58.5073 92.1956 58.4591 92.2167 58.4104 92.2377C58.3881 92.2471 58.3652 92.257 58.3429 92.2664C58.3318 92.2711 58.3206 92.2758 58.3095 92.2805C58.3048 92.2822 58.2924 92.2875 58.2842 92.291C58.1839 92.3331 58.0829 92.3747 57.982 92.4151C57.7777 92.497 57.5729 92.5766 57.3669 92.6527C56.9543 92.8048 56.5376 92.9459 56.1173 93.074C55.2769 93.331 54.4212 93.5387 53.556 93.6944C53.4968 93.7049 53.4375 93.7149 53.3788 93.7248C53.3559 93.6985 53.3336 93.6721 53.3107 93.6464C53.2943 93.6165 53.2708 93.5902 53.2438 93.5697C52.7138 92.9646 52.168 92.3735 51.6098 91.7965C51.3152 91.4922 51.0182 91.1896 50.7201 90.8888C51.6386 90.5634 52.5377 90.1842 53.4128 89.7558H53.4117ZM55.9507 93.6177C56.8152 93.3667 57.6627 93.0623 58.492 92.713C59.3066 92.37 60.1025 91.9814 60.8731 91.5489C61.6479 91.1147 62.3979 90.6366 63.1187 90.1174C63.685 89.7095 64.2344 89.2776 64.7632 88.8217C64.995 90.8303 64.9305 92.7949 64.4633 94.7045C64.4234 94.8684 64.3805 95.0316 64.3353 95.1943C64.0137 95.3886 63.6874 95.5747 63.3552 95.7503C63.0928 95.889 62.827 96.0213 62.5587 96.1471C62.4226 96.2109 62.2858 96.2735 62.1479 96.3338C62.0041 96.3976 61.8973 96.4426 61.7658 96.4971C60.6624 96.9506 59.515 97.3 58.3441 97.5323C58.016 97.5973 57.6856 97.6529 57.3546 97.6991C57.3375 97.7015 57.3205 97.7038 57.3035 97.7061C57.297 97.7073 57.2935 97.7073 57.2923 97.7079C57.283 97.7091 57.2736 97.7102 57.2648 97.7114C57.2266 97.7167 57.1879 97.7214 57.1497 97.726C57.0646 97.7366 56.9795 97.7465 56.8938 97.7559C56.76 97.7705 56.6262 97.7828 56.4924 97.7945C56.4278 97.6974 56.3633 97.6008 56.2975 97.5042C56.2846 97.4703 56.2647 97.4393 56.2377 97.4153C55.4641 96.2811 54.6236 95.1902 53.7345 94.1403C54.4816 94.004 55.2217 93.8296 55.9507 93.6171V93.6177ZM66.5204 83.1959C66.5058 83.2187 66.4958 83.2433 66.4899 83.2691C66.4453 83.3756 66.4013 83.4821 66.3578 83.5892C65.9317 83.6372 65.5039 83.6694 65.0754 83.6858C64.6165 81.9804 63.8376 80.3968 62.8974 78.9032C64.3048 79.2175 65.7422 79.403 67.1836 79.4498C67.5663 79.4621 67.949 79.4645 68.3311 79.4569C67.6661 80.673 67.0557 81.9178 66.5198 83.1953L66.5204 83.1959ZM68.6879 78.8184C68.6762 78.8342 68.6668 78.8512 68.6591 78.8687C68.6386 78.905 68.6181 78.9413 68.5975 78.9776C66.8315 79.0326 65.0813 78.8775 63.3634 78.5217C63.0834 78.4637 62.8047 78.3999 62.5271 78.3315C61.7018 77.0925 60.7775 75.9151 59.8472 74.7803C58.7673 73.4623 57.6263 72.1936 56.4313 70.9769C56.5 70.3372 56.615 69.7057 56.7671 69.0825C57.3657 69.6355 57.9908 70.1587 58.6393 70.6532C59.505 71.3128 60.413 71.9168 61.3556 72.4604C62.3099 73.0111 63.2988 73.4986 64.3148 73.9253C65.3184 74.3472 66.3485 74.706 67.3979 74.9968C68.4461 75.2877 69.5137 75.5107 70.5913 75.6616C70.6001 75.6628 70.6089 75.664 70.6177 75.6652C69.9427 76.6969 69.2948 77.7468 68.6879 78.8178V78.8184ZM72.5134 72.8976C72.2916 72.8116 72.0709 72.7232 71.852 72.6319C71.8396 72.6266 71.8056 72.6126 71.7974 72.6091C71.7616 72.5939 71.7264 72.5787 71.6906 72.5634C71.6196 72.533 71.5485 72.502 71.4781 72.471C71.3472 72.4136 71.2169 72.3551 71.0872 72.2954C70.5572 72.0519 70.0355 71.7915 69.5225 71.5147C68.5024 70.964 67.5182 70.3489 66.5762 69.6741C66.3373 69.5033 66.1014 69.3283 65.8684 69.1504C65.8607 69.1445 65.8243 69.1164 65.8179 69.1117C65.7897 69.0895 65.761 69.0678 65.7328 69.0456C65.6747 69.0005 65.6172 68.9555 65.5596 68.9098C65.4475 68.8209 65.336 68.7313 65.2257 68.6412C64.7738 68.2725 64.3342 67.8892 63.9063 67.4924C63.0547 66.7023 62.2524 65.8584 61.5076 64.9671C61.3221 64.7453 61.1402 64.52 60.9618 64.2924C60.9424 64.2672 60.923 64.2426 60.9036 64.2175C60.8984 64.211 60.8884 64.1975 60.8854 64.194C60.8737 64.1788 60.862 64.1636 60.8502 64.1484C60.8056 64.0905 60.761 64.0319 60.717 63.9734C60.6307 63.8593 60.5462 63.7452 60.4617 63.6299C60.1489 63.2015 59.8495 62.7637 59.5631 62.3178C60.359 60.8114 61.2229 59.3407 62.1514 57.9116C62.2389 57.7776 62.3275 57.6441 62.4161 57.5107C62.851 58.3353 63.3206 59.1411 63.823 59.9265C64.4879 60.9671 65.2087 61.9707 65.974 62.9393C66.7382 63.9073 67.5499 64.8384 68.4009 65.7314C69.2502 66.6222 70.1399 67.4754 71.0637 68.2895C71.9922 69.1076 72.9565 69.8854 73.9502 70.6234C74.0007 70.6608 74.0511 70.6977 74.1016 70.7346C73.7336 71.2186 73.3715 71.7072 73.0152 72.2C72.8474 72.4318 72.6807 72.6647 72.5146 72.8976H72.5134ZM74.3875 70.3612C74.1961 70.2207 74.006 70.0797 73.8176 69.9363C73.5828 69.7578 73.368 69.5916 73.1215 69.3956C72.6437 69.0169 72.1742 68.6277 71.7135 68.2298C70.785 67.4274 69.8905 66.5865 69.0348 65.7074C68.1826 64.8319 67.3685 63.919 66.6002 62.9691C66.2111 62.4881 65.8707 62.0462 65.501 61.5412C65.1453 61.0549 64.8013 60.5598 64.4709 60.0559C63.8353 59.0885 63.2484 58.0889 62.716 57.0612C63.8318 55.4097 65.0349 53.8185 66.3179 52.2934C66.6971 53.2104 67.1068 54.1158 67.5469 55.0053C68.1104 56.143 68.7231 57.2561 69.3828 58.3406C70.0454 59.4291 70.755 60.4884 71.5098 61.5154C72.2687 62.5472 73.071 63.5474 73.9167 64.5101C74.7549 65.464 75.6346 66.3811 76.5543 67.2577C76.6171 67.3174 76.6799 67.3765 76.7433 67.4356C75.9381 68.3948 75.1516 69.3692 74.388 70.3618L74.3875 70.3612ZM79.8064 63.8569C79.1837 62.8515 78.595 61.8244 78.0433 60.7786C77.433 59.6216 76.866 58.4418 76.343 57.2427C75.8148 56.0318 75.3335 54.8011 74.8963 53.5551C74.4514 52.2881 74.0517 51.0053 73.6978 49.7107C73.5165 49.0482 73.3468 48.3828 73.1896 47.7151C73.0346 47.0555 72.8961 46.3895 72.821 45.7159C74.577 44.2049 76.4252 42.8021 78.3538 41.5181C78.2265 42.4925 78.1554 43.4733 78.1437 44.4559C78.1279 45.802 78.2229 47.1468 78.4155 48.4794C78.6068 49.8014 78.9008 51.1094 79.2935 52.3864C79.6867 53.6675 80.1797 54.9187 80.7649 56.1243C81.3477 57.3252 82.0256 58.4804 82.7938 59.5725C82.8607 59.6673 82.9288 59.7609 82.9963 59.8545C82.8561 60.0442 82.7152 60.2332 82.5737 60.4222C81.6881 61.6003 80.7567 62.7362 79.807 63.8575L79.8064 63.8569ZM86.8412 54.4891C86.2602 53.4457 85.7161 52.3811 85.2436 51.2838C84.7465 50.128 84.3339 48.9312 84.0616 47.7022C83.7939 46.4966 83.6789 45.2636 83.7429 44.0299C83.8045 42.8313 84.0346 41.648 84.3856 40.5015C84.7095 39.4423 85.1362 38.4175 85.6245 37.4232C86.799 36.8725 87.9921 36.3628 89.2018 35.894C89.0099 36.5805 88.8479 37.2757 88.7188 37.9768C88.5286 39.008 88.4042 40.0527 88.3484 41.0996C88.2932 42.1355 88.3044 43.1749 88.383 44.209C88.4623 45.2489 88.6084 46.2854 88.8221 47.3066C89.0339 48.3202 89.3145 49.3198 89.6625 50.2948C89.6942 50.3837 89.7277 50.4727 89.7605 50.5617C88.7522 51.8451 87.7903 53.1618 86.8412 54.4886V54.4891ZM94.0767 34.2513C93.758 35.6347 93.5233 37.0375 93.3736 38.4497C93.1963 40.1276 93.1406 41.8177 93.2075 43.5032C93.2439 44.4238 93.3178 45.3431 93.4276 46.2579C92.5337 47.234 91.6639 48.2319 90.8193 49.2496C90.5781 49.5398 90.341 49.8336 90.1056 50.128C89.811 49.297 89.5651 48.449 89.3685 47.5893C89.1384 46.5809 88.9805 45.5872 88.8872 44.5706C88.7933 43.5471 88.7657 42.5177 88.8044 41.4906C88.8232 40.9791 88.859 40.4688 88.9107 39.9596C88.9629 39.4428 89.0263 38.9729 89.1126 38.4602C89.2705 37.5227 89.4853 36.5951 89.7552 35.6833C91.1756 35.1496 92.6176 34.672 94.0767 34.2518V34.2513ZM84.9466 37.7463C84.6174 38.4579 84.321 39.1848 84.0721 39.928C83.6807 41.0961 83.4124 42.3052 83.3039 43.533C83.1918 44.8036 83.2675 46.0811 83.5034 47.3341C83.74 48.5912 84.1332 49.8149 84.615 50.9988C85.1174 52.2325 85.712 53.4264 86.3564 54.5921C86.4163 54.7004 86.4767 54.8075 86.5372 54.9152C86.4685 55.0118 86.3999 55.1083 86.3312 55.2049C86.3153 55.2148 86.3007 55.226 86.2872 55.2406C86.2596 55.2704 86.2402 55.3085 86.2291 55.3483C85.2548 56.7206 84.287 58.0977 83.2904 59.4554C82.589 58.4705 81.9604 57.4346 81.4099 56.359C80.813 55.192 80.3094 53.9794 79.9009 52.7346C79.4889 51.4799 79.1732 50.1941 78.9566 48.892C78.7406 47.5957 78.6285 46.2824 78.6168 44.968C78.6056 43.6998 78.6895 42.4293 78.8768 41.174C79.8892 40.5156 80.9233 39.8888 81.9774 39.2971C82.9517 38.7505 83.9424 38.2332 84.9472 37.7457L84.9466 37.7463ZM72.3925 46.0893C72.5422 47.1743 72.818 48.2436 73.0962 49.2999C73.4419 50.612 73.8328 51.9118 74.2712 53.1964C74.7061 54.471 75.188 55.7293 75.7139 56.9699C76.2298 58.1861 76.7897 59.384 77.3948 60.5586C77.9958 61.7261 78.6414 62.8708 79.3305 63.9886C79.3815 64.0711 79.4332 64.1537 79.4848 64.2362C78.838 64.9946 78.1848 65.7478 77.5333 66.5051C77.3707 66.6936 77.2093 66.8832 77.0485 67.0734C76.1899 66.2628 75.3641 65.4178 74.5747 64.5393C74.1533 64.0706 73.7424 63.5924 73.3416 63.1055C72.9372 62.6145 72.5604 62.1352 72.1848 61.6348C71.4276 60.6265 70.7139 59.5859 70.0466 58.5161C69.3769 57.4428 68.7536 56.3408 68.1796 55.2137C67.6244 54.1234 67.1138 53.0068 66.6601 51.8895C67.9918 50.3363 69.4063 48.8528 70.8965 47.4482C71.3871 46.9859 71.8866 46.5335 72.3925 46.0893ZM62.513 55.1446C61.0586 55.5771 59.5895 55.9592 58.1064 56.2794C56.3668 56.6545 54.609 56.9454 52.8382 57.1297C51.5335 57.2655 50.2224 57.3445 48.91 57.3609C48.8783 55.6602 48.8619 53.9589 48.8678 52.2571C48.8689 51.9387 48.8713 51.6198 48.8736 51.3014C49.1741 51.2909 49.4752 51.2692 49.7769 51.2306C51.4789 51.014 53.1605 50.6137 54.825 50.2052C57.1368 49.6382 59.4322 49.0026 61.7183 48.3389C64.2285 47.6097 66.7276 46.8425 69.2155 46.0407C69.3024 46.0127 69.3893 45.9846 69.4761 45.9565C69.5108 46.2947 69.5413 46.6336 69.5695 46.9724C66.9724 49.4725 64.6077 52.2132 62.513 55.1452V55.1446ZM36.5091 48.4273C38.7165 49.5082 41.0653 50.3059 43.4769 50.7858C44.7957 51.0486 46.1345 51.2183 47.4779 51.2838C47.8213 51.3008 48.1617 51.3102 48.5015 51.3084C48.4845 53.3263 48.5003 55.3448 48.5379 57.3626C48.1951 57.3638 47.8524 57.3615 47.5096 57.3539C45.7348 57.3135 43.9617 57.1537 42.2086 56.874C40.4473 56.5931 38.7041 56.1957 36.9956 55.6848C36.9768 55.6795 36.9586 55.6731 36.9399 55.6678C36.6223 53.2695 36.4879 50.8478 36.5091 48.4279V48.4273ZM36.6763 44.4981C36.7479 43.5518 36.8418 42.6066 36.9563 41.6644C38.6366 42.4966 40.405 43.1485 42.2174 43.6296C44.2945 44.1815 46.4297 44.5133 48.5737 44.659C48.613 44.6619 48.6524 44.6637 48.6911 44.6666C48.5907 46.6558 48.5314 48.6474 48.5074 50.6389C48.5062 50.7384 48.5056 50.8379 48.5045 50.9374C47.198 50.9631 45.885 50.8186 44.5985 50.612C41.9281 50.1836 39.3145 49.3684 36.8782 48.1973C36.7562 48.1388 36.6347 48.0785 36.5132 48.0177C36.532 46.8431 36.5871 45.6691 36.6752 44.4981H36.6763ZM38.1155 35.0279C39.8715 35.6775 41.6704 36.2118 43.4981 36.6238C45.3909 37.0498 47.3142 37.3465 49.2481 37.5087C49.2328 37.6509 49.2176 37.7925 49.2029 37.9347C48.9846 40.0509 48.8231 42.1724 48.7105 44.2968C46.8364 44.1762 44.9712 43.9111 43.1436 43.4792C41.087 42.9934 39.0768 42.2988 37.1817 41.363C37.1224 41.3337 37.0637 41.3039 37.005 41.274C37.2732 39.1754 37.6465 37.0908 38.1155 35.0273V35.0279ZM50.4225 31.4568C52.3306 31.6663 54.2509 31.4392 56.1103 30.9751C58.1428 30.4677 60.1054 29.7069 62.0481 28.9327C64.0401 28.1385 66.0104 27.2888 67.9543 26.3834C67.9566 26.3822 67.959 26.3811 67.9607 26.3805C68.0441 29.0134 67.9777 31.6499 68.0892 34.2823C66.3649 34.9734 64.5959 35.5534 62.7953 36.0116C60.781 36.5249 58.7279 36.8883 56.6591 37.0908C54.6007 37.2921 52.5272 37.3348 50.4618 37.2219C50.1936 37.2073 49.926 37.1897 49.6577 37.1698C49.8133 35.7582 49.9929 34.3496 50.1965 32.9444C50.2687 32.4482 50.3433 31.9519 50.4225 31.4568ZM42.7609 21.3961C42.7832 21.3481 42.8061 21.3001 42.8284 21.2521C44.0087 22.1013 45.2958 22.793 46.6557 23.3156C48.2415 23.9248 49.9172 24.2824 51.6075 24.4393C51.55 24.6418 51.493 24.8442 51.4367 25.0467C50.8903 27.0196 50.4648 29.0181 50.1202 31.0313C48.5256 30.8072 46.9773 30.2805 45.5429 29.5571C43.842 28.6986 42.3002 27.5673 40.8957 26.2863C40.8522 26.2465 40.8094 26.2067 40.766 26.1663C41.3699 24.5516 42.0349 22.9598 42.7603 21.3961H42.7609ZM45.6104 15.9019C46.6445 16.51 47.7473 17.0016 48.8871 17.3767C50.247 17.8244 51.6568 18.0948 53.0824 18.2188C53.2086 18.23 53.3348 18.2393 53.4604 18.2481C52.8735 20.1905 52.2695 22.1276 51.7108 24.0776C50.2552 23.9488 48.8114 23.6662 47.4263 23.1997C45.8551 22.6707 44.3626 21.9076 43.0197 20.9372C43.0092 20.9296 42.9986 20.9214 42.988 20.9138C43.7945 19.2091 44.6695 17.537 45.6104 15.9025V15.9019ZM48.0731 11.9364C48.1593 11.9692 48.245 12.0025 48.3313 12.0341C48.6019 12.133 48.8742 12.2261 49.1489 12.3133C49.6947 12.4871 50.2482 12.6381 50.8058 12.7674C51.9397 13.0308 53.0947 13.2057 54.2551 13.3041C54.4564 13.321 54.6577 13.3351 54.859 13.3474C54.4617 14.869 54.0226 16.3789 53.5695 17.8841C52.192 17.7957 50.8275 17.571 49.5028 17.1801C48.2081 16.7979 46.9585 16.2653 45.7952 15.5806C46.5166 14.3429 47.276 13.1273 48.0725 11.9364H48.0731ZM51.4525 26.4179C51.6233 25.7672 51.8023 25.1187 51.986 24.4715C53.7022 24.6002 55.4283 24.5171 57.1309 24.2789C58.9122 24.0302 60.6665 23.6065 62.3762 23.0523C64.1205 22.4869 65.8202 21.7905 67.4824 21.0186C67.6831 22.285 67.8181 23.5638 67.8932 24.8513C67.9149 25.2206 67.932 25.5904 67.946 25.9597C66.2123 26.7714 64.4586 27.5392 62.6855 28.2602C60.7651 29.0415 58.8254 29.8117 56.8293 30.3805C54.8813 30.9359 52.8529 31.2783 50.8228 31.1103C50.7095 31.101 50.5962 31.0898 50.4835 31.0775C50.7418 29.5115 51.0481 27.9542 51.4519 26.4179H51.4525ZM49.68 37.5426C51.7624 37.6959 53.856 37.6924 55.9372 37.5256C58.0043 37.3606 60.0591 37.0393 62.0775 36.5682C64.1094 36.0942 66.1049 35.468 68.0435 34.6978C68.0646 34.6896 68.0857 34.6808 68.1069 34.672C68.2131 36.7479 68.4989 38.8038 68.7994 40.8591C66.784 41.5789 64.7432 42.2303 62.672 42.7711C60.4417 43.3534 58.1739 43.8151 55.8843 44.0878C53.7556 44.3412 51.6063 44.4308 49.4641 44.3366C49.3367 44.3307 49.2093 44.3248 49.082 44.3178C49.1665 42.7131 49.2792 41.1096 49.4236 39.5084C49.4828 38.8506 49.5486 38.194 49.6184 37.5373C49.639 37.5391 49.6601 37.5408 49.6806 37.542L49.68 37.5426ZM69.4374 45.5784C67.176 46.3105 64.9052 47.0134 62.6257 47.6858C60.2962 48.3729 57.9573 49.0313 55.6032 49.6276C53.8425 50.0742 52.0676 50.5078 50.2711 50.7876C49.8092 50.8595 49.3443 50.9034 48.8783 50.9245C48.9006 48.8446 48.9593 46.7653 49.0632 44.6877C51.0616 44.7971 53.0683 44.745 55.0591 44.5484C57.3504 44.3225 59.6224 43.9052 61.858 43.3592C64.1593 42.7968 66.4242 42.0945 68.6562 41.3039C68.7225 41.2805 68.7883 41.2565 68.8546 41.2325C69.0665 42.6786 69.2801 44.1247 69.438 45.5778L69.4374 45.5784ZM67.4208 20.6388C65.9523 21.3247 64.4551 21.9503 62.922 22.4787C61.2482 23.0552 59.5308 23.5117 57.7842 23.8049C56.0434 24.0969 54.2709 24.2221 52.5072 24.1326C52.3681 24.1256 52.229 24.1168 52.0899 24.1069C52.6504 22.1545 53.2555 20.2151 53.8425 18.2703C55.0885 18.3341 56.3392 18.2926 57.5799 18.1685C59.0795 18.0181 60.5662 17.7524 62.0323 17.4077C63.4937 17.0648 64.9375 16.6452 66.3649 16.1811C66.8174 17.6441 67.166 19.1324 67.4208 20.6388ZM66.2534 15.8276C65.0279 16.2273 63.7895 16.5907 62.5388 16.9032C61.095 17.2637 59.6318 17.5564 58.1539 17.7343C56.7612 17.9016 55.3543 17.9701 53.9522 17.9052C54.3061 16.7265 54.6524 15.5455 54.9758 14.3587C55.0656 14.0292 55.1536 13.6985 55.2393 13.3679C56.0704 13.4071 56.9032 13.4077 57.7343 13.3714C58.9557 13.3175 60.1735 13.1841 61.3808 12.9957C62.5593 12.8119 63.7285 12.5719 64.8876 12.2916C65.1834 12.9459 65.4575 13.6101 65.7122 14.2814C65.9065 14.7935 66.0861 15.3097 66.2534 15.8288V15.8276ZM63.0664 8.88908C63.688 9.8711 64.2385 10.8953 64.7297 11.9469C63.7467 12.1833 62.7571 12.3911 61.76 12.5597C60.5556 12.7627 59.3407 12.9096 58.1211 12.9798C57.1932 13.0337 56.2623 13.0407 55.3338 13.0003C55.6637 11.704 55.9595 10.3972 56.2013 9.08162C57.6574 9.27358 59.1335 9.29465 60.5955 9.13137C61.3902 9.043 62.1778 8.90371 62.9549 8.71644C62.9919 8.77379 63.03 8.83056 63.0664 8.8885V8.88908ZM60.0297 4.85976C61.0081 5.97638 61.9208 7.14977 62.7401 8.38637C61.2875 8.72639 59.7967 8.89435 58.3036 8.86918C57.6216 8.85748 56.942 8.80598 56.2664 8.71702C56.6473 6.55635 56.8803 4.37285 56.8809 2.17238C56.8809 1.99388 56.8792 1.81539 56.8756 1.63689C58.0008 2.63237 59.0443 3.73553 60.0291 4.85918L60.0297 4.85976ZM56.0645 2.10508C56.2095 1.9576 56.3562 1.81071 56.5024 1.6644C56.5335 4.01644 56.2999 6.35327 55.8949 8.66494C55.0503 8.53619 54.2151 8.34833 53.3952 8.10546C52.7144 7.90355 52.0453 7.66419 51.3915 7.38796C52.8553 5.54799 54.4147 3.78352 56.0639 2.10508H56.0645ZM48.6166 11.1329C49.4259 9.95771 50.2722 8.8089 51.1544 7.6876C52.5295 8.27576 53.9692 8.71059 55.4441 8.96633C55.5727 8.98857 55.7012 9.00905 55.8303 9.02895C55.5891 10.3481 55.2933 11.659 54.9611 12.9594C54.9594 12.9664 54.9576 12.974 54.9552 12.981C54.8566 12.9752 54.7586 12.9699 54.66 12.9629C53.5144 12.8839 52.3746 12.7276 51.2518 12.4859C50.2441 12.2688 49.2504 11.982 48.2855 11.6204C48.3959 11.4577 48.5056 11.295 48.6171 11.1329H48.6166ZM40.6222 26.5584C41.8793 27.7043 43.2416 28.7384 44.7329 29.5653C46.3722 30.4742 48.1629 31.1413 50.0246 31.4059C50.0351 31.4076 50.0457 31.4082 50.0563 31.41C49.7405 33.3102 49.4952 35.2233 49.2874 37.14C47.6141 37.0001 45.9502 36.759 44.3057 36.4178C42.2802 35.9982 40.2853 35.4293 38.3432 34.7171C38.2951 34.6995 38.2469 34.6814 38.1982 34.6633C38.376 33.9013 38.5668 33.1417 38.7705 32.3861C39.301 30.418 39.919 28.4727 40.6222 26.5584ZM36.995 56.0693C38.4658 56.5047 39.9613 56.8576 41.4726 57.1239C43.2457 57.4358 45.0393 57.6307 46.8382 57.7026C47.4069 57.7255 47.9762 57.7343 48.5455 57.7325C48.5761 59.2629 48.6177 60.7927 48.667 62.3225C48.4017 62.3272 48.1359 62.3307 47.87 62.3336C47.1258 62.34 46.381 62.3377 45.6368 62.3266C45.3815 62.1674 45.1256 62.0094 44.8679 61.8537C42.4475 60.3947 39.9202 59.1142 37.3137 58.0239C37.1934 57.3749 37.0872 56.723 36.995 56.0699V56.0693ZM28.3592 56.4052C28.9144 57.1244 29.435 57.8741 29.8969 58.6583C30.4803 59.648 30.9651 60.6815 31.3149 61.7729C31.687 62.9329 31.8965 64.1308 31.9429 65.3458C31.9928 66.6544 31.8695 67.9647 31.6383 69.2528C31.397 70.5976 31.0443 71.9208 30.637 73.2247C30.6241 73.2657 30.6106 73.3067 30.5977 73.3476C29.9544 72.7484 29.307 72.1544 28.6491 71.5703C28.0874 71.0717 27.5181 70.5813 26.9423 70.0973C27.0926 69.1123 27.1818 68.118 27.2035 67.122C27.2264 66.0843 27.1795 65.045 27.065 64.0132C26.9488 62.9686 26.7674 61.931 26.518 60.9091C26.2727 59.9037 25.9622 58.9141 25.5889 57.949C25.2814 57.1537 24.9327 56.3742 24.543 55.6151C25.8237 55.8346 27.0961 56.0979 28.358 56.4046L28.3592 56.4052ZM20.5115 76.7121C20.5074 76.7151 20.498 76.7227 20.4951 76.725C20.3994 76.7982 20.3026 76.8707 20.2051 76.9415C20.0097 77.0843 19.8113 77.2225 19.61 77.3565C19.1909 77.6345 18.7578 77.8908 18.3123 78.1249C17.4783 78.5632 16.6361 78.9073 15.734 79.1818C13.7473 77.6842 11.7072 76.2498 9.84137 74.6117C10.5427 74.4268 11.2365 74.212 11.9191 73.9668C12.8939 73.6169 13.8482 73.2084 14.7744 72.7449C15.6964 72.2831 16.5897 71.7652 17.449 71.1952C18.3141 70.621 19.1446 69.9931 19.9328 69.3177C20.7116 68.6506 21.4488 67.9343 22.1367 67.174C22.1795 67.1266 22.2212 67.0792 22.2634 67.0312C23.6685 68.0531 25.0384 69.1223 26.3707 70.2319C25.8342 70.9564 25.2966 71.6733 24.7502 72.3615C24.1486 73.1182 23.5241 73.858 22.8603 74.5614C22.2012 75.2596 21.5022 75.9215 20.7527 76.5225C20.7075 76.5588 20.6618 76.5951 20.616 76.6308C20.5931 76.6489 20.5702 76.6665 20.5473 76.6846C20.5362 76.6934 20.5244 76.7022 20.5133 76.711L20.5115 76.7121ZM23.959 55.5191C24.1075 55.7971 24.2507 56.0775 24.3881 56.3607C24.6117 56.823 24.8148 57.2819 25.0008 57.7407C25.3853 58.6923 25.7081 59.6684 25.9669 60.661C26.0972 61.1596 26.2116 61.6623 26.3091 62.168C26.3572 62.4167 26.4012 62.666 26.4417 62.9159C26.4822 63.1675 26.518 63.4163 26.5473 63.6439C26.6771 64.6651 26.7404 65.6946 26.7357 66.724C26.7334 67.2384 26.7134 67.7522 26.6765 68.2655C26.6583 68.5177 26.636 68.7694 26.6096 69.0204C26.5961 69.148 26.5814 69.2762 26.5655 69.4038C26.5579 69.4652 26.5503 69.5267 26.5421 69.5887C26.5421 69.5899 26.5391 69.6092 26.5385 69.6139C26.5374 69.6244 26.5356 69.6344 26.5344 69.6449C26.5297 69.6788 26.525 69.7122 26.5203 69.7461C25.2098 68.6599 23.8646 67.6135 22.4859 66.6128C22.3456 64.9531 22.0897 63.3027 21.7164 61.6793C21.3373 60.0301 20.8378 58.4084 20.2222 56.8312C19.9786 56.2074 19.7174 55.5905 19.4386 54.9813C20.4692 55.0633 21.4981 55.1715 22.5229 55.3085C23.0024 55.3728 23.4813 55.4437 23.959 55.5203V55.5191ZM18.9004 54.9398C19.529 56.2846 20.0637 57.6552 20.5162 59.0832C21.0239 60.6838 21.4154 62.3213 21.6871 63.9781C21.8115 64.7371 21.9072 65.4815 21.98 66.2488C20.3237 65.0672 18.6216 63.9518 16.875 62.9124C16.9172 62.8702 16.9601 62.8281 17.0023 62.7854C17.0604 62.7269 17.1174 62.6672 17.1743 62.6075C17.2541 62.5706 17.3204 62.4951 17.3087 62.4032C17.1643 61.2743 16.9348 60.1589 16.6126 59.0668C16.2922 57.9812 15.8831 56.9208 15.3936 55.8996C15.2152 55.5273 15.0244 55.161 14.8237 54.7999C16.1836 54.7981 17.5435 54.845 18.9004 54.9398ZM11.3157 59.6655C11.355 59.7393 11.4331 59.7937 11.5182 59.7902C11.6444 59.7843 11.7453 59.6895 11.7477 59.5613C11.7735 58.1375 11.3075 56.7669 10.5956 55.5472C10.4846 55.357 10.3673 55.1704 10.2458 54.9866C11.5951 54.8777 12.9479 54.8163 14.3013 54.8022C14.5132 55.1721 14.7134 55.5484 14.9018 55.9306C15.1447 56.4239 15.3601 56.9085 15.5573 57.4071C15.967 58.4418 16.2939 59.5087 16.5346 60.5949C16.6015 60.8974 16.6619 61.2012 16.7147 61.5061C16.7417 61.6606 16.767 61.8157 16.7905 61.9713C16.8087 62.0907 16.8233 62.1937 16.8374 62.2979C16.7159 62.4243 16.5933 62.5495 16.4677 62.6724C16.291 62.5689 16.1143 62.4647 15.9365 62.3623C14.3471 61.4499 12.7208 60.6107 11.0657 59.8323C11.1502 59.7779 11.2335 59.7223 11.3163 59.6655H11.3157ZM9.72458 55.0317C10.4347 56.0728 10.9964 57.1912 11.2077 58.4424C11.2382 58.622 11.2576 58.7795 11.2723 58.9714C11.2787 59.0522 11.2828 59.1335 11.2858 59.2143C11.2324 59.2026 11.1754 59.2085 11.1297 59.2406C10.9471 59.3676 10.7593 59.4876 10.5691 59.6023C7.95151 58.3944 5.26637 57.3316 2.5466 56.366C2.41571 56.3197 2.28425 56.2741 2.15336 56.2279C4.64717 55.659 7.17854 55.2605 9.72575 55.0311L9.72458 55.0317ZM8.15282 73.0117C6.24534 71.0418 4.81151 68.719 3.81786 66.1698C2.77432 63.4923 2.14984 60.6739 1.61516 57.8577C1.52595 57.3884 1.44026 56.919 1.35457 56.4491C4.30734 57.4727 7.22784 58.5922 10.0685 59.8873C9.96991 59.94 9.87072 59.9921 9.77094 60.0412C9.54146 60.1548 9.29378 60.266 9.08308 60.3514C8.83892 60.4503 8.59183 60.5404 8.34122 60.6218C7.83999 60.7851 7.32761 60.9126 6.80878 61.0051C6.67907 61.0285 6.54878 61.049 6.41848 61.0677C6.40205 61.0701 6.38561 61.0724 6.36977 61.0748C6.36801 61.0748 6.35627 61.0765 6.34981 61.0777C6.32399 61.0812 6.29758 61.0847 6.27175 61.0876C6.2025 61.0964 6.13265 61.104 6.06281 61.1116C5.80046 61.1397 5.53752 61.1584 5.274 61.1678C4.6818 61.19 4.08784 61.1655 3.49916 61.0947C3.37943 61.0806 3.26498 61.2099 3.26968 61.3235C3.27555 61.4598 3.37063 61.5371 3.49916 61.5523C4.57204 61.6805 5.65725 61.6512 6.72426 61.4809C7.78952 61.3112 8.82718 60.9899 9.80322 60.5322C10.0691 60.4076 10.3297 60.2718 10.5844 60.1255C11.8216 60.7008 13.0436 61.3094 14.2456 61.9602C14.873 62.2996 15.4945 62.6508 16.1114 63.0101C15.7704 63.325 15.4165 63.6258 15.0497 63.9114C15.0403 63.9184 15.0309 63.926 15.0215 63.933C15.0215 63.933 15.0121 63.9406 15.0062 63.9447C15.0004 63.9494 14.9921 63.9559 14.9927 63.9553C14.9833 63.9623 14.974 63.9699 14.9646 63.9769C14.9205 64.0103 14.8765 64.0436 14.8319 64.077C14.7498 64.1384 14.6664 64.1993 14.5831 64.2596C14.4129 64.3819 14.2403 64.5013 14.066 64.6177C13.7168 64.8501 13.3593 65.0701 12.9937 65.2767C12.6316 65.4815 12.2624 65.6735 11.8874 65.852C11.5 66.0363 11.1602 66.1832 10.7752 66.3331C9.99632 66.6368 9.19635 66.8849 8.3823 67.0745C7.97733 67.1688 7.56942 67.2489 7.15858 67.3133C7.05294 67.3303 6.94729 67.3455 6.84165 67.3601C6.83167 67.3613 6.79587 67.3666 6.78941 67.3672C6.78178 67.3683 6.74774 67.3724 6.73776 67.3736C6.68259 67.3806 6.62801 67.3876 6.57284 67.3941C6.36448 67.4187 6.15554 67.4397 5.9466 67.4567C5.84389 67.4649 5.74118 67.4725 5.63847 67.4789C5.51874 67.4865 5.40312 67.5784 5.40899 67.7078C5.41427 67.8254 5.50994 67.9448 5.63847 67.9366C6.49243 67.8828 7.34287 67.7657 8.17923 67.5878C9.00443 67.4122 9.81672 67.1764 10.6079 66.8838C11.4102 66.5871 12.1926 66.2342 12.9444 65.8268C13.6857 65.4254 14.3976 64.9701 15.0726 64.4644C15.5773 64.0864 16.0627 63.6825 16.5228 63.2518C18.3575 64.338 20.1441 65.5091 21.8778 66.7533C21.2551 67.4479 20.5925 68.1075 19.8935 68.7261C19.5137 69.062 19.124 69.3862 18.7243 69.6981C18.6991 69.7174 18.6745 69.7374 18.6492 69.7567C18.6392 69.7643 18.6293 69.7719 18.6193 69.7795C18.6146 69.783 18.6046 69.7906 18.6029 69.7924C18.5494 69.8333 18.496 69.8743 18.442 69.9147C18.3411 69.9908 18.239 70.0668 18.1368 70.1412C17.9291 70.2933 17.7184 70.442 17.5059 70.5871C16.6654 71.1624 15.7898 71.6873 14.8853 72.1573C14.4316 72.3931 13.9703 72.6161 13.5031 72.8244C13.3875 72.8759 13.2707 72.9269 13.1545 72.9772C13.1252 72.9895 13.0964 73.0024 13.0671 73.0146C13.0542 73.0199 13.0412 73.0252 13.0289 73.031C13.0254 73.0328 13.0207 73.0345 13.0142 73.0369C12.9556 73.0615 12.8969 73.0855 12.8382 73.1095C12.6034 73.2054 12.3669 73.2985 12.1292 73.3874C11.2423 73.7198 10.3367 74.0019 9.41821 74.2319C8.98506 73.8381 8.5619 73.4331 8.1534 73.0106L8.15282 73.0117ZM16.1942 79.5312C16.8803 79.3047 17.5511 79.0314 18.1996 78.7125C19.0988 78.2694 19.9498 77.7351 20.7445 77.1259C21.5233 76.529 22.2511 75.8706 22.9349 75.1677C23.6175 74.466 24.2572 73.7239 24.8717 72.9626C25.4932 72.1918 26.0896 71.4017 26.6794 70.6064C26.6964 70.583 26.714 70.5602 26.7311 70.5368C26.8044 70.5982 26.8778 70.6591 26.9506 70.7211C28.2799 71.85 29.5635 73.0287 30.8371 74.2185C30.8089 74.2548 30.7808 74.2905 30.752 74.3261C30.6786 74.4192 30.6041 74.5123 30.5296 74.6047C30.3776 74.7926 30.2238 74.9787 30.0683 75.1636C29.7589 75.53 29.442 75.8893 29.1175 76.2416C28.4707 76.9439 27.7945 77.6187 27.0908 78.2636C26.3877 78.9085 25.657 79.523 24.9016 80.1065C24.8928 80.1135 24.8664 80.1334 24.8605 80.1381C24.8377 80.1556 24.8148 80.1732 24.7925 80.1902C24.7402 80.23 24.688 80.2698 24.6358 80.309C24.5407 80.3804 24.4456 80.4518 24.3499 80.522C24.1586 80.663 23.9655 80.8023 23.7712 80.9393C23.3792 81.2155 22.9818 81.4835 22.578 81.7434C21.8426 82.2168 21.0879 82.661 20.3178 83.0754C19.0413 81.7797 17.6374 80.6332 16.1947 79.5318L16.1942 79.5312ZM23.5963 87.1059C24.3182 86.7518 25.0108 86.3392 25.6846 85.9009C26.5245 85.3548 27.3438 84.7772 28.1502 84.1838C28.966 83.5833 29.7678 82.963 30.553 82.3228C31.326 81.6925 32.0831 81.0429 32.8238 80.3751C33.5674 79.7044 34.2946 79.015 35.0042 78.3075C35.0418 78.27 35.0793 78.232 35.1169 78.1945C35.9533 78.9495 36.8013 79.6921 37.6712 80.4108C38.1706 80.824 38.6777 81.2278 39.1878 81.6269C39.149 81.6761 39.1109 81.7252 39.0721 81.7744C38.9841 81.885 38.8955 81.995 38.8057 82.1045C38.6314 82.3169 38.4541 82.527 38.2733 82.7342C37.9071 83.1544 37.5274 83.564 37.1365 83.9614C36.3535 84.7567 35.5225 85.5047 34.6497 86.2017C34.5394 86.29 34.4279 86.3772 34.3158 86.4644C34.304 86.4732 34.2923 86.4826 34.2811 86.4914C34.2782 86.4937 34.2747 86.496 34.2706 86.4995C34.2453 86.5189 34.2207 86.5376 34.1954 86.5569C34.1362 86.602 34.0763 86.647 34.0164 86.6921C33.7928 86.8595 33.5669 87.0239 33.3391 87.1849C32.8825 87.5067 32.4165 87.8152 31.9417 88.1095C30.9956 88.6959 30.0148 89.2267 29.0059 89.6978C28.753 89.8161 28.4983 89.9302 28.2418 90.0408C28.1801 90.0671 28.1191 90.0935 28.0575 90.1192C28.0528 90.121 28.0504 90.1221 28.0487 90.1233C28.0457 90.1245 28.0422 90.1262 28.0381 90.128C28.0234 90.1338 28.0094 90.1403 27.9947 90.1461C27.9583 90.1613 27.9219 90.1766 27.8855 90.1912C27.7582 90.2439 27.6308 90.2954 27.5023 90.3457C27.0316 90.5312 26.5556 90.7038 26.0755 90.863C25.2597 89.603 24.4544 88.3348 23.5975 87.1059H23.5963ZM30.7344 97.087C30.1522 96.4783 29.6087 95.8416 29.0905 95.185C29.9515 94.8268 30.7972 94.433 31.6224 93.9987C32.6477 93.4591 33.6414 92.8598 34.5969 92.2056C35.5776 91.5337 36.5185 90.8045 37.4176 90.0279C38.3414 89.2302 39.22 88.3811 40.057 87.4933C40.9415 86.554 41.7796 85.5714 42.5766 84.5577C42.6277 84.4934 42.6776 84.4278 42.728 84.3629C43.1864 84.7222 43.6419 85.0856 44.0914 85.4555C44.6308 85.8997 45.1631 86.3515 45.6902 86.8091C45.1033 87.814 44.4594 88.7849 43.7616 89.7166C43.4059 90.1912 43.0367 90.6541 42.6341 91.1293C42.2362 91.5987 41.8248 92.0563 41.4004 92.5011C40.5512 93.3912 39.6491 94.2322 38.7012 95.017C38.2135 95.4208 37.7756 95.762 37.2744 96.1289C36.7779 96.4924 36.2708 96.8418 35.7531 97.1753C34.7636 97.8132 33.7377 98.3944 32.6812 98.9146C32.0016 98.3405 31.3512 97.7307 30.735 97.087H30.7344ZM40.6327 103.501C41.2261 102.923 41.806 102.333 42.3724 101.73C43.1242 100.929 43.8514 100.106 44.5527 99.2605C45.2588 98.4102 45.9396 97.5388 46.594 96.648C47.2438 95.7632 47.8671 94.859 48.4616 93.9361C49.0544 93.0173 49.619 92.0803 50.1543 91.1276C50.1713 91.0977 50.1877 91.0679 50.2042 91.0374C51.1057 91.9428 51.9901 92.8651 52.8359 93.8208C52.6991 94.2515 52.553 94.6793 52.3969 95.103C52.3147 95.3254 52.2302 95.5472 52.1422 95.7673C52.0981 95.8779 52.0535 95.9885 52.0078 96.0985C51.9849 96.1535 51.9626 96.208 51.9391 96.2624C51.9391 96.2624 51.9361 96.27 51.9332 96.2758C51.9297 96.284 51.9227 96.301 51.9215 96.3039C51.9092 96.3326 51.8968 96.3619 51.8845 96.3905C51.5235 97.2309 51.1186 98.0532 50.6684 98.8497C50.2341 99.6193 49.7575 100.365 49.2416 101.083C49.1154 101.258 48.9875 101.432 48.8572 101.604C48.8243 101.648 48.7909 101.692 48.7574 101.735C48.7439 101.753 48.7304 101.77 48.7175 101.788C48.7175 101.788 48.6864 101.827 48.6805 101.835C48.613 101.922 48.545 102.008 48.4763 102.093C48.2016 102.436 47.9181 102.772 47.6264 103.101C47.0976 103.698 46.5412 104.27 45.9655 104.822C45.5352 104.747 45.1056 104.672 44.676 104.593C43.2991 104.34 41.9463 103.972 40.6321 103.499L40.6327 103.501ZM48.8537 105.34C48.0848 105.192 47.3136 105.057 46.5424 104.924C46.9585 104.516 47.3647 104.098 47.7561 103.667C48.3577 103.003 48.9264 102.31 49.4582 101.59C49.9841 100.878 50.4712 100.137 50.9167 99.3723C51.3786 98.5793 51.7953 97.76 52.168 96.9213C52.5571 96.0447 52.9005 95.1487 53.2004 94.2375C53.8207 94.955 54.4188 95.6918 54.9858 96.4549C55.278 96.8482 55.5627 97.2473 55.8391 97.6529C55.6549 98.8503 55.3731 100.032 54.9975 101.184C54.6072 102.38 54.1388 103.491 53.5549 104.607C53.3183 105.058 53.066 105.501 52.7995 105.935C52.6545 105.926 52.509 105.915 52.3646 105.902C51.1837 105.795 50.0169 105.566 48.8537 105.341V105.34ZM55.7693 105.774C54.9687 105.934 54.1529 105.982 53.3383 105.96C53.8407 105.12 54.2891 104.248 54.6782 103.35C55.1847 102.183 55.5979 100.977 55.9037 99.7422C56.0275 99.2412 56.1338 98.7362 56.2224 98.2282C57.2448 99.7902 58.141 101.436 58.8559 103.159C59.0249 103.566 59.1822 103.977 59.3301 104.392C58.2138 105.027 57.0335 105.521 55.7693 105.774ZM60.4905 104.982C60.4863 104.973 60.4822 104.965 60.4787 104.956C60.6642 104.713 60.8479 104.468 61.0292 104.221C61.166 105.028 61.2939 105.836 61.4113 106.646C61.4542 106.943 61.4953 107.24 61.5357 107.537C61.2194 106.673 60.8708 105.82 60.4905 104.982ZM62.6791 103.583C62.6403 104.368 62.6057 105.153 62.574 105.937C62.4284 104.956 62.2694 103.976 62.0951 103C62.081 102.922 62.0669 102.844 62.0528 102.766C62.304 102.392 62.5488 102.014 62.7853 101.631C62.7471 102.281 62.7113 102.932 62.6791 103.582V103.583ZM67.6573 91.2165C67.1531 91.172 66.6554 91.0843 66.1636 90.9696C66.163 90.6652 66.1548 90.3609 66.1378 90.056C66.0797 89.0219 65.937 87.9925 65.7574 86.9724C65.7492 86.9262 65.741 86.8794 65.7328 86.8331C66.0174 85.8599 66.3508 84.9077 66.7247 83.9731C67.1161 84.9616 67.5757 85.9231 68.1022 86.8472C68.7319 87.9533 69.4568 89.0038 70.2608 89.991C70.5249 90.3153 70.7996 90.6319 71.0819 90.9409C69.9697 91.1966 68.8323 91.3195 67.6573 91.2165ZM74.8312 89.6779C73.77 90.111 72.6983 90.5183 71.6043 90.8109C71.3149 90.5014 71.0338 90.1847 70.7627 89.8594C70.6611 89.7376 70.5613 89.6153 70.4627 89.4918C70.3612 89.3648 70.2779 89.2583 70.1922 89.146C70.0055 88.9013 69.8236 88.6526 69.6463 88.4004C68.9274 87.3751 68.2929 86.29 67.7541 85.16C67.4613 84.5461 67.2206 83.9743 66.9864 83.3393C67.5481 82.0137 68.1896 80.7239 68.8892 79.4633C69.3001 80.1814 69.7402 80.8831 70.2121 81.5625C70.7445 82.328 71.3167 83.0672 71.9283 83.7718C72.5134 84.4454 73.1356 85.0874 73.7911 85.6937C74.4467 86.3 75.1352 86.8688 75.8489 87.4061C76.3965 87.8181 76.9599 88.209 77.5351 88.5812C76.6312 88.9406 75.7327 89.311 74.8312 89.6785V89.6779ZM78.9331 88.0375C78.6473 88.1452 78.3626 88.2558 78.078 88.367C77.4928 87.9977 76.9194 87.6103 76.3612 87.2012C76.2726 87.1363 76.1846 87.0707 76.0965 87.0046C76.0555 86.9736 76.015 86.9432 75.9739 86.9121C75.9533 86.8969 75.9334 86.8811 75.9128 86.8653C75.9011 86.8565 75.8894 86.8478 75.8782 86.8384C75.8759 86.8366 75.8682 86.8308 75.8618 86.8255C75.6898 86.6927 75.519 86.5575 75.35 86.4205C75.0102 86.1443 74.6774 85.8599 74.3522 85.5667C73.6996 84.9774 73.078 84.3541 72.4923 83.6981C72.1918 83.3621 71.9013 83.0174 71.6196 82.6657C71.5485 82.5767 71.4775 82.4872 71.4077 82.3971C71.4053 82.3942 71.4036 82.3918 71.4024 82.3906C71.3953 82.3819 71.3883 82.3725 71.3813 82.3637C71.3648 82.3427 71.3484 82.3216 71.3326 82.2999C71.295 82.2514 71.258 82.2022 71.221 82.1536C71.0813 81.9687 70.944 81.7814 70.8096 81.593C70.2526 80.8117 69.7385 80.0006 69.2637 79.1672C69.2285 79.1057 69.1944 79.0437 69.1598 78.9822C69.7925 77.8715 70.4674 76.783 71.1706 75.7108C71.8244 76.4693 72.4976 77.2102 73.1925 77.9312C73.9525 78.7195 74.7361 79.485 75.5425 80.2259C76.3519 80.9697 77.1841 81.6895 78.0369 82.383C78.8955 83.0812 79.7753 83.7542 80.6745 84.4003C81.4527 84.9598 82.2468 85.497 83.0533 86.0144C82.8156 86.1589 82.5761 86.3006 82.3331 86.4375C81.2415 87.0543 80.1058 87.5951 78.9325 88.0381L78.9331 88.0375ZM86.7931 83.2439C85.9121 82.8296 85.0447 82.3883 84.1925 81.9184C83.1607 81.3501 82.1512 80.7415 81.1663 80.0954C80.6704 79.77 80.1809 79.4346 79.6984 79.0905C79.4607 78.9208 79.2242 78.7487 78.9894 78.5743C78.8685 78.4848 78.7482 78.3947 78.6285 78.3034C78.5135 78.2162 78.4019 78.1307 78.3086 78.0582C77.3778 77.3372 76.4745 76.5805 75.6018 75.7898C74.7296 74.9992 73.888 74.1752 73.0804 73.319C73.0258 73.2616 72.9724 73.2031 72.9178 73.1451C73.4179 72.4382 73.9302 71.74 74.4532 71.05C75.2203 71.9021 76.0349 72.7115 76.8936 73.4729C77.8256 74.2998 78.8081 75.0712 79.8311 75.7834C80.8453 76.4892 81.9006 77.1353 82.991 77.717C84.095 78.3063 85.2348 78.8295 86.401 79.2848C87.4428 79.6921 88.5075 80.0421 89.588 80.333C88.734 81.3741 87.7991 82.3467 86.7931 83.2427V83.2439ZM89.9119 79.9303C88.9148 79.6687 87.9305 79.3574 86.9645 78.9969C86.6763 78.8892 86.3893 78.7774 86.104 78.661C85.8229 78.5462 85.5758 78.4409 85.2871 78.3133C84.7242 78.0634 84.169 77.7972 83.622 77.5151C82.5274 76.9503 81.4668 76.3218 80.4462 75.633C79.4238 74.943 78.4835 74.2255 77.5521 73.422C76.6207 72.6184 75.7368 71.7599 74.9086 70.8505C74.854 70.7902 74.8 70.7293 74.7455 70.669C75.4128 69.8 76.0965 68.9432 76.7985 68.101C76.9159 67.96 77.0344 67.819 77.153 67.6785C78.085 68.4744 79.0458 69.2376 80.0394 69.9551C81.0319 70.6714 82.0573 71.3426 83.1166 71.956C84.1385 72.5476 85.192 73.0849 86.2737 73.5589C87.343 74.0277 88.4376 74.4379 89.5533 74.7809C90.584 75.0975 91.6316 75.3579 92.6904 75.5639C92.6822 75.5809 92.674 75.5979 92.6652 75.6148C91.891 77.1458 90.9666 78.5913 89.9114 79.9309L89.9119 79.9303ZM94.7716 70.727C94.4189 70.6848 94.0773 70.6363 93.7099 70.5766C93.1558 70.4864 92.6047 70.3799 92.0565 70.257C90.9696 70.0124 89.8967 69.7028 88.8461 69.3318C87.785 68.9572 86.7978 68.5406 85.7883 68.0425C84.7894 67.5498 83.8198 66.9979 82.8866 66.3904C81.9493 65.7806 81.0795 65.1363 80.2337 64.4246C80.1797 64.379 80.1257 64.3327 80.0723 64.2865C80.7021 63.5485 81.3236 62.8029 81.9234 62.0392C82.4194 61.4072 82.9036 60.7658 83.3802 60.1191C84.1567 60.6335 84.9443 61.1309 85.7437 61.6091C86.5982 62.12 87.4657 62.6098 88.3449 63.078C89.2282 63.5479 90.1232 63.9962 91.0289 64.4217C91.9433 64.8513 92.8682 65.2597 93.8038 65.6407C94.6677 65.993 95.5475 66.3149 96.4514 66.5514C96.2829 66.9359 96.1186 67.3227 95.9589 67.713C95.5499 68.712 95.1637 69.721 94.7716 70.7276V70.727ZM98.8695 61.9503C98.1347 61.7296 97.4069 61.4844 96.6885 61.214C96.4643 61.1298 96.2413 61.0432 96.0194 60.9536C95.9061 60.9086 95.7934 60.8623 95.6813 60.8161C95.6309 60.795 95.5804 60.7739 95.5299 60.7529C95.5264 60.7511 95.524 60.7505 95.5223 60.7494C95.5205 60.7488 95.5193 60.7482 95.517 60.747C95.5053 60.7423 95.4935 60.7371 95.4824 60.7324C95.4513 60.7195 95.4207 60.7061 95.3896 60.6932C94.9495 60.5053 94.5134 60.3081 94.0814 60.1015C93.2175 59.6889 92.3711 59.2395 91.5453 58.7555C90.7196 58.2715 89.9143 57.7524 89.1331 57.2005C88.3455 56.644 87.6294 56.0909 86.8911 55.4671C86.8518 55.4337 86.8125 55.4003 86.7737 55.3664C87.819 53.8934 88.8772 52.4303 89.9971 51.0117C90.0158 50.9877 90.0352 50.9637 90.0546 50.9397C90.7143 51.5314 91.3769 52.1195 92.056 52.689C92.809 53.321 93.5814 53.9314 94.3854 54.4973C95.1742 55.0527 95.9948 55.5654 96.8528 56.0072C97.7514 56.4696 98.6916 56.8552 99.6624 57.1391C100.489 57.3808 101.337 57.5499 102.194 57.6506C101.407 58.5507 100.641 59.4648 99.9283 60.417C99.5538 60.9167 99.2028 61.4282 98.87 61.9491L98.8695 61.9503ZM109.58 48.2523C109.044 49.2537 108.432 50.1994 107.768 51.1094C107.454 51.096 107.14 51.0767 106.826 51.0515C106.567 51.0304 106.309 51.0053 106.052 50.976C105.791 50.9467 105.579 50.9192 105.343 50.8853C104.329 50.739 103.324 50.5312 102.335 50.2638C101.35 49.9975 100.381 49.6721 99.4347 49.2894C99.1946 49.1922 99.0086 49.1138 98.7638 49.0055C98.5308 48.9025 98.299 48.796 98.0689 48.686C97.6052 48.4642 97.1486 48.2283 96.6996 47.9779C95.8093 47.4816 94.95 46.9309 94.1295 46.3269C94.1037 46.3076 94.0779 46.2883 94.0521 46.269C95.696 44.4934 97.4251 42.7956 99.2363 41.1956C99.9101 41.6579 100.616 42.0717 101.349 42.434C102.139 42.8243 102.958 43.1573 103.796 43.4294C104.627 43.6992 105.478 43.9093 106.339 44.0568C107.213 44.2066 108.098 44.2968 108.984 44.3207C109.707 44.3401 110.432 44.3155 111.152 44.2464C110.779 45.6235 110.27 46.9654 109.581 48.2529L109.58 48.2523Z" fill="black"/>
</svg>
