<svg width="76" height="92" viewBox="0 0 76 92" fill="none" xmlns="http://www.w3.org/2000/svg">
<path d="M59.8536 49.7582C59.8536 49.2319 59.4267 48.8054 58.9 48.8054H39.6935L39.6919 50.7103H58.9C59.4267 50.7103 59.8536 50.2837 59.8536 49.7574V49.7582Z" fill="black"/>
<path d="M4.59518 48.0082C5.32234 47.9109 6.14283 47.76 7.02663 47.5321C4.96282 46.1608 3.59939 43.8163 3.59939 41.1596C3.59939 36.9426 7.03231 33.5122 11.2524 33.5122H37.9959H58.901C59.4277 33.5122 59.8545 33.0857 59.8545 32.5593C59.8545 32.033 59.4277 31.6065 58.901 31.6065H16.2663C12.0461 31.6065 8.61323 28.1761 8.61323 23.9591C8.61323 19.7421 12.0461 16.3117 16.2663 16.3117H29.2838C32.013 16.3117 34.2335 14.0929 34.2335 11.3656V0.952881C34.2335 0.426566 33.8066 0 33.2799 0C32.7532 0 32.3263 0.426566 32.3263 0.952881V11.3665C32.3263 13.0427 30.9613 14.4068 29.2838 14.4068H16.2663C10.9952 14.4068 6.70687 18.6919 6.70687 23.9591C6.70687 27.0983 8.23018 29.888 10.5764 31.63C5.61856 31.9771 1.69141 36.1178 1.69141 41.158C1.69141 43.8414 2.80487 46.2703 4.59437 48.0074L4.59518 48.0082Z" fill="black"/>
<path d="M75.8733 49.7582C75.8733 44.7173 71.9461 40.5773 66.9883 40.2302C69.3345 38.4883 70.8578 35.6978 70.8578 32.5593C70.8578 27.2921 66.5695 23.007 61.2984 23.007H43.7686C46.1587 21.2367 47.7112 18.3975 47.7112 15.2031V3.89182C47.7112 3.3655 47.2843 2.93893 46.7576 2.93893C46.2309 2.93893 45.804 3.3655 45.804 3.89182V15.2023C45.804 19.5053 42.3005 23.0062 37.9943 23.0062H18.6645C18.1378 23.0062 17.7109 23.4328 17.7109 23.9591C17.7109 24.4854 18.1378 24.912 18.6645 24.912H61.2984C65.5185 24.912 68.9514 28.3423 68.9514 32.5593C68.9514 36.7763 65.5185 40.2067 61.2984 40.2067H18.6645C18.1378 40.2067 17.7109 40.6333 17.7109 41.1596C17.7109 41.6859 18.1378 42.1125 18.6645 42.1125H66.3139C70.534 42.1125 73.9669 45.5429 73.9669 49.7599C73.9669 53.9769 70.534 57.4072 66.3139 57.4072H39.6873L39.6856 59.3122H61.2992C65.4406 59.3122 68.8232 62.6161 68.9482 66.7244C68.9287 66.7998 68.9174 66.8785 68.9174 66.9596C68.9174 71.1758 65.4844 74.6069 61.2643 74.6069H48.2468C45.5175 74.6069 43.2971 76.8257 43.2971 79.553V89.9666C43.2971 90.4929 43.724 90.9194 44.2507 90.9194C44.7774 90.9194 45.2043 90.4929 45.2043 89.9666V79.553C45.2043 77.8767 46.5693 76.5127 48.2468 76.5127H61.2643C66.447 76.5127 70.6785 72.3703 70.8197 67.2256C70.844 67.1412 70.8578 67.052 70.8578 66.9604C70.8578 63.8211 69.3345 61.0314 66.9883 59.2895C71.9461 58.9424 75.8733 54.8016 75.8733 49.7615V49.7582Z" fill="black"/>
<path d="M59.8534 66.9579C59.8534 66.4316 59.4265 66.0051 58.8998 66.0051H39.6649C39.6471 66.4341 39.6057 67.0869 39.5107 67.91H58.8998C59.4265 67.91 59.8534 67.4835 59.8534 66.9571V66.9579Z" fill="black"/>
<path d="M19.3323 43.899L18.6643 43.2316L17.9964 43.899C12.7553 49.1362 6.64265 50.2805 3.46457 50.4962H3.44996H0L0.0137966 65.4503C0.0137966 65.5623 0.0243469 68.2352 0.938168 71.8059C1.47542 73.9038 2.21557 75.881 3.13832 77.6821C4.29885 79.9471 5.75236 81.9388 7.45989 83.6013C14.6041 90.5618 17.9096 91.479 18.2626 91.5609L18.4647 91.6079L18.6676 91.5658C18.7747 91.5439 19.7689 91.3168 21.6387 90.2123C24.0767 88.772 26.8457 86.5475 29.8696 83.6013C31.5763 81.938 33.0306 79.9471 34.1912 77.6821C35.1139 75.881 35.8541 73.9038 36.3913 71.8059C37.3051 68.2352 37.3157 65.5639 37.3157 65.452L37.3295 50.497H33.8649C30.6877 50.2805 24.5741 49.137 19.3331 43.8998L19.3323 43.899ZM35.4256 65.4495C35.4256 65.4763 35.4053 68.0681 34.5434 71.402C34.0386 73.354 33.348 75.1892 32.4901 76.8573C31.4262 78.9245 30.1009 80.7386 28.55 82.2494C25.0294 85.6798 22.4349 87.5231 20.8775 88.4663C19.7121 89.1726 18.9305 89.4954 18.5678 89.6251L18.4915 89.6527L18.416 89.6227C18.0833 89.4905 17.361 89.1629 16.2605 88.4574C14.7843 87.5118 12.2871 85.6676 8.7795 82.2494C7.2286 80.7386 5.90331 78.9245 4.83935 76.8573C3.98153 75.19 3.29008 73.3548 2.7861 71.402C1.92422 68.0681 1.90393 65.4763 1.90393 65.4503L1.89257 52.3849L3.55221 52.3833C6.77088 52.1708 12.9956 51.0598 18.5199 46.0124L18.6652 45.8802L18.8104 46.0124C24.3347 51.0606 30.5594 52.1708 33.7781 52.3833L33.8089 52.3849H35.4377L35.4264 65.4495H35.4256Z" fill="black"/>
<path d="M30.3152 60.3713C29.1036 59.3341 27.2735 59.4752 26.2355 60.6859L17.9324 70.3696L14.1513 66.9904C12.9624 65.928 11.129 66.0302 10.0659 67.2182C9.00275 68.4071 9.10419 70.2383 10.2939 71.3006L16.1064 76.4948C16.6834 77.0106 17.413 77.2888 18.1799 77.2888C18.2505 77.2888 18.3211 77.2863 18.3917 77.2815C19.2358 77.2255 20.0035 76.8411 20.5537 76.1997L30.6301 64.448C31.1333 63.8617 31.3776 63.1148 31.3175 62.3444C31.2583 61.5739 30.902 60.8733 30.3152 60.3713ZM29.2155 63.2372L19.1392 74.9889C18.9176 75.2476 18.6084 75.4025 18.2684 75.4244C17.9283 75.4463 17.6021 75.3344 17.3481 75.1073L11.5356 69.9131C11.112 69.5344 11.0755 68.8823 11.4545 68.459C11.8335 68.0357 12.486 67.9992 12.9096 68.3779L17.4 72.3906C17.5867 72.5576 17.8342 72.642 18.0825 72.6257C18.3325 72.6087 18.5654 72.4927 18.7277 72.303L27.65 61.8975C28.0193 61.4661 28.6718 61.4158 29.1036 61.7856C29.3129 61.9648 29.4395 62.2146 29.4606 62.4887C29.4817 62.7628 29.3949 63.0288 29.2155 63.238V63.2372Z" fill="black"/>
</svg>
