<svg width="72" height="122" viewBox="0 0 72 122" fill="none" xmlns="http://www.w3.org/2000/svg">
<path fill-rule="evenodd" clip-rule="evenodd" d="M20.3458 6.81775H54.2457L40.2753 36.5124L60.8328 43.3535L19.6869 112.181L29.7281 62.3347L6.49609 55.7702L18.5767 6.81775H20.3458Z" fill="black"/>
<path fill-rule="evenodd" clip-rule="evenodd" d="M47.1332 11.3405H22.1155L11.9297 52.6146L34.9766 59.1266L29.3004 87.3037L54.0805 45.8527L34.0348 39.1818L47.1332 11.3405Z" fill="#FDCAB9"/>
<path fill-rule="evenodd" clip-rule="evenodd" d="M8.55548 35.7132L10.9287 21.4594L7.94336 23.546L12.72 9.31394L10.6304 10.4319L15.5562 0L28.3935 0.447176L24.1392 2.01188L38.8421 4.01499H16.378L8.55548 35.7132Z" fill="black"/>
<path fill-rule="evenodd" clip-rule="evenodd" d="M47.0518 4.01499L54.3659 3.05514L49.9624 0.894348L66.8297 1.71403L53.8432 19.2991L63.546 16.6164L53.4701 29.358L53.2461 23.9185L46.1895 30.5356L58.6666 4.01499H47.0518Z" fill="black"/>
<path fill-rule="evenodd" clip-rule="evenodd" d="M52.3666 37.5816L60.7094 38.896L59.4408 36.5116L71.3075 42.6961L59.5156 66.0181L61.3069 54.8412L55.1865 63.932L57.7244 64.3792L41.8691 80.5451L65.033 41.7972L52.3666 37.5816Z" fill="black"/>
<path fill-rule="evenodd" clip-rule="evenodd" d="M6.51978 43.9605L3.24025 50.6686L0.62842 48.2842L0.254883 60.4297L11.5249 61.5476L7.86768 64.3792L21.0777 67.2108L13.2418 88.8934L19.0633 85.4657L16.0776 97.0898L13.0922 93.6621L14.9035 121.713L26.4639 64.325L3.12159 57.7295L6.51978 43.9605Z" fill="black"/>
</svg>
