<svg width="109" height="102" viewBox="0 0 109 102" fill="none" xmlns="http://www.w3.org/2000/svg">
<path d="M108.678 52.5902C108.857 52.5902 109 52.4473 109 52.2687C109 52.09 108.857 51.9471 108.678 51.9471H103.353C103.149 38.9215 97.3631 26.8426 87.5003 18.5328C89.3312 16.3071 91.1622 14.0778 92.9931 11.8485C93.197 11.602 93.2542 11.3627 92.9645 11.159C90.6329 9.5228 88.3049 7.88656 85.9733 6.25032C85.5263 5.93593 84.6108 6.2396 84.3569 6.6826C83.0159 8.99406 81.6713 11.3055 80.3302 13.617C73.997 10.1873 66.8806 8.47246 59.7106 8.39029V1.03436C59.7106 0.855733 59.5675 0.71283 59.3887 0.71283C59.2099 0.71283 59.0669 0.855733 59.0669 1.03436V8.376C54.8078 8.38315 50.5415 8.9619 46.4147 10.1123C38.2184 12.3951 30.9446 17.0895 25.348 23.3344C24.125 22.3876 22.8841 21.4588 21.7863 20.3548C21.3822 19.9476 19.6263 20.6299 20.034 21.0444C21.3321 22.3519 22.8341 23.413 24.2716 24.5526C23.1023 25.9531 22.0223 27.4321 21.0281 28.9683C20.9888 28.9397 20.9495 28.9147 20.9137 28.8897C19.4046 27.8287 17.8025 26.8998 16.2898 25.8423C15.7928 25.4958 14.1192 26.2424 14.5411 26.5354C15.8679 27.4643 17.259 28.3002 18.6036 29.2005C18.8682 29.3792 19.5655 29.7757 20.2235 30.2402C19.3331 31.7121 18.5213 33.234 17.7989 34.8059C15.31 40.2327 14.087 46.0845 14.0333 51.9471H8.69782C8.51902 51.9471 8.37598 52.09 8.37598 52.2687C8.37598 52.4473 8.51902 52.5902 8.69782 52.5902H14.0333C14.0762 60.6714 16.3292 68.7418 20.5704 75.7119C28.8061 89.2519 43.7684 96.6222 59.0633 96.4578V100.916C59.0633 101.095 59.2064 101.238 59.3852 101.238C59.564 101.238 59.707 101.095 59.707 100.916V96.4471C63.4762 96.3542 67.2597 95.8076 70.9645 94.7787C89.8569 89.5199 102.978 72.0214 103.349 52.5902H108.678ZM101.468 51.9435H84.171C83.9206 44.4554 80.5412 37.8712 75.2808 33.3947C79.0178 28.8504 82.7548 24.3061 86.4883 19.7618C95.7825 27.7858 101.139 39.6539 101.472 51.9435H101.468ZM82.2756 51.9435H63.326C63.183 50.8682 62.7395 50.0215 62.1137 49.407C66.1547 44.4947 70.1921 39.5789 74.233 34.6666C78.9678 39.0394 81.9895 45.295 82.2756 51.9471V51.9435ZM91.0656 11.8343C91.0656 11.8343 91.0978 11.8521 91.1157 11.8628C91.0799 11.9093 91.0406 11.9521 91.0048 11.9986C90.9333 11.995 90.8582 11.9843 90.7867 11.9772C90.8153 11.9521 90.8439 11.9236 90.8725 11.8986C90.9226 11.8628 90.9476 11.8128 90.9548 11.7557C90.9905 11.7807 91.0263 11.8057 91.0656 11.8307V11.8343ZM84.997 12.6881C84.5572 13.1097 84.1316 13.5634 83.7204 14.0421C83.5487 13.9707 83.1232 14.0171 82.7262 14.1243C83.1554 13.4455 84.5 11.4484 85.3761 10.148C85.1866 10.9983 85.0543 11.8343 84.997 12.6845V12.6881ZM70.5676 34.9631C70.0955 35.5812 69.6414 36.2064 69.2051 36.8458C68.9118 37.2031 68.6186 37.5568 68.3218 37.914C68.2324 37.914 68.1322 37.9283 68.025 37.9462C68.0858 37.8426 68.1465 37.739 68.2073 37.6318C68.9476 36.7101 69.7594 35.8277 70.5711 34.9631H70.5676ZM87.7006 15.1746C87.7006 15.1746 87.6719 15.1996 87.6612 15.2139C87.6612 15.2032 87.6612 15.1889 87.6612 15.1782C87.8043 14.9388 87.9509 14.6923 88.1047 14.4387C88.4122 14.1421 88.7197 13.8492 89.0344 13.5598C88.8592 13.9492 88.3693 14.4565 87.7041 15.1746H87.7006ZM64.574 43.8802C64.6813 43.8552 64.7815 43.8231 64.8709 43.7874C64.5919 44.1268 64.313 44.4661 64.0341 44.8055C64.2129 44.4983 64.3917 44.1875 64.5705 43.8802H64.574ZM59.7928 53.2761C59.7356 53.1225 59.7142 52.9689 59.7142 52.8188C59.7392 52.8188 59.7642 52.8081 59.7857 52.801C59.8357 52.9153 59.893 53.026 59.9466 53.1368C59.9001 53.1868 59.8465 53.2297 59.7928 53.2761ZM57.8904 51.5077C57.9476 51.6542 58.0012 51.8006 58.0549 51.9507H57.6829C57.5971 51.6042 57.5328 51.2576 57.4934 50.9039C57.6365 51.1004 57.7688 51.3005 57.8939 51.5077H57.8904ZM57.4577 53.6762C57.59 54.0335 57.7259 54.3836 57.8725 54.7302C57.522 54.5694 57.4398 54.1264 57.4577 53.6762ZM56.6888 51.9471C56.6673 51.8757 56.6495 51.8042 56.628 51.7328C56.6673 51.8042 56.7067 51.8757 56.7424 51.9471H56.6924H56.6888ZM58.5662 54.7695C58.5662 54.7516 58.5662 54.7337 58.5627 54.7159C58.3767 54.1157 58.1586 53.5191 57.9619 52.9189C58.0048 52.9367 58.0549 52.951 58.1085 52.9617C58.2015 52.9867 58.3052 53.001 58.416 53.0046C58.5805 53.4869 58.7486 53.9656 58.9596 54.4301C58.9846 54.4872 59.0204 54.5229 59.0597 54.548V54.5908C58.9024 54.673 58.7379 54.7337 58.5627 54.773L58.5662 54.7695ZM61.2769 51.5577C61.3198 51.6863 61.3627 51.8149 61.3913 51.9471H61.2268C61.2519 51.8185 61.2697 51.6863 61.2769 51.5577ZM58.4232 49.4463C58.4268 49.5892 58.4375 49.7285 58.4482 49.8679C58.3517 49.7357 58.2551 49.5999 58.1586 49.4642C58.2444 49.4499 58.3338 49.4499 58.4232 49.4427V49.4463ZM56.8068 50.1608C56.8068 50.2609 56.8068 50.3573 56.8068 50.4574C56.7961 50.5538 56.7854 50.6503 56.7782 50.7467C56.7067 50.6396 56.6352 50.5324 56.5529 50.4324C56.6316 50.3359 56.7138 50.2466 56.8032 50.1608H56.8068ZM56.7567 54.3872C56.7818 54.4515 56.8068 54.5122 56.8283 54.5765C56.7782 54.5194 56.721 54.4694 56.6745 54.4086C56.7031 54.4051 56.7317 54.3979 56.7567 54.3872ZM59.0633 55.2875V55.4447C58.9131 55.459 58.7665 55.4768 58.6056 55.4697C58.5734 55.4697 58.5484 55.459 58.5197 55.4554C58.6878 55.4304 58.8702 55.3696 59.0669 55.2911L59.0633 55.2875ZM59.7106 54.9409C60.1326 54.6551 60.4902 54.2907 60.7548 53.8799C60.88 53.8334 60.9729 53.7227 60.9622 53.5655C61.0015 53.5155 61.023 53.4512 61.0159 53.3833C61.1196 53.1296 61.1839 52.8653 61.2125 52.5938H61.4664C61.377 53.8084 60.7691 54.8945 59.7106 55.2982V54.9445V54.9409ZM83.4844 21.1515C83.4021 21.1515 83.3055 21.1587 83.2018 21.173C83.9421 20.4084 84.6609 19.6225 85.3546 18.8151C85.3654 18.8222 85.3761 18.8329 85.3868 18.8401C84.7539 19.6117 84.1209 20.3799 83.4879 21.1515H83.4844ZM65.4538 39.2288C64.9388 39.9504 64.4882 40.7007 64.1342 41.5009C62.8146 43.7731 61.495 46.0452 60.1755 48.3138C60.0217 48.2709 59.8679 48.2388 59.7106 48.2102V28.5432C63.4297 28.6897 66.8949 29.7507 69.9417 31.5013C68.4469 34.0771 66.9486 36.6529 65.4538 39.2288ZM59.0669 48.1388C56.839 48.0352 54.5002 49.3356 54.0711 51.9435H35.0821C35.0786 38.9287 46.1859 28.3931 59.0669 28.5253V48.1388ZM54.0103 52.5902C53.9316 55.0052 56.2704 56.9952 58.6127 56.8701C58.7665 56.863 58.9167 56.8487 59.0669 56.8273V76.3585C58.7593 76.3657 58.4518 76.3728 58.1407 76.3657C45.3383 76.137 35.4397 64.9942 35.0893 52.5938H54.0103V52.5902ZM59.7142 56.6986C61.656 56.2021 63.1508 54.6873 63.3582 52.5902H82.3078C82.0539 65.2978 72.3914 75.744 59.7177 76.3371V56.6986H59.7142ZM79.5757 14.921C76.604 20.0369 73.6323 25.1564 70.6605 30.2723C67.3813 28.5503 63.6729 27.5143 59.7142 27.3428V9.25843C66.6267 9.54066 73.4821 11.4949 79.5757 14.921ZM15.9251 50.3931C16.1325 43.5837 18.0743 37.028 21.3428 31.2155C21.5109 31.4298 21.6146 31.6335 21.5932 31.8157C21.5216 32.4623 23.3955 32.0943 23.4563 31.5441C23.5278 30.8975 22.8877 30.2723 22.2011 29.7614C23.1345 28.2395 24.1608 26.7748 25.2694 25.3779C25.4661 25.5458 25.6592 25.7137 25.8487 25.8888C26.2778 26.2817 28.0122 25.5815 27.601 25.1993C27.1861 24.817 26.757 24.4597 26.3207 24.106C29.8897 19.9404 34.2382 16.4143 39.141 13.8135C45.3526 10.5195 52.2223 9.06194 59.0562 9.23699V27.3178C59.0562 27.3178 59.0383 27.3178 59.0276 27.3178C45.7031 27.0784 34.4277 37.664 33.2476 50.7539C33.2118 51.154 33.1868 51.5506 33.1725 51.9471H15.9C15.9 51.4291 15.9 50.9146 15.9179 50.3966L15.9251 50.3931ZM34.4206 87.8622C22.8341 79.8775 16.1754 66.4804 15.9179 52.5902H33.1689C33.008 65.6301 43.6933 76.3514 56.5493 77.5089C57.3933 77.5839 58.2301 77.6161 59.0633 77.6053V95.6469C50.3806 95.5826 41.7015 92.8781 34.4206 87.8622ZM79.7187 90.2701C73.5357 93.8606 66.6303 95.6004 59.7106 95.6504V77.5803C71.6833 77.0945 81.9931 67.7915 83.9349 55.8948C84.1137 54.8016 84.1602 53.6941 84.1853 52.5902H101.49C101.49 52.6259 101.49 52.6616 101.49 52.6938C101.333 68.1809 93.1541 82.4641 79.7223 90.2666L79.7187 90.2701Z" fill="black"/>
<path d="M2.12875 57.5846C2.12875 57.1023 0.251312 57.431 0.254888 58.0848C0.326409 70.5817 4.00262 81.7424 11.9522 91.4419C12.3134 91.8814 14.1086 91.2419 13.7009 90.7453C5.7835 81.085 2.20027 70.0029 2.12875 57.5846Z" fill="black"/>
<path d="M18.3358 44.9949C17.6921 46.5418 17.4347 48.4245 17.356 50.0858C17.3345 50.5038 17.9818 50.5002 18.0033 50.0858C18.0819 48.4853 18.343 46.6597 18.9617 45.1664C19.1226 44.7805 18.4968 44.6162 18.3394 44.9949H18.3358Z" fill="black"/>
<path d="M19.1327 46.6955C19.0862 47.7637 18.7608 48.8569 18.8109 49.9251C18.8288 50.3395 19.476 50.3431 19.4582 49.9251C19.4081 48.8569 19.7371 47.7672 19.78 46.6955C19.7979 46.2775 19.1506 46.281 19.1327 46.6955Z" fill="black"/>
<path d="M20.9211 46.9419C21.2715 48.0709 20.8961 49.257 20.9104 50.4073C20.9139 50.8253 21.5612 50.8253 21.5576 50.4073C21.5469 49.1891 21.9152 47.9637 21.5469 46.7704C21.4253 46.3739 20.7995 46.5418 20.9247 46.9419H20.9211Z" fill="black"/>
<path d="M60.3437 10.6875C61.91 10.7696 63.3476 11.5342 64.7065 12.2594C65.0749 12.4559 65.4003 11.8986 65.0319 11.7021C63.5693 10.9233 62.028 10.1301 60.3437 10.0444C59.9253 10.023 59.9289 10.6696 60.3437 10.691V10.6875Z" fill="black"/>
<path d="M63.984 12.4773C62.8325 12.1772 61.8991 11.3376 60.6654 11.3341C60.247 11.3341 60.247 11.9771 60.6654 11.9807C61.8097 11.9807 62.7323 12.8203 63.8123 13.0989C64.2164 13.2025 64.3881 12.5809 63.984 12.4773Z" fill="black"/>
<path d="M61.1557 12.831C60.7838 12.6453 60.4583 13.2026 60.8302 13.3884C61.5419 13.7456 62.1713 14.2029 62.7041 14.7924C62.983 15.1032 63.4408 14.6423 63.1619 14.3351C62.5933 13.7099 61.9138 13.2097 61.1557 12.831Z" fill="black"/>
<path d="M56.9504 94.1642C55.2267 94.2321 53.7426 93.5283 52.187 92.8853C51.8008 92.7245 51.6363 93.3497 52.0154 93.5069C53.6282 94.175 55.1659 94.8823 56.9504 94.8109C57.3652 94.793 57.3688 94.15 56.9504 94.1642Z" fill="black"/>
<path d="M55.6557 92.9889C56.0277 93.1782 56.3531 92.6209 55.9812 92.4316C55.2695 92.0707 54.5257 91.7778 53.8784 91.3026C53.5423 91.0525 53.2204 91.6134 53.553 91.8599C54.1967 92.3387 54.9441 92.628 55.6557 92.9889Z" fill="black"/>
<path d="M56.3777 91.2454C56.7675 91.3919 56.9356 90.7667 56.5494 90.6238C56.4707 90.5952 56.2776 90.4702 56.2061 90.3844C55.945 90.0593 55.4908 90.5202 55.7483 90.8417C55.8878 91.0132 56.1703 91.1704 56.3741 91.249L56.3777 91.2454Z" fill="black"/>
<path d="M95.9262 20.4942C98.4438 21.9232 100.064 24.5169 101.791 26.7498C102.045 27.0784 102.499 26.6176 102.249 26.2925C100.479 24.0096 98.8264 21.3945 96.2517 19.9333C95.8869 19.7261 95.5615 20.287 95.9262 20.4906V20.4942Z" fill="black"/>
<path d="M98.9757 20.8729C101.075 22.0768 102.427 24.3061 103.793 26.2282C104.032 26.564 104.594 26.2425 104.351 25.9031C102.924 23.8881 101.5 21.5767 99.3011 20.3156C98.9399 20.1083 98.6145 20.6657 98.9757 20.8729Z" fill="black"/>
</svg>
