<svg width="80" height="101" viewBox="0 0 80 101" fill="none" xmlns="http://www.w3.org/2000/svg">
<path d="M12.5315 95.3202C12.2209 92.9318 11.8978 90.5452 11.6987 88.1399C11.6032 86.9376 11.5381 85.7274 11.6005 84.5126C11.6273 83.9053 11.6996 83.2988 11.7987 82.6977C11.8969 82.0956 12.046 81.5035 12.2102 80.9184C12.544 79.7484 12.9671 78.6158 13.3884 77.4868C13.8115 76.3578 14.2382 75.2333 14.6541 74.1052C15.4852 71.8481 16.2823 69.5803 17.0383 67.2973L17.3212 66.4407C17.4176 66.1514 17.5042 65.8807 17.5801 65.5976C17.7274 65.0331 17.8327 64.4552 17.9032 63.8702C18.0451 62.7001 18.063 61.5095 18.0175 60.3206C17.9211 57.9403 17.5765 55.5644 17.165 53.2028C16.7491 50.8403 16.2465 48.4895 15.7387 46.1368C15.4852 44.9596 15.2299 43.7824 14.9853 42.6007L14.6283 40.8286L14.2632 39.0619C13.7714 36.7065 13.2813 34.3253 13.0475 31.8985C12.9278 30.6864 12.8752 29.4663 12.8841 28.2471C12.893 27.0279 12.9716 25.8105 13.1001 24.6002C13.2295 23.39 13.4134 22.1877 13.6401 20.9944L13.8178 20.1013L14.0097 19.2116C14.1436 18.6105 14.3132 18.0121 14.5104 17.4297C14.9059 16.2623 15.4066 15.1387 15.9797 14.0571C16.5509 12.9745 17.1936 11.9339 17.8916 10.9327C19.2876 8.93105 20.8943 7.07679 22.726 5.44851C22.9536 5.24665 23.1928 5.04211 23.4374 4.85186C23.6819 4.66072 23.931 4.47672 24.1854 4.30166C24.6933 3.95064 25.2163 3.6273 25.751 3.3254C26.8194 2.7225 27.9316 2.20535 29.0697 1.76054C31.3476 0.876282 33.7425 0.271594 36.1918 0.0679468C37.4156 -0.0320903 38.6527 -0.0267312 39.88 0.117965C41.1065 0.262662 42.3231 0.554734 43.4799 1.01741L43.2452 0.995076C44.0199 0.8477 44.8188 0.806613 45.6052 0.883427C46.3916 0.957562 47.1592 1.14781 47.8912 1.40237C49.3577 1.91595 50.685 2.66444 52.0159 3.33344L52.5157 3.58175L52.6407 3.64249L52.7728 3.71037C52.8603 3.75681 52.9504 3.79879 53.0352 3.84881C53.3816 4.03906 53.7056 4.25789 54.0216 4.48476C54.6482 4.94475 55.2257 5.45744 55.7657 6.0005C56.3075 6.54267 56.8136 7.11609 57.293 7.71006C57.7723 8.30314 58.2248 8.91676 58.6497 9.54824C59.0755 10.1797 59.4754 10.8282 59.8431 11.4963C60.2127 12.1635 60.551 12.8495 60.8464 13.5596C60.9919 13.915 61.1249 14.2812 61.2409 14.6403C61.2999 14.8207 61.3623 15.0003 61.4195 15.1816L61.5837 15.7273L61.6658 16.0006L61.7399 16.2757L61.8881 16.8259C61.9345 17.0099 61.9765 17.1957 62.0211 17.3797C62.0648 17.5646 62.1103 17.7486 62.1469 17.9353C62.7923 20.906 62.9744 23.9607 62.8307 26.9797C62.6843 30.0022 62.2398 32.9909 61.7221 35.9527C61.4641 37.4345 61.1829 38.9109 60.9125 40.3873C60.6322 41.8611 60.4135 43.3402 60.2644 44.831C60.1154 46.3208 60.0333 47.8178 60.0511 49.313C60.0609 50.0606 60.0975 50.8082 60.1725 51.5513C60.21 51.9229 60.2591 52.2927 60.3189 52.6615C60.3492 52.8455 60.3823 53.0295 60.418 53.2135C60.4528 53.3975 60.4867 53.5815 60.526 53.7646C60.8223 55.2321 61.2177 56.6827 61.7774 58.0734C62.3353 59.4641 63.0681 60.7851 63.9536 61.998C63.0404 60.8056 62.2737 59.498 61.6801 58.1136C61.0821 56.73 60.6581 55.2759 60.3314 53.8057C60.2885 53.6226 60.251 53.4377 60.2127 53.2537C60.1734 53.0697 60.1359 52.8848 60.1029 52.6982C60.0368 52.3257 59.9806 51.9523 59.9369 51.5772C59.8494 50.8269 59.8003 50.0731 59.7789 49.3183C59.7378 47.8097 59.8039 46.3011 59.9333 44.7997C60.0627 43.2982 60.268 41.8004 60.5242 40.3186L61.2624 35.8741C61.739 32.9131 62.1389 29.9388 62.2433 26.9538C62.3442 23.9723 62.1434 20.9793 61.4811 18.0809C61.4436 17.8987 61.3971 17.7191 61.3525 17.5387C61.307 17.3583 61.2642 17.1779 61.2168 16.9983L61.0669 16.4615L60.9919 16.1936L60.9089 15.9274L60.7438 15.3959C60.6866 15.2191 60.6242 15.0449 60.5644 14.869C60.4456 14.5144 60.3198 14.175 60.1787 13.8364C59.8922 13.1612 59.562 12.4993 59.1987 11.8553C58.8381 11.2105 58.4435 10.5826 58.0267 9.96983C57.6107 9.3571 57.1689 8.76224 56.7021 8.1897C56.2352 7.61628 55.7443 7.06429 55.2221 6.54624C54.7017 6.0273 54.1501 5.5423 53.5645 5.11625C53.27 4.90724 52.9692 4.70627 52.6568 4.53567C52.58 4.49012 52.4997 4.4535 52.4211 4.41241L52.3024 4.35168L52.1739 4.29005L51.6642 4.03995C50.3119 3.36649 49.0051 2.64301 47.6296 2.17051C46.9432 1.93471 46.2416 1.76679 45.532 1.70337C44.8233 1.63817 44.1092 1.67836 43.4094 1.81413L43.2898 1.83735L43.1746 1.7918C42.0928 1.36486 40.9485 1.09601 39.7854 0.962921C38.6224 0.827157 37.4414 0.823584 36.2668 0.921835C33.9165 1.12102 31.5967 1.70963 29.3919 2.56977C28.2905 3.00296 27.2149 3.50493 26.1875 4.0864C25.6742 4.37758 25.1735 4.68841 24.6924 5.02246C24.4514 5.18949 24.2157 5.36277 23.9872 5.54319C23.7578 5.72272 23.54 5.9094 23.3169 6.10768C21.5513 7.68148 19.9883 9.49555 18.6253 11.4373C17.9452 12.41 17.3195 13.4211 16.7651 14.467C16.2091 15.5121 15.7253 16.5937 15.3468 17.7075C15.1576 18.2649 14.9969 18.8267 14.8684 19.4001L14.6773 20.2754L14.5015 21.1534C14.2775 22.3262 14.0954 23.5052 13.9659 24.6896C13.8383 25.8739 13.7598 27.0619 13.749 28.2507C13.7383 29.4395 13.7883 30.6284 13.9017 31.8136C14.1186 34.185 14.589 36.5341 15.0701 38.893L15.4271 40.666L15.7761 42.4363C16.0145 43.6135 16.2653 44.7908 16.5143 45.9689C17.0133 48.3251 17.5087 50.6867 17.9193 53.0697C18.1237 54.2612 18.3076 55.4572 18.4513 56.6612C18.5941 57.8644 18.7021 59.0746 18.7414 60.292C18.7798 61.5086 18.7557 62.734 18.5995 63.9541C18.5218 64.5642 18.4075 65.1724 18.2469 65.7726C18.1648 66.071 18.0666 66.3729 17.9684 66.6533L17.6738 67.5081C17.2802 68.6478 16.8732 69.7831 16.4608 70.9165C16.043 72.0473 15.6155 73.1754 15.1763 74.2981C14.738 75.4209 14.29 76.54 13.8463 77.6574C13.4054 78.7766 12.9653 79.8939 12.6092 81.0319C12.4351 81.6017 12.2754 82.176 12.1656 82.7602C12.0549 83.3443 11.9701 83.9338 11.9299 84.5287C11.888 85.1236 11.8692 85.722 11.8772 86.3204L11.8817 86.7697L11.8951 87.2199C11.9013 87.52 11.9192 87.8201 11.9335 88.1193C11.996 89.3198 12.0977 90.5184 12.2022 91.718C12.3057 92.9175 12.4217 94.1162 12.536 95.3148L12.5315 95.3202Z" fill="black"/>
<path d="M24.3022 24.2778C24.9458 23.2721 25.7849 22.3923 26.7292 21.651C27.6727 20.9051 28.7135 20.2906 29.7864 19.7547C30.3238 19.4868 30.87 19.2376 31.4217 19.0027C31.9733 18.7704 32.5294 18.5498 33.0855 18.3328C34.1977 17.8996 35.3098 17.478 36.3961 17.0126C36.9388 16.7804 37.4753 16.5357 38.0002 16.2722C38.2608 16.1373 38.5214 16.0033 38.7758 15.8586L38.9677 15.7514L39.1561 15.6398L39.3444 15.5273L39.4381 15.471L39.522 15.4165C39.9639 15.1244 40.329 14.6993 40.6298 14.2268C40.9306 13.7525 41.1725 13.2309 41.3796 12.6923C41.7902 11.6115 42.0606 10.4647 42.2739 9.30888C42.4864 8.15042 42.6337 6.97766 42.772 5.79419L43.603 5.87368C43.5807 6.30509 43.6343 6.74543 43.7575 7.17774C43.8744 7.61093 44.052 8.03698 44.2618 8.44964C44.6849 9.27673 45.2347 10.0565 45.8247 10.8077C47.0083 12.3127 48.366 13.7025 49.662 15.1655C50.3118 15.8961 50.9554 16.6402 51.5526 17.4351C51.8516 17.8326 52.1363 18.2443 52.3979 18.6784C52.5273 18.8964 52.6514 19.1197 52.7656 19.3492C52.879 19.5779 52.9834 19.8235 53.07 20.0611C53.7662 21.9261 54.1375 23.8902 54.375 25.8329C54.4982 26.8038 54.5874 27.7755 54.7374 28.7116C54.815 29.177 54.9132 29.6369 55.0801 30.0424C55.1632 30.2452 55.2667 30.4292 55.3926 30.5846C55.5184 30.7391 55.6693 30.8606 55.8451 30.9473C56.1977 31.1205 56.6476 31.1446 57.0983 31.1L57.1894 31.0911C57.2277 31.0875 57.2661 31.0839 57.3063 31.0839C57.3857 31.0821 57.4696 31.0875 57.5553 31.1053C57.7267 31.1357 57.9061 31.2304 58.0329 31.3617C58.1596 31.493 58.2364 31.6457 58.2855 31.7886C58.3355 31.9333 58.3596 32.0736 58.3747 32.2102C58.4033 32.4835 58.3926 32.7435 58.3703 32.998C58.3462 33.2526 58.3096 33.5009 58.2632 33.7465C58.1721 34.2369 58.0507 34.7156 57.9186 35.1899C57.7856 35.6633 57.6401 36.1313 57.4875 36.5958L57.3715 36.9441C57.3304 37.0638 57.2974 37.1629 57.2617 37.2844C57.1903 37.5193 57.1144 37.7551 57.0278 37.9883C56.852 38.4527 56.6556 38.9172 56.3459 39.3388C56.2673 39.4433 56.1798 39.5451 56.0772 39.6371C55.9736 39.7282 55.8531 39.8121 55.7094 39.8631C55.5666 39.9166 55.3997 39.9229 55.2524 39.8854C55.1051 39.847 54.9775 39.7746 54.8704 39.6907C54.8159 39.6487 54.7659 39.604 54.7195 39.5576L54.7017 39.5397L54.6927 39.5308C54.6927 39.5308 54.6972 39.5344 54.7008 39.537C54.7088 39.5424 54.724 39.5513 54.7427 39.5549C54.7624 39.5585 54.7811 39.5567 54.7936 39.5522C54.8177 39.5442 54.8177 39.5379 54.8168 39.5406C54.815 39.5424 54.8088 39.5478 54.8034 39.5549C54.7784 39.5862 54.7499 39.6362 54.7249 39.6862C54.699 39.7371 54.6749 39.7898 54.6508 39.8443C54.5553 40.0613 54.4669 40.2882 54.3786 40.5142C54.2018 40.967 54.0233 41.4226 53.8296 41.8709C53.6368 42.3193 53.427 42.7614 53.1914 43.1902C52.9566 43.618 52.6969 44.0333 52.3988 44.4183C52.945 43.6109 53.3262 42.7114 53.6671 41.8057C53.8367 41.3511 53.9894 40.8911 54.1429 40.4293C54.2206 40.198 54.2955 39.9667 54.3857 39.7344C54.4089 39.6764 54.4321 39.6183 54.4589 39.5585C54.4866 39.4986 54.5142 39.4406 54.5615 39.3736C54.574 39.3566 54.5874 39.3387 54.6079 39.32C54.6285 39.3012 54.6544 39.2771 54.707 39.2593C54.7338 39.2512 54.7686 39.2476 54.8025 39.2539C54.8356 39.2602 54.865 39.2753 54.8847 39.2905C54.8945 39.2977 54.9034 39.3066 54.9096 39.312L54.9177 39.3191L54.9329 39.3334C54.9739 39.3709 55.0159 39.4057 55.0596 39.4361C55.1462 39.4986 55.2381 39.5424 55.3274 39.5612C55.4166 39.5781 55.5032 39.5719 55.588 39.5361C55.7585 39.4683 55.912 39.3012 56.0379 39.1172C56.2896 38.7421 56.4628 38.2928 56.6101 37.8436C56.6833 37.6176 56.7502 37.388 56.8127 37.1549C56.8421 37.0415 56.8805 36.9084 56.9162 36.7976L57.0224 36.4502C57.1617 35.9866 57.2938 35.5222 57.4116 35.055C57.5294 34.5888 57.6339 34.1199 57.7089 33.6518C57.7463 33.4178 57.7749 33.1838 57.7901 32.9534C57.8053 32.7229 57.8062 32.4943 57.7776 32.2835C57.7517 32.0745 57.6839 31.8824 57.5937 31.7985C57.5491 31.7574 57.5045 31.7324 57.4357 31.7208C57.4027 31.7145 57.3643 31.7118 57.3224 31.7145C57.3018 31.7145 57.2795 31.7172 57.2581 31.7199L57.1679 31.7306C56.9109 31.7618 56.6467 31.7761 56.3753 31.7547C56.1049 31.735 55.8246 31.6725 55.5595 31.5528C55.4283 31.4903 55.3006 31.4171 55.1837 31.3269C55.0685 31.2366 54.9605 31.1375 54.8677 31.0276C54.6811 30.8097 54.541 30.5668 54.4339 30.322C54.2188 29.8308 54.1045 29.3333 54.009 28.8429C53.9144 28.3525 53.8492 27.8649 53.785 27.3808C53.7207 26.8966 53.6609 26.4152 53.5931 25.9365C53.4601 24.9799 53.3003 24.0322 53.0825 23.1006C52.8656 22.169 52.5933 21.2535 52.2613 20.3612C51.948 19.5091 51.4231 18.7204 50.8528 17.9612C50.2779 17.2029 49.6451 16.4767 48.9988 15.7568L48.0196 14.6805L47.0396 13.5953C46.388 12.8665 45.7426 12.126 45.1347 11.3462C44.5278 10.5656 43.952 9.74655 43.4923 8.83817C43.2638 8.38443 43.0657 7.90569 42.9309 7.39925C42.7943 6.8946 42.7318 6.356 42.7684 5.81563L43.5995 5.89512C43.4486 7.07859 43.2879 8.271 43.0577 9.45537C42.8265 10.6397 42.5364 11.8214 42.0883 12.9665C41.8633 13.5381 41.5938 14.0999 41.2466 14.6269C40.8993 15.1512 40.4673 15.6487 39.9059 16.0069L39.8005 16.0721L39.7015 16.1284L39.5033 16.2409L39.3051 16.3526L39.1034 16.4589C38.8365 16.6027 38.5634 16.734 38.292 16.867C37.7458 17.1252 37.1906 17.361 36.6336 17.5852C35.5169 18.03 34.3842 18.4096 33.2622 18.8061C32.7017 19.0044 32.142 19.2045 31.5886 19.4162C31.0343 19.6252 30.4853 19.8476 29.9462 20.0888C28.8679 20.5729 27.8209 21.1329 26.8542 21.8153C25.892 22.5004 25.0074 23.3123 24.3031 24.276L24.3022 24.2778Z" fill="black"/>
<path d="M51.8865 66.7096C53.204 66.6266 54.5 66.3756 55.7639 66.0254C57.0288 65.6735 58.2641 65.2278 59.4861 64.7428C60.7108 64.2641 61.9238 63.7487 63.1511 63.2557C63.4609 63.1324 63.7608 63.0118 64.0821 62.8939C64.4017 62.7796 64.7239 62.6805 65.0488 62.5911C65.6986 62.4134 66.3583 62.2767 67.0242 62.1794C68.3559 61.9873 69.7189 61.9427 71.0685 62.1303C72.4146 62.3151 73.7526 62.7314 74.9407 63.445C75.5342 63.8005 76.0868 64.2266 76.5813 64.7116C77.0749 65.1984 77.5078 65.7441 77.8791 66.3238C78.6227 67.4876 79.1118 68.7845 79.4296 70.102C79.7455 71.4221 79.8991 72.7681 79.941 74.1097C79.9821 75.4522 79.9232 76.7901 79.7982 78.1183C79.7357 78.7829 79.6563 79.4447 79.5635 80.1039C79.4688 80.7657 79.3662 81.4115 79.2618 82.0644C79.0547 83.3676 78.8529 84.6716 78.6343 85.9766C78.4138 87.2806 78.1737 88.5847 77.8755 89.8807C77.5828 91.1776 77.2088 92.4567 76.7785 93.7125C76.3519 94.9701 75.8484 96.1964 75.3209 97.4085C75.0594 98.0159 74.7782 98.6143 74.5033 99.2145C74.2248 99.813 73.9311 100.405 73.6455 101C74.1221 99.7683 74.6068 98.5411 75.0558 97.3013C75.1683 96.9914 75.2888 96.685 75.3941 96.3733L75.7181 95.4408C75.8225 95.1291 75.9198 94.8156 76.0216 94.503C76.1278 94.1921 76.2162 93.8759 76.3117 93.5624C76.6866 92.3048 76.9874 91.0302 77.2436 89.7458C77.5006 88.4614 77.6899 87.1601 77.8809 85.8578C78.0737 84.5555 78.2513 83.2479 78.4343 81.9412L78.7119 79.9851C78.8003 79.3375 78.8753 78.6882 78.9333 78.0388C79.0502 76.7392 79.1011 75.4361 79.0547 74.1401C79.0038 72.8458 78.869 71.5552 78.5736 70.3065C78.279 69.0605 77.8256 67.8529 77.1516 66.7864C76.4786 65.7218 75.5833 64.8071 74.5131 64.1489C73.4447 63.4861 72.2191 63.0824 70.9588 62.8921C69.6957 62.7037 68.397 62.7081 67.1161 62.8653C66.4752 62.9448 65.8379 63.061 65.2122 63.2173C64.8998 63.2959 64.5891 63.3843 64.2856 63.4852C64.1357 63.5352 63.9813 63.5915 63.8259 63.6469L63.3618 63.8121C62.1238 64.2569 60.8902 64.7268 59.6405 65.1626C58.3882 65.5905 57.1207 65.987 55.8246 66.272C55.1766 66.4122 54.5223 66.5256 53.8654 66.6051C53.2075 66.6784 52.5461 66.715 51.8865 66.7105V66.7096Z" fill="black"/>
<path d="M63.8445 80.479C63.9498 81.7956 63.9195 83.1219 63.7695 84.4403C63.6178 85.7577 63.3277 87.0663 62.9197 88.331C62.5127 89.5976 61.987 90.8123 61.438 91.9993C60.8855 93.1864 60.325 94.3583 59.7617 95.5542C59.9688 94.2475 60.3607 92.9774 60.7864 91.7376C61.2158 90.497 61.6737 89.2832 62.07 88.0568C62.4663 86.8305 62.8037 85.5889 63.0795 84.3233C63.3607 83.0585 63.5812 81.7759 63.8445 80.479Z" fill="black"/>
<path d="M44.801 92.303C43.7852 90.2746 42.9934 88.1149 42.5587 85.8613C42.3499 84.7341 42.2329 83.5837 42.2428 82.427C42.2553 81.2712 42.4034 80.1101 42.7007 78.9829C42.8506 78.4202 43.0372 77.8637 43.2621 77.3269C43.487 76.7901 43.7414 76.2694 44.0137 75.7612C44.5573 74.7438 45.1651 73.7756 45.7534 72.8119C46.3443 71.8508 46.9138 70.8808 47.4547 69.8929C47.9956 68.9051 48.5008 67.8984 48.9962 66.8873C49.4871 65.8745 49.9531 64.8491 50.3887 63.8094C50.6038 63.2887 50.8171 62.768 51.0197 62.2419C51.1251 61.9811 51.2241 61.7176 51.3241 61.4541C51.425 61.1915 51.5241 60.9271 51.6187 60.6618C51.8133 60.1331 51.9954 59.5998 52.1757 59.0657L52.4381 58.2618C52.5229 57.9939 52.605 57.7268 52.6809 57.4597C52.8326 56.9256 52.9638 56.3906 53.0343 55.8538C53.0718 55.5849 53.0906 55.3161 53.0924 55.049C53.0959 54.9151 53.087 54.782 53.0817 54.6489C53.0692 54.5167 53.0593 54.3836 53.0361 54.2532C52.9612 53.7298 52.7773 53.2135 52.5738 52.6955C52.3685 52.1774 52.1301 51.6585 51.9293 51.1137C51.7294 50.5706 51.5633 49.9927 51.5357 49.3916C51.5196 49.0942 51.5455 48.7833 51.5999 48.4975C51.6517 48.2099 51.7204 47.9312 51.7918 47.6543C51.9347 47.1015 52.0962 46.5584 52.2301 46.0118C52.2953 45.7393 52.3595 45.4651 52.3943 45.1936C52.4113 45.0578 52.422 44.9212 52.4104 44.7952C52.4051 44.7327 52.3926 44.672 52.372 44.6237C52.3506 44.5746 52.3229 44.5469 52.2855 44.5309C52.2042 44.4987 52.0677 44.5344 51.9489 44.588C51.9177 44.6014 51.8891 44.6166 51.857 44.6318L51.7615 44.6782C51.7008 44.7095 51.6401 44.7416 51.583 44.7792C51.3491 44.9239 51.1393 45.1096 50.951 45.3151C50.5743 45.7295 50.2958 46.2306 50.0745 46.7513C50.2575 46.2154 50.5083 45.6947 50.868 45.2436C51.0483 45.0194 51.2545 44.8122 51.4955 44.6461C51.5553 44.6032 51.6178 44.5648 51.6812 44.5282L51.774 44.4764C51.8052 44.4594 51.8383 44.4398 51.8713 44.4237C51.9382 44.3897 52.0096 44.3594 52.0882 44.3388C52.1658 44.3192 52.2569 44.3085 52.3533 44.3379C52.4497 44.3683 52.5291 44.4505 52.5657 44.53C52.6059 44.6104 52.6237 44.6907 52.6354 44.7684C52.6568 44.9239 52.6514 45.0721 52.6416 45.2186C52.6184 45.5107 52.5702 45.7947 52.514 46.0752C52.4015 46.6361 52.2631 47.1872 52.1462 47.7383C52.0882 48.0134 52.0328 48.2885 51.9954 48.5609C51.9775 48.6967 51.9623 48.8324 51.9596 48.9629C51.9579 49.095 51.9632 49.229 51.9775 49.3621C52.0275 49.8953 52.1989 50.4161 52.4131 50.9261C52.6273 51.437 52.8844 51.9399 53.1209 52.4659C53.2396 52.7285 53.3521 52.9983 53.4476 53.2778C53.5449 53.5565 53.627 53.8468 53.6797 54.1451C53.71 54.2934 53.7261 54.4435 53.7449 54.5926C53.7565 54.7427 53.7698 54.8927 53.7716 55.0419C53.7788 55.3411 53.7672 55.6403 53.7359 55.9342C53.677 56.5237 53.5574 57.0989 53.4119 57.6589C53.3378 57.9385 53.2593 58.2154 53.1781 58.4896L52.9281 59.3086C52.7559 59.8526 52.5818 60.3965 52.3952 60.936C52.3051 61.2067 52.2096 61.4755 52.1123 61.7444C52.0159 62.0132 51.9213 62.2821 51.8186 62.5491C51.6169 63.0833 51.4044 63.6129 51.1893 64.1426C50.7546 65.1983 50.2887 66.2416 49.7969 67.2723C48.8114 69.3329 47.6921 71.3301 46.4817 73.2638C45.873 74.2249 45.2544 75.1672 44.7099 76.1408C44.1645 77.1143 43.7013 78.1192 43.3853 79.1758C43.0693 80.2334 42.897 81.3347 42.8426 82.4458C42.7846 83.5569 42.8471 84.6788 43.0033 85.789C43.1514 86.9019 43.3996 88.0032 43.7057 89.0902C43.8584 89.6342 44.0289 90.1736 44.2136 90.7087C44.3948 91.2455 44.5948 91.7751 44.8019 92.3039L44.801 92.303Z" fill="black"/>
<path d="M34.4715 91.5812C34.1431 89.819 33.8905 88.0487 33.6557 86.2775C33.5361 85.3923 33.4442 84.5054 33.3656 83.6077C33.2924 82.711 33.2433 81.8062 33.2576 80.8951C33.2728 79.985 33.3567 79.0641 33.5325 78.1647C33.7075 77.2643 33.9565 76.3792 34.2787 75.5235C34.9268 73.8121 35.8203 72.2107 36.8459 70.7199C37.3582 69.9732 37.8991 69.2489 38.4651 68.5468C39.0319 67.8457 39.6201 67.1642 40.219 66.4952C40.818 65.8262 41.4276 65.1688 42.0426 64.5194L42.5041 64.0326L42.7353 63.7897C42.8147 63.7075 42.8808 63.6334 42.954 63.5548C43.236 63.2413 43.4851 62.9054 43.693 62.5508C43.8983 62.1962 44.0554 61.8193 44.1518 61.4272C44.2447 61.0342 44.2822 60.6278 44.2598 60.2187C44.2161 59.3997 43.934 58.5744 43.6707 57.7124C43.5386 57.281 43.4154 56.8335 43.3315 56.37C43.2485 55.8912 43.2387 55.4053 43.3039 54.923C43.369 54.4425 43.5118 53.961 43.7725 53.5243C43.9046 53.3081 44.0653 53.1027 44.2607 52.9294C44.4535 52.7535 44.6812 52.6141 44.9222 52.5132L45.0676 52.4525L45.2042 52.5239C45.3158 52.582 45.4229 52.6641 45.5086 52.7624C45.5952 52.8606 45.6586 52.9723 45.7023 53.0821C45.7907 53.3046 45.8112 53.5162 45.8192 53.7127C45.8255 53.9101 45.8139 54.0968 45.8005 54.2763C45.7871 54.4559 45.7719 54.6283 45.7701 54.7846C45.7648 55.4286 45.9683 56.0725 46.2718 56.6817C46.5744 57.2935 46.9644 57.8777 47.3429 58.4788C47.533 58.7789 47.7205 59.0844 47.8945 59.4015C48.0668 59.7194 48.2355 60.0722 48.2748 60.476C48.2962 60.676 48.2721 60.885 48.2203 61.0735C48.1677 61.2629 48.09 61.437 48.0052 61.6005C47.9204 61.7639 47.8276 61.9176 47.7401 62.0694C47.6553 62.2221 47.5643 62.3722 47.4839 62.5276C47.4009 62.6821 47.3188 62.8367 47.2411 62.9939C47.1608 63.1493 47.0867 63.3083 47.0126 63.4672C46.9368 63.6253 46.8689 63.787 46.7957 63.9469C46.7288 64.1086 46.6583 64.2702 46.5949 64.4337C46.0799 65.7404 45.7157 67.1123 45.5184 68.5129C45.5746 67.8081 45.6737 67.1052 45.8148 66.4085C45.9576 65.7127 46.1486 65.0268 46.3762 64.3524C46.6029 63.6771 46.8787 63.018 47.192 62.3767C47.2679 62.215 47.3536 62.0587 47.4339 61.8988C47.517 61.7407 47.6009 61.588 47.6723 61.4344C47.8187 61.128 47.9079 60.8198 47.8624 60.5206C47.8222 60.2169 47.6696 59.9195 47.4982 59.6248C47.3224 59.3273 47.1305 59.0361 46.9332 58.745C46.5396 58.1626 46.1218 57.5811 45.7755 56.9354C45.6032 56.612 45.4488 56.2735 45.3363 55.9127C45.2221 55.5536 45.1542 55.1713 45.148 54.7855C45.1462 54.5881 45.1587 54.4076 45.1676 54.2344C45.1765 54.0611 45.1819 53.8941 45.173 53.7378C45.1649 53.5823 45.1399 53.4376 45.0935 53.3314C45.0462 53.2233 44.9882 53.1643 44.8989 53.1188L45.181 53.1286C44.8409 53.2769 44.566 53.543 44.3759 53.878C44.1858 54.2138 44.0742 54.6077 44.0295 55.0114C43.984 55.4161 44.0046 55.8314 44.0778 56.2315C44.1581 56.6451 44.2777 57.0586 44.4125 57.4793C44.5464 57.8991 44.6919 58.3261 44.815 58.7718C44.94 59.2157 45.0364 59.6828 45.0721 60.166C45.1051 60.6475 45.0685 61.1396 44.9623 61.6166C44.8525 62.0935 44.6678 62.5508 44.4321 62.9715C44.1929 63.3904 43.9064 63.7745 43.594 64.1255C43.5154 64.2104 43.4333 64.3024 43.3583 64.381L43.1289 64.6239L42.671 65.1107C42.0622 65.7601 41.4606 66.4139 40.8724 67.0775C39.6968 68.4048 38.5731 69.7732 37.5698 71.2183C36.5674 72.6626 35.7024 74.1989 35.0785 75.8254C34.7715 76.64 34.5171 77.4733 34.3421 78.3236C34.1636 79.174 34.0725 80.0377 34.0458 80.9112C34.0199 81.7847 34.0556 82.6654 34.1145 83.5497C34.1422 83.9918 34.1761 84.4348 34.2118 84.8787L34.2386 85.2119L34.2582 85.546L34.2966 86.215C34.3912 87.9995 34.468 89.785 34.468 91.5786L34.4715 91.5812Z" fill="black"/>
<path d="M47.9232 59.9554C48.0812 59.5972 48.2062 59.2283 48.2865 58.8496C48.3722 58.4727 48.4222 58.0886 48.4481 57.7036C48.4981 56.9337 48.4668 56.1602 48.4008 55.3876C48.3401 54.6141 48.2535 53.8397 48.1776 53.0591C48.1018 52.2784 48.0509 51.4888 48.0518 50.6903C48.0545 49.8927 48.1178 49.0808 48.3124 48.2823C48.3597 48.0822 48.4169 47.8848 48.482 47.6883C48.499 47.6383 48.5133 47.5928 48.5329 47.5392C48.5525 47.4856 48.574 47.432 48.5963 47.3802C48.6427 47.2757 48.6936 47.1739 48.7534 47.0747C48.8739 46.8764 49.0185 46.6808 49.2434 46.5129C49.3559 46.4307 49.4942 46.3557 49.6594 46.3182C49.8227 46.2798 50.0102 46.2887 50.1673 46.3396C50.3288 46.3878 50.4752 46.4861 50.5823 46.5897C50.6903 46.6951 50.7689 46.8076 50.8314 46.9166C50.8626 46.9711 50.8903 47.0265 50.9153 47.0801C50.9385 47.1328 50.9608 47.1846 50.9822 47.2373C51.0233 47.3427 51.0599 47.4498 51.0893 47.5579C51.2107 47.992 51.2366 48.4332 51.2205 48.8513C51.1857 49.6891 51.0063 50.4581 50.9554 51.1923C50.8983 51.914 50.9938 52.6509 51.1313 53.4092C51.2625 54.1666 51.4339 54.9464 51.4928 55.7654C51.5231 56.1745 51.5204 56.5934 51.4812 57.0034C51.4446 57.4134 51.3723 57.8171 51.2785 58.2119C51.1848 58.6058 51.0715 58.9925 50.9438 59.3703C50.8153 59.7481 50.6743 60.1188 50.5288 60.485C50.3833 60.8512 50.2342 61.213 50.086 61.5738C49.9379 61.9347 49.7915 62.2973 49.6388 62.6564L48.7311 64.817C48.1143 66.2532 47.5002 67.6904 46.8477 69.1123C47.7911 66.1309 48.8257 63.1762 49.8754 60.2412C50.0021 59.875 50.1226 59.5097 50.2297 59.1435C50.3386 58.7773 50.435 58.4102 50.51 58.0422C50.66 57.3044 50.7225 56.5684 50.6484 55.8342C50.5796 55.0946 50.4109 54.3453 50.2637 53.5673C50.1914 53.1779 50.1253 52.7804 50.086 52.3722C50.0459 51.9658 50.0352 51.5424 50.0655 51.1271C50.1307 50.3027 50.3083 49.5399 50.3413 48.8155C50.3601 48.4547 50.3404 48.1063 50.2547 47.7857C50.2342 47.7053 50.2083 47.6276 50.1797 47.5508L50.1333 47.4373C50.1182 47.4025 50.1012 47.3695 50.0851 47.34C50.0521 47.2792 50.0164 47.2319 49.9861 47.1989C49.953 47.1667 49.9334 47.1533 49.9075 47.1444C49.8789 47.1345 49.8647 47.1337 49.8379 47.1372C49.812 47.1417 49.7727 47.1569 49.7272 47.1881C49.6353 47.2516 49.5335 47.3677 49.4496 47.5016C49.4068 47.5686 49.3684 47.6401 49.3345 47.7142C49.3175 47.7508 49.3005 47.7884 49.2863 47.8259L49.2389 47.9527C49.1765 48.1251 49.1193 48.3011 49.0711 48.4797C48.8757 49.1951 48.781 49.9472 48.7436 50.71C48.7052 51.4728 48.7311 52.2454 48.756 53.0233C48.7819 53.8013 48.8248 54.5837 48.8337 55.3706C48.8364 56.1575 48.8159 56.9516 48.69 57.734C48.6257 58.1252 48.5383 58.512 48.4142 58.8871C48.2883 59.2614 48.1259 59.6231 47.9224 59.9572L47.9232 59.9554Z" fill="black"/>
<path d="M22.4261 39.4102C21.9245 38.0928 21.4755 36.7512 21.1381 35.3766C20.9748 34.6879 20.8337 33.993 20.7329 33.2901C20.6329 32.5872 20.5811 31.8753 20.5775 31.1616C20.5624 29.7325 20.8194 28.3052 21.1756 26.9377C21.3488 26.2518 21.5273 25.5747 21.6612 24.8932C21.7924 24.2126 21.8763 23.5276 21.8941 22.8398L21.9004 22.5995L22.1467 22.5674C22.5529 22.5138 22.9706 22.6147 23.3134 22.8085C23.6597 23.0015 23.9418 23.2766 24.1622 23.5874C24.3827 23.8973 24.5461 24.2564 24.6309 24.6271C24.721 24.9915 24.7487 25.3613 24.7505 25.7221C24.7505 26.4465 24.63 27.1334 24.5702 27.8006C24.4988 28.4705 24.472 29.1439 24.4657 29.8165C24.4398 32.5121 24.9085 35.1997 25.6681 37.7953C26.417 40.3981 27.4497 42.9196 28.6038 45.3848C28.893 46.0011 29.1894 46.6147 29.4884 47.2274L30.4015 49.0683C30.7041 49.6899 30.9951 50.3268 31.2397 50.9913C31.4816 51.6558 31.678 52.3498 31.769 53.0724C31.861 53.7923 31.8395 54.5453 31.6699 55.2634C31.5021 55.9798 31.2192 56.6345 30.9425 57.2642C30.6649 57.893 30.3846 58.5021 30.198 59.1229C30.0088 59.7383 29.9267 60.3814 29.9267 61.0343C29.9267 61.6881 30.007 62.3473 30.1275 63.0047C30.2471 63.663 30.4096 64.3194 30.581 64.9795C30.6666 65.3064 30.7568 65.6458 30.8345 65.9835C30.9139 66.3211 30.9862 66.6587 31.054 66.9972C31.1906 67.6734 31.3129 68.3504 31.4254 69.0283C31.6503 70.3833 31.8413 71.7418 32.0297 73.0986L32.3073 75.1342L32.5759 77.1706L32.8535 79.2044C32.949 79.8824 33.0428 80.5594 33.1463 81.2355C33.357 82.5869 33.5676 83.9401 33.8898 85.2718C33.4971 83.9589 33.2088 82.6155 32.9428 81.2713C32.675 79.927 32.4403 78.5765 32.21 77.226L31.8672 75.2003L31.5316 73.1745C31.3058 71.8249 31.071 70.4771 30.8166 69.1364C30.6907 68.4656 30.5551 67.7975 30.4069 67.1348C30.3328 66.8034 30.2552 66.4729 30.1713 66.146C30.0891 65.8182 29.9963 65.4976 29.9017 65.1644C29.7142 64.5025 29.5339 63.8327 29.3947 63.1458C29.2563 62.4598 29.1626 61.7551 29.1528 61.0388C29.143 60.3242 29.226 59.5918 29.4304 58.8951C29.6303 58.2002 29.9186 57.5589 30.1855 56.9328C30.4515 56.3084 30.7032 55.6939 30.8398 55.0723C30.9817 54.456 30.9987 53.8173 30.9157 53.1814C30.8327 52.5446 30.6542 51.9131 30.4248 51.2923C30.1936 50.6715 29.9133 50.0624 29.6143 49.455L28.6949 47.6204C28.3887 47.005 28.0897 46.386 27.8023 45.7599C26.6464 43.2625 25.6056 40.6955 24.8504 38.0294C24.1069 35.3641 23.6561 32.5916 23.7195 29.804C23.74 29.1082 23.7829 28.4133 23.8704 27.722C23.9489 27.028 24.0766 26.3616 24.089 25.7141C24.0944 25.3916 24.0757 25.0728 24.0069 24.7709C23.9453 24.4726 23.8248 24.1939 23.6543 23.9429C23.4848 23.6928 23.2679 23.4758 23.0197 23.3275C22.7716 23.1783 22.4922 23.106 22.2164 23.1328L22.469 22.8595C22.4324 23.5811 22.327 24.2984 22.1735 24.9977C22.0182 25.6971 21.82 26.3795 21.6308 27.0556C21.4416 27.7327 21.2648 28.407 21.1408 29.0912C21.0131 29.7745 20.9382 30.4676 20.9203 31.1643C20.9007 31.861 20.9328 32.5595 21.0042 33.2562C21.0765 33.9528 21.1899 34.6451 21.3264 35.3346C21.6139 36.7101 21.9896 38.0695 22.4333 39.4084L22.4261 39.4102Z" fill="black"/>
<path d="M19.2858 90.6676C19.7955 87.5951 20.2989 84.5225 20.7363 81.4428C20.7925 81.0578 20.8443 80.6729 20.8942 80.287L21.0496 79.1312C21.1442 78.3595 21.245 77.5896 21.3254 76.817C21.4985 75.2735 21.636 73.7274 21.7369 72.1804C21.8359 70.6334 21.8975 69.0846 21.8886 67.5367C21.885 65.9888 21.8324 64.4427 21.7137 62.9011C21.6806 62.5161 21.653 62.1303 21.6146 61.7462L21.4923 60.5931L21.3459 59.4427C21.2995 59.0586 21.2334 58.6772 21.1808 58.2949C20.9505 56.7649 20.6729 55.242 20.3524 53.7263C20.0284 52.2114 19.6714 50.7019 19.2885 49.1987C18.9055 47.6946 18.511 46.1931 18.0888 44.6979C17.8835 43.9485 17.6648 43.2027 17.4533 42.4551L16.7999 40.2159C16.3625 38.7225 15.9207 37.2202 15.5743 35.6839C15.2289 34.1494 14.9816 32.5756 14.954 30.9821C14.9415 30.1863 14.979 29.3878 15.087 28.5973C15.1414 28.1999 15.2048 27.8131 15.294 27.4147C15.386 27.0191 15.5029 26.6296 15.6457 26.2527C15.9278 25.4962 16.3009 24.787 16.691 24.1055C17.0801 23.4231 17.4881 22.7648 17.8326 22.0869C18.0013 21.7528 18.1629 21.392 18.3289 21.0418C18.4931 20.6899 18.6583 20.3398 18.8127 19.9888C18.9653 19.6378 19.1117 19.2867 19.2126 18.933C19.3179 18.5793 19.3706 18.2229 19.375 17.8567L19.3804 17.4146L19.766 17.6147C19.9365 17.7031 20.1061 17.7969 20.273 17.9059C20.439 18.0157 20.605 18.1399 20.7532 18.3024C20.9014 18.4632 21.0228 18.6776 21.0728 18.9009C21.1236 19.1242 21.1174 19.3394 21.0969 19.5377C21.0513 19.9352 20.9612 20.296 20.8835 20.6605L20.8541 20.7962L20.8193 20.94C20.7943 21.0347 20.7684 21.1294 20.7371 21.2223C20.6773 21.4081 20.6077 21.5885 20.5292 21.7635C20.2168 22.4665 19.8106 23.1006 19.4197 23.7321C19.2233 24.0474 19.0296 24.3618 18.8511 24.6816C18.6752 25.0022 18.5119 25.3283 18.4039 25.6668C18.3521 25.832 18.3075 26.0187 18.2611 26.1964C18.2164 26.376 18.1709 26.5555 18.1298 26.735C18.0861 26.9146 18.0504 27.0959 18.012 27.2763C17.9799 27.4576 17.9406 27.638 17.9147 27.8211C17.7969 28.5491 17.7353 29.2878 17.7237 30.0282C17.713 30.7687 17.746 31.5109 17.8076 32.2505C17.8656 32.9909 17.971 33.7278 18.0799 34.4638C17.7942 33.0043 17.5755 31.5243 17.5497 30.0273C17.5363 29.2797 17.5729 28.5294 17.6675 27.7845C17.688 27.5978 17.721 27.413 17.7478 27.2272C17.7817 27.0432 17.8112 26.8574 17.8505 26.6743C17.8871 26.4903 17.9272 26.3081 17.9674 26.125C18.0102 25.9419 18.0459 25.765 18.1004 25.573C18.2093 25.1987 18.3717 24.8522 18.544 24.5163C18.7181 24.1805 18.9064 23.8572 19.0948 23.5356C19.4697 22.8934 19.8499 22.2584 20.123 21.5903C20.1918 21.4241 20.2525 21.2553 20.3033 21.0856C20.3301 21.0008 20.3507 20.9159 20.3721 20.8302L20.3997 20.7015L20.4265 20.564C20.497 20.1996 20.5774 19.8343 20.6077 19.4904C20.622 19.3198 20.6184 19.1572 20.5836 19.0179C20.5479 18.8785 20.4783 18.7606 20.373 18.649C20.1605 18.4275 19.8419 18.2524 19.5223 18.0934L19.9133 17.8514C19.9133 18.0577 19.9052 18.2658 19.8776 18.4721C19.849 18.6776 19.8106 18.883 19.7553 19.0804C19.6508 19.4779 19.5045 19.8503 19.3545 20.2165C19.2037 20.5819 19.0457 20.9391 18.8859 21.2946C18.7243 21.6501 18.5735 22.0029 18.3976 22.3664C18.0468 23.0819 17.6443 23.7545 17.273 24.4306C16.9007 25.105 16.5589 25.7856 16.3072 26.4921C16.1804 26.8449 16.0786 27.2048 16.0001 27.5684C15.9251 27.931 15.868 28.3133 15.8225 28.6875C15.7341 29.4414 15.702 30.2015 15.7216 30.9625C15.7618 32.4854 16.0135 34.002 16.3652 35.499C16.7169 36.9978 17.1703 38.4787 17.6184 39.9694L18.2825 42.2104C18.4985 42.9598 18.7199 43.7065 18.9296 44.4577C19.359 45.9564 19.7615 47.465 20.1534 48.9763C20.5327 50.4911 20.8862 52.014 21.2076 53.5441C21.5253 55.0759 21.8002 56.6175 22.027 58.1672C22.251 59.7178 22.4152 61.2782 22.5134 62.8421C22.6125 64.4061 22.6536 65.9737 22.6295 67.5394C22.6072 69.1052 22.5143 70.6683 22.3831 72.226C22.3224 73.0048 22.2376 73.7819 22.1546 74.5581C22.0591 75.3334 21.968 76.1087 21.8565 76.8804C21.7547 77.6539 21.6315 78.4238 21.5155 79.1955C21.3905 79.9654 21.2665 80.7345 21.1272 81.5017C20.5854 84.5716 19.9624 87.6236 19.2849 90.664L19.2858 90.6676Z" fill="black"/>
<path d="M31.3725 54.4105C31.8482 54.7034 32.3445 54.916 32.8533 55.1125C33.3612 55.3081 33.8744 55.4867 34.3913 55.66C34.9081 55.8333 35.4267 56.0021 35.9471 56.1709L36.338 56.2995C36.405 56.3237 36.4639 56.3371 36.5246 56.3549L36.7067 56.4058C36.8263 56.4451 36.9504 56.4648 37.0735 56.488L37.2583 56.5237C37.3208 56.5309 37.3833 56.5354 37.4458 56.5416C37.5707 56.5532 37.6948 56.5746 37.8224 56.5711L38.0126 56.5747C38.0759 56.5764 38.1393 56.5782 38.2027 56.5729C38.3303 56.5657 38.458 56.563 38.5856 56.5523C38.7133 56.5371 38.8409 56.5202 38.9703 56.5068C39.4836 56.4317 39.9977 56.304 40.5136 56.154C41.5455 55.8565 42.5738 55.4412 43.6502 55.142C43.1941 55.4653 42.7273 55.7636 42.248 56.0468C41.7686 56.3299 41.2723 56.5907 40.752 56.814C40.2325 57.0382 39.6862 57.2222 39.1149 57.341C38.9712 57.3669 38.8266 57.3892 38.682 57.4125C38.5365 57.4303 38.3883 57.4393 38.2411 57.4527C38.1679 57.4607 38.0929 57.4598 38.0188 57.4589L37.7957 57.4571C37.6466 57.4607 37.4984 57.441 37.3494 57.4276C37.2753 57.4196 37.2003 57.4125 37.1262 57.4026L36.9057 57.358C36.7593 57.3276 36.6112 57.3026 36.4692 57.2526L36.2559 57.1838C36.1854 57.1606 36.1113 57.1382 36.0488 57.1132C35.9194 57.065 35.79 57.0168 35.6614 56.965C35.1455 56.7631 34.6314 56.5479 34.1279 56.3067C33.6245 56.0655 33.1282 55.8029 32.6534 55.4992C32.5346 55.4233 32.4186 55.3421 32.3035 55.2626C32.191 55.1768 32.0758 55.0964 31.9678 55.0044C31.7483 54.8276 31.5447 54.6266 31.3716 54.4078L31.3725 54.4105Z" fill="black"/>
<path d="M45.3901 53.6593C45.4839 53.2797 45.6356 52.9626 45.799 52.6571C45.9641 52.3535 46.1515 52.073 46.3542 51.8032C46.5586 51.5344 46.7781 51.2781 47.0263 51.0387C47.2762 50.7993 47.5413 50.5689 47.8832 50.3768C47.8591 50.768 47.7448 51.111 47.6038 51.4379C47.4601 51.7631 47.2771 52.0641 47.0647 52.3436C46.8522 52.6223 46.6112 52.8795 46.3363 53.1046C46.0596 53.3279 45.7597 53.5298 45.3901 53.6593Z" fill="black"/>
<path d="M40.7333 39.2628C40.8261 39.3236 40.9064 39.4004 40.9859 39.4772C41.0662 39.554 41.1394 39.638 41.2117 39.7228C41.3545 39.8934 41.4866 40.0729 41.6035 40.2694C41.6625 40.3677 41.716 40.4695 41.7624 40.5874C41.774 40.616 41.7847 40.6473 41.7946 40.6812C41.8044 40.7134 41.8142 40.7482 41.8204 40.7857C41.8338 40.8598 41.8365 40.934 41.8321 41.0072C41.8222 41.1537 41.7794 41.2957 41.7062 41.427C41.633 41.5583 41.5268 41.6825 41.3706 41.7718C41.2929 41.8155 41.201 41.8495 41.1037 41.8638C41.0064 41.879 40.902 41.87 40.81 41.8459C40.6244 41.7959 40.5021 41.7075 40.4137 41.6557C40.3253 41.5985 40.2673 41.5797 40.2664 41.5896C40.2602 41.5985 40.278 41.5931 40.2414 41.6173C40.2057 41.6414 40.1459 41.6994 40.0718 41.7718C39.996 41.8441 39.9085 41.9334 39.7844 42.0246C39.7219 42.0692 39.6496 42.1157 39.5631 42.1523C39.4783 42.1871 39.389 42.2139 39.2953 42.2264C39.1069 42.2541 38.9222 42.2219 38.774 42.1728C38.6258 42.1219 38.5044 42.0549 38.3982 41.9897C38.292 41.9245 38.1965 41.8602 38.1099 41.7986C37.9376 41.6744 37.7823 41.5753 37.6573 41.5253C37.627 41.5136 37.5975 41.5038 37.5708 41.4976C37.5574 41.4931 37.5431 41.4931 37.5324 41.4904C37.5538 41.4904 37.5609 41.4869 37.5618 41.4851C37.5592 41.4833 37.5306 41.4904 37.4976 41.5047C37.4645 41.519 37.4244 41.5396 37.3824 41.5637C37.2985 41.6101 37.2075 41.67 37.1021 41.728C37.0495 41.7575 36.9941 41.7879 36.9299 41.8173C36.8647 41.8468 36.796 41.8772 36.696 41.8986C36.6469 41.9093 36.5889 41.9165 36.5157 41.912C36.4354 41.9075 36.355 41.8808 36.2934 41.8441C36.1676 41.7691 36.1069 41.6771 36.0632 41.6003C35.9792 41.4422 35.956 41.3038 35.9426 41.1635C35.9346 41.0233 35.9409 40.8866 35.9882 40.7312C36.0016 40.691 36.0158 40.6517 36.0399 40.608C36.0453 40.5972 36.0524 40.5856 36.0587 40.5749C36.0658 40.5642 36.0739 40.5508 36.0765 40.5481L36.1015 40.5177C36.1346 40.4776 36.1676 40.4356 36.1997 40.3945C36.4595 40.0622 36.7255 39.6755 37.0914 39.412C36.8951 39.813 36.7817 40.215 36.6112 40.6312C36.5898 40.683 36.5675 40.7348 36.5443 40.7875L36.5264 40.8268C36.5219 40.8357 36.5237 40.8348 36.5237 40.8357C36.5237 40.8366 36.5237 40.8357 36.5237 40.8384L36.5211 40.8679C36.5166 40.9233 36.5237 41.0063 36.5443 41.0805C36.5621 41.1546 36.5951 41.2296 36.6237 41.2573C36.6353 41.2716 36.6469 41.2662 36.6166 41.243C36.6023 41.2323 36.5746 41.2225 36.5487 41.2189C36.5291 41.2162 36.5255 41.218 36.5291 41.2144C36.5344 41.2109 36.5648 41.1948 36.5951 41.1751C36.6273 41.1546 36.6639 41.1287 36.7031 41.1001C36.7808 41.042 36.8674 40.9768 36.9656 40.9072C37.0156 40.8723 37.0682 40.8375 37.1307 40.8018C37.1941 40.7669 37.2646 40.7294 37.3664 40.7C37.419 40.6857 37.4806 40.6749 37.5565 40.6749C37.5984 40.6767 37.6395 40.6767 37.6797 40.6821C37.76 40.6901 37.8359 40.7062 37.9091 40.7259C38.1992 40.808 38.4098 40.9509 38.5973 41.0653C38.691 41.1233 38.7749 41.1814 38.8543 41.2269C38.9329 41.2743 39.0052 41.3073 39.0614 41.327C39.1176 41.3466 39.1533 41.3511 39.1792 41.3475C39.1926 41.3475 39.2078 41.3422 39.2239 41.3368C39.2373 41.3314 39.2587 41.3225 39.2855 41.3055C39.339 41.2725 39.4095 41.2126 39.4934 41.1385C39.5782 41.0653 39.6809 40.9768 39.8335 40.8929C39.9112 40.8518 40.0049 40.8143 40.1102 40.7964C40.2173 40.7777 40.328 40.7821 40.4316 40.808C40.536 40.8339 40.6226 40.8777 40.6904 40.9197C40.7582 40.9626 40.8109 41.0045 40.8546 41.0394C40.9412 41.1126 40.9957 41.1573 41.018 41.1707C41.0376 41.1841 41.0466 41.1966 41.0876 41.1912C41.126 41.1841 41.1805 41.1528 41.2278 41.1046C41.2751 41.0563 41.3143 40.992 41.3411 40.9259C41.3679 40.8563 41.3777 40.7973 41.3599 40.7044C41.3456 40.6142 41.3161 40.5151 41.284 40.4177C41.2197 40.2203 41.1367 40.0238 41.0466 39.8291C40.9546 39.6353 40.86 39.4415 40.7324 39.2637L40.7333 39.2628Z" fill="black"/>
<path d="M52.9745 58.6477C53.6324 59.5543 54.4554 60.2537 55.3721 60.7797C56.2879 61.3067 57.2885 61.6711 58.3168 61.8944C59.3531 62.1186 60.4233 62.2178 61.5105 62.2687C62.5977 62.3241 63.7027 62.3223 64.8203 62.4098C63.7384 62.6956 62.6414 62.8868 61.5194 62.9707C60.4001 63.0511 59.2522 63.0118 58.1275 62.7671C57.0002 62.5215 55.913 62.0561 54.9847 61.363C54.5223 61.0155 54.1019 60.6109 53.7547 60.1536C53.4083 59.6963 53.1316 59.1872 52.9736 58.6486L52.9745 58.6477Z" fill="black"/>
<path d="M20.8541 59.6284C20.8372 59.9044 20.7684 60.1786 20.6649 60.4403C20.5587 60.7011 20.4141 60.9476 20.2436 61.1754C19.9017 61.6318 19.4527 62.0043 18.9573 62.2946C18.461 62.5804 17.9219 62.784 17.381 62.9394C16.8392 63.0966 16.292 63.2074 15.7538 63.3173C13.5999 63.754 11.4398 64.156 9.27526 64.5284C8.73345 64.6204 8.1961 64.7088 7.66768 64.816C7.13925 64.9196 6.61976 65.042 6.11454 65.1965C5.61022 65.3519 5.12465 65.5467 4.66495 65.786C4.43823 65.9102 4.21508 66.0406 4.0071 66.1942C3.90445 66.2719 3.79466 66.3416 3.69648 66.4264C3.59829 66.5104 3.49743 66.5926 3.39924 66.6783C2.62714 67.3813 2.02017 68.2771 1.50424 69.2284C0.985639 70.1814 0.570578 71.2014 0.126953 72.2107C0.382238 71.138 0.686616 70.076 1.10793 69.0399C1.53638 68.0119 2.10318 67.0079 2.91009 66.1737C3.31534 65.7619 3.77681 65.3939 4.27846 65.1001C4.77921 64.8044 5.31298 64.5776 5.85212 64.3909C6.39304 64.2078 6.94199 64.072 7.48915 63.9523C8.03721 63.8362 8.58259 63.7433 9.12351 63.6486C11.2881 63.2771 13.4589 62.935 15.6342 62.6277C16.7196 62.4759 17.7898 62.3383 18.7574 61.906C19.2376 61.6952 19.6821 61.3933 20.0561 61.0146C20.2427 60.8253 20.4087 60.6127 20.5444 60.3805C20.6827 60.1491 20.7872 59.8955 20.8541 59.6275V59.6284Z" fill="black"/>
<path d="M27.4184 33.7153C28.061 33.8769 28.6636 34.0091 29.2705 34.0877C29.8748 34.169 30.4764 34.2047 31.0772 34.1967C31.6779 34.1878 32.2777 34.1377 32.8793 34.0413C33.4836 33.9475 34.0817 33.801 34.7208 33.6224C34.278 34.1217 33.6889 34.4763 33.0641 34.7192C32.4357 34.9586 31.7618 35.0818 31.0879 35.0899C30.414 35.0979 29.7374 34.9916 29.1027 34.7674C28.4716 34.5406 27.8745 34.2021 27.4175 33.7153H27.4184Z" fill="black"/>
<path d="M42.166 33.7447C42.8498 33.8206 43.4933 33.9332 44.1306 33.9966C44.7671 34.0636 45.3901 34.0939 46.0176 34.0698C46.6451 34.0484 47.2771 33.985 47.9242 33.9126C48.5713 33.8438 49.2292 33.7563 49.9174 33.7447C49.3381 34.1154 48.7195 34.3878 48.0724 34.5995C47.4252 34.8067 46.7433 34.9407 46.0462 34.963C45.3499 34.9889 44.6457 34.8889 43.9869 34.6816C43.3282 34.4709 42.7096 34.1663 42.166 33.7447Z" fill="black"/>
<path d="M33.5166 47.8553C33.8603 47.5453 34.2557 47.2908 34.6761 47.0827C35.0974 46.8754 35.5455 46.7111 36.0212 46.6173C36.4952 46.5244 37.0022 46.4932 37.5208 46.612C37.5833 46.6262 37.6529 46.6477 37.7101 46.6638L37.877 46.7138C37.9886 46.7459 38.0948 46.7817 38.1992 46.8147C38.4081 46.8781 38.5955 46.9317 38.774 46.9532C38.8633 46.9639 38.9535 46.9674 39.0454 46.9674C39.1382 46.9657 39.2328 46.9594 39.331 46.9451C39.3837 46.9398 39.4158 46.9344 39.4622 46.9255C39.5051 46.9174 39.5497 46.9058 39.5961 46.8924C39.689 46.8665 39.7871 46.8308 39.8943 46.7951C40.1067 46.7236 40.3522 46.6316 40.636 46.6021C40.9154 46.57 41.1796 46.6021 41.4197 46.6495C41.6616 46.6986 41.8794 46.7629 42.0981 46.8245C42.3168 46.8871 42.5355 46.9532 42.7542 47.021C43.1898 47.1604 43.6245 47.3069 44.0529 47.4855C43.5887 47.4989 43.1308 47.4792 42.6747 47.4533C42.4471 47.4391 42.2195 47.4221 41.9919 47.4024C41.7643 47.3837 41.5367 47.3569 41.3296 47.3462C41.1207 47.3354 40.9261 47.3426 40.7565 47.381C40.5905 47.4203 40.4093 47.4944 40.1995 47.5864C40.0951 47.632 39.9808 47.6775 39.8568 47.7195C39.7952 47.7401 39.7309 47.7606 39.6622 47.7776C39.5979 47.7945 39.5176 47.8106 39.4587 47.8195C39.207 47.858 38.9311 47.8758 38.6589 47.8365C38.5241 47.8169 38.392 47.7883 38.2679 47.7535C38.1448 47.7177 38.0287 47.6757 37.918 47.6347C37.8082 47.5936 37.7011 47.5525 37.5985 47.5096L37.4441 47.4471C37.3941 47.4283 37.3548 47.4131 37.3084 47.3989C37.129 47.3399 36.9335 47.3024 36.73 47.2845C36.5274 47.2613 36.3176 47.2649 36.1052 47.272C35.6803 47.2944 35.2456 47.3613 34.8136 47.4632C34.3806 47.5632 33.9504 47.6963 33.5175 47.8571L33.5166 47.8553Z" fill="black"/>
<path d="M18.2049 25.7873C18.2201 25.7141 18.2362 25.64 18.254 25.5667L18.2799 25.456L18.3111 25.347C18.3549 25.2032 18.3986 25.0567 18.4486 24.9156C18.5441 24.6289 18.6557 24.3502 18.7664 24.0706C18.994 23.5151 19.2421 22.9702 19.4983 22.4316C20.0124 21.3553 20.5712 20.3032 21.1139 19.259C21.2496 18.9991 21.3853 18.7383 21.5058 18.4802C21.5727 18.3498 21.6227 18.2265 21.6798 18.1006L21.7316 17.9791C21.753 17.9326 21.7771 17.8844 21.8084 17.8326C21.8405 17.7808 21.8798 17.7254 21.9342 17.67C21.9887 17.6147 22.0601 17.5575 22.1493 17.5164C22.2395 17.4744 22.3403 17.453 22.4412 17.4539C22.543 17.4548 22.6385 17.4807 22.7152 17.5164C22.8697 17.5896 22.958 17.6816 23.0303 17.7665C23.066 17.8094 23.0973 17.8514 23.1241 17.8942L23.191 18.005C23.233 18.08 23.274 18.155 23.3088 18.2327C23.4552 18.54 23.5418 18.866 23.5864 19.1893C23.6766 19.8387 23.5891 20.4818 23.4177 21.0704C23.332 21.366 23.2267 21.6519 23.108 21.9296C23.0482 22.0681 22.9875 22.2065 22.925 22.3423L22.8759 22.4441C22.8598 22.4763 22.8447 22.5147 22.8179 22.5504C22.7929 22.5826 22.7438 22.6263 22.6876 22.5933C22.6653 22.5719 22.6661 22.5468 22.6706 22.5272C22.6733 22.5174 22.6778 22.5066 22.6867 22.4995C22.6965 22.4915 22.709 22.4959 22.7152 22.5022C22.6947 22.4924 22.6858 22.5138 22.6885 22.529C22.6885 22.5451 22.6992 22.562 22.7081 22.5629C22.7135 22.5638 22.7286 22.5593 22.7367 22.5504C22.7456 22.5415 22.7527 22.529 22.7581 22.5147C22.7688 22.4861 22.7724 22.4513 22.7786 22.4129L22.7965 22.3021C22.8224 22.1547 22.8482 22.0074 22.8706 21.8609C22.9161 21.567 22.9616 21.2758 22.9875 20.9873C23.0437 20.4112 23.033 19.8441 22.8973 19.3206C22.8652 19.1902 22.8232 19.0634 22.775 18.9419C22.7277 18.8196 22.6733 18.7017 22.609 18.5918C22.5787 18.5355 22.543 18.4828 22.5073 18.431L22.4537 18.3542C22.4394 18.3346 22.4251 18.3185 22.4118 18.3051C22.3868 18.2783 22.3618 18.2676 22.3796 18.2801C22.3885 18.2854 22.4109 18.2935 22.4376 18.2944C22.4635 18.2962 22.4912 18.2908 22.5135 18.281C22.5599 18.2586 22.5564 18.2488 22.5439 18.2747C22.5376 18.2872 22.5287 18.3051 22.5198 18.3274L22.4867 18.4123C22.4278 18.5597 22.3698 18.7142 22.3055 18.8508C22.2413 18.9911 22.177 19.1313 22.1083 19.2653C22.0404 19.401 21.9753 19.5377 21.9048 19.6708C21.3487 20.7372 20.7381 21.7582 20.1097 22.7692C19.7946 23.2739 19.4751 23.775 19.1511 24.2734C18.8297 24.7745 18.5004 25.2666 18.2031 25.7882L18.2049 25.7873Z" fill="black"/>
<path d="M36.3811 49.7837C36.8863 49.8873 37.346 49.9739 37.8003 50.0275C38.2529 50.0829 38.6921 50.1008 39.1268 50.0793C39.5615 50.0579 39.9926 49.9927 40.4326 49.8891C40.8745 49.7846 41.3181 49.6345 41.8162 49.4854C41.5484 49.9319 41.1503 50.2812 40.6933 50.5411C40.2327 50.7957 39.7043 50.9475 39.1705 50.9716C38.6367 50.9966 38.1003 50.9037 37.6174 50.7028C37.3755 50.6018 37.1461 50.4768 36.9363 50.3249C36.7274 50.1722 36.5311 49.9989 36.3811 49.7837Z" fill="black"/>
<path d="M55.7354 39.9622C55.5855 41.7754 55.5132 43.5742 55.5676 45.366C55.6194 47.1568 55.7899 48.9387 56.0809 50.7001C56.3719 52.4615 56.7816 54.2041 57.3082 55.9163C57.8322 57.6312 58.4766 59.3104 59.1996 60.9807C58.1508 59.4917 57.3109 57.8536 56.645 56.1468C55.9818 54.439 55.498 52.6571 55.2008 50.8448C54.9026 49.0325 54.7884 47.1899 54.8687 45.3597C54.9517 43.5296 55.2222 41.7084 55.7354 39.9613V39.9622Z" fill="black"/>
<path d="M41.9348 29.2547C42.5534 28.5857 43.2773 28.0248 44.0646 27.554C44.8527 27.0878 45.7141 26.7225 46.621 26.5054C47.5261 26.2884 48.4794 26.225 49.4032 26.3581C50.3253 26.4911 51.2161 26.8047 51.9757 27.3102C51.0778 27.1539 50.2137 27.0485 49.355 27.0583C48.4981 27.0619 47.6555 27.1771 46.8272 27.3736C45.9979 27.571 45.1839 27.8506 44.3761 28.1793C43.5656 28.5053 42.7694 28.8885 41.9348 29.2529V29.2547Z" fill="black"/>
<path d="M36.4213 29.2547C35.5867 28.8894 34.7905 28.5062 33.98 28.1811C33.1722 27.8524 32.3581 27.572 31.5289 27.3754C30.7006 27.1789 29.858 27.0637 29.0011 27.0602C28.1424 27.0503 27.2783 27.1557 26.3804 27.312C27.1391 26.8065 28.0308 26.493 28.9529 26.3599C29.8767 26.2268 30.83 26.2902 31.7351 26.5073C32.642 26.7234 33.5034 27.0896 34.2915 27.5559C35.0779 28.0257 35.8018 28.5866 36.4213 29.2565V29.2547Z" fill="black"/>
<path d="M51.2643 7.74041C51.4705 7.73773 51.6785 7.7815 51.8784 7.85027C52.0775 7.92262 52.2658 8.02445 52.4426 8.14056C52.7969 8.37547 53.1067 8.67022 53.3869 8.9739C53.9511 9.57949 54.4839 10.2226 54.9463 10.9148C55.8844 12.2912 56.6173 13.8043 57.1725 15.3691C57.7223 16.9376 58.0981 18.5569 58.3436 20.187C58.5855 21.8188 58.7042 23.4623 58.6774 25.1058C58.3337 23.498 58.0258 21.8974 57.6536 20.3192C57.2849 18.7409 56.8601 17.1832 56.3299 15.6657C55.7934 14.1517 55.1471 12.6815 54.3527 11.2864C53.9636 10.5834 53.5164 9.91532 53.0504 9.25347C52.8201 8.92031 52.5738 8.60948 52.289 8.33438C52.1462 8.19772 51.9909 8.07446 51.8204 7.97264C51.6508 7.86814 51.4634 7.78954 51.2634 7.74041H51.2643Z" fill="black"/>
<path d="M22.2842 15.6711C22.9563 14.1902 23.8668 12.8146 24.9236 11.5642C25.9831 10.3146 27.1971 9.19009 28.5226 8.21919C29.8481 7.2483 31.2861 6.43193 32.7982 5.79955C34.3093 5.17074 35.8955 4.71879 37.5102 4.52765C35.9839 5.08053 34.5084 5.70219 33.0945 6.43639C31.6806 7.16791 30.3292 8.00483 29.0501 8.94C27.771 9.87606 26.5642 10.9113 25.4395 12.0376C24.3113 13.163 23.2732 14.3822 22.2851 15.6711H22.2842Z" fill="black"/>
</svg>
