<svg width="75" height="108" viewBox="0 0 75 108" fill="none" xmlns="http://www.w3.org/2000/svg">
<path d="M22.1338 68.861C23.8695 60.3916 44.5975 63.8252 47.0647 57.3425" stroke="black" stroke-width="1.63019" stroke-linecap="round" stroke-linejoin="round"/>
<path d="M33.7983 36.3463C35.0319 29.8636 54.7791 30.4808 59.4067 26.1568" stroke="black" stroke-width="1.63019" stroke-linecap="round" stroke-linejoin="round"/>
<path fill-rule="evenodd" clip-rule="evenodd" d="M33.8254 96.1173C52.2986 96.1173 67.27 96.7784 67.27 97.598C67.27 98.1849 59.5349 98.6908 48.3283 98.9303C42.2413 99.0585 42.2346 99.4902 41.9346 101.065C41.1897 104.995 38.126 108 34.331 108C30.5359 108 27.3947 105.015 26.7307 101.079C26.5285 99.8882 26.9531 99.072 20.9606 98.964C8.87428 98.7414 0.380859 98.2119 0.380859 97.598C0.380859 96.7818 15.3556 96.1173 33.8254 96.1173Z" fill="black"/>
<path fill-rule="evenodd" clip-rule="evenodd" d="M28.0552 99.2439C28.2844 103.46 30.8223 105.811 34.9174 105.534C38.7192 105.278 41.2706 101.844 40.3403 97.6688C39.7842 95.1729 36.2183 90.5216 36.2386 87.1488C36.4037 60.287 45.2814 28.8078 69.1337 3.92603C44.2298 24.612 33.0872 55.4942 32.4603 87.4759C32.3997 90.5318 27.8361 95.3111 28.0518 99.2439H28.0552Z" fill="black"/>
<path fill-rule="evenodd" clip-rule="evenodd" d="M59.2483 14.5203C41.6783 34.4474 33.7073 60.6615 33.1816 87.4895C33.1546 88.788 33.0299 91.4121 32.0356 93.0008C31.3447 94.1003 28.8034 96.7143 28.7731 99.2035C28.7292 102.63 31.0885 105.072 34.8701 104.819C37.9406 104.61 39.7673 102.239 39.8078 99.4329C39.8415 97.0988 36.9193 94.4511 36.461 93.4392C35.5981 91.5403 35.5105 89.3209 35.5206 87.1421C35.6082 72.6825 38.1799 58.1352 43.1276 44.5458C47.0575 33.7526 52.4569 23.6609 59.2449 14.5203H59.2483Z" fill="#FFE9DD"/>
<path fill-rule="evenodd" clip-rule="evenodd" d="M60.0169 26.8111C59.6562 27.1484 59.09 27.1282 58.753 26.7673C58.4159 26.4064 58.4361 25.8397 58.7968 25.5024C61.7796 22.7164 57.3138 9.04947 63.0671 4.17902C58.5811 8.57727 63.7277 23.4989 60.0135 26.8145L60.0169 26.8111Z" fill="black"/>
<path d="M47.0675 57.3391C49.5346 50.8564 32.568 42.829 33.8016 36.3429" stroke="black" stroke-width="1.63019" stroke-linecap="round" stroke-linejoin="round"/>
<path fill-rule="evenodd" clip-rule="evenodd" d="M38.3986 90.0394C41.2466 89.7358 51.0578 88.1674 35.3989 80.9899C28.4626 77.6507 20.441 73.7922 21.2533 68.7193C21.3308 68.2303 21.7892 67.8997 22.2745 67.9773C22.7633 68.0549 23.0936 68.5136 23.016 68.9993C22.4161 72.7601 29.7905 76.3083 36.1674 79.3777C55.5607 88.5115 40.9533 91.6449 38.3986 90.0394Z" fill="black"/>
<path fill-rule="evenodd" clip-rule="evenodd" d="M51.2129 77.337C49.2108 76.8007 47.7818 75.3301 47.0942 73.2018C46.4067 75.3301 44.9776 76.8007 42.9756 77.337C44.9776 77.8733 46.4067 79.3439 47.0942 81.4722C47.7818 79.3439 49.2108 77.8733 51.2129 77.337Z" fill="black"/>
<path fill-rule="evenodd" clip-rule="evenodd" d="M56.6332 68.3888C55.2614 68.0211 54.2806 67.0126 53.8088 65.5555C53.3369 67.0126 52.3595 68.0211 50.9844 68.3888C52.3561 68.7564 53.3369 69.7649 53.8088 71.222C54.2806 69.7649 55.2614 68.7564 56.6332 68.3888Z" fill="black"/>
<path fill-rule="evenodd" clip-rule="evenodd" d="M53.5385 8.92807C51.5365 8.39178 50.1075 6.9212 49.4199 4.79291C48.7323 6.9212 47.3033 8.39178 45.3013 8.92807C47.3033 9.46436 48.7323 10.9349 49.4199 13.0632C50.1075 10.9349 51.5365 9.46436 53.5385 8.92807Z" fill="black"/>
<path fill-rule="evenodd" clip-rule="evenodd" d="M45.8744 17.4109C44.5026 17.0432 43.5218 16.0347 43.05 14.5776C42.5781 16.0347 41.6007 17.0432 40.2256 17.4109C41.5973 17.7785 42.5781 18.787 43.05 20.2441C43.5218 18.787 44.5026 17.7785 45.8744 17.4109Z" fill="black"/>
<path fill-rule="evenodd" clip-rule="evenodd" d="M74.0546 9.71055C72.6828 9.3429 71.702 8.33441 71.2302 6.87732C70.7583 8.33441 69.7775 9.3429 68.4058 9.71055C69.7775 10.0782 70.7583 11.0867 71.2302 12.5438C71.702 11.0867 72.6794 10.0782 74.0546 9.71055Z" fill="black"/>
<path fill-rule="evenodd" clip-rule="evenodd" d="M42.5647 10.1659C41.5536 9.89607 40.829 9.15066 40.4818 8.07471C40.1347 9.15066 39.41 9.89607 38.3989 10.1659C39.41 10.4357 40.1347 11.1811 40.4818 12.2571C40.829 11.1811 41.5536 10.4357 42.5647 10.1659Z" fill="black"/>
<path fill-rule="evenodd" clip-rule="evenodd" d="M74.4188 2.09119C73.4076 1.82136 72.683 1.07595 72.3358 0C71.9887 1.07595 71.2641 1.82136 70.2529 2.09119C71.2641 2.36102 71.9887 3.10643 72.3358 4.18238C72.683 3.10643 73.4076 2.36102 74.4188 2.09119Z" fill="black"/>
<path fill-rule="evenodd" clip-rule="evenodd" d="M48.5237 68.183C47.5126 67.9132 46.788 67.1677 46.4408 66.0918C46.0937 67.1677 45.369 67.9132 44.3579 68.183C45.369 68.4528 46.0937 69.1982 46.4408 70.2742C46.788 69.1982 47.5126 68.4528 48.5237 68.183Z" fill="black"/>
<path fill-rule="evenodd" clip-rule="evenodd" d="M31.1053 45.9591C30.0942 45.6892 29.3695 44.9438 29.0224 43.8679C28.6752 44.9438 27.9506 45.6892 26.9395 45.9591C27.9506 46.2289 28.6752 46.9743 29.0224 48.0502C29.3695 46.9743 30.0942 46.2289 31.1053 45.9591Z" fill="black"/>
<path fill-rule="evenodd" clip-rule="evenodd" d="M28.9109 84.2413C27.8998 83.9715 27.1752 83.2261 26.828 82.1501C26.4809 83.2261 25.7562 83.9715 24.7451 84.2413C25.7562 84.5112 26.4809 85.2566 26.828 86.3325C27.1752 85.2566 27.8998 84.5112 28.9109 84.2413Z" fill="black"/>
</svg>
