<svg width="92" height="108" viewBox="0 0 92 108" fill="none" xmlns="http://www.w3.org/2000/svg">
<path d="M43.4224 106.665C47.5438 104.929 81.6194 94.1819 85.3754 71.0603C93.3616 21.8597 92.9572 22.459 89.6368 21.1671C86.3163 19.8674 51.2919 -0.421357 47.8159 0.00667719C44.0989 0.481405 1.90481 14.8322 1.61709 16.2408C1.40713 17.2681 0.971661 18.2098 0.940556 19.3071C-0.218109 68.4999 -6.2525 82.4927 37.0069 106.229C39.1376 107.396 41.2061 107.591 43.4146 106.657L43.4224 106.665ZM3.50673 62.3907C3.78667 55.2619 4.60318 24.6692 3.77112 17.6572C3.65448 16.6844 3.79445 17.0891 10.622 14.8011C49.8767 1.65655 47.4194 1.96007 49.0135 2.77722C51.1831 3.89789 84.4966 21.0426 88.8202 23.066C90.0567 23.6419 89.2246 22.6769 86.9695 37.9694C81.946 71.9786 84.6833 71.3794 76.3004 82.1658C68.3298 92.4153 43.6479 106.019 38.4922 103.311C23.4684 95.4349 2.85352 79.2863 3.50673 62.3907Z" fill="black"/>
<path d="M70.7405 75.4418C75.7562 68.8345 75.5307 64.6475 77.2648 52.4992C81.4873 22.9882 82.3894 27.9689 74.0377 23.354C65.5693 18.6689 56.9454 14.2719 48.5704 9.40784C47.8705 8.99537 47.2017 8.95646 46.4474 9.27554C10.4822 24.4046 11.9441 18.0074 11.8663 27.7043C11.5708 62.0404 11.0032 63.7292 13.8804 69.4649C19.4016 80.4459 28.0877 88.1427 38.9122 93.5904C45.6076 96.9602 64.2162 84.0336 70.7327 75.4495L70.7405 75.4418ZM40.5141 90.9444C28.0099 85.162 16.2366 73.6285 13.7871 59.9392C13.616 58.9897 13.6393 59.8536 14.1759 40.9345C14.6814 21.8753 13.9582 22.8014 15.2413 22.3889C22.6209 20.0231 45.6076 11.976 45.6931 11.9449C47.8938 10.9565 47.5672 11.478 69.9862 23.2139C78.2991 27.5643 78.3691 27.035 78.1513 28.4592C75.5929 45.0903 75.2352 51.931 73.7111 62.6552C71.3782 79.154 44.48 92.7732 40.5141 90.9444Z" fill="black"/>
<path d="M26.0112 92.0106C7.72142 77.9866 8.23465 70.2197 6.82715 69.8151C7.10709 75.792 22.0453 93.0534 29.5961 95.9796C28.7407 94.3297 28.1186 93.6215 26.0112 92.0106Z" fill="black"/>
<path d="M53.4847 7.36108C63.5238 13.1668 80.3439 21.5874 80.4217 21.6185C81.0905 21.8675 81.3004 21.0971 80.7561 20.8091C74.5506 17.4938 65.1569 12.1628 53.7646 6.66067C51.6417 5.63338 51.1907 6.03807 53.4847 7.36108Z" fill="black"/>
<path d="M32.8076 97.6451C33.7797 98.9836 34.0363 99.1315 35.5449 99.2482C34.6739 97.9252 33.9896 97.5283 32.8076 97.6451Z" fill="black"/>
<path d="M83.7498 23.5252C84.8929 23.4473 84.6674 22.6146 83.672 22.3111C82.8633 22.0699 82.5056 23.2995 83.7498 23.5252Z" fill="black"/>
<path d="M53.5625 47.246C60.2968 37.5569 64.2704 35.5646 65.2658 34.5684C66.1134 33.7124 65.8101 32.3349 64.1849 32.3738C62.4897 32.4127 55.3899 38.2184 49.8377 45.6273C39.7752 59.0286 41.2604 62.4295 40.4361 58.6006C38.2121 48.2422 38.2432 46.281 36.5947 45.4327C34.9305 44.5844 33.1887 44.2653 31.369 44.8101C27.1232 46.0787 27.3953 44.7167 38.9353 71.8074C39.8685 74.002 43.43 73.3327 42.699 70.7023C41.4082 66.0406 50.8019 51.2306 53.5703 47.246H53.5625Z" fill="black"/>
<path d="M44.2699 86.1737C37.8078 88.4384 57.7384 84.9519 64.9626 73.325C62.7697 74.5779 57.8628 81.4031 44.2699 86.1737Z" fill="black"/>
<path d="M19.7588 23.7275C20.412 24.747 36.2678 18.3888 37.2399 17.6495C35.2958 17.5327 22.566 22.0232 19.7588 23.7275Z" fill="black"/>
<path d="M66.541 72.2043C67.4664 72.2588 68.5084 70.0174 67.5519 70.2198C66.2533 70.4922 65.4057 71.9319 66.541 72.2043Z" fill="black"/>
<path d="M40.1405 16.9335C40.9493 17.2059 41.5947 16.0463 40.786 15.9218C39.8217 15.7661 39.6273 16.7623 40.1405 16.9335Z" fill="black"/>
</svg>
