<svg width="70" height="127" viewBox="0 0 70 127" fill="none" xmlns="http://www.w3.org/2000/svg">
<path fill-rule="evenodd" clip-rule="evenodd" d="M46.2934 97.8572C46.2649 97.6062 46.4238 97.5449 46.491 97.3939C46.7559 97.4714 46.6031 97.9511 46.2934 97.8572Z" fill="black"/>
<path fill-rule="evenodd" clip-rule="evenodd" d="M46.6254 95.5363C46.605 95.7588 46.5582 95.9547 46.4257 96.067C46.1589 96.0303 46.1854 95.5118 46.3606 95.4036C46.5419 95.3546 46.495 95.5363 46.6254 95.5363Z" fill="black"/>
<path fill-rule="evenodd" clip-rule="evenodd" d="M33.9313 89.7737H34.0637C34.0229 91.0576 32.7252 91.6333 32.1466 92.6886C30.6879 95.3403 29.6591 98.588 28.3125 101.432C29.0357 96.659 30.6228 92.1783 33.9313 89.7737Z" fill="black"/>
<path fill-rule="evenodd" clip-rule="evenodd" d="M44.7084 83.615C45.3441 86.136 46.1325 88.853 46.2282 91.6966C45.7678 89.1735 44.8429 86.1993 44.5088 83.5497C44.6147 83.5334 44.6229 83.613 44.7064 83.6171L44.7084 83.615Z" fill="black"/>
<path fill-rule="evenodd" clip-rule="evenodd" d="M31.0244 87.4568H31.1568C32.0145 87.7915 32.587 88.408 33.1391 89.0469C32.1877 89.2756 31.4461 88.1978 31.0244 87.4568Z" fill="black"/>
<path fill-rule="evenodd" clip-rule="evenodd" d="M54.4914 69.5055V69.3075C54.5688 69.2972 54.6095 69.3217 54.6238 69.3728C55.4652 70.1873 55.62 71.8121 55.5508 73.2145C55.4346 75.5559 54.3182 77.4788 52.9736 78.4464C54.6686 76.8542 55.9501 72.6001 54.4934 69.5055H54.4914Z" fill="black"/>
<path fill-rule="evenodd" clip-rule="evenodd" d="M50.1946 84.6071C49.7953 84.5908 49.6527 83.9621 49.7973 83.615C50.1844 83.4089 50.4044 84.2152 50.1946 84.6071Z" fill="black"/>
<path fill-rule="evenodd" clip-rule="evenodd" d="M43.6493 79.6406C42.6979 79.5528 41.72 79.5406 40.8725 79.3752C39.1164 79.0323 37.6435 78.277 36.4435 77.785C36.3254 77.8014 36.307 77.7218 36.3763 77.7177C37.8166 77.9749 39.4811 78.8873 41.4002 79.0425C44.5213 79.2956 47.6688 79.2589 49.7305 78.1137C51.5335 77.1134 52.4645 75.8499 52.6397 73.4779C53.312 73.7596 52.9474 75.7866 52.7049 76.3275C51.9104 78.0953 49.0134 79.5814 46.5565 79.7712C45.6601 79.8406 44.6516 79.7304 43.6473 79.6385L43.6493 79.6406Z" fill="black"/>
<path fill-rule="evenodd" clip-rule="evenodd" d="M52.1771 70.4996C52.7557 70.5792 52.8515 71.7509 52.5072 72.1551C52.2627 71.802 51.9469 70.8977 52.1771 70.4996Z" fill="black"/>
<path fill-rule="evenodd" clip-rule="evenodd" d="M45.3036 106.465C45.3138 106.588 45.3464 106.688 45.436 106.731C45.3118 107.082 45.0877 107.645 44.7739 107.592C45.0591 107.227 44.5274 106.388 45.3036 106.465Z" fill="black"/>
<path fill-rule="evenodd" clip-rule="evenodd" d="M45.7657 100.041C44.9345 98.7554 45.0058 96.806 44.9059 94.6769C44.853 93.5378 44.7572 92.4498 44.6431 91.3659C44.4048 89.1082 43.8771 87.0975 43.5186 85.1399C43.6265 85.1235 43.6326 85.2032 43.7162 85.2052C45.0852 89.4654 45.951 94.2278 45.7657 100.043V100.041Z" fill="black"/>
<path fill-rule="evenodd" clip-rule="evenodd" d="M44.7087 113.157C44.9572 113.602 44.7392 114.496 44.3786 114.747C44.3582 114.341 44.0241 113.075 44.7087 113.157Z" fill="black"/>
<path fill-rule="evenodd" clip-rule="evenodd" d="M41.7993 108.652C41.4754 108.639 41.3735 108.094 41.6017 107.923C41.9582 107.966 41.9664 108.417 41.7993 108.652Z" fill="black"/>
<path fill-rule="evenodd" clip-rule="evenodd" d="M46.6258 92.956C46.6544 93.248 46.5607 93.4215 46.4262 93.5501C46.1369 93.5276 46.1532 93.0908 46.2286 92.8866C46.3916 92.8785 46.5484 92.8764 46.6258 92.956Z" fill="black"/>
<path fill-rule="evenodd" clip-rule="evenodd" d="M30.0318 85.0704C29.7038 84.9133 29.4491 84.6846 29.2393 84.4091C29.4634 83.7069 30.6572 84.7091 30.0318 85.0704Z" fill="black"/>
<path fill-rule="evenodd" clip-rule="evenodd" d="M38.2952 84.0784C38.2769 83.9722 38.3584 83.9641 38.3625 83.8804H38.5601C39.1448 85.3379 38.3136 86.8301 37.1055 87.1261C37.242 86.4606 37.9183 86.2197 38.1628 85.6032C38.3217 85.2011 38.281 84.7275 38.2952 84.0804V84.0784Z" fill="black"/>
<path fill-rule="evenodd" clip-rule="evenodd" d="M27.4531 84.0784C27.1353 83.864 27.2473 83.6517 27.1231 83.415C26.7136 82.6495 25.7764 82.2922 25.2732 81.6268C24.7211 80.896 24.1813 79.7855 24.6111 78.6465H24.8087C24.8902 79.6977 25.151 80.3448 25.6685 81.0327C26.1207 81.6308 27.0355 82.0554 27.4531 82.6229C27.6629 82.9087 28.1111 83.6068 27.4531 84.0804V84.0784Z" fill="black"/>
<path fill-rule="evenodd" clip-rule="evenodd" d="M41.9971 74.5414C42.1519 74.1556 42.7753 73.9208 43.1868 74.0106C43.1542 74.5046 42.2843 74.7251 41.9971 74.5414Z" fill="black"/>
<path fill-rule="evenodd" clip-rule="evenodd" d="M54.2936 95.9343C54.5727 93.9991 54.8925 91.8109 54.8233 89.3103C54.7866 88.0181 54.7825 86.6851 54.6236 85.4685C54.534 84.7724 54.0084 84.0784 54.2936 83.1496C54.3486 83.1373 54.3567 83.1761 54.3608 83.2149C55.1492 86.1707 55.7319 89.3878 55.4833 93.0846C55.3611 94.93 54.9374 96.9488 54.5584 98.7819C54.1693 100.654 53.8087 102.507 53.3014 104.081C53.2138 103.242 53.4807 102.36 53.6315 101.497C53.9371 99.7618 54.0145 97.8735 54.2915 95.9343H54.2936Z" fill="black"/>
<path fill-rule="evenodd" clip-rule="evenodd" d="M56.8056 91.6945C56.993 91.6394 56.9767 91.7884 57.1356 91.7599C57.0969 93.5725 56.009 95.4077 56.5407 97.5898C56.4185 97.6878 56.3757 97.8654 56.2107 97.9185C55.4753 97.4612 55.6729 95.92 55.8134 94.9382C55.7544 94.7565 55.5832 95.0545 55.4834 94.8729C56.0722 94.2482 56.1231 93.0847 56.6732 92.4233C56.6732 92.1355 56.6345 91.8088 56.8056 91.6945Z" fill="black"/>
<path fill-rule="evenodd" clip-rule="evenodd" d="M52.2446 68.8441C52.5339 68.8645 52.817 69.4402 52.5074 69.6382C52.2792 69.5055 51.996 69.0544 52.2446 68.8441Z" fill="black"/>
<path fill-rule="evenodd" clip-rule="evenodd" d="M52.2441 107.86C52.4214 108.574 52.1036 109.348 51.582 109.58C51.8408 109.086 51.5759 107.727 52.2441 107.86Z" fill="black"/>
<path fill-rule="evenodd" clip-rule="evenodd" d="M35.7833 73.9433C36.0542 73.9167 36.2009 74.0127 36.1805 74.274C36.0135 74.4087 35.7059 74.2576 35.7833 73.9433Z" fill="black"/>
<path fill-rule="evenodd" clip-rule="evenodd" d="M26.6606 75.0701C26.681 74.9374 26.6831 74.8047 26.6769 74.6741C26.6932 74.6945 26.7095 74.719 26.7258 74.7394C26.7462 74.8925 26.7157 74.9946 26.6606 75.0701Z" fill="black"/>
<path fill-rule="evenodd" clip-rule="evenodd" d="M55.7484 99.7087C55.5956 99.0473 56.0112 98.5023 56.2108 97.9879C56.3616 98.3594 56.3371 99.6434 55.7484 99.7087Z" fill="black"/>
<path fill-rule="evenodd" clip-rule="evenodd" d="M32.874 73.3472C32.9066 73.0002 33.2815 72.8124 33.6013 72.9512C33.7317 73.09 33.6523 73.3901 33.6013 73.5473C33.3161 73.6943 32.9555 73.5983 32.874 73.3472Z" fill="black"/>
<path fill-rule="evenodd" clip-rule="evenodd" d="M53.2345 109.05C52.8251 109.352 52.442 110.013 51.8472 109.911C52.0753 109.427 52.7802 109.089 53.2345 109.05Z" fill="black"/>
<path fill-rule="evenodd" clip-rule="evenodd" d="M36.9081 76.5276C36.6738 76.7399 36.2663 76.7603 36.0483 76.5276C35.9119 75.9805 36.629 75.8499 36.9081 76.1295V76.5276Z" fill="black"/>
<path fill-rule="evenodd" clip-rule="evenodd" d="M43.584 75.7315C43.7083 75.4355 44.0363 75.213 44.3113 75.0027C44.6923 74.7108 44.9958 74.3944 45.6335 74.3413C45.2871 75.1395 44.4783 75.4804 43.584 75.7315Z" fill="black"/>
<path fill-rule="evenodd" clip-rule="evenodd" d="M48.6079 74.7394C48.9216 73.7657 49.7162 72.8206 49.7325 71.9571H49.9973C50.1583 73.0227 49.5328 74.3311 48.6099 74.7394H48.6079Z" fill="black"/>
<path fill-rule="evenodd" clip-rule="evenodd" d="M16.4131 23.4699C16.8572 22.1491 17.6171 21.1428 18.3974 20.1568C18.0246 21.2857 17.0976 22.4308 16.4131 23.4699Z" fill="black"/>
<path fill-rule="evenodd" clip-rule="evenodd" d="M49.6 75.3334C49.2944 75.5947 48.9256 75.8927 48.6099 75.9295C49.0703 74.9782 49.9463 74.4434 50.5269 73.6106H50.7245C50.6919 74.2189 50.0971 74.9068 49.6 75.3334Z" fill="black"/>
<path fill-rule="evenodd" clip-rule="evenodd" d="M36.8403 72.4858C36.8403 72.0938 37.2274 71.6672 37.5676 72.0244C37.7062 72.5878 37.1357 72.7471 36.8403 72.4858Z" fill="black"/>
<path fill-rule="evenodd" clip-rule="evenodd" d="M39.8823 76.3949C39.5584 75.9764 40.3794 75.5865 40.2775 76.2622C40.139 76.2989 40.088 76.4255 39.8823 76.3949Z" fill="black"/>
<path fill-rule="evenodd" clip-rule="evenodd" d="M3.32362 7.77017C3.21361 8.21314 2.82653 8.37644 2.72874 8.82961C2.69004 8.503 3.01396 7.97022 3.32362 7.77017Z" fill="black"/>
<path fill-rule="evenodd" clip-rule="evenodd" d="M33.2715 48.9719C34.0069 48.3228 34.6609 47.6308 35.5186 47.1838C35.6265 47.1654 35.6326 47.247 35.7182 47.2491C35.3189 48.137 34.394 48.6678 33.6687 49.3026C32.9638 49.9191 32.3282 50.7418 31.4868 51.0255C31.715 50.1232 32.6114 49.5558 33.2715 48.9719Z" fill="black"/>
<path fill-rule="evenodd" clip-rule="evenodd" d="M28.1802 55.3306C28.2494 54.4631 29.3618 53.7405 30.2297 53.6731C29.7265 54.3692 29.0827 55.2531 28.1802 55.3306Z" fill="black"/>
<path fill-rule="evenodd" clip-rule="evenodd" d="M29.8994 33.8683C30.0054 33.8499 30.0135 33.9316 30.097 33.9357C29.4798 35.0829 28.6486 36.0157 27.7827 36.916C28.343 35.7565 29.1171 34.8093 29.8974 33.8683H29.8994Z" fill="black"/>
<path fill-rule="evenodd" clip-rule="evenodd" d="M31.222 37.4467C30.9245 37.9652 30.456 38.3122 30.0322 38.7062C30.2197 38.3816 30.7066 37.4447 31.222 37.4467Z" fill="black"/>
<path fill-rule="evenodd" clip-rule="evenodd" d="M28.7749 38.1081C29.1314 37.2079 29.8322 36.6506 30.2947 35.8565H30.5595C30.2621 36.9037 29.435 37.4243 28.7749 38.1081Z" fill="black"/>
<path fill-rule="evenodd" clip-rule="evenodd" d="M29.3047 56.2574C29.4127 55.4347 30.1176 54.6447 31.0241 54.4018C30.6615 55.2326 30.1114 55.8716 29.3047 56.2574Z" fill="black"/>
<path fill-rule="evenodd" clip-rule="evenodd" d="M35.1214 42.6133C34.9115 42.305 34.5306 41.8519 34.7241 41.3538C35.2864 41.4436 35.1356 42.0825 35.1214 42.6133Z" fill="black"/>
<path fill-rule="evenodd" clip-rule="evenodd" d="M31.6191 55.1326C31.1485 55.8308 30.7798 56.633 29.8345 56.8555C29.8528 55.9655 30.7023 55.3429 31.6191 55.1326Z" fill="black"/>
<path fill-rule="evenodd" clip-rule="evenodd" d="M31.8168 55.7287C32.0287 55.6715 32.0205 55.8328 32.1468 55.8614C31.719 56.4146 31.3503 57.3454 30.4946 57.2515C30.5232 56.3309 31.4399 56.3003 31.8168 55.7287Z" fill="black"/>
<path fill-rule="evenodd" clip-rule="evenodd" d="M64.4089 47.3818C64.1155 47.2777 64.0625 46.9327 64.0788 46.5203C64.6085 46.0161 64.9222 47.194 64.4089 47.3818Z" fill="black"/>
<path fill-rule="evenodd" clip-rule="evenodd" d="M36.313 64.0735C36.3884 64.3512 36.0115 64.7431 35.9158 65.0677C35.8547 64.8064 36.1562 64.3389 36.313 64.0735Z" fill="black"/>
<path fill-rule="evenodd" clip-rule="evenodd" d="M55.019 41.3538C55.3796 41.019 55.9745 41.5048 55.7463 41.9498C55.3266 41.9294 55.0047 41.809 55.019 41.3538Z" fill="black"/>
<path fill-rule="evenodd" clip-rule="evenodd" d="M0.414601 11.6119C3.38493 14.8657 6.85235 17.9379 9.99992 21.4816C12.2694 24.0353 14.6897 26.6441 17.0733 29.0324C18.479 30.4409 19.463 31.6086 20.5774 33.2049C20.9461 33.7315 21.4717 34.4501 21.6347 34.9277C21.6979 35.1135 21.8262 35.2135 21.6347 35.5238C21.9851 35.5279 22.0422 35.7953 22.1624 35.9872C22.6452 36.7506 23.0506 37.7223 23.2197 38.6368C23.3521 39.3451 23.1728 40.1269 23.2849 41.021C23.3481 41.513 23.6679 42.058 23.8146 42.3459C23.9124 42.5398 23.8818 42.7602 23.947 42.8766C24.2444 43.4012 24.7212 43.7727 25.0043 44.2667C25.257 44.7097 25.4913 45.1567 25.5992 45.7242C25.7337 46.4448 25.8518 48.8025 25.6644 49.6333C25.5727 50.0416 25.1164 50.6397 24.8047 51.0908C23.782 52.5687 22.6737 53.669 21.8955 55.1326C21.6714 56.6452 21.1845 58.2619 21.433 59.9011C21.539 60.6013 21.9994 61.4239 22.3579 62.1527C23.1749 63.8061 24.3443 65.0268 25.532 66.0618C24.7252 66.4476 24.1772 67.0906 23.945 68.048C22.9508 68.2991 21.7875 68.6685 21.2354 69.5055C21.0887 69.7259 21.0256 70.1301 20.8381 70.4996C20.6813 70.8099 20.4205 71.1242 20.3085 71.4263C19.4508 73.7351 20.176 76.4316 21.3658 77.5197C19.8888 79.6998 21.5288 82.3984 21.6958 84.605C21.8486 86.6096 21.539 88.6693 21.761 90.6351C21.9648 92.4192 22.4904 94.1604 22.6208 95.869C22.8041 98.2839 22.3946 100.856 22.0931 103.352C21.5023 108.231 21.0887 113.004 20.3085 117.662C19.9071 120.063 19.4752 122.445 19.516 124.815C21.2293 125.978 23.9083 126.346 26.5893 126.207C26.8175 125.972 27.1985 125.888 27.5143 125.744C27.9604 123.79 28.4881 121.724 28.9016 119.648C29.3233 117.54 29.4517 115.351 30.1586 113.422C29.9834 112.318 30.3766 111.173 30.5559 109.979C30.9083 107.619 31.3728 105.284 31.8129 103.024C32.1796 101.134 32.4159 99.2127 33.5323 98.5206C34.773 108.16 32.4852 117.446 31.548 125.944C31.7192 126.195 32.0085 126.323 32.1429 126.605C33.5262 126.485 34.6263 126.772 35.647 126.87C38.7803 127.17 42.262 126.932 44.7699 126.34C46.1063 126.025 47.4305 125.37 48.604 125.548C49.2009 125.239 49.7143 124.956 50.3234 125.15C50.4946 124.504 51.0467 124.241 51.3808 123.759C51.4011 123.519 50.9346 123.766 51.0507 123.427C52.4952 117.762 53.7847 111.983 55.7446 106.402C57.1686 102.348 58.4032 98.2022 59.7111 94.0828C60.1491 92.7029 60.4384 91.2026 60.9681 89.9084C61.1474 89.4715 61.6119 89.1082 61.7606 88.5836C62.162 87.1873 61.4306 85.4216 61.561 84.2784C61.673 83.3149 62.0458 82.3514 62.0255 81.1654C61.9705 78.1423 60.6075 75.4314 60.2408 72.8185C59.9902 71.0365 60.1736 69.3095 59.6459 68.05C59.0816 66.7007 57.9245 65.7025 56.8692 64.8043C55.8892 63.9674 55.4268 63.304 53.6951 63.4122C54.5609 62.712 55.4573 61.6893 56.1418 61.0279C56.4108 61.6219 56.6573 62.2139 57.134 62.8161C57.5415 63.3305 58.173 63.6551 58.5886 64.1409C59.3057 64.9799 59.7397 66.0067 60.7033 66.3925C61.8095 66.8334 62.1742 66.4353 62.7528 65.8617C63.2702 65.3514 63.4719 65.0717 63.8101 64.5369C64.5883 63.3081 65.7801 62.2364 66.4545 60.9606C67.3773 59.2152 67.9152 56.8412 68.3715 54.4018C69.0255 50.9132 69.4696 47.4512 69.2985 43.6053C69.0235 43.1522 68.449 42.9991 68.0415 42.6786C67.6279 41.4926 66.6317 40.3821 65.3971 39.4329C64.2685 38.5633 63.0033 37.51 61.6934 37.2467C59.866 36.8792 58.9349 37.61 57.9917 38.3061C57.4742 38.6878 56.969 39.1022 56.4719 39.4982C50.8959 35.6279 46.2754 30.5838 41.663 25.7867C40.1066 24.1659 38.7457 22.3369 37.3664 20.5549C34.6182 16.9989 31.6906 13.5369 28.5757 10.2871C27.7893 9.46648 26.956 8.72753 26.1961 7.90284C24.6641 6.23917 23.2258 4.45098 21.8323 2.73628C21.1295 1.87077 20.6222 0.805204 19.7177 0.0866627C18.8437 0.36224 17.6845 -0.0970551 16.4784 0.0192995C14.9851 0.166274 13.449 0.839906 11.917 1.40943C10.385 1.97896 8.80608 2.3566 7.42074 2.93429C6.07615 3.49565 4.96584 4.3183 3.65181 5.12053C2.56799 5.78192 0.915767 7.05773 0.544985 8.03552C0.192539 8.96228 0.536836 10.5729 0.412563 11.6119H0.414601ZM58.4562 41.4191C58.1648 41.3232 58.4378 41.1211 58.5234 41.021C58.6782 41.0782 58.4684 41.3109 58.4562 41.4191ZM58.2586 58.5743C59.1407 58.4252 59.7885 57.3597 60.5729 56.8514C60.577 57.9374 59.2853 58.2987 58.8534 59.1703C58.4093 59.0417 58.1689 58.709 57.6637 58.6416C58.5091 57.1698 60.2184 56.5636 61.1678 55.1979C60.9131 56.7759 58.9268 57.1923 58.2586 58.5763V58.5743ZM58.9186 56.7861C59.2344 55.5797 60.7624 55.0122 61.563 54.0711C61.7341 54.1834 61.4367 54.3794 61.4978 54.6019C60.5342 55.2265 59.76 56.041 58.9186 56.7881V56.7861ZM62.4227 44.0014C62.4981 43.9911 62.5389 44.0156 62.5552 44.0687C62.437 44.528 61.9175 44.7709 61.563 45.0628C61.2065 45.3568 60.8866 45.7099 60.5709 45.8569C60.3386 45.3527 60.9946 45.1547 61.2982 44.9302C61.7076 44.628 62.1069 44.3382 62.4227 44.0034V44.0014ZM62.2903 43.538C62.1436 43.5094 62.2394 43.1869 62.2903 43.142C62.437 43.2808 62.4146 43.4216 62.2903 43.538ZM61.8279 42.6112C61.4 43.3298 60.5892 43.6666 59.978 44.2014C59.8313 43.7237 60.471 43.5584 60.7705 43.34C61.1168 43.0868 61.4326 42.7092 61.8279 42.6112ZM60.7033 42.6765C60.3427 42.9419 59.9536 43.2889 59.5787 43.3379C60.1023 42.6704 61.0231 42.0478 61.6934 41.7477C61.4774 42.105 61.0639 42.4091 60.7012 42.6745L60.7033 42.6765ZM61.893 43.736C61.51 44.3014 60.8174 44.5566 60.3732 45.0608C60.0941 44.3157 61.4163 44.0932 61.7606 43.538C61.8564 43.5523 61.783 43.736 61.893 43.738V43.736ZM62.5552 44.7954C62.8057 44.7424 62.6387 45.1077 62.6876 45.2588C61.8319 45.614 61.4917 46.4897 60.8357 47.047C60.7114 46.8857 60.6931 46.6142 60.7033 46.3182C61.3328 45.8222 61.9521 45.318 62.5552 44.7954ZM62.6203 45.8549C62.9545 47.3593 61.4265 47.5736 60.7705 48.3044C61.0089 47.1103 62.0927 46.7612 62.6203 45.8549ZM62.7528 47.5777C62.5531 48.5698 61.3185 49.0638 60.7705 49.5639C60.8601 48.3514 62.0703 48.2616 62.6203 47.5104C62.6978 47.5002 62.7385 47.5247 62.7528 47.5777ZM62.7528 48.8372C62.6244 49.7864 61.2269 50.2335 60.7033 50.8908C60.5138 50.7601 60.7257 50.4784 60.7033 50.2947C61.3817 49.8252 62.0581 49.3557 62.6203 48.7699C62.6978 48.7596 62.7385 48.7841 62.7528 48.8372ZM60.5057 52.0829C60.7277 50.8704 62.0336 50.7418 62.6203 49.8967C62.8506 50.5825 61.1087 51.5052 60.5057 52.0829ZM62.4227 51.2215C61.9827 52.3258 60.854 52.7422 60.1756 53.6057C60.1879 52.336 61.7443 52.0441 62.3575 51.1541C62.4757 51.1357 62.494 51.2174 62.4248 51.2215H62.4227ZM61.9603 52.6116C61.7769 53.8405 60.3529 54.3998 59.5135 55.1939C59.9495 53.9507 61.2472 53.5751 61.9603 52.6116ZM59.2507 42.7419C59.8823 42.0499 60.8153 41.66 61.4326 40.9537C61.0435 41.6253 59.9495 42.1621 59.2507 42.7419ZM65.9289 57.3801C66.4239 55.2306 66.3913 52.8116 66.5237 50.4254C66.6562 48.0309 67.4588 45.6793 67.0514 43.2052C67.3692 43.1746 67.6585 43.7462 68.0435 43.8687C67.7563 46.9368 68.0782 50.3559 67.3835 53.0097C67.3142 53.275 67.1003 53.4934 67.0514 53.7384C66.7906 55.0489 67.1451 56.8269 65.9289 57.3801ZM62.2923 63.01C62.932 62.4589 63.6492 61.9853 64.4091 61.5525C64.2196 61.7669 64.0199 62.1241 63.7469 62.3466C63.3273 62.6875 62.7487 63.204 62.2923 63.008V63.01ZM62.2271 59.301C62.2068 59.2112 62.0621 59.2459 61.9623 59.2336C62.1681 58.8376 62.5185 59.2928 62.6244 59.5643C62.2394 59.6643 62.001 59.9113 61.6995 60.095C61.5426 59.7603 62.1946 59.6643 62.2292 59.301H62.2271ZM63.4841 60.0297C62.9259 60.487 62.2088 60.783 61.6323 61.2218C61.4836 61.1729 61.6058 60.8503 61.5671 60.6911C62.2333 60.5217 62.7691 59.5316 63.4841 60.0297ZM63.2193 60.9565C63.3191 61.1116 62.8241 61.3157 62.5572 61.4872C62.2638 61.675 61.9297 61.9771 61.6323 62.018C61.8767 61.3811 62.6774 61.2974 63.2193 60.9585V60.9565ZM64.2766 61.0892C63.8325 61.3566 62.6305 62.3486 61.9623 62.612C62.5205 61.8914 63.4923 61.5832 64.2766 61.0892ZM59.0531 59.4337C59.3729 59.2009 59.7539 58.6804 60.0452 58.6396C59.9882 59.1111 60.0188 59.6725 59.8476 60.0297C60.85 58.5926 60.9885 56.7105 61.6975 54.9285C62.3677 53.2424 63.3191 51.7338 63.5493 49.8946C63.8529 47.4573 63.4658 44.5648 63.0869 42.2764C62.6346 41.315 62.3392 40.1984 61.6323 39.4941C61.4897 39.3125 61.671 39.2186 61.5671 39.0308C61.2452 38.8838 60.9457 38.9022 60.6422 38.6327C61.9012 38.3061 62.2557 39.1614 62.6916 40.1555C63.2926 41.5273 64.3378 44.0258 64.1463 45.5221C65.0325 43.2399 63.6084 40.9741 62.8913 39.4288C63.476 39.7187 65.7761 40.9088 66.1978 41.7457C66.6969 42.7419 66.703 44.4055 66.593 45.9181C66.5074 47.1348 66.1041 48.5045 65.9981 49.9579C65.8229 52.383 66.0307 55.398 65.6681 57.6414C64.9754 58.0517 63.8834 58.1374 63.0237 58.0394C63.0115 58.4722 63.6247 58.2762 63.751 58.5702C64.187 58.4559 64.8063 58.6335 65.338 58.6355C65.5092 58.5967 65.5764 58.662 65.5377 58.8335C65.5886 58.5518 65.9064 58.5416 66.1998 58.5008C66.0959 58.6927 65.5581 59.3336 65.5377 58.9642C65.4032 59.6929 63.7694 60.1746 63.4882 59.2295C62.5592 59.2316 62.494 58.3701 62.0988 57.8394C62.329 56.8779 62.655 56.0124 62.7589 54.9244C62.1986 55.5348 62.2536 56.7595 61.6343 57.3107C61.4143 58.5477 61.1698 59.7603 60.7746 60.8217C60.8214 61.0177 60.9722 61.1096 60.907 61.4178C60.9946 61.7914 60.6442 61.7281 60.6422 62.0139C61.2941 62.5303 61.2819 63.7143 62.2292 63.9347C62.1049 64.2981 61.7586 64.4349 61.4367 64.5982C60.2999 63.2203 60.4445 60.5584 59.0572 59.4316L59.0531 59.4337ZM58.9879 63.4734C59.0327 63.2999 59.2874 63.3326 59.3179 63.1427C59.4993 63.2244 59.4891 63.4999 59.5156 63.7388C59.265 63.7245 59.1957 63.5306 58.9879 63.4734ZM58.4582 63.0753C58.6456 62.71 58.9227 62.4364 59.1203 62.0812C59.4768 62.5201 58.939 63.2672 58.4582 63.0753ZM57.8633 62.5446C57.8633 62.0057 58.6171 61.673 58.7903 61.0871C58.937 61.0504 58.884 61.2137 58.9879 61.2198C58.6742 61.6832 58.3075 62.4303 57.8633 62.5446ZM57.2685 61.6179C57.8735 61.4954 58.065 60.9585 58.393 60.5584H58.5254C58.5132 60.6156 58.5519 60.6217 58.5927 60.6237C58.2484 61.0953 57.8206 61.4852 57.4681 61.9485C57.3907 61.8485 57.2766 61.7873 57.2685 61.6158V61.6179ZM57.7309 60.0277C57.8287 60.0624 57.898 60.1257 57.9958 60.1604C57.7513 60.6217 57.3907 60.9667 57.0036 61.2872C56.8488 60.7074 57.6107 60.5482 57.7309 60.0277ZM53.962 65.1942C53.801 65.3187 53.6849 65.4902 53.3671 65.4596C53.4832 65.2596 53.6523 65.0105 53.962 65.1942ZM55.2842 65.923C55.1354 65.9373 54.5467 65.825 54.4244 65.5923C54.7361 65.4371 54.9806 65.8556 55.2842 65.923ZM57.4009 68.6379C56.2967 67.8071 54.6078 67.0069 52.1773 67.1804C51.8269 67.2049 51.503 67.3274 51.12 67.3131C51.3869 66.8293 51.7719 66.4211 51.9797 66.0536C52.0347 66.0414 52.0429 66.0781 52.0449 66.1189C53.5077 66.519 55.2597 67.0355 56.6715 67.7091C57.0056 67.8683 57.7696 68.2011 57.3988 68.6359L57.4009 68.6379ZM51.3848 64.8615C51.5234 64.5737 51.8045 64.4777 52.1121 64.6635C51.9634 64.9799 51.7475 65.0105 51.3848 64.8615ZM51.5173 65.9209C51.1282 66.4598 51.0202 67.2784 50.3275 67.5111C50.5394 66.8844 50.9081 66.4149 51.12 65.7882C51.2748 65.8107 51.393 65.8679 51.5173 65.9209ZM57.0708 69.1013C56.9934 69.1115 57.0138 69.2217 57.0056 69.2993C56.7734 69.1564 56.7632 68.791 56.5432 68.6359C56.7245 68.5257 56.9975 68.8849 57.0729 69.0993L57.0708 69.1013ZM58.3258 69.1666C58.118 69.7525 57.6311 70.0587 57.4009 70.6241C56.8671 69.9566 57.407 69.1237 57.7981 68.6359C58.0019 68.7849 58.1771 68.9604 58.3258 69.1666ZM57.5985 71.8816C57.1483 70.9119 58.2647 70.3934 58.5234 69.6953C59.0001 70.716 57.79 71.0997 57.5985 71.8816ZM58.5906 72.6103C58.8229 73.5942 57.6922 73.7861 57.4661 74.5312C57.2135 73.5268 58.1954 73.188 58.5906 72.6103ZM57.5985 72.941C57.4477 72.8063 57.574 72.3919 57.5333 72.1469C58.0589 72.2429 58.2789 71.4896 58.5906 71.1528C59.0572 72.0245 57.8817 72.3817 57.5985 72.941ZM60.3753 80.0937C60.1532 80.2162 60.0126 80.2407 59.7804 80.0937C59.8721 79.8998 60.086 79.8263 60.1777 79.6324C60.4018 79.6263 60.3732 79.8753 60.3753 80.0937ZM59.978 86.9832C59.8252 86.7831 59.9536 86.3014 59.9108 85.9911C60.0819 85.9196 60.2286 85.8237 60.3081 85.6584C60.7583 86.183 60.4731 86.7505 59.978 86.9832ZM60.1104 83.8702C60.3244 83.5966 60.1308 82.9189 60.5077 82.8087C60.2673 83.0557 60.4894 83.762 60.1104 83.8702ZM59.8456 84.6663C59.9454 84.5663 60.1227 84.5458 60.1756 84.4009C60.359 84.7847 60.2388 85.4338 59.9108 85.5257C59.758 85.3685 59.8863 84.9317 59.8456 84.6663ZM60.3753 81.3532C60.2673 81.0552 60.194 80.6347 60.4405 80.4918C60.7909 80.6816 60.7359 81.2471 60.3753 81.3532ZM60.7725 82.082C60.5647 82.0514 60.5016 82.1636 60.4425 82.282C60.1919 81.9615 60.5994 81.735 60.7074 81.5533C60.8561 81.6043 60.7338 81.9248 60.7746 82.084L60.7725 82.082ZM59.9128 88.0426C59.6459 87.5078 60.253 87.2812 60.5749 87.1159C60.6788 87.7507 60.1125 87.7099 59.9128 88.0426ZM60.3101 88.1753C60.361 88.5815 59.8782 89.0224 59.7824 89.5021C59.4972 88.8591 60.0514 88.4917 60.3101 88.1753ZM57.0708 82.082C57.9183 82.0228 58.4317 81.0634 59.1203 80.6245C59.2202 81.2695 58.446 81.7003 57.9958 82.082C57.4966 82.5066 56.9445 82.9393 56.5412 83.2067C56.4271 81.0613 57.0016 79.6059 57.3357 77.9095C57.9245 77.3951 58.5234 76.8909 59.0531 76.3194C59.2772 76.3602 59.1407 76.7623 59.3179 76.8481C58.6742 77.683 57.7391 78.226 57.2033 79.167C58.1241 79.3425 58.6742 77.6952 59.5176 77.5768C59.4911 78.2647 58.8046 78.7322 58.3278 79.167C57.8206 79.6304 57.1503 79.9998 56.9405 80.6898C57.9 80.2366 58.7781 79.1323 59.65 78.3709C59.8599 78.5383 59.8863 78.8853 60.0473 79.0996C59.1957 80.2326 57.898 80.9184 57.0729 82.0799L57.0708 82.082ZM57.2033 77.4462V76.5194C57.9509 76.2745 58.2606 75.5906 58.7903 75.1272C59.3831 76.2459 57.6066 76.9011 57.2033 77.4462ZM59.1203 82.4147C58.2647 83.0353 57.3092 83.911 56.5412 84.403V83.7395C57.4253 83.1026 58.2178 82.3718 59.0531 81.686C59.2039 81.8003 59.0775 82.1922 59.1203 82.4147ZM58.8555 83.6068C58.1037 84.1784 57.352 84.75 56.6084 85.3297C56.4576 85.2378 56.5839 84.8704 56.5432 84.6683C57.4885 84.3111 58.1567 83.6762 58.8575 83.0761C59.1061 83.0414 58.8412 83.4537 58.8575 83.6068H58.8555ZM58.7231 87.912C58.1852 88.2345 57.6942 88.604 57.2033 88.9734C57.0994 88.7469 57.1096 88.406 57.0708 88.11C57.6881 87.8691 58.0834 87.4037 58.5906 87.0526C58.8759 87.0975 58.6518 87.6527 58.7231 87.912ZM57.0708 87.7813C56.3945 86.6014 58.008 86.3953 58.4582 85.7278C59.1203 86.8342 57.5129 87.1485 57.0708 87.7813ZM56.7408 86.4545C56.7367 86.1728 56.6512 85.9707 56.6084 85.7278C57.2318 85.246 57.953 84.8663 58.5254 84.3356C58.772 84.3621 58.3462 84.9378 58.5927 85.195C57.902 85.542 57.462 86.1401 56.7408 86.4524V86.4545ZM50.3275 115.27C50.3234 114.316 51.613 114.086 52.1121 113.414C52.2507 114.502 50.8613 114.633 50.3275 115.27ZM50.79 113.812C50.7777 112.565 51.8473 111.826 52.707 111.23C52.817 112.575 51.5193 113.085 50.79 113.812ZM49.4006 117.985C49.5635 116.298 50.5312 115.684 51.6477 114.939C51.9023 115.063 51.4541 115.568 51.5152 115.933C50.8409 116.162 50.2827 116.509 49.9934 117.125C50.4294 117.076 50.8959 116.482 51.3828 116.266C51.2259 117.342 50.0586 117.411 49.4006 117.987V117.985ZM49.0033 119.577C49.0522 118.234 50.3947 118.189 51.0528 117.456C51.1485 118.634 49.5126 119.003 49.0033 119.577ZM50.7879 118.715C50.8205 119.895 49.3333 120.128 48.7384 120.902C48.8199 119.832 50.2093 119.505 50.7879 118.715ZM50.3255 121.034C49.643 121.408 48.9707 121.794 48.4084 122.292C48.4349 121.191 49.808 120.869 50.3907 120.105C50.6372 120.183 50.2969 120.74 50.3255 121.034ZM48.0111 123.351C48.0071 123.016 48.2393 122.918 48.5408 122.89C48.9605 122.359 49.6043 122.057 50.1279 121.63C50.0932 122.61 49.0257 123.131 48.0111 123.353V123.351ZM40.2777 125.074C40.2614 124.792 40.3388 124.607 40.4101 124.413C41.3656 124.515 42.372 124.566 43.4517 124.545C42.5757 124.903 41.5775 125.139 40.2777 125.074ZM38.4931 125.074C38.8231 123.837 39.2081 122.655 39.1531 121.034C38.8435 120.989 38.9066 121.316 38.8231 121.496C37.3868 122.13 36.3621 123.182 35.1214 124.015C35.0256 121.787 37.4153 121.561 38.3606 120.238C37.2442 120.622 36.4456 121.32 35.5838 121.961C35.3822 121.753 35.6633 121.471 35.5838 121.167C36.6391 120.369 37.7556 119.632 38.8231 118.848C37.5987 119.011 36.6514 120.026 35.7163 120.704C35.6022 120.432 35.812 119.918 35.7815 119.511C36.7512 118.783 37.9104 118.244 38.6907 117.325C37.6598 117.507 36.849 118.483 35.8467 118.915C35.8691 117.015 37.9756 117.205 38.6234 115.935C37.6659 115.992 36.8979 116.811 36.0463 117.192C36.0626 116.831 36.1522 116.547 36.1115 116.133C37.1098 115.431 38.1569 114.782 39.1531 114.079C39.2794 115.398 38.9942 116.878 39.0879 118.385C39.5096 117.107 39.4302 115.329 39.6828 113.881C39.6502 113.561 40.0658 113.69 40.0801 113.418C40.1819 113.138 39.7378 113.408 39.75 113.218C39.8927 110.854 40.2492 109.08 40.1473 106.529C40.1351 106.231 40.5364 106.343 40.5446 106.065C40.5364 105.918 40.2655 106.037 40.1473 106V104.873C40.4529 104.673 40.8705 104.581 41.007 104.212C40.7279 104.002 40.404 104.31 40.1473 104.345V103.416C40.3184 103.318 40.3938 103.173 40.6098 103.283C40.6525 103.02 40.3592 103.093 40.1473 103.083C40.1249 99.5046 39.5178 96.5161 39.5524 92.8805C39.5382 92.6009 39.8478 92.6478 39.9477 92.4845C39.8825 92.2967 39.6686 92.5029 39.5524 92.4845C39.3181 90.6371 39.9966 89.7063 40.5446 88.6407C40.294 93.5011 40.8074 98.5186 41.4695 102.883C41.7017 102.326 41.5754 101.432 41.5367 100.564C41.3676 96.9305 40.8889 92.5886 41.0743 88.9061C41.0885 88.6244 41.0131 88.308 41.0743 88.0426C41.2739 87.1975 42.6022 86.0176 41.934 84.4009C42.7489 84.603 43.1726 83.8865 43.521 83.4068C42.9628 83.4007 42.1703 83.7314 41.934 84.2682C41.5408 83.7109 41.0519 83.2517 40.6118 82.7454C41.1435 82.6393 41.3513 82.2045 41.9992 82.2147C41.7608 82.5066 41.2515 82.527 41.2067 83.0108C41.1374 83.2578 41.4287 83.1394 41.4715 83.2741C42.1092 83.0516 42.5431 82.627 43.0586 82.282C45.599 82.4617 48.5388 82.476 49.4046 80.7592C47.6668 80.9348 45.104 81.2328 42.7937 81.0899C40.9357 80.9756 39.4689 80.3652 37.9695 79.6998C36.4782 79.0363 34.9951 78.5444 33.6057 77.8442H33.0108C33.3388 77.3359 33.514 76.6705 33.6729 75.9887C33.8929 76.007 34.1272 76.2296 34.333 76.054C34.7262 75.7948 34.5795 74.8231 33.8705 75.0599C33.9418 74.8006 34.0213 74.5496 34.0702 74.2658C33.2899 75.0517 33.4121 76.7419 32.8804 77.7769C32.5687 77.7769 32.3792 77.6605 32.0879 77.6442C32.2448 76.5623 32.7683 75.5008 32.748 74.4638C32.257 74.9925 32.1796 76.1193 31.8883 76.9134C31.8068 77.1339 31.876 77.6523 31.4258 77.5115C31.5215 76.5174 32.2366 74.8884 32.0879 73.8678C31.4828 74.9415 31.3158 76.452 30.8981 77.7095C30.7535 77.8075 30.5416 77.8381 30.4357 77.9749C31.4136 76.1703 31.2404 72.643 33.0801 71.4835C33.1126 70.8099 33.622 70.6119 33.7422 70.026C32.5015 70.8589 31.9412 72.3735 30.9654 73.4697C30.9185 73.6493 31.2771 73.4227 31.2302 73.6024C30.67 74.8068 30.8717 76.7766 29.6432 77.3114C30.0486 76.3255 30.5518 74.866 30.833 73.535C30.7922 73.3983 30.9389 73.0737 30.7005 73.139C30.8248 72.9083 31.1059 73.2615 31.2954 72.939C31.3504 72.6613 31.1671 72.6266 31.163 72.4103C31.927 71.4325 32.4913 70.2526 33.2797 69.2973C34.282 69.3748 35.1744 69.5626 36.2541 69.5626C36.301 69.8443 35.7448 70.3057 35.3944 70.6894C35.0664 71.0467 34.6813 71.7325 34.2698 71.4835C34.0437 71.3263 34.6936 70.9507 34.7323 70.6221C34.936 70.6119 35.0297 70.8548 35.1947 70.6874C35.2314 70.2689 35.1194 69.9954 35.3923 69.628C35.0317 69.7341 34.9604 69.9097 34.5998 69.8933C34.443 70.0485 34.61 70.2179 34.5998 70.422C33.8155 71.3141 33.0638 72.2388 32.0879 72.939C32.6848 73.0737 33.186 72.5389 33.4753 72.1449C33.7259 72.1571 33.7259 72.4225 34.005 72.4103C35.0643 71.7938 35.8467 70.8977 36.5169 69.8933C36.6127 70.173 36.7919 70.3669 36.9142 70.6221C36.7634 71.0671 36.2561 71.1549 36.0545 71.5488C35.8405 71.5202 35.863 71.2528 35.592 71.2835C35.2925 71.3141 35.2233 71.5774 35.262 71.9448C35.2416 72.0979 35.4535 72.0183 35.4596 72.1428C36.6412 72.1061 36.6819 70.669 37.9063 70.8854C37.782 71.2243 37.3787 71.2855 37.2442 71.6142C38.2873 71.8754 38.9514 70.1771 39.6237 69.4932C39.9945 69.4687 40.2227 69.2993 40.6159 69.2952C39.9252 70.324 39.1653 71.2855 38.1039 71.9448C38.707 72.5164 38.9779 71.361 39.9538 71.6815C39.9436 71.9795 39.5463 71.8897 39.5585 72.2102C40.2186 72.2653 40.2207 71.6509 40.8807 71.8775C41.0661 72.0979 40.5975 72.0857 40.6831 72.4082C41.1293 72.347 41.2556 71.9673 41.8077 72.0122C42.1296 72.0775 41.5978 72.2919 41.4776 72.3429C41.7405 72.8165 42.1948 72.2041 42.4698 72.0775C43.3377 72.0632 44.3237 72.1673 44.8493 71.8122C44.9817 71.9693 44.4785 72.0551 44.452 72.2735C45.7131 72.1041 46.0146 70.6894 47.2288 70.6853C48.4512 69.7668 49.095 68.2317 49.8732 66.7762C50.081 66.3884 50.3112 65.6413 50.9305 65.7168C50.1768 67.0804 49.3781 68.4011 48.6834 69.8239C49.4922 69.3973 49.7428 68.4134 50.2032 67.6377C50.3194 67.6989 50.5577 67.6356 50.5333 67.8357C52.434 67.3213 54.9276 67.7561 56.2845 68.4317C57.4742 71.6386 56.7469 76.0499 54.9623 78.0381C53.6238 79.5283 51.7353 80.3387 50.4008 81.7472C50.7696 81.8534 50.9896 81.4737 51.2606 81.3512C54.0088 80.0999 56.7693 78.7832 57.2094 75.1232C57.9754 74.8986 58.1649 74.0923 58.7964 73.733C58.9451 75.2273 57.6331 75.2599 57.2746 76.252C57.1299 76.2418 57.134 76.0846 57.1421 75.9213C56.9934 75.9703 57.1157 76.2928 57.077 76.452C56.9547 76.6154 56.863 76.8113 56.7469 76.9807C56.7795 78.6199 55.8729 80.2183 55.7548 82.0146C55.6753 83.2231 55.9585 84.6908 55.82 85.989C56.1867 86.9648 56.3476 87.9834 56.5473 89.2347C56.6063 89.5613 56.2702 89.4858 56.2845 89.7634C56.859 89.8635 56.7999 90.9556 56.6817 91.3536C57.2338 91.3271 57.0871 90.0431 57.2094 89.3674C57.7798 89.1204 58.1608 88.6856 58.7292 88.4386C58.8453 89.4184 58.01 89.4409 57.6718 89.9614C58.0834 90.435 58.5336 89.5879 58.7964 89.6961C58.1098 97.9062 54.8299 103.52 52.978 110.562C52.3138 111.044 51.2769 111.35 50.7961 112.085C50.5985 112.387 50.4008 113.01 50.2012 113.475C48.8851 116.533 48.1334 120.64 46.8295 123.676C44.8167 123.91 42.6267 123.968 40.4835 124.074C40.9052 120.365 41.4695 116.805 41.5408 112.747C40.8094 116.135 40.5079 120.301 40.021 124.074C39.8641 124.225 39.367 124.037 39.2937 124.274C39.4587 124.374 39.695 124.4 39.9538 124.406C39.9945 124.688 39.9069 124.843 39.8886 125.068H38.4992L38.4931 125.074ZM47.4835 61.0218C46.7603 62.0853 45.7111 62.8222 45.1692 64.0695C44.0426 64.3532 42.9669 64.69 41.7975 64.9309C42.3659 64.0776 43.0606 62.959 43.847 61.9506C44.1994 61.4995 44.4317 60.9769 45.1692 61.0892C44.4765 62.1159 43.5984 62.961 43.1197 64.2022C43.5618 64.39 43.6738 63.7898 43.847 63.5387C44.3991 62.7467 45.1569 61.8179 45.8313 61.0892C46.3854 61.0708 47.0292 61.1402 47.4835 61.0238V61.0218ZM46.2937 60.5584C46.7419 59.6827 48.1395 59.7582 49.0705 59.3663C48.6019 60.2216 47.7769 60.7197 46.2937 60.5584ZM45.0388 60.4931C45.1223 60.0705 45.6153 60.0542 46.1633 60.095C46.0207 60.4604 45.6072 60.5523 45.0388 60.4931ZM37.1057 64.9962C37.7067 64.5226 38.0612 63.7776 38.4931 63.1427C38.9229 62.5099 39.3487 61.8689 39.8152 61.2872C40.2186 61.2055 40.7137 61.2157 41.2026 61.2198C40.2879 62.665 39.1083 63.847 38.4931 65.5923C36.6819 65.7413 34.8484 65.6025 33.1371 65.4596C32.9497 65.3392 33.0515 64.9268 32.6094 65.0615C33.2634 63.9286 33.8562 62.7344 34.4593 61.5505C34.7323 61.5587 34.8728 61.4362 35.1866 61.4831C34.5571 62.7304 33.84 63.8878 33.2695 65.1922C34.2087 64.4124 34.6589 62.5671 35.5166 61.4831C35.7407 61.33 36.2765 61.4933 36.5088 61.3504C35.8222 62.6508 35.2131 64.0266 34.4593 65.2596C35.427 64.4165 35.9567 62.563 36.7736 61.3504C37.5783 61.2729 38.4625 61.277 39.3507 61.2851C39.4424 61.428 39.0452 61.8036 38.8211 62.0792C38.1895 62.8569 37.3522 63.8143 37.1036 64.9942L37.1057 64.9962ZM26.461 59.1009C26.624 59.3132 26.8277 59.4847 26.9907 59.697C26.7014 60.3992 26.3306 61.0218 26.0658 61.7505C25.7744 61.6893 25.7683 61.3423 25.6033 61.1545C25.8661 60.4461 26.2023 59.8133 26.463 59.1009H26.461ZM25.3364 60.6237C24.5602 59.7541 25.6583 58.7886 25.8661 57.9088C26.0128 58.1374 26.0698 58.4538 26.1961 58.7049C25.9272 59.3622 25.5992 59.9623 25.3364 60.6258V60.6237ZM28.7081 64.6655C28.7794 64.6819 28.7529 64.7982 28.8405 64.7982C28.6816 65.28 28.3455 65.5841 27.9808 65.8577C27.8647 65.7086 27.6039 65.7046 27.5835 65.4616C27.9828 65.2208 28.3332 64.9309 28.7081 64.6655ZM27.1211 65.1289C26.8175 65.0799 26.6056 64.9391 26.5262 64.6655C26.9051 64.2573 27.2942 64.3675 27.7159 64.6655C27.5896 64.8942 27.3105 64.9656 27.1211 65.1289ZM26.459 67.9765C26.5038 67.7765 27.1211 67.5826 27.3187 67.3131C27.4572 67.3948 27.5754 67.4948 27.7159 67.5785C27.3859 67.801 26.8277 67.7928 26.459 67.9765ZM27.9136 70.0954C27.6793 69.8219 27.3981 69.5953 27.2514 69.234C27.5448 69.4483 27.8097 69.6912 27.9136 70.0954ZM26.0637 64.2654C25.8702 64.2614 25.8172 64.1144 25.7316 64.0001C25.8355 63.5326 26.4712 63.404 26.5914 63.9327C26.3876 64.0164 26.243 64.1593 26.0637 64.2654ZM27.3187 60.093C27.5591 60.1624 27.718 60.3114 27.9136 60.4237C27.5489 61.2504 27.2576 62.1506 26.9214 63.0059C26.734 62.7957 26.5567 62.5752 26.3938 62.3446C26.6036 61.4933 27.0925 60.9238 27.3187 60.093ZM28.3108 60.5564C28.6103 60.6094 28.8242 60.7483 29.1033 60.8217C28.7529 61.773 28.2803 62.6018 27.9136 63.5367C27.8035 63.4265 27.5244 63.4857 27.3187 63.4714C27.6528 62.5038 28.1275 61.6771 28.3108 60.5564ZM29.5658 61.0198C29.7532 60.9646 29.7369 61.1136 29.8958 61.0851C29.4863 62.0874 29.0096 63.0223 28.7712 64.1981C28.5003 64.2001 28.3129 64.5349 28.1091 64.3981C28.4901 63.1672 29.0748 62.1404 29.5637 61.0198H29.5658ZM30.3583 61.2178C30.564 61.2545 30.7902 61.2708 30.9532 61.3504C30.4051 62.3017 29.8836 63.2815 29.3009 64.1981C29.4334 63.2489 30.0792 62.2405 30.3583 61.2178ZM31.4156 61.4158C31.5114 61.5178 31.7538 61.475 31.9433 61.4831C31.0204 62.81 30.5966 64.639 28.9689 65.2596C29.9753 64.1695 30.6272 62.7263 31.4156 61.4178V61.4158ZM32.4078 61.5485H33.9948C33.3082 62.8263 32.6094 64.0899 31.9453 65.3902H31.3504C31.6397 64.1368 32.7684 63.204 33.2002 61.8791C32.1042 62.7018 31.6234 64.1409 30.8207 65.2575C30.6313 65.2657 30.3868 65.2208 30.291 65.3228C30.0588 65.3412 30.4112 65.6168 30.2258 65.5882C29.6615 65.7923 29.1441 66.6089 28.5064 66.3169C28.7325 65.8536 29.1298 65.925 29.4985 65.7209C30.9613 64.9125 31.3626 62.8059 32.4078 61.5485ZM29.8306 73.4044C30.0303 72.5307 30.4805 72.0183 30.9552 71.1528C31.4217 70.3016 31.6071 69.4769 32.7398 69.4299C31.6784 70.6629 31.0632 72.3409 29.8306 73.4044ZM30.5579 73.2717C30.6333 73.286 30.5946 73.3391 30.5579 73.337C30.2951 73.9719 30.1281 74.7231 29.8978 75.3906C29.6758 76.0315 29.4558 76.7338 28.9729 77.1134C29.4191 76.0132 29.4232 73.9004 30.56 73.2717H30.5579ZM40.7381 70.6221C40.7137 70.4261 40.624 70.2955 40.4733 70.224C40.8216 69.5341 41.3045 68.9809 42.2579 68.8992C41.8342 69.7116 41.0437 70.7282 40.2757 71.4161H39.4832C39.6115 71.1467 39.8499 70.9875 40.0108 70.7527C40.1269 70.8119 40.2044 70.9119 40.3409 70.9528C40.5833 70.9528 40.5935 70.7201 40.7381 70.6221ZM44.9023 68.1725C44.5784 68.7155 44.1648 69.2626 43.6473 69.9607C43.2399 70.5098 42.7774 71.6366 41.8627 71.6162C42.1988 71.061 42.6857 70.6241 43.1197 70.026C43.6514 69.2911 43.9244 68.3623 44.9043 68.1725H44.9023ZM43.9774 66.3169C43.737 66.4558 43.3845 66.4476 43.1176 66.515C43.6473 66.074 44.0324 65.4902 44.7699 65.2555C44.9838 65.2126 44.2442 66.1618 43.9774 66.3149V66.3169ZM40.8033 71.5509C41.4267 70.6078 42.1622 69.777 42.7204 68.7686C43.1095 68.74 43.4192 68.6298 43.7125 68.5032C43.5556 68.9849 43.0728 69.3973 42.588 70.026C42.1642 70.5792 41.7527 71.6448 40.8033 71.5509ZM40.9357 67.1784C41.5265 66.5558 42.0053 65.823 43.1176 65.7209C42.4657 66.2822 42.0481 67.0784 40.9357 67.1784ZM40.2084 67.2437C39.7786 67.2764 39.4241 67.3846 39.0187 67.4417C39.5871 66.9314 39.9884 66.2496 41.0009 66.1843C41.1659 66.4476 40.3184 66.8171 40.2084 67.2437ZM39.0187 69.628C38.8781 69.8402 38.707 70.0219 38.5562 70.224C38.4055 70.1526 38.5318 69.8076 38.491 69.628H39.0207H39.0187ZM37.2992 67.5091C37.778 66.9947 38.1936 66.419 39.2163 66.4496C39.4648 66.7109 38.5929 66.962 38.6886 67.5091H37.2992ZM36.7043 67.5091C36.1237 67.4825 36.0932 67.6009 35.5125 67.5744C36.0463 67.0947 36.3234 66.3557 37.4968 66.515C37.2544 66.8681 36.8592 67.0681 36.7043 67.5091ZM34.6549 67.5091C34.392 67.4642 34.1822 67.3641 33.8603 67.3764C34.4185 66.9559 34.7669 66.2251 35.7774 66.4476C35.4433 66.8416 34.989 67.1151 34.6549 67.507V67.5091ZM32.2753 67.1784C32.8132 66.7701 33.3103 65.9128 34.2576 66.3169C33.6586 66.666 33.2716 67.4295 32.2753 67.1784ZM30.9532 66.913C31.5399 66.617 31.7253 65.9209 32.7378 66.0516C32.1755 66.3394 31.8231 67.1498 30.9532 66.913ZM29.5658 66.715C30.1281 66.4721 30.5498 65.5698 31.2852 65.9209C30.7678 66.223 30.3338 66.8763 29.5658 66.715ZM41.8627 61.1504H42.5248C41.4838 62.4711 40.4183 63.7653 39.748 65.4576C39.4098 65.4045 39.2693 65.5494 38.9555 65.5229C38.8761 65.2371 39.3059 64.8941 39.5504 64.5288C40.2736 63.4469 41.0274 62.1466 41.8647 61.1504H41.8627ZM42.92 61.1504H43.8449C43.9285 61.3341 43.5495 61.7097 43.3173 62.0118C42.6817 62.8365 41.7934 63.9164 41.5326 64.9268C41.168 65.1575 40.62 65.2044 40.1432 65.3249C41.0131 63.8776 41.9788 62.5283 42.92 61.1524V61.1504ZM46.9518 64.6614C46.6319 65.1371 46.0431 65.9148 45.0999 65.9863C45.5746 65.4004 46.0982 64.8676 46.9518 64.6614ZM47.017 67.2437C46.5586 68.0439 45.9005 68.9074 45.2323 69.6953C44.5845 70.4567 43.8877 71.3978 42.8528 71.6836C43.7064 70.4649 44.6069 69.2891 45.3647 67.9745C45.9331 67.7499 46.5504 67.5724 47.017 67.2458V67.2437ZM47.017 67.9725C47.6342 67.1539 47.9561 66.5211 48.9992 66.1843C47.6648 68.1582 46.7216 71.0997 43.7757 71.6815C44.886 70.6996 45.9698 69.3585 47.0149 67.9725H47.017ZM49.9262 65.7188C50.0606 66.0332 49.7061 66.3292 49.5309 66.6456C48.8953 67.7949 48.1232 69.5361 47.019 70.1567C47.8889 68.842 48.877 67.0722 49.9282 65.7188H49.9262ZM47.349 65.3208C47.95 64.5778 49.0012 63.7082 50.191 63.3346C49.3109 64.0654 48.549 64.9125 47.349 65.3208ZM30.0934 77.3094C30.2136 77.4339 29.9895 77.7769 29.961 77.9728C29.7369 78.0218 29.853 77.7279 29.6962 77.7075C29.7532 77.5013 30.0079 77.489 30.0914 77.3094H30.0934ZM34.7873 81.0858C35.2436 80.7 36.0178 80.2918 36.6391 80.2897C36.0809 80.5918 35.5044 81.1511 34.7873 81.0858ZM37.7617 80.8205C37.3216 81.0205 36.9814 81.3185 36.3091 81.2838C36.7084 81.0654 37.2096 80.6694 37.7617 80.8205ZM34.1924 80.6204C34.172 80.4653 33.9622 80.4979 33.9948 80.2897C34.5734 80.1203 35.046 79.3956 35.647 79.8263C35.1907 80.1203 34.6752 80.353 34.1924 80.6204ZM33.5323 79.8917C33.3938 79.7651 33.239 79.6569 33.2023 79.4283C33.7585 79.2058 34.1761 78.8771 34.7221 79.2956C34.3574 79.5263 33.9479 79.712 33.5323 79.8917ZM32.2101 79.2956C32.5259 78.9669 32.9721 78.3831 33.5323 78.6995C33.1534 78.9241 32.6848 79.3854 32.2101 79.2956ZM31.1528 78.9649C31.5073 78.7016 31.7416 78.3178 32.3426 78.3015C32.0451 78.5852 31.6866 79.1343 31.1528 78.9649ZM30.4255 78.4342C30.8778 78.3729 31.0163 77.7442 31.548 77.9708C31.3199 78.2137 30.6618 79.0282 30.4255 78.4342ZM40.6057 82.0126C40.3123 82.1167 40.0414 82.4433 39.6808 82.2779C39.7928 81.9881 40.2981 81.9003 40.6057 82.0126ZM39.4159 101.95C38.4992 102.579 37.5396 103.161 36.574 103.738C36.6554 103.432 36.4395 103.083 36.574 102.944C37.3481 102.238 38.3912 101.805 39.2183 101.156C39.5463 101.156 39.1939 101.842 39.418 101.95H39.4159ZM38.8862 96.3201C37.7474 97.1652 36.5149 97.9164 35.317 98.7023V97.9736C36.4925 97.2326 37.7189 96.5385 38.6886 95.5893C38.9494 95.6363 38.762 96.1323 38.8862 96.3181V96.3201ZM38.6886 94.1339C37.562 94.883 36.3274 95.8772 35.317 96.5181C36.1665 95.228 37.3705 94.2931 38.6214 93.4051C38.7722 93.5194 38.6459 93.9114 38.6886 94.1339ZM37.8961 93.4705C37.8961 93.0316 38.4503 92.5702 38.6234 92.0783C38.7762 92.2579 38.6458 92.7192 38.6907 93.0071C38.3708 93.105 38.1325 93.2847 37.8982 93.4705H37.8961ZM38.7559 95.2586C37.3603 95.7588 36.5352 96.8325 35.2518 97.4449C35.5146 96.7896 36.248 96.51 36.7716 96.1201C37.3848 95.6628 38.0306 95.2239 38.5562 94.7259C38.7844 94.7401 38.6764 95.0933 38.7559 95.2566V95.2586ZM34.7221 115.727C35.0929 115.502 35.4535 115.265 35.7794 114.998C36.1237 116.006 35.048 116.164 34.6569 116.654C34.5021 116.429 34.8015 116.094 34.7221 115.727ZM34.5245 117.052C34.9727 116.903 35.2946 116.629 35.649 116.388C35.9689 117.548 34.9441 117.936 34.392 118.442C34.3044 118.109 34.553 117.544 34.5245 117.052ZM35.317 118.309C35.7611 119.377 34.5591 119.932 33.9276 120.363C34.0192 119.924 34.1761 119.55 34.1924 119.038C34.6345 118.862 34.9829 118.593 35.317 118.309ZM34.9197 114.269C35.3638 114.184 35.6185 113.91 35.9118 113.673C36.2419 114.645 35.2233 114.839 34.8545 115.329C34.7486 115.11 34.9156 114.598 34.9197 114.269ZM35.977 112.348C36.4232 113.069 35.3699 113.414 35.0521 113.806C34.716 112.938 35.6226 112.742 35.977 112.348ZM35.2497 111.156C35.6063 111.05 35.8772 110.856 36.1095 110.626C36.4252 110.754 36.0483 111.246 36.1746 111.62C35.8792 111.875 35.5431 112.091 35.2497 112.348C35.0888 112.052 35.3414 111.601 35.2497 111.156ZM39.2815 113.541C38.1202 114.033 37.287 114.855 36.1746 115.396C36.2969 115.253 36.2195 114.91 36.2419 114.667C37.1872 113.939 38.2445 113.32 39.1511 112.551C39.4404 112.634 39.2081 113.243 39.2835 113.543L39.2815 113.541ZM39.3467 112.216C38.2425 112.744 37.3094 113.443 36.3723 114.139C36.2215 114.047 36.3478 113.675 36.3071 113.475C37.2401 112.689 38.3464 112.075 39.2815 111.291C39.5239 111.328 39.2489 111.891 39.3467 112.218V112.216ZM39.4139 111.024C38.3077 111.461 37.3583 112.055 36.5047 112.747C36.3539 112.653 36.4802 112.285 36.4395 112.083C37.3502 111.338 38.4258 110.762 39.3487 110.03C39.6645 110.158 39.2876 110.65 39.4159 111.024H39.4139ZM39.5463 109.501C38.4442 110.007 37.4989 110.673 36.5719 111.354C36.3865 111.101 36.6656 110.746 36.5719 110.36C37.4826 109.64 38.6051 109.127 39.4811 108.374C39.6339 108.619 39.5035 109.146 39.5463 109.501ZM36.6371 107.115C37.5946 106.506 38.5481 105.894 39.4811 105.259C39.6339 105.459 39.5035 105.943 39.5463 106.251C38.5705 106.796 37.5926 107.343 36.7043 107.974C36.5515 107.817 36.6799 107.38 36.6371 107.113V107.115ZM39.5463 108.107C38.4279 108.445 37.4561 109.28 36.6371 109.697V108.505C37.5111 107.88 38.4951 107.364 39.4139 106.784C39.7113 106.974 39.4669 107.702 39.5463 108.109V108.107ZM35.3822 100.158C35.6572 100.123 35.9118 99.7189 36.1095 99.8271C36.3825 100.38 35.6714 100.48 35.4494 100.756C35.2986 100.686 35.4249 100.339 35.3822 100.16V100.158ZM36.1746 101.483C35.8854 101.589 35.7529 101.854 35.5125 102.013C35.2579 101.938 35.431 101.432 35.3801 101.154C35.6287 101.003 35.9017 100.88 36.1074 100.689C36.2582 100.823 36.1319 101.24 36.1726 101.483H36.1746ZM36.2419 102.477C35.9485 102.579 35.7407 102.769 35.5146 102.94C35.3659 102.869 35.4901 102.524 35.4494 102.344C35.8467 102.379 36.3295 101.603 36.2419 102.477ZM35.5146 104.528C35.3618 104.351 35.4922 103.891 35.4494 103.601C35.6816 103.414 35.9893 103.303 36.1767 103.071C36.6901 103.812 35.9811 104.236 35.5146 104.528ZM36.3743 105.257C36.0524 105.418 35.7937 105.645 35.5146 105.853C35.3638 105.718 35.4922 105.304 35.4494 105.057C35.7163 104.841 36.0687 104.708 36.3091 104.463C36.4599 104.598 36.3336 105.012 36.3743 105.257ZM36.3743 106.714C36.1013 106.949 35.7509 107.106 35.5146 107.378C35.3618 107.155 35.4922 106.651 35.4494 106.318C35.7081 106.135 36.0178 106.004 36.2419 105.788C36.5312 105.853 36.301 106.435 36.3743 106.714ZM35.5146 109.033C35.7713 109.199 36.0422 108.813 36.2419 108.703C36.5841 109.774 35.9994 110.491 35.2497 110.691C35.4127 109.86 35.4759 108.929 35.4473 107.909C35.757 107.776 36.0198 107.598 36.2398 107.378C36.7858 108.196 35.6877 108.497 35.5125 109.033H35.5146ZM38.9514 97.3755C38.0347 98.0042 37.0873 98.5982 36.1746 99.231C36.0972 99.2188 36.1196 99.1106 36.1095 99.033C36.0341 99.4454 35.6226 99.5168 35.3822 99.7597C35.2314 99.6679 35.3577 99.3004 35.317 99.0983C35.537 99.0943 35.8854 98.6003 35.977 98.8983C36.7634 98.0511 37.9593 97.6143 38.819 96.8447C39.0798 96.8039 38.8985 97.2101 38.9514 97.3755ZM37.6944 99.231C37.0894 99.6168 36.6371 100.017 36.2419 100.158C36.2948 99.9271 36.1441 99.9026 36.1746 99.6944C37.0955 99.0718 38.0632 98.4961 38.9514 97.8409C39.4506 98.5023 38.2527 98.8758 37.6944 99.231ZM39.0839 98.7676C39.2489 99.3535 39.2265 100.125 39.2815 100.821C38.1406 101.091 37.4561 101.817 36.4395 102.213C36.4945 101.672 37.3624 101.946 37.4316 101.417C37.3318 101.217 37.1424 101.474 36.9671 101.417C37.6068 100.776 38.5745 100.466 39.0839 99.6944C38.1202 99.8802 37.2422 100.719 36.4395 101.285C36.3336 101.105 36.303 100.848 36.3071 100.556C37.234 99.9618 38.1977 99.4045 39.0839 98.7676ZM39.4811 103.338C38.544 103.902 37.5478 104.402 36.7043 105.061C36.5515 104.926 36.6799 104.51 36.6371 104.267C37.5457 103.677 38.5094 103.14 39.3467 102.479C39.4526 102.703 39.4832 103.005 39.4791 103.338H39.4811ZM39.5463 104.665C38.5562 105.239 37.558 105.806 36.7043 106.518C36.5515 106.318 36.6799 105.835 36.6371 105.526C37.5844 104.975 38.5257 104.414 39.4139 103.804C39.6991 103.848 39.475 104.404 39.5463 104.665ZM34.9197 125.131C34.8993 124.7 35.3801 124.417 35.647 124.204C36.5678 123.467 37.6944 122.751 38.5562 121.885C38.6336 121.873 38.6744 121.9 38.6886 121.951C38.5032 123.067 38.1528 124.019 37.8961 125.064H36.8388C36.6575 124.847 37.4011 124.445 37.6313 124.204C36.7349 124.255 36.4232 125.466 34.9217 125.131H34.9197ZM35.1173 119.965C35.3394 120.916 34.6793 121.559 34.1924 122.018C34.4328 122.19 34.6936 121.818 34.8545 121.687C35.101 122.729 33.9642 122.959 33.5975 123.608C33.9337 123.727 34.282 123.337 34.5224 123.145C34.4572 123.919 34.5021 125.378 33.2002 125.133C33.4284 123.619 33.6159 122.061 33.8603 120.563C34.3941 120.712 34.7608 120.208 35.1153 119.965H35.1173ZM27.6467 107.976C27.5469 108.568 27.6691 109.389 27.4491 109.962C27.2922 110.368 26.6688 110.636 26.3917 110.824C26.5608 109.509 26.787 108.286 27.0538 107.047C27.3044 105.88 27.9136 104.685 27.6487 103.469C26.3917 105.898 26.1126 109.303 25.5992 112.477C25.5911 112.757 25.3609 112.814 25.2692 113.006C25.8172 113.339 25.2142 114.343 24.8719 114.2C25.1714 109.774 25.8111 105.69 26.7218 101.879C26.846 101.762 26.9703 101.644 27.119 101.548C28.2456 98.2022 29.2235 93.3684 28.374 89.0959C28.4106 88.7775 28.7509 88.7673 28.9016 88.5652C28.7264 88.159 28.2884 88.904 28.1091 88.4999C27.9645 88.0099 28.7468 87.9732 28.9016 87.5731C28.431 87.3812 28.1315 87.8936 27.5794 87.8364C26.9397 88.3733 26.0882 88.804 25.3323 89.296C24.603 89.7696 23.7086 90.2268 23.4805 91.0188C24.2546 90.9249 24.8393 90.2125 25.53 89.7593C26.2186 89.3062 26.952 88.8816 27.6446 88.6325C27.6833 89.1265 27.0538 89.2837 26.7197 89.496C25.6481 90.1676 24.2995 90.9984 23.4805 92.0109C23.9022 92.0701 24.2893 91.6986 24.605 91.4802C25.6033 90.7943 26.6667 89.988 27.8443 89.4287C27.8911 89.9737 27.2698 90.2452 26.9173 90.4861C25.8111 91.2495 24.6295 92.0742 23.4805 92.8703C23.3745 91.964 23.2319 91.0903 23.1504 90.1554C24.4767 89.398 26.0495 88.4631 27.6446 87.5731C28.1051 87.3159 28.7101 86.7362 29.0992 86.6443C29.5474 86.5402 30.1464 86.9423 30.4214 86.3789C29.4802 85.7543 28.1458 85.5236 26.9173 85.1868C26.6769 85.1889 26.7462 85.5012 26.5873 85.5849C25.2244 85.985 24.1242 87.0036 23.0832 87.5057C23.0404 87.0056 23.6536 86.9444 23.9429 86.777C24.8617 86.2442 26.0189 85.6543 26.6545 84.7908C25.3507 84.9888 24.1324 86.1952 23.0852 86.6463C22.8428 86.1973 23.3032 86.2177 23.5477 86.0523C24.1589 85.6379 24.9982 85.097 25.5972 84.5928C24.929 83.0332 23.7657 81.9697 22.8204 80.6857C22.6635 79.0486 23.1851 78.0912 24.0774 77.5074C25.3344 77.6401 26.5119 76.8624 27.5143 77.3747C27.7098 77.5401 27.557 77.5972 27.5143 77.8381C27.6956 78.0218 27.7893 77.7769 27.9767 77.7728C28.6368 78.3382 29.1807 79.3466 30.1586 79.6283C30.3623 79.6855 30.56 79.6263 30.7535 79.6936C30.9389 79.7569 31.1263 79.9386 31.3484 80.0223C31.8394 80.2121 32.3283 80.1938 32.6706 80.4857C33.1738 80.9164 33.2328 81.5717 33.7951 81.9432C35.7468 82.9679 40.023 81.6656 39.5463 85.1235C38.9718 86.4116 37.7596 87.124 36.6371 87.9732C36.1441 88.3447 35.5064 88.6632 35.2497 89.2306C35.5798 89.5817 35.8996 89.1449 36.1746 89.0306C37.3787 88.5366 38.8496 87.9814 39.6115 86.977C39.6869 86.9913 39.6482 87.0444 39.6115 87.0444C38.9942 89.3695 37.7556 91.0801 36.5699 92.807C35.3679 94.5585 33.7849 95.8649 32.4709 97.4428C30.071 100.325 28.4127 103.389 27.6446 107.974L27.6467 107.976ZM23.945 84.3274C24.055 83.8028 24.6254 83.9192 25.0023 84.3274C24.9819 84.505 24.7252 84.4479 24.6723 84.5908C24.821 84.2846 24.2078 84.0029 23.945 84.3274ZM23.4825 88.7652C24.9636 88.259 26.3754 87.1138 27.7139 86.2463C28.101 86.3238 28.5349 86.3524 28.7061 86.6443C26.5649 87.3914 24.819 88.5346 23.1525 89.7573C22.9997 89.4042 23.1301 88.7652 23.0873 88.2998C24.1976 87.3384 25.6461 86.7137 26.8542 85.8502C27.1598 85.8543 27.284 86.038 27.5163 86.1156C26.0678 86.8933 24.5236 87.5751 23.4825 88.7652ZM23.6822 94.0645C24.9351 92.956 26.6056 92.2702 27.8463 91.1495C28.1132 91.1229 27.9197 91.5639 27.9787 91.7455C26.4528 92.5131 25.2753 93.6297 23.7474 94.3952C23.7107 94.2972 23.8248 94.0522 23.6822 94.0645ZM27.7159 96.1833C26.4345 96.8651 25.2488 97.9981 24.1446 98.635C24.0448 97.8572 25.1755 97.3408 25.7968 96.9141C26.5954 96.363 27.17 96.0241 27.6467 95.5893C27.9706 95.6301 27.612 95.9466 27.7139 96.1833H27.7159ZM27.8484 94.9259C26.4915 95.575 25.3588 96.8019 24.1467 97.3775C24.11 96.8978 24.6723 96.7733 24.9392 96.5814C25.8743 95.9139 26.8562 95.1259 27.7811 94.3972C27.9299 94.4462 27.8076 94.7687 27.8484 94.9259ZM24.0794 96.5161C23.8003 95.9466 24.438 95.7322 24.7395 95.524C25.7459 94.8259 26.901 94.0338 27.9136 93.3378C28.1091 93.4357 27.826 93.597 27.9136 93.8011C26.4651 94.534 25.4098 95.6649 24.0794 96.5161ZM23.947 95.3913C23.6903 94.8932 24.3891 94.6422 24.6743 94.4646C25.7316 93.8032 26.9479 93.054 27.9136 92.2783C28.0623 92.3273 27.94 92.6498 27.9787 92.8091C26.4814 93.4725 25.147 94.6503 23.947 95.3913ZM23.6822 93.5358C23.5844 93.4133 23.5559 93.2214 23.5497 93.0071C23.672 93.1357 23.7922 93.0275 23.945 93.0071C25.261 92.1395 26.5629 91.2577 27.7791 90.2901C28.0317 90.237 27.8626 90.6044 27.9115 90.7535C26.3184 91.4965 25.0186 92.5355 23.6801 93.5337L23.6822 93.5358ZM27.3187 110.693C27.6487 111.36 26.6688 111.844 26.2613 112.216C25.9415 111.299 26.9988 111.191 27.3187 110.693ZM29.7654 105.194C29.5963 105.132 29.3906 105.085 29.303 105.259C29.085 104.841 29.6391 104.624 29.8327 104.4C30.0038 104.598 29.6839 104.865 29.7654 105.194ZM29.5006 106.32C29.1217 106.251 29.1135 106.551 28.8405 106.584C28.9077 105.99 29.3498 105.769 29.633 105.392C29.7308 105.584 29.5311 106.039 29.5006 106.32ZM28.5757 108.107C28.3821 107.494 29.0402 107.161 29.303 106.782C29.6717 107.317 28.8609 107.788 28.5757 108.107ZM28.1784 109.433C28.2375 108.786 28.7672 108.609 29.1033 108.239C29.3559 108.935 28.6001 109.191 28.1784 109.433ZM28.9057 110.426C28.5105 110.287 28.1927 110.756 27.9136 110.956C27.6874 110.109 28.5716 109.805 28.9709 109.366C29.1054 109.613 28.8935 110.081 28.9037 110.426H28.9057ZM28.7733 111.55C27.7832 112.104 27.0273 112.891 25.9965 113.406C26.1065 113.296 26.0495 113.018 26.0637 112.812C27.0457 112.118 27.9645 111.358 28.8405 110.558C28.9077 110.715 28.8161 111.281 28.7733 111.552V111.55ZM28.7081 112.677C27.665 113.22 26.9479 114.092 25.9313 114.663C25.9109 114.4 26.0495 114.298 25.9985 114.002C26.9296 113.41 27.8117 112.771 28.6429 112.081C28.7937 112.15 28.6694 112.497 28.7101 112.677H28.7081ZM25.9985 116.055C25.6909 115.27 26.6443 114.767 27.1883 114.333C27.7139 113.912 28.2293 113.632 28.5105 113.271C29.0218 114.743 26.6953 115.188 25.9985 116.055ZM28.2456 115.79C27.4063 116.384 26.6545 117.066 25.8661 117.711C25.7602 117.535 25.9333 117.074 25.8661 116.717C26.6647 116.104 27.553 115.582 28.3129 114.929C28.4881 115.153 28.1988 115.474 28.2477 115.79H28.2456ZM26.791 123.474C26.3265 123.41 25.8213 123.386 25.3364 123.341C25.4016 121.641 25.7133 120.185 25.7337 118.44C26.4793 117.754 27.3879 117.225 28.048 116.451C27.881 118.779 27.117 121.083 26.791 123.474ZM26.6586 123.937C26.5975 124.625 25.8457 124.625 25.0716 124.598C24.9208 123.574 26.0698 124.104 26.6586 123.937ZM24.4115 123.274H23.619C24.1487 120.536 24.493 117.615 24.8088 114.661C25.1123 114.725 25.1286 114.498 25.4036 114.531C25.4627 115.229 24.9799 115.388 24.7415 115.788C24.768 116.1 25.1775 115.884 25.2712 115.988C25.4424 116.621 24.9249 116.568 24.8088 116.915C24.7701 117.152 25.0043 117.115 25.206 117.115C24.9453 119.173 24.7741 121.32 24.4135 123.274H24.4115ZM23.2217 124.468C23.2523 123.945 23.617 123.759 24.2791 123.87C24.2465 124.147 24.1528 124.36 24.0815 124.598C23.892 124.458 23.4214 124.598 23.2217 124.468ZM20.6426 123.474C21.2293 123.659 21.9525 123.708 22.6248 123.804C22.5535 124.041 22.523 124.319 22.4272 124.533C21.8588 124.351 21.0419 124.419 20.5101 124.202C20.61 124.015 20.5733 123.69 20.6426 123.474ZM23.8166 100.754C25.0736 99.9169 26.4284 99.1759 27.3207 97.9715C26.0006 98.439 25.0268 99.6046 24.0163 100.158C24.0061 99.8189 24.0265 99.5046 24.1487 99.2984C25.1388 98.3247 26.4854 97.7082 27.5204 96.7794C27.6141 98.0001 27.0661 99.1494 26.7931 100.223C25.9028 100.944 24.8169 101.468 24.2811 102.542C25.147 102.391 25.8498 101.156 26.5954 100.887C24.5113 107.496 24.4217 116.104 22.8265 123.208C22.0218 123.223 21.3923 123.055 20.7118 122.943C21.9709 115.77 23.1993 108.568 23.8187 100.754H23.8166ZM22.5596 76.2459C22.7165 75.9826 22.9589 75.807 23.0893 75.5171C23.2625 75.6743 23.4886 75.7805 23.5518 76.0479C23.126 76.0193 22.9915 76.2826 22.5596 76.2479V76.2459ZM21.9648 81.4757C22.144 81.7166 22.3783 81.9024 22.5596 82.1391C22.5454 82.3433 22.3763 82.3963 22.2948 82.5372C22.2846 82.8556 22.6289 82.8209 22.5596 83.1986C22.1787 82.8087 22.089 82.1269 21.9648 81.4757ZM21.6999 73.5942C21.8568 73.3533 22.1012 73.2023 22.2948 72.9982C22.91 73.7759 21.6877 74.0025 21.8996 74.9843C21.6979 74.6577 21.6958 74.127 21.6999 73.5942ZM22.5596 71.5407C22.5983 71.9979 22.2337 72.6266 21.6999 72.7328C21.6836 72.0326 22.2377 71.904 22.5596 71.5407ZM22.8224 71.1426C22.5494 71.2896 22.2235 71.3814 22.0299 71.606C21.9607 70.765 22.5454 70.0015 23.4173 69.8831C23.5721 70.1362 22.8673 70.6486 22.8224 71.1406V71.1426ZM23.4845 72.2674C24.7925 73.0574 25.5096 74.4332 26.2613 75.7784C24.8638 76.054 23.7657 75.4538 23.2869 74.5863C22.8041 74.8292 22.5067 75.6151 22.4272 76.0438C22.0829 76.1663 22.0299 75.4253 21.8996 75.115C22.582 75.1252 22.3559 73.9882 23.0241 74.1882C23.2156 73.7392 23.3929 72.9982 23.4866 72.2653L23.4845 72.2674ZM26.7238 71.9367C26.5078 73.5493 26.6994 75.313 27.9136 75.7131C28.1275 75.2171 27.7485 74.6251 27.7159 73.9249C27.6569 72.7226 27.9584 71.5652 28.6409 71.0099C28.3006 71.8836 28.1152 73.486 27.9136 74.719C28.5084 74.3413 28.4168 73.3554 28.5757 72.5981C28.7386 71.8142 28.9077 71.0936 29.2357 70.5445C29.8102 70.2342 30.4377 69.9811 31.22 69.8811C30.7657 70.6853 30.2157 71.3916 29.8327 72.2653C28.9016 71.8428 28.1886 73.137 29.0402 73.5248C28.8935 74.0413 28.5064 74.3128 28.4453 74.9149C29.0768 74.7741 29.1094 74.0351 29.5698 73.7228C29.1481 74.67 28.8813 75.7723 28.5125 76.7705C27.883 76.6786 28.537 76.0417 28.3149 75.6457C27.8932 75.6212 28.0399 76.1642 27.8524 76.3745C27.5 76.1969 27.1638 76.003 26.7279 75.9111C26.3163 73.9821 24.9147 72.694 23.7535 71.7387C24.0835 71.5427 24.3748 72.0081 24.6132 72.202C25.3914 72.8369 26.0698 73.8269 26.679 74.6537C26.6179 73.2268 25.0838 71.9428 23.9511 71.3406C24.7965 71.2488 25.5075 72.6164 26.3978 72.9308C25.9945 71.9448 25.0206 71.5304 24.1507 71.0099C24.2404 70.7017 24.4135 70.4792 24.6132 70.2812C25.4322 70.718 26.0169 71.3916 26.7279 71.9367H26.7238ZM24.9392 69.8831C25.3038 69.8443 25.7663 70.2363 26.1289 70.4792C26.4793 70.7139 27.0477 70.9466 26.9886 71.3406C26.3388 71.0834 25.7194 70.2301 24.9392 69.8831ZM26.3938 70.0811C26.133 70.1199 25.7724 69.6892 25.4016 69.6178C25.8722 69.2585 26.0576 69.9178 26.3938 70.0811ZM24.9392 63.1917C25.0756 62.9753 25.2814 62.8284 25.4688 62.663C25.6665 62.7079 25.6909 62.9263 25.6665 63.1917C25.4872 63.2325 25.3568 63.3244 25.2712 63.4571C25.1184 63.4122 25.094 63.2366 24.9392 63.1917ZM24.277 62.1323C24.5052 62.0527 24.6254 61.8649 24.8067 61.7342C25.0308 61.775 24.8903 62.1792 25.0043 62.3303C24.6723 62.6344 24.3626 62.7447 24.277 62.1302V62.1323ZM23.4173 60.5421C23.6638 60.4339 23.8879 60.3073 24.0122 60.0787C24.0713 60.1073 24.1304 60.1359 24.1446 60.2114C24.1446 60.6074 23.7311 60.5911 23.7474 61.0055C23.7637 61.0769 23.8798 61.0504 23.8798 61.1381C24.2017 61.1953 24.1854 60.9156 24.4074 60.8728C24.4624 61.0381 24.5887 61.132 24.605 61.3362C24.3504 61.4117 24.2281 61.6219 23.9429 61.6668C23.7738 61.2831 23.5457 60.9606 23.4132 60.54L23.4173 60.5421ZM23.0873 59.548C23.3806 59.3357 23.672 59.1193 23.8798 58.8192C24.0305 58.9335 23.9042 59.3255 23.945 59.548C23.729 59.7521 23.4397 59.8827 23.2849 60.144C23.1749 59.9909 23.1117 59.7868 23.0873 59.548ZM22.9549 58.0252C23.2543 57.7292 23.6272 57.5067 23.8818 57.1637C24.0346 57.3862 23.9042 57.8925 23.947 58.2232C23.6149 58.3987 23.3256 58.6171 23.0873 58.8866C22.9263 58.7151 23.0995 58.2109 22.9549 58.0252ZM24.4095 55.5082C24.3871 56.1267 23.8574 56.8085 23.2197 57.031C23.2645 56.1696 24.0326 56.0369 24.4095 55.5082ZM27.0538 51.2684C27.1903 51.9339 26.2695 52.779 25.7968 53.322C25.2447 53.9609 24.8678 54.4569 24.6071 55.1775C24.1487 55.1591 24.0468 55.5 23.6822 55.5756C23.9409 54.3773 25.0043 53.9854 25.5992 53.126C25.5564 52.9647 25.2896 53.1158 25.2692 53.1913C25.5646 52.5157 26.08 51.4868 27.0538 51.2705V51.2684ZM26.459 39.3451C27.0416 39.1104 27.227 38.4817 27.5835 38.0203C27.7852 38.1938 27.9686 38.3837 28.046 38.6837C27.6548 39.3308 27.1516 39.8636 26.789 40.5393C26.5038 40.3392 26.5527 39.8044 26.1941 39.6779C26.0495 39.6656 25.9843 39.7309 25.9965 39.8759C25.8254 39.7391 25.807 39.4472 25.6665 39.2798C26.1045 38.5919 26.6219 37.9836 26.9886 37.2262C27.227 37.3406 27.3533 37.5671 27.4511 37.8223C27.062 38.2714 26.6586 38.7062 26.459 39.3451ZM26.459 36.4301C26.6301 36.4363 26.5547 36.6894 26.7238 36.6955C26.353 37.4038 25.8702 38.0019 25.4688 38.6817C25.2631 37.904 26.2899 37.2671 26.461 36.4301H26.459ZM25.0695 37.8203C24.5908 37.0997 25.7113 36.4342 25.8641 35.7014C26.4651 36.3179 25.2712 37.1528 25.0695 37.8203ZM26.9866 50.7377C26.9948 50.8561 26.9051 50.8765 26.9194 51.003C26.8032 51.0418 26.5303 50.9234 26.5221 51.0684C26.3917 50.9132 26.7523 50.558 26.9846 50.7377H26.9866ZM24.7395 39.0144C25.3853 40.4434 26.2491 42.005 26.3917 43.7176C25.532 42.3622 24.3728 41.4579 24.7395 39.0144ZM25.4016 35.04C25.4729 35.0563 25.4464 35.1727 25.534 35.1727C25.3303 35.8524 24.8332 36.2383 24.6091 36.8956C24.4461 36.3648 25.1144 35.5605 25.4016 35.042V35.04ZM23.6822 35.3054C23.9653 34.9032 24.1813 34.4378 24.4095 33.9806C24.7456 34.0194 24.7477 34.3929 25.0043 34.5113C24.7334 35.0359 24.4359 35.5299 24.2119 36.1015C23.9002 35.9729 23.8329 35.5973 23.6822 35.3054ZM23.617 33.0538C23.8961 33.1048 23.9694 33.362 24.1446 33.5172C23.9613 34.0173 23.5986 34.3378 23.4173 34.842C22.7898 34.2929 23.3542 33.6111 23.617 33.0538ZM22.36 32.7884C22.4517 32.5047 22.7084 32.3863 22.69 31.9923C22.9875 32.1373 23.071 32.4945 23.3521 32.6558C23.1525 32.964 22.9915 33.309 22.69 33.5172C22.6493 33.2049 22.3905 33.111 22.36 32.7884ZM21.9648 31.4636C22.1726 31.5187 22.1522 31.8045 22.36 31.8596C22.3498 32.1169 22.0931 32.1209 22.0299 32.323C21.7264 32.1066 21.7488 31.7494 21.9648 31.4616V31.4636ZM21.3026 30.5369C21.5166 30.5879 21.649 30.7206 21.6999 30.9349C21.5797 31.0799 21.4432 31.2064 21.3699 31.3983C21.0032 31.2085 21.156 30.8533 21.3047 30.5369H21.3026ZM20.2453 30.1388C20.3003 29.9735 20.4266 29.8796 20.445 29.6754C20.7689 29.7489 20.8361 30.0776 21.1071 30.2041C20.9339 30.296 20.8789 30.5063 20.6446 30.5348C20.5407 30.3736 20.4083 30.2409 20.2473 30.1368L20.2453 30.1388ZM19.5852 29.3448C19.5893 29.0345 19.9132 28.814 20.1129 29.0794C20.0986 29.3284 19.8643 29.359 19.848 29.6101C19.7319 29.5509 19.6423 29.4611 19.5832 29.3448H19.5852ZM18.8579 28.418C19.0617 28.4343 19.1554 28.5609 19.3204 28.616C19.2165 29.0386 18.6888 28.6262 18.8579 28.418ZM18.1306 27.9546C18.0878 27.7117 18.2732 27.7015 18.263 27.4912C18.5197 27.4994 18.5238 27.7607 18.7255 27.8219C18.534 28.0322 18.3384 28.2547 18.1306 27.9546ZM17.2709 26.6972C17.5724 26.7707 17.768 26.9483 17.8658 27.2259C17.7843 27.2544 17.7313 27.3116 17.7334 27.4239C17.4604 27.2973 17.0957 27.0687 17.2709 26.6951V26.6972ZM15.419 23.7148C16.4051 22.3186 17.2607 20.7917 18.261 19.4097C18.8253 19.6608 19.1717 20.1303 19.516 20.6018C18.5931 21.8409 17.603 23.0126 17.2016 24.7743C18.1306 23.5413 18.8111 22.0593 19.7136 20.7998C20.119 20.9897 20.3411 21.3632 20.5733 21.7286C20.0457 22.3696 19.5913 23.031 19.1187 23.7148C18.6848 24.3435 18.0491 25.007 17.9962 25.9664C18.9007 24.6212 19.7727 23.2433 20.7057 21.9266C21.0235 22.0062 21.0704 22.3553 21.3006 22.5227C20.8952 23.1677 20.4877 23.8863 20.0457 24.5763C19.6463 25.1948 18.9598 25.8725 19.1859 26.6951C19.9336 25.4132 20.6752 24.1251 21.4982 22.9187C21.9179 23.1188 22.0035 23.6495 22.3579 23.9128C21.9607 24.4987 21.4758 25.1152 21.0358 25.7684C20.6487 26.344 19.9906 27.0013 20.176 27.7566C20.6303 27.5239 20.883 26.7584 21.3658 26.0337C21.4412 25.9215 22.3661 24.3885 22.5556 24.3782C22.8917 24.3599 22.8937 25.0478 23.2177 25.107C22.4843 26.293 21.6062 27.3341 21.103 28.7507C20.5468 28.5139 20.1862 27.9628 19.7136 27.5586C18.3058 26.3522 16.5986 25.1989 15.417 23.7169L15.419 23.7148ZM13.3023 19.7404C14.2476 19.2301 14.7304 17.6828 15.6818 16.9581C15.9772 17.2827 15.5413 17.7195 15.3518 18.0175C14.7121 19.0239 13.8727 20.2385 13.3023 21.3306C12.8113 20.8733 12.4406 20.2936 11.9801 19.8057C12.8663 18.5748 13.6996 17.2888 14.5573 16.0293C14.8262 16.2681 15.0992 16.5008 15.3518 16.758C14.6184 17.7011 13.7159 18.4768 13.3023 19.7383V19.7404ZM11.7825 19.4097C11.4443 19.2852 11.2752 18.9892 11.1224 18.681C11.8253 17.4419 12.738 16.4131 13.502 15.2373C13.8157 15.2985 13.9604 15.5292 14.1641 15.7006C13.2921 16.8601 12.4813 18.0788 11.7846 19.4097H11.7825ZM16.1463 17.4235C16.3745 17.5052 16.4967 17.6909 16.674 17.8216C15.8081 19.2709 14.8099 20.5896 13.9644 22.0614C13.9889 21.9552 13.447 21.8001 13.4368 21.598C13.4266 21.4428 13.8666 21.1918 13.9644 21.0693C14.6123 20.2548 15.5861 18.2931 16.1463 17.4255V17.4235ZM17.0061 18.1523C17.8454 18.2992 17.0407 19.0321 16.676 19.5444C15.9772 20.5222 15.0482 21.8919 14.5613 22.7901C14.4085 22.7452 14.3841 22.5696 14.2313 22.5247C15.1012 21.0142 16.1606 19.6894 17.0081 18.1523H17.0061ZM17.6661 18.8157C17.9228 18.8238 17.9269 19.0831 18.1286 19.1464C17.055 20.5222 16.075 21.992 15.2846 23.6495C15.0482 23.5352 14.9566 23.2739 14.7569 23.1208C15.7796 21.7409 16.7331 20.2875 17.6661 18.8157ZM16.3439 25.9031C16.564 26.0154 17.0061 26.1807 16.8064 26.4992C16.5599 26.3828 16.2299 26.1828 16.3439 25.9031ZM10.3951 19.7424C10.4277 19.5097 10.4929 19.3117 10.4603 19.0137C10.9146 19.573 11.5645 19.9384 11.7153 20.8019C12.1716 20.8529 12.4507 21.3244 12.8399 21.796C13.2229 22.2594 13.6568 22.5431 13.4999 22.9881C13.5773 22.9983 13.6181 22.9738 13.6324 22.9208C14.3352 23.476 14.7488 24.319 15.4822 24.8416C14.6062 24.7028 13.9705 23.7516 13.4979 22.9861C12.4222 22.2083 11.3751 20.8325 10.3911 19.7404L10.3951 19.7424ZM10.1303 17.7562C10.7374 16.4212 11.6949 15.4394 12.4446 14.2452C12.8134 14.3615 12.9254 14.7371 13.2371 14.9086C12.4467 16.0803 11.3139 16.9132 10.9228 18.485C10.6254 18.2747 10.4237 17.9685 10.1303 17.7562ZM9.86546 17.4909C9.54357 17.2827 9.2665 17.0316 9.00777 16.7621C9.80434 15.5965 10.5826 14.4126 11.5197 13.3838C11.8212 13.5226 12.0433 13.743 12.1798 14.0472C11.3343 15.1209 10.4461 16.1518 9.86546 17.4909ZM9.403 18.683C9.458 18.4299 9.51505 18.1767 9.53542 17.8889C9.93269 18.24 10.3442 18.5789 10.1955 19.4791C9.90416 19.2423 9.63932 18.9769 9.403 18.685V18.683ZM7.35351 16.7621C7.45945 16.6192 7.35351 16.2967 7.48594 16.1661C8.55754 15.1087 9.786 13.7961 10.7252 12.655C11.0043 12.6856 11.0287 12.9694 11.2549 13.0531C10.2485 13.99 9.51097 15.1903 8.87535 16.4967C8.90591 16.6376 8.78163 16.6233 8.6757 16.6294C8.74496 16.8172 8.74496 16.905 8.6757 17.0928C8.73274 17.2888 8.77552 16.9397 8.94054 17.0275C9.2991 17.3949 9.26243 17.8032 9.13815 18.4176C8.88961 18.2237 8.66958 18.0032 8.47604 17.7542C8.50457 17.1581 8.81015 16.3069 8.54327 15.8333C8.13582 16.0864 8.17657 16.7907 8.08082 17.3561C7.77523 17.2214 7.58169 16.9744 7.35351 16.7601V16.7621ZM7.55113 14.6432C8.28658 13.7022 9.05666 12.7959 9.79823 11.8609C10.0692 11.8752 10.2077 12.0263 10.3279 12.1937C9.45393 13.349 8.38844 14.3146 7.61836 15.572C7.41056 15.3822 7.79764 14.8739 7.55113 14.6453V14.6432ZM6.4286 15.8354C6.65881 15.4251 6.45508 14.582 6.82586 14.3105C6.72604 14.1472 6.68937 13.9165 6.49583 13.8471C7.4513 13.0612 8.09711 11.963 8.94258 11.0648C9.18501 11.1975 9.44374 11.3139 9.53746 11.5956C8.43937 12.5264 7.50834 13.6246 6.8279 14.9739C6.99903 15.1515 7.02755 14.8943 7.22517 14.9086C7.20276 15.4598 7.09071 15.9231 7.02755 16.4314C6.80142 16.26 6.60176 16.062 6.43267 15.8354H6.4286ZM5.43645 14.9086C5.50775 14.4269 5.63814 14.0064 5.6361 13.4511C5.88872 13.6389 6.20246 13.7655 6.3634 14.0472C6.33692 14.5514 6.16986 14.9127 6.23098 15.5047C6.07615 15.7068 5.69518 15.0393 5.43849 14.9086H5.43645ZM4.31392 13.8492C4.39948 13.3817 4.48912 12.9204 4.57876 12.457C4.80082 12.6754 5.06363 12.8551 5.24087 13.1204C5.18994 13.6022 5.084 14.0247 5.04122 14.5126C4.72545 14.3656 4.52579 14.1023 4.31392 13.8492ZM3.18935 12.7224C3.16287 12.1222 3.34826 11.7323 3.32177 11.1322C3.63959 11.3649 3.89832 11.6568 4.11427 11.9936C4.05722 12.4447 3.93906 12.8346 3.91665 13.3184C3.6457 13.3919 3.40326 12.9204 3.18935 12.7224ZM2.79412 9.41136C4.14279 8.44582 4.8212 6.80665 6.3634 6.033C5.5322 5.91256 4.78045 6.64743 4.24669 7.22512C3.67829 7.8416 3.13027 8.56218 2.72689 9.21132C2.40704 8.95819 2.24406 8.54789 2.06478 8.15188C5.05956 4.74901 10.1079 3.40379 14.8893 1.7932C13.0252 3.0384 10.4787 3.59976 8.80812 5.03888C12.0351 4.09784 15.034 2.3566 18.3934 1.32982C21.0113 4.08151 23.3766 7.01078 25.9965 9.80738C28.5797 12.5652 31.3341 15.1556 33.6647 18.1523C34.8199 19.6383 36.0361 21.1224 37.234 22.5901C38.438 24.0659 39.7439 25.4418 40.8705 26.9625C43.138 30.0245 45.6174 32.9068 48.6712 35.1768C48.7303 35.2952 48.8566 35.3462 48.8036 35.5748C49.0114 35.6075 49.0624 35.4299 49.2009 35.5748C51.8432 38.2306 56.4169 40.1351 58.3238 43.8544C58.6538 44.4994 59.0857 45.3221 59.1835 45.9733C59.6276 48.9209 59.2385 52.8361 58.3238 54.7162C58.8453 51.4154 59.6215 45.2037 57.134 43.2563C58.7781 46.457 58.6538 52.9994 56.804 55.8409C55.5816 56.9555 54.2676 57.9802 53.035 59.0866C53.6503 59.2704 54.2757 58.658 54.7545 58.2926C55.2801 57.8884 55.7935 57.4291 56.1418 56.9678C54.5772 60.8748 49.9262 62.267 45.8292 63.8572C46.5789 62.8406 47.4611 61.9588 48.2088 60.9422C48.8322 60.7932 49.4209 60.6095 49.9934 60.4135C49.865 59.8154 49.1174 60.4911 48.606 60.3482C49.1092 58.7764 51.393 58.9886 51.9105 57.4332C51.886 57.3454 51.7943 57.3291 51.778 57.2352C50.2399 57.9496 48.2821 58.9989 46.2917 59.2214C41.8912 59.7154 38.2914 58.1415 35.7142 56.6391C36.2561 55.5531 37.0935 54.5753 37.8961 53.6588C38.1141 53.4077 38.3993 52.9831 38.7559 52.9974C39.0085 53.3138 38.5379 53.5894 38.3586 53.7915C37.7576 54.4733 36.9712 55.2816 36.574 56.1757C37.1627 56.0247 37.5315 55.351 37.9634 54.8509C38.3932 54.3508 38.8964 53.865 39.2183 53.3261C39.2448 52.9913 38.8944 53.0342 38.8211 52.7974C38.7803 52.4687 39.0227 52.4238 39.0207 52.136C38.7599 51.8686 38.5868 52.3687 38.4258 52.2013C37.9797 51.3889 37.6068 50.505 37.2361 49.619C37.1586 50.2273 37.5518 50.9357 37.7637 51.4746C36.6432 52.7565 35.5961 54.116 34.4593 55.3817C33.9051 54.9326 34.4959 54.412 34.9217 53.9242C35.6796 53.0566 36.7818 51.9951 37.3013 51.1419C36.8673 51.0418 36.6025 51.5583 36.3763 51.8053C35.6022 52.6524 34.7384 53.6629 33.9968 54.5876C33.8338 54.4202 33.7646 54.1589 33.5996 53.9915C34.5611 52.5483 36.1196 51.7032 36.8388 50.0171C35.645 50.8744 34.5102 52.3646 33.4019 53.5281C33.1758 53.422 33.1962 53.0729 33.0047 52.9321C33.9948 51.497 35.645 50.7193 36.3763 49.025C35.1784 49.8579 33.9276 51.2072 32.8722 52.4034C32.6726 52.2503 32.6319 51.938 32.5402 51.6746C33.2186 51.1194 33.8787 50.5458 34.5245 49.9518C35.1397 49.3863 35.9567 48.8331 36.1767 47.8982C34.8382 48.6576 33.6281 50.113 32.4078 51.2113C32.204 51.2603 32.3263 50.9826 32.0777 51.0786C32.0146 51.3909 31.9473 51.6991 31.8781 52.0074C31.9922 52.1931 32.0512 52.0707 32.2753 52.0747C32.2957 52.9688 32.9986 53.4996 32.9374 54.261C32.9782 54.4631 33.2532 54.4304 33.3327 54.5917C34.1211 57.2433 37.0812 58.3497 39.6787 59.4275C41.1069 60.0195 42.8161 60.0113 44.7699 60.091C45.2344 60.3849 43.4823 60.783 43.5801 60.289C43.2704 60.44 42.5981 60.6401 42.2579 60.3563C41.1109 60.6421 39.1653 60.4135 37.4989 60.489C34.6121 60.6197 32.0777 61.0422 29.8958 60.4237C29.7899 60.3318 30.0058 59.9236 29.8306 59.7603C29.4639 59.7031 29.5699 60.1175 29.3682 60.2236C28.5736 60.0277 27.6202 59.9889 27.3859 59.2295C27.2229 59.2377 27.0681 59.2397 26.9886 59.1622C26.4508 58.5171 26.0189 57.6883 25.9965 56.7105C25.4933 57.3331 25.2631 58.2293 24.8719 58.9621C24.4604 57.0923 25.695 56.2982 26.1269 55.055C25.6624 55.0959 25.6257 55.5695 25.3996 55.8491C26.4773 53.0668 29.032 51.1868 30.0934 48.1656C30.1362 47.5389 30.181 46.4223 30.4235 45.7814C30.236 45.6303 30.0894 45.6814 29.8938 45.4507C29.6656 45.8181 29.3091 46.0549 29.2989 46.6428C28.6205 47.3756 27.9319 48.0983 27.117 48.6964C27.1781 48.4718 27.2066 48.2105 27.2494 47.9676C28.268 46.9123 29.4761 46.0467 30.1586 44.6566C30.0017 44.5709 29.7838 44.5464 29.631 44.4586C29.1359 45.5078 28.1947 46.4632 27.3839 46.9755C27.3329 46.6591 27.4878 46.5489 27.4511 46.2468C28.3434 45.1322 29.6575 44.4402 30.2931 43.0685C29.2643 43.4298 28.3536 44.8322 27.4511 45.32C27.7811 44.2831 28.7264 43.8605 29.2357 43.0011C29.4415 42.995 29.4252 43.2093 29.6982 43.1338C29.9977 42.8807 29.851 42.1825 30.0934 41.8743C29.6778 41.9682 29.6839 41.4558 29.4313 41.2129C29.4802 40.8639 29.8204 40.8067 29.8938 40.4842C29.2541 40.227 28.865 40.9761 28.5044 41.4109C28.1112 41.8866 27.6732 42.4214 27.3818 42.8684C27.0029 41.5395 28.8324 40.9843 28.8364 39.8208C27.9013 40.0759 27.6996 41.0659 27.117 41.6743C26.9601 41.6089 27.0579 41.2925 26.9173 41.2109C27.4654 40.5005 27.8198 39.5983 28.5716 39.09C28.5329 38.8307 28.6286 38.7062 28.704 38.5592C28.7366 38.351 28.4005 38.5102 28.374 38.3612C27.9849 37.361 27.5367 36.4179 26.9194 35.6463C27.2474 35.089 27.7587 34.5664 28.1764 33.9908C28.5471 33.4804 29.1604 32.8681 28.9689 32.2026C28.0052 32.9803 27.3839 34.101 26.787 35.2482C26.3856 34.989 26.2247 34.4868 25.862 34.1888C26.3591 33.0314 27.392 32.4108 27.9115 31.2738C26.9214 31.8699 26.3286 32.8681 25.7296 33.856C25.2875 33.6805 25.1857 33.164 24.8047 32.9293C25.3303 31.8433 26.2817 31.186 26.7218 30.0143C26.1574 30.0551 25.9293 30.7594 25.5992 31.2064C25.2549 31.6718 24.8067 32.0903 24.6071 32.5966C24.2709 32.3149 23.9633 32.0066 23.6822 31.6698C23.9348 31.0982 24.3382 30.5389 24.6743 29.9469C24.9677 29.4284 25.5218 28.7936 25.2692 28.1588C24.7762 28.516 24.5684 29.1569 24.277 29.6816C23.9878 30.2021 23.6027 30.7063 23.4845 31.3371C23.0689 31.1146 22.7756 30.7675 22.5596 30.343C23.0832 29.0794 23.78 27.9893 24.4115 26.8319C23.7535 26.8503 23.5273 27.6933 23.2217 28.222C22.8958 28.7875 22.4496 29.357 22.362 30.0102C21.9138 30.0102 21.6836 29.2406 21.2395 29.0161C21.9179 27.7729 22.6533 26.591 23.4214 25.4397C25.8193 28.2037 28.0562 31.1289 30.6272 33.7193C29.4659 31.5637 27.9095 29.7163 26.3958 27.8893C24.8862 26.0664 23.4051 24.2354 22.032 22.2594C21.9811 22.0552 22.2133 22.1308 22.1644 21.9287C22.0401 21.8001 21.922 21.9083 21.7671 21.9287C19.6178 19.0933 16.7392 16.9867 13.9013 14.8412C13.8524 14.6392 14.0154 14.6473 13.9665 14.4432C13.4042 14.7453 13.2066 14.1145 12.7767 13.9125C12.7889 13.594 13.0966 13.5695 13.1067 13.2511C12.7828 13.0429 12.685 13.5573 12.3794 13.5818C11.9699 12.9714 10.88 12.7346 11.0573 11.9242C10.6885 11.8956 10.3992 12.0181 10.1323 11.6588C10.1201 11.3608 10.5418 11.4955 10.4624 11.1301C9.80638 11.2506 9.60265 11.369 9.14019 10.9975C9.12389 10.5831 9.57209 10.6341 9.66988 10.334C8.82849 10.1197 8.30288 11.0914 7.82005 11.6588C7.29851 12.2733 6.72807 12.9551 6.36544 13.5797C6.10875 13.4368 5.96614 13.1857 5.83575 12.9163C6.98069 12.0753 7.66114 10.7709 8.81015 9.93598C8.52086 9.58488 8.19694 9.9421 8.01766 10.0687C7.16609 10.6606 6.50601 11.9773 5.63814 12.5856C5.31625 12.3753 4.81712 11.9548 4.64599 11.3935C4.15298 11.1363 3.85146 10.6892 3.52346 10.2667C3.47253 9.97885 3.60495 9.65224 3.52346 9.53793C3.20565 9.38074 2.99581 9.87882 2.79616 9.40524L2.79412 9.41136ZM28.8405 42.1336C28.7101 41.8988 28.7529 42.0029 28.8405 41.7355C29.7593 42.8256 27.8504 43.3808 27.5183 44.2524C27.2392 43.0889 28.4595 42.8562 28.8405 42.1336ZM34.8565 55.7123C35.9159 54.4978 37.012 53.324 37.9634 52.0033C38.163 52.0462 38.1488 52.3034 38.2934 52.4013C37.3766 53.7568 35.9383 54.5896 35.3842 56.3084C35.0888 56.2288 34.9808 55.9614 34.8565 55.7123ZM1.34155 11.0832C1.38637 10.3116 1.4699 9.57875 1.67159 8.96432C2.0546 9.55221 2.48038 10.0972 2.92858 10.6198C2.82876 11.1383 2.77579 11.7038 2.73097 12.2753C1.87532 12.0324 2.40908 10.6647 2.13609 9.75839C1.76938 10.0544 2.0057 10.9526 1.93643 11.5466C1.68381 11.4466 1.50454 11.273 1.34155 11.0832Z" fill="black"/>
<path fill-rule="evenodd" clip-rule="evenodd" d="M41.997 105.273C42.0336 105.731 41.8177 105.933 41.7321 106.265C41.5386 106.041 41.4856 105.673 41.4673 105.273C41.5345 105.21 41.6017 105.143 41.6649 105.073C41.8034 105.112 41.8788 105.212 41.9949 105.273H41.997Z" fill="black"/>
<path fill-rule="evenodd" clip-rule="evenodd" d="M8.0829 8.69894C7.80583 9.19906 7.30466 9.69714 6.82794 10.2218C6.2351 10.875 5.74005 11.5527 4.97607 11.9446C5.71764 10.8301 6.72404 9.4134 8.0829 8.69894Z" fill="black"/>
<path fill-rule="evenodd" clip-rule="evenodd" d="M27.6528 12.1426C30.7698 14.831 33.2044 18.0277 35.6532 21.4816C36.8348 23.1494 38.161 24.7253 39.2224 26.5829C39.5464 27.1524 39.9783 27.7648 40.0822 28.4364C39.3936 28.2588 39.143 27.4729 38.76 26.9789C37.5417 25.4091 36.1869 23.7659 34.9911 22.0777C34.1823 20.9366 33.4733 19.7792 32.6115 18.6993C30.9328 16.5927 29.1461 14.5248 27.1252 12.6713C26.1269 11.7568 25.308 10.6402 24.4156 9.62366C22.6147 7.57623 20.7873 5.54716 18.9272 3.59567C19.5344 3.84063 20.0253 4.37137 20.5143 4.7878C23.0527 6.95159 25.0676 9.90944 27.6528 12.1406V12.1426Z" fill="black"/>
<path fill-rule="evenodd" clip-rule="evenodd" d="M6.23274 7.30679C5.91086 7.88448 5.39543 8.31316 4.97779 8.82961C4.60294 9.29503 4.31772 10.0442 3.58838 10.1544C4.2403 8.97454 5.11021 8.01309 6.23274 7.30679Z" fill="black"/>
<path fill-rule="evenodd" clip-rule="evenodd" d="M7.22469 8.10291C6.35275 9.06232 5.59081 10.132 4.51514 10.8852C5.12835 9.66859 6.06957 8.77858 7.22469 8.10291Z" fill="black"/>
<path fill-rule="evenodd" clip-rule="evenodd" d="M31.0245 43.8707C30.8167 42.946 31.8801 42.1724 32.6115 41.7498C32.2591 42.6317 31.5175 43.1277 31.0245 43.8707Z" fill="black"/>
<path fill-rule="evenodd" clip-rule="evenodd" d="M50.9876 46.7183C50.5374 46.1386 50.2624 44.7321 50.458 43.936C50.9143 44.5831 51.0447 45.7569 50.9876 46.7183Z" fill="black"/>
<path fill-rule="evenodd" clip-rule="evenodd" d="M52.5742 46.3223C52.5558 46.4081 52.2869 46.9286 52.2441 46.7204C52.0954 46.1896 51.7633 44.6199 52.1117 43.8074C52.4499 44.0851 52.727 45.6303 52.5742 46.3244V46.3223Z" fill="black"/>
<path fill-rule="evenodd" clip-rule="evenodd" d="M53.5667 40.625C51.9206 40.4985 54.074 39.0287 53.5667 40.625V40.625Z" fill="black"/>
<path fill-rule="evenodd" clip-rule="evenodd" d="M41.0049 28.5691C41.0619 28.5568 41.066 28.5956 41.0701 28.6364H41.2025C43.7389 31.2738 46.2386 34.003 49.1356 36.3199C50.0666 37.063 51.3032 37.6917 51.6475 38.9695C50.36 38.8797 49.4493 37.755 48.5407 36.9813C45.7823 34.6379 43.1196 31.7739 41.0049 28.7671V28.5691Z" fill="black"/>
<path fill-rule="evenodd" clip-rule="evenodd" d="M55.4836 46.653H55.6812C56.0072 47.047 55.8849 48.0084 55.616 48.3759C55.2452 48.135 55.2962 47.0511 55.4836 46.653Z" fill="black"/>
<path fill-rule="evenodd" clip-rule="evenodd" d="M42.2615 54.7346C42.3756 55.1877 41.9539 55.596 41.7318 55.992C41.524 56.3676 41.4181 57.0392 40.8721 57.0514C40.9536 55.9859 41.6401 55.5245 41.9966 54.7325H42.2615V54.7346Z" fill="black"/>
<path fill-rule="evenodd" clip-rule="evenodd" d="M53.5666 44.2014C53.7948 44.7383 54.0209 46.4652 53.3017 46.651C53.4179 46.0896 52.8637 44.4933 53.5666 44.2014Z" fill="black"/>
<path fill-rule="evenodd" clip-rule="evenodd" d="M55.5487 52.085C55.5242 53.3424 54.9294 54.5978 54.0269 55.198C54.0676 54.0446 55.1535 53.3689 55.2838 52.085H55.5487Z" fill="black"/>
<path fill-rule="evenodd" clip-rule="evenodd" d="M40.2124 54.4039C39.5035 55.4388 38.9391 56.6166 37.9653 57.3842C38.3565 56.0777 39.2692 55.2918 40.0148 54.3365C40.1228 54.3181 40.1289 54.3998 40.2124 54.4018V54.4039Z" fill="black"/>
<path fill-rule="evenodd" clip-rule="evenodd" d="M33.5365 38.5062C33.3307 38.3817 33.1657 38.2163 33.2064 37.8448C33.5039 37.8774 33.5324 38.1816 33.5365 38.5062Z" fill="black"/>
<path fill-rule="evenodd" clip-rule="evenodd" d="M32.2136 40.2943C32.0446 41.166 31.2459 41.7498 30.6938 42.0172C31.1339 41.3987 31.5312 40.7373 32.016 40.1637C32.1036 40.1882 32.1199 40.28 32.2136 40.2964V40.2943Z" fill="black"/>
<path fill-rule="evenodd" clip-rule="evenodd" d="M32.2788 45.5283C32.7637 44.822 32.7963 43.6625 33.7334 43.4073C33.5195 44.3872 32.7229 44.7791 32.2788 45.5283Z" fill="black"/>
<path fill-rule="evenodd" clip-rule="evenodd" d="M34.1309 46.3876C34.4059 46.1202 34.8337 46.3958 35.121 46.1896C34.2979 47.639 33.0267 48.6392 31.7493 49.6333C31.6577 49.27 31.5252 48.6392 31.6841 48.2432C31.6332 48.1125 31.4723 48.4228 31.2217 48.3085C31.7901 47.4226 32.6478 46.8224 33.6012 46.3223C33.3954 47.0878 32.6355 47.2981 32.1466 47.7798C32.3279 48.0248 32.112 48.333 32.1466 48.6412C32.8209 48.2126 33.5279 47.245 34.3285 46.7204C34.3774 46.4938 34.0596 46.6367 34.1309 46.3897V46.3876Z" fill="black"/>
<path fill-rule="evenodd" clip-rule="evenodd" d="M40.2126 53.2118C40.0639 53.9691 39.3896 54.5815 38.8904 55.198C38.377 55.8348 37.9777 56.5636 37.3706 57.0535C37.2606 56.237 37.9818 55.6266 38.428 55.0673C38.9495 54.4161 39.4405 53.7772 40.015 53.2118H40.2126Z" fill="black"/>
<path fill-rule="evenodd" clip-rule="evenodd" d="M64.5395 48.8393C64.621 49.0271 64.5925 49.2761 64.4071 49.368C64.1219 49.4312 64.183 48.9495 64.2747 48.8393H64.5395Z" fill="black"/>
<path fill-rule="evenodd" clip-rule="evenodd" d="M31.7496 38.9695C31.4277 39.5288 31.0264 40.0106 30.4946 40.3596C30.8104 39.7922 31.1119 39.2124 31.7496 38.9695Z" fill="black"/>
</svg>
