<svg width="118" height="87" viewBox="0 0 118 87" fill="none" xmlns="http://www.w3.org/2000/svg">
<path d="M115.78 25.8848V33.4335H103.292V41.5585L90.9824 29.2816L103.292 17.0047V25.8848H115.78Z" stroke="black" stroke-width="4" stroke-miterlimit="10"/>
<path d="M2.25488 25.8848V33.4335H14.7428V41.5585L27.0528 29.2816L14.7428 17.0047V25.8848H2.25488Z" stroke="black" stroke-width="4" stroke-miterlimit="10"/>
<path d="M37.4475 3C37.4475 3 43.8807 26.0211 31.3928 47.9107C29.1226 54.3267 25.7167 64.517 27.9869 83.3862" stroke="black" stroke-width="5" stroke-miterlimit="10" stroke-linecap="round"/>
<path d="M81.4321 3C81.4321 3 74.9988 26.0211 87.4868 47.9107C89.757 54.3267 93.1629 64.517 90.8927 83.3862" stroke="black" stroke-width="5" stroke-miterlimit="10" stroke-linecap="round"/>
<path d="M32.5283 45.8879C32.5283 45.8879 47.665 51.9263 59.0172 51.9263C68.0993 51.9263 79.0729 50.7936 86.2633 45.8879" stroke="black" stroke-width="5" stroke-miterlimit="10" stroke-linecap="round"/>
<path d="M29.501 54.1904C29.501 54.1904 51.0709 58.3423 59.3958 73.0608C61.2874 70.4192 71.0226 55.0593 89.5652 54.6818" stroke="black" stroke-width="5" stroke-miterlimit="10" stroke-linecap="round"/>
<path d="M59.3965 84V73.0558" stroke="black" stroke-width="5" stroke-miterlimit="10" stroke-linecap="round"/>
</svg>
