<svg width="94" height="95" viewBox="0 0 94 95" fill="none" xmlns="http://www.w3.org/2000/svg">
<path d="M46.2163 69.6513C45.7282 69.5131 45.2518 69.2829 44.787 69.0065C44.8218 68.972 44.8451 68.9374 44.8567 68.9029C44.8567 68.8453 44.7289 68.8569 44.6127 68.9029C42.8347 67.7861 41.2311 65.9324 39.7902 65.3107C39.7669 65.3337 39.7321 65.3452 39.6972 65.3683L39.6043 65.2646C39.1743 65.0689 38.7211 65.0229 38.2795 65.2071C38.5352 65.1035 38.7908 64.9998 39.0465 64.8962C39.0581 64.9192 38.2563 64.6314 37.7217 65.4258C37.6288 65.3798 37.5474 65.3452 37.4661 65.3107C37.3499 65.1265 37.1872 64.9883 37.0245 65.184C36.6178 65.161 36.4784 65.4949 36.8502 66.4851C38.5003 70.9063 44.694 75.2008 49.4119 75.3965C50.7366 75.4541 53.0026 74.3143 55.2105 72.7254C55.5591 72.4721 55.8961 72.2188 56.2447 71.954C56.3842 72.0922 56.4423 71.9655 56.4539 71.7928C60.1608 68.8223 63.124 64.9768 60.1724 64.1709C58.6966 63.7679 57.2208 66.2893 55.3035 68.6381C55.1989 68.6036 55.1757 68.6726 55.1989 68.7647C54.1763 69.9967 53.0259 71.1711 51.6779 71.8158C51.1782 71.8158 50.4345 72.0231 50.3532 72.0231C50.9923 70.9638 49.6559 71.6892 49.0401 72.3109C48.9936 72.3109 48.9471 72.3109 48.9006 72.2879C48.6101 72.0922 47.785 71.3553 47.5875 71.3207C47.541 71.3207 48.5636 71.4819 48.0639 71.0329C48.1337 71.0905 46.5533 69.9161 46.2163 69.6283V69.6513ZM40.685 67.6479C40.685 67.6479 40.6036 67.5789 40.5688 67.5443C40.6617 67.4522 40.6966 67.5443 40.685 67.6479ZM43.346 69.7664C43.346 69.7664 43.2647 69.7204 43.2298 69.6858C43.2996 69.6052 43.3809 69.5362 43.4971 69.4671C43.4622 69.5822 43.4041 69.6743 43.346 69.7664ZM43.0904 69.5246L43.0323 69.5592C43.0323 69.5592 42.9858 69.5246 42.9742 69.5131C43.0323 69.4901 43.0788 69.4901 43.0904 69.5246ZM42.8464 69.0641C42.6953 69.1677 42.8347 68.9029 42.8464 69.0641V69.0641ZM41.2776 67.1529C40.2085 67.8322 41.6378 66.3354 41.2776 67.1529V67.1529ZM40.9057 66.865C40.2318 67.6019 40.685 66.9456 40.7431 66.9111C40.836 66.8305 40.8941 66.819 40.9057 66.865ZM40.5688 66.4736C39.8483 67.9358 40.8709 66.462 40.5688 66.4736V66.4736ZM38.2563 65.4604C38.2563 65.4604 38.5119 65.7482 38.2679 65.7482C38.1982 65.7022 38.1285 65.6561 38.0587 65.6216C38.0936 65.5755 38.1517 65.5295 38.2447 65.4604H38.2563Z" fill="black"/>
<path d="M34.3163 52.0701C34.3163 52.0701 34.386 51.9896 34.4441 51.8974C35.0948 51.2757 35.7572 50.6079 36.3963 49.8941C37.5235 48.996 38.3951 48.2592 38.244 48.121C38 48.3052 37.7443 48.4664 37.477 48.6276C37.7908 48.2362 38.1045 47.8447 38.395 47.4417C39.0458 46.9351 39.6036 46.5091 39.6617 46.4746C40.2195 45.2772 40.3821 44.6324 40.3124 44.3561C40.3705 44.2525 40.417 44.1489 40.4635 44.0452C41.3002 42.7212 41.0561 43.2969 41.5674 41.3396C41.6836 41.6504 41.7301 41.9728 41.6953 42.3067C41.9974 41.3741 42.5203 37.6322 42.1717 36.17C42.2763 36.5154 42.3925 36.8608 42.4971 37.2062C43.3105 37.1486 39.3595 31.7258 39.6617 31.8639C39.1388 32.3475 38.3718 32.0136 39.5455 31.8179C36.8263 30.9083 33.5842 33.0498 31.1323 34.1782C30.5396 34.4545 28.1574 36.1585 26.9605 37.6783C26.9954 37.6783 27.0535 37.7358 27.1581 37.8855L26.9954 38.1043C26.9954 38.1043 26.9141 37.8164 26.9257 37.7128C26.7281 37.9776 26.5654 38.2309 26.4492 38.4727C25.8334 37.2868 25.0199 36.3197 24.1019 35.5828C24.3576 35.6289 24.6248 35.6519 24.8921 35.6404C24.3924 35.2604 24.1251 35.3525 23.8811 35.4101C22.812 34.5926 21.6035 34.0745 20.395 33.8443C19.0238 32.8656 17.8269 32.1172 17.6874 32.3821C17.9082 32.2899 19.2329 33.2916 19.5816 33.5795C19.1167 33.3031 15.526 32.6354 14.3756 33.8097C13.5505 34.6502 13.9805 35.1338 14.7591 35.3065C14.5267 35.5252 14.3291 35.7785 14.1316 36.0433C14.1316 35.8591 14.0967 35.721 13.9573 35.6749C13.2717 37.2062 13.3995 36.3427 13.1555 38.4497C13.0044 38.1618 12.9114 37.851 12.8882 37.5171C12.7139 38.6684 12.7487 41.4202 13.2252 43.0436C13.7481 44.1604 14.6196 46.9006 14.6196 47.1424C15.189 46.9351 15.6074 47.3611 14.6545 47.2114C15.0844 47.6029 15.7701 48.2362 16.6183 48.9615C16.537 48.973 16.4673 49.0076 16.4557 49.0766C16.444 49.1687 16.7229 49.2378 16.874 49.1803C19.14 51.1491 22.324 53.7626 24.4273 54.7298C24.4505 54.7067 24.4738 54.6837 24.5086 54.6607L24.7178 54.7988C24.7178 54.7988 24.6713 54.8104 24.6481 54.8219C25.5661 55.2133 26.2517 55.2479 26.5073 54.6952C26.4144 55.0061 26.4028 55.3054 26.4725 55.6163C26.6584 55.2018 26.763 55.0291 26.8211 55.0867C26.8211 54.9716 26.8211 54.8449 26.8211 54.7298C27.588 54.9716 28.0064 54.9946 27.7391 54.6607C27.9134 54.534 28.0761 54.3959 28.2504 54.2692C27.1813 55.9157 27.0884 57.044 29.8889 55.4091C30.958 55.1097 33.0729 53.6705 32.9567 53.4978C32.887 53.4518 32.8172 53.4287 32.7475 53.4057C33.0729 53.1409 33.4099 52.8416 33.7585 52.5422C33.7236 52.5998 33.7004 52.6573 33.6771 52.7149C33.712 52.6573 33.7236 52.5998 33.7585 52.5422C33.9444 52.3695 34.142 52.1968 34.3395 52.0701H34.3163ZM41.672 38.2194C41.672 38.2194 41.672 38.1849 41.672 38.1618C41.6953 38.1618 41.7069 38.1618 41.7301 38.1618C41.7301 38.1734 41.7069 38.1964 41.6836 38.2309L41.672 38.2194ZM41.4512 36.6075C40.4402 35.6634 41.7534 36.9299 41.4512 36.6075V36.6075ZM35.0716 33.165C35.0716 33.165 35.0019 33.1765 34.9554 33.188C34.9554 33.1419 34.967 33.0959 34.9903 33.0383C35.0367 33.0729 35.0367 33.1189 35.06 33.165H35.0716ZM30.191 35.0532C30.2259 35.2029 30.2259 35.3065 30.2143 35.3641C30.191 35.3871 30.1678 35.3986 30.1445 35.4101C29.9121 35.3756 29.5984 34.7884 30.191 35.0417V35.0532ZM29.61 35.5713C29.6797 35.6404 29.7146 35.6979 29.7611 35.744C29.7262 35.7785 29.6913 35.8016 29.6565 35.8361C29.6216 35.8131 29.5984 35.7785 29.5984 35.7785C29.5403 35.6634 29.5519 35.5943 29.6216 35.5713H29.61ZM29.2149 36.2045C29.1452 36.2621 29.0755 36.3197 29.0174 36.3888C28.9941 36.3082 28.9592 36.2161 28.9244 36.1124C28.9825 35.5022 29.0755 35.7785 29.2149 36.2045ZM18.71 33.7176C18.2917 33.7291 17.8966 33.7867 17.5015 33.8673C17.7455 33.4298 18.1871 33.4643 18.71 33.7176ZM16.6881 34.0976C16.6881 34.0976 16.6183 34.1321 16.5835 34.1436C16.4673 33.9479 16.6764 34.0055 16.6881 34.0976ZM16.0838 33.3607C16.0838 33.3607 16.0838 33.3031 16.1419 33.3607C16.1419 33.3722 15.6074 34.2818 15.038 34.04C15.2355 33.5795 15.5957 33.3492 16.0838 33.3607ZM15.2588 34.5811C15.4447 34.7423 14.8753 34.7193 14.7939 34.6848C14.608 34.1666 14.7939 34.1206 15.2588 34.5811ZM14.6545 34.8229C14.6545 34.8229 14.6545 34.7999 14.8753 34.9265C14.9101 34.9956 14.945 35.0532 14.9682 35.0992C14.9218 35.1338 14.8753 35.1798 14.8288 35.2144C14.6196 35.0417 14.3756 34.7078 14.6545 34.8114V34.8229ZM13.6086 36.8378C13.6668 36.7342 13.5505 36.5154 13.8411 36.4578C13.7713 36.573 13.7132 36.6881 13.6551 36.8032C13.597 36.8838 13.5505 36.9299 13.6086 36.8493V36.8378ZM21.5338 52.4961C21.6035 52.5307 21.6849 52.5767 21.7662 52.6113C21.65 52.7149 21.5222 52.7379 21.5338 52.4961ZM22.7307 53.2791C22.231 53.3021 22.3124 53.2445 22.6842 53.0488C22.7656 53.0833 22.8469 53.1294 22.9399 53.1639C22.8701 53.1985 22.812 53.233 22.7307 53.2791Z" fill="black"/>
<path d="M57.0235 43.6308C56.9305 43.4581 56.8259 43.3084 56.7213 43.1472C57.2559 44.2065 58.1971 46.4631 58.2785 46.9697C58.7898 46.82 59.1151 47.1539 58.2785 47.0618C58.4528 47.2345 59.243 47.9368 60.1958 48.7313C60.1261 48.7543 60.0564 48.7888 60.0448 48.8579C60.0448 48.9385 60.3004 49.0076 60.4515 48.95C61.8459 50.0899 63.5077 51.3333 64.356 51.5636C64.4722 51.6442 64.5767 51.7363 64.693 51.8169C64.3095 53.0718 66.0642 54.1196 67.7026 54.5571C67.6794 54.5341 67.7026 54.4765 67.8886 54.3383L68.121 54.488C68.121 54.488 67.8653 54.5686 67.7607 54.5801C69.0855 54.9255 70.294 54.8449 70.1313 54.1311C70.2708 54.442 70.5032 54.6262 70.8285 54.6953C70.6542 54.3614 70.5729 54.1656 70.5845 54.0966C70.631 54.0505 70.7356 54.0966 70.9331 54.2693C70.9331 54.2693 70.8518 54.1772 70.7588 54.0505C70.8285 54.0275 70.9099 53.9814 70.9796 53.9354C71.1191 53.8433 71.2585 53.7511 71.4096 53.6475C71.4096 53.6706 71.4212 53.6936 71.4328 53.7166C71.7582 54.3729 74.8027 52.0932 74.7098 51.955C74.3728 51.7248 74.0706 51.7593 73.815 52.0471C73.8266 52.0011 73.8731 51.955 73.908 51.8975C74.5936 51.4024 75.3024 50.8497 76.0345 50.2741C75.9532 50.4468 75.8834 50.631 75.9299 50.6195C75.9532 50.6195 76.1275 50.3316 76.2088 50.1359C77.1268 49.3875 78.0448 48.5816 78.9164 47.7411C79.3231 47.3957 79.5787 47.1654 79.5787 47.0733C82.7279 43.8035 84.9358 39.958 83.3089 36.3312C83.2973 36.2161 83.274 36.1009 83.2508 36.0088C83.3438 36.3312 83.4484 36.6421 83.5529 36.9645C84.0642 36.9414 81.0197 31.6913 81.2869 31.864C80.7408 32.2785 80.0087 31.9561 81.1824 31.8179C80.1365 31.4149 72.3624 32.1979 72.7575 34.3739C71.7349 33.4298 69.9454 35.295 69.2365 37.0105C69.0158 35.9167 67.4935 33.6716 67.1681 33.9825C67.1216 34.1091 67.0984 34.2242 67.0984 34.3394C66.2152 33.7177 65.3786 33.2686 64.5884 32.9578C64.6813 32.9923 65.4134 33.0614 65.3553 33.0038C65.3321 32.9578 64.4838 32.8196 64.5768 32.9462C64.4141 32.8887 64.263 32.8426 64.1119 32.7851C64.3443 31.7834 61.2068 32.0137 60.068 32.1403C60.4399 32.1979 60.986 32.3591 61.3811 32.4857C61.1603 32.5202 60.9396 32.5663 60.7304 32.6239C59.4173 32.8196 57.3721 33.3953 56.8724 33.9479C55.9428 34.9956 56.6748 35.4217 57.6742 35.4332C57.4069 36.0088 57.1978 36.6421 57.0583 37.3099C56.4889 36.7112 57.0583 35.9628 56.5819 35.8246C56.0938 37.2638 56.1519 36.976 56.1635 38.68C55.9776 38.4267 55.8382 38.1388 55.7568 37.8395C55.7917 39.0139 56.2681 42.5485 57.0118 43.6653L57.0235 43.6308ZM56.9305 41.5468C56.9305 41.5468 56.977 41.4547 57.0351 41.3856C57.0351 41.4202 57.0351 41.4547 57.0467 41.4893C57.0118 41.5123 56.977 41.5238 56.9305 41.5353V41.5468ZM74.8376 36.5269C75.2676 36.2621 75.7324 36.0088 76.2785 35.8016C76.7317 35.6404 77.1617 35.5368 77.5684 35.5022C76.6736 35.7555 75.744 36.1125 74.8376 36.5269ZM65.088 52.0817C65.088 52.0817 65.2043 52.1623 65.2624 52.2083C65.1694 52.2774 65.088 52.2544 65.088 52.0817ZM65.9596 52.6804C66.0293 52.7264 66.099 52.7725 66.1688 52.8186C65.7737 52.8186 65.762 52.784 65.9596 52.6804ZM69.3876 53.7627C69.3876 53.7627 69.469 53.7396 69.5038 53.7281C69.5735 53.7857 69.6433 53.8433 69.713 53.8893C69.6897 53.9008 69.469 53.8317 69.376 53.7511L69.3876 53.7627ZM77.5103 32.9923C77.5103 32.9923 77.429 32.9923 77.3941 33.0038C77.3941 32.9578 77.3709 32.9232 77.3709 32.8772L77.5103 32.9923ZM76.755 32.7045C76.8712 32.8196 76.8944 32.9462 76.906 33.0959C76.8479 33.1074 76.7898 33.1189 76.7317 33.1305C76.6853 33.0153 76.6852 32.8772 76.755 32.7045ZM76.418 33.0959L76.3947 33.2226C76.3947 33.2226 76.3134 33.2341 76.2785 33.2456C76.3018 33.165 76.3483 33.0844 76.418 33.0959ZM75.6859 33.1189C75.4883 33.0729 75.6859 33.3147 75.6859 33.1189V33.1189ZM72.2811 34.5581C71.4444 34.1782 72.5484 35.6289 72.2811 34.5581V34.5581ZM71.7466 35.0532C71.886 35.2029 71.9557 35.295 71.9906 35.3526C71.9674 35.3641 71.9441 35.3871 71.9209 35.4101C71.8395 35.3526 71.7466 35.2835 71.7349 35.2605C71.6768 35.1453 71.6768 35.0762 71.7349 35.0532H71.7466ZM71.4444 35.7671C71.3863 35.8131 71.3282 35.8707 71.2701 35.9167C71.2236 35.8131 71.1772 35.698 71.1307 35.5598C71.1307 34.8805 71.3166 35.3756 71.4561 35.7671H71.4444ZM69.5271 37.2523L69.3876 37.4711C69.3528 37.3789 69.1203 36.7342 69.5271 37.2523ZM63.9492 32.6929C63.9492 32.6929 63.9028 32.6699 63.8795 32.6699C63.9144 32.6699 63.9376 32.6699 63.9492 32.6929ZM58.4993 33.3838C58.4528 33.614 58.0925 34.2933 57.5812 34.1206C57.7323 33.6716 58.0461 33.4298 58.4993 33.3838ZM57.8369 34.6502C58.0344 34.7999 57.4534 34.7884 57.3837 34.7769C57.1629 34.2703 57.3721 34.2242 57.8369 34.6502ZM57.2559 34.9151C57.2559 34.9151 57.2559 34.892 57.4883 35.0187C58.1042 35.9743 56.7213 34.7539 57.2559 34.9151ZM56.6051 36.5845C56.5935 36.7112 56.3262 37.2178 56.4076 36.999C56.4541 36.8954 56.2914 36.6766 56.6051 36.5845Z" fill="black"/>
<path d="M86.5625 21.283C81.9608 13.3502 74.5934 7.605 66.1338 4.13944C61.8458 2.37787 57.3371 1.16896 52.7819 0.339984C52.0846 0.213336 48.5288 -0.811366 48.982 1.45679C49.133 2.21669 51.1201 2.71177 53.1305 3.04566C55.5592 4.13944 58.7664 5.65922 59.882 5.82041C62.4501 6.20036 63.9724 7.81225 67.5747 7.74317C67.7025 7.74317 67.7374 7.69711 67.7141 7.63955C68.911 8.26127 70.0847 8.94057 71.2119 9.65441C70.6192 10.4258 72.1764 10.9554 73.7451 11.3929C74.4075 11.888 75.0466 12.3946 75.6858 12.9127C75.4998 13.0048 75.3488 13.0739 75.3488 13.0739C75.7206 13.7072 77.1267 14.5592 78.4979 15.4342C79.5089 16.4243 80.4618 17.4491 81.3681 18.5313C81.0195 19.8439 82.9369 21.2715 83.6341 21.8702C84.5986 21.6745 85.8769 32.1403 88.7588 31.1386C89.5954 32.716 88.5844 33.9249 89.1422 35.9628C89.6535 34.8575 90.0138 35.6289 90.4437 35.9858C90.467 36.0664 90.4902 36.1355 90.5018 36.2161C88.8169 36.8148 90.4553 38.9563 90.2926 40.384C90.5948 40.0846 90.8969 39.7968 91.1874 39.4974C91.2804 39.9925 91.3501 40.4991 91.4198 41.0057C91.1061 40.7984 90.7342 40.6833 90.3159 40.7063C90.5134 41.8001 90.6529 42.9169 90.711 44.0222C91.1409 43.7689 91.4779 43.7459 91.7452 43.9301C91.7568 44.1143 91.7684 44.2985 91.7801 44.4943C91.4547 44.6094 91.1177 44.6094 90.7691 44.5058C89.9208 47.3496 90.2229 48.2707 91.6871 47.246C91.7452 47.2575 91.8033 47.246 91.8498 47.246C91.8498 47.7181 91.8498 48.1901 91.8382 48.6737C91.5825 48.4895 91.2688 48.3052 90.8853 48.1095C90.8156 49.0766 89.9208 52.1623 91.6522 51.6902C91.6522 51.7132 91.6522 51.7363 91.6522 51.7593C90.5251 52.9337 90.7575 53.8778 91.292 54.6031C91.1642 55.363 91.0247 56.1229 90.8737 56.8713C89.8162 57.1591 88.8052 57.6312 89.607 59.2431C89.8278 58.9552 90.1183 58.7825 90.4553 58.7135C90.1881 59.7612 89.8976 60.7974 89.5722 61.8221C88.3637 63.008 87.6664 64.6314 86.7949 66.5426C87.0854 66.6808 87.3294 66.7959 87.5618 66.8996C87.4689 67.1068 87.3759 67.3025 87.283 67.4983C87.19 67.4407 87.1086 67.3831 87.0041 67.3255C87.0041 67.6594 86.9576 67.9818 86.8879 68.2927C86.516 69.0295 86.1325 69.7549 85.7258 70.4687C85.4353 70.7566 85.0983 71.0214 84.7032 71.2517C84.8775 71.2862 85.0518 71.2977 85.2261 71.2977C84.8194 71.977 84.3895 72.6448 83.9479 73.3011C83.8898 73.0708 83.7736 72.8175 83.5528 72.5412C82.4953 74.0955 81.5425 75.9146 80.4269 77.4229C80.2991 77.5956 80.1829 77.895 80.0783 78.2634C79.2881 79.1269 78.4747 79.9674 77.6148 80.7618C77.731 80.4625 77.8704 80.1516 78.0215 79.8638C75.1047 82.4313 72.4436 84.9067 68.8762 86.6107C68.9459 86.7373 69.0389 86.8525 69.1202 86.9676C68.8529 87.1173 68.574 87.2669 68.2952 87.4051C67.2145 87.9693 66.0989 88.4874 64.9601 88.9709C64.0188 89.0861 63.1008 89.3048 62.4966 89.915C61.9272 90.1108 61.3461 90.2835 60.7651 90.4562C60.7302 90.3065 60.707 90.1453 60.6605 89.9956C59.7076 90.2604 57.5695 90.7325 57.2674 90.8937C57.3603 91.0319 57.4533 91.1355 57.5579 91.2391C57.1395 91.3312 56.7096 91.4118 56.2912 91.4809C55.1176 91.2736 53.3164 91.3082 52.9446 91.3312C53.3745 91.4233 53.5837 91.6075 53.5721 91.8493C53.2699 91.8839 52.9678 91.9184 52.654 91.9529C51.0737 92.0911 49.4933 92.1141 47.9245 92.0681C47.9478 91.976 47.9594 91.8839 48.0059 91.7802C47.0879 91.7227 46.1931 91.5615 45.3215 91.2852C45.4494 91.4118 45.554 91.6536 45.6121 91.9414C43.9039 91.8033 42.2189 91.5615 40.5455 91.2276C39.43 90.5598 36.0601 89.6963 34.898 89.7308C34.3402 89.5466 33.7825 89.3394 33.2363 89.1321C32.818 87.9693 31.9697 87.0136 30.8192 88.142C30.4241 87.9693 30.0407 87.7966 29.6456 87.6123C28.2511 86.3919 25.9154 84.6073 24.8812 84.9873C24.5093 84.78 24.184 84.5728 23.8702 84.3655C22.7198 83.4329 21.0116 81.7635 20.663 81.4296C19.6752 80.497 19.0361 80.3358 18.4318 80.2437C17.9322 79.8062 17.4325 79.3572 16.9444 78.8966C17.142 78.7469 16.6888 78.3785 15.9451 77.9295C14.5739 76.5594 13.284 75.0972 12.0987 73.5659C12.4008 73.4162 12.6913 73.5428 12.9121 74.2221C13.9812 73.5659 13.0283 73.3356 11.8663 73.2665C11.4596 72.7369 11.0645 72.1958 10.6694 71.6431C10.9483 71.6892 11.2853 71.8273 11.6804 72.0576C11.2039 71.4013 10.588 70.9984 9.93731 70.5493C8.47313 68.3157 7.18326 65.967 6.13742 63.4916C5.81205 62.7086 5.50992 61.9257 5.24265 61.1428C4.9289 59.6115 4.61514 58.0457 4.09222 56.2956C3.9063 55.6163 3.72037 53.9469 3.37176 52.7955C2.90694 48.4549 3.18583 44.1028 4.09222 39.8313C4.30139 39.3477 4.49894 39.0714 4.66162 39.1405C4.66162 38.4151 4.70811 37.7243 4.77783 37.045C5.99798 32.6239 7.86887 28.3293 10.2278 24.2766C10.9018 23.2634 11.599 22.2387 12.3079 21.1564C12.2498 21.1679 12.2149 21.1564 12.1684 21.1794C12.3079 20.9722 12.4357 20.7649 12.5751 20.5577C12.5751 20.6383 12.5751 20.7074 12.5751 20.7995C14.2717 18.5889 16.0961 16.4589 18.2808 14.7088C18.0484 14.6628 17.8392 14.5937 17.63 14.5131C17.8276 14.3174 18.0135 14.1101 18.2111 13.9144C19.1639 14.1677 19.7333 13.5229 21.6042 12.0377C23.4635 10.5525 25.009 10.3452 24.0329 9.27446C24.2653 9.12479 24.4977 8.9636 24.7301 8.81392C24.8347 9.00965 24.9509 9.22841 25.0671 9.47019C26.8799 8.08857 28.4254 7.67409 29.1459 6.46517C29.4364 6.32701 29.7385 6.20036 30.0407 6.07371C30.1104 6.18884 30.1336 6.33852 30.0755 6.55728C30.4939 6.35003 30.9122 6.14279 31.3305 5.93555C31.2376 5.84344 31.1446 5.75133 31.0516 5.65922C31.2492 5.57863 31.4467 5.49803 31.6559 5.42895C31.6675 5.53257 31.6908 5.64771 31.6791 5.77436C36.8038 3.62133 42.3351 3.89766 47.2157 1.69858C47.8199 1.41074 47.3319 1.14593 46.4255 0.904146C47.1808 0.662362 47.6689 0.501173 47.6224 0.501173C46.8554 0.535714 46.1001 0.604795 45.3332 0.673876C43.4739 0.339984 41.0336 0.121228 40.7198 0.132741C39.2092 0.224849 38.1285 0.5242 37.2221 0.915659H38.756C37.9077 1.57193 37.3151 1.69858 36.9664 1.29561C36.92 1.23804 36.8735 1.18047 36.8386 1.09988C35.5023 1.77917 34.5494 2.67723 33.062 3.43712C32.3996 3.6789 31.7373 3.94371 31.0865 4.22004C30.9935 4.25458 30.9122 4.2776 30.8076 4.30063C30.6217 4.41576 30.4009 4.49636 30.1917 4.59998C30.6914 4.00128 29.448 4.31214 29.8199 3.4256C28.7159 3.90917 23.1149 6.78755 23.3589 6.96025C24.1026 6.63787 24.8347 6.32701 25.5784 6.00463C23.4403 7.06387 16.4099 10.2761 15.8753 12.6019C16.2704 12.8552 16.5958 13.0739 16.8979 13.2581C16.7469 13.3963 16.6074 13.5229 16.4564 13.6611C16.224 13.3848 16.0148 13.0854 15.8405 12.717C14.1671 15.6529 12.1103 15.2385 10.7972 19.0264C10.6578 19.4179 10.2859 20.2468 9.80948 21.214C8.58933 22.9295 7.46215 24.7256 6.43955 26.6138C6.31173 26.7289 6.1839 26.821 6.07932 26.8441C4.80107 27.2816 0.594471 39.0599 1.3498 40.3034C1.31494 40.2458 1.41952 40.027 1.58221 39.7277C1.22197 41.5353 0.966325 43.3314 0.8385 45.1275C0.722296 45.6111 0.629332 45.968 0.594471 46.1062C-0.125996 49.1572 0.431785 53.1064 1.04767 56.1229C1.19873 56.0193 1.33818 55.8926 1.45438 55.766C1.9192 58.299 2.61643 60.7744 3.52282 63.1922C3.88306 64.3896 4.30139 65.4719 4.81269 66.2663C5.42857 67.5904 6.10256 68.8914 6.83465 70.1579C7.40405 72.2533 9.7049 74.8669 11.2388 76.4903C12.9238 78.5512 14.783 80.4855 16.8166 82.2931C17.142 82.7536 17.4441 83.2487 17.7114 83.8129C18.6643 86.012 20.4654 85.5745 21.9993 86.3459C23.2543 87.1979 24.5442 88.0153 25.8806 88.7637C42.4397 98.1011 64.2512 96.1784 78.5444 83.5481C96.5561 67.6249 98.241 41.3165 86.6322 21.2946L86.5625 21.283ZM33.1201 5.1296C33.0271 5.06052 32.9574 5.01447 32.8877 4.9569C32.9806 4.92236 33.062 4.89933 33.1549 4.86479C33.1666 5.04901 33.2712 5.22171 33.1317 5.1296H33.1201ZM27.5074 5.8089C27.0542 5.88949 27.2634 5.94706 27.4144 5.90101C27.1239 6.05068 26.8218 6.20036 26.5313 6.36155C26.2756 6.26944 25.9851 6.13128 25.7295 5.97009C26.3221 5.91252 26.9148 5.86647 27.519 5.8089H27.5074ZM22.7314 8.27279C23.2427 7.89284 23.6029 7.80073 23.8818 7.90436C23.5913 8.08857 23.3008 8.2843 23.0103 8.46852C22.9173 8.39944 22.836 8.34187 22.7314 8.27279ZM85.2842 25.497C85.505 25.1631 85.6677 24.9328 85.7723 24.7716C85.9234 25.0365 86.0861 25.3013 86.2371 25.5661C85.935 25.474 85.6212 25.4394 85.2842 25.497ZM81.6587 76.1449C81.8562 75.9146 82.0886 75.7074 82.321 75.5117C82.1583 75.7189 81.9957 75.9146 81.833 76.1219C81.7749 76.1219 81.7284 76.1334 81.6587 76.1449Z" fill="black"/>
</svg>
