<svg width="88" height="100" viewBox="0 0 88 100" fill="none" xmlns="http://www.w3.org/2000/svg">
<path d="M82.5911 75.8966H6.81641V37.9502C6.81641 17.022 23.8119 0 44.7037 0C65.5956 0 82.5911 17.022 82.5911 37.9464V75.8928V75.8966ZM7.57286 75.1351H81.8308V37.9502C81.8308 17.4446 65.1736 0.765248 44.7037 0.765248C24.2339 0.765248 7.57666 17.4446 7.57666 37.9464V75.1313L7.57286 75.1351Z" fill="black"/>
<path d="M87.9203 45.8311C87.7264 45.8349 87.5288 45.8387 87.3349 45.8387C87.3197 45.8197 87.2969 45.8083 87.2627 45.8045C86.9092 45.7664 86.5556 45.7778 86.2021 45.793C86.1831 45.7702 86.1565 45.755 86.1147 45.755C86.0653 45.755 86.0159 45.755 85.9664 45.755C84.9629 45.7055 83.9404 45.1648 83.3055 44.3844C82.6403 43.5658 82.4655 42.4731 82.359 41.4414C82.3438 40.897 82.3324 40.3487 82.3058 39.8043C82.2982 39.6406 82.0625 39.6406 82.0511 39.8043C81.9941 40.7904 81.9637 41.7802 81.9637 42.7663C81.8915 42.9947 81.8231 43.2232 81.7584 43.4554C81.6976 43.6724 81.6368 43.8856 81.5151 44.0798C81.3973 44.2701 81.2377 44.4377 81.0742 44.59C80.4774 45.1382 79.6905 45.5037 78.8847 45.6027C78.649 45.6103 78.4095 45.6179 78.1738 45.6255C77.3679 45.6027 76.5507 45.6636 75.7638 45.7511C75.6308 45.7664 75.627 45.9529 75.7638 45.9605C76.3872 46.0024 77.0068 46.0024 77.6302 45.9948C78.2004 45.9872 78.782 45.8654 79.3446 46.01C80.1087 46.208 80.7891 46.6154 81.3099 47.1903C81.3935 47.3007 81.4657 47.4111 81.5342 47.5329C81.8116 48.0393 81.8839 48.618 81.9371 49.1814C81.9447 49.2462 81.9485 49.3147 81.9523 49.3794C81.9523 49.4175 81.9523 49.4556 81.9523 49.4936C81.9523 49.5127 81.9561 49.5317 81.9637 49.5507C81.9827 49.8058 81.9941 50.0609 82.0055 50.316C82.0017 50.6282 81.9979 50.9404 81.9903 51.2488C81.9903 51.2488 81.9903 51.2564 81.9903 51.2602C81.9751 51.6142 81.9713 51.9683 82.0131 52.3148C82.0321 52.4823 82.264 52.4861 82.2754 52.3148C82.302 51.9607 82.3058 51.6066 82.3096 51.2488C82.3286 51.2259 82.3476 51.1954 82.3514 51.1536C82.3894 50.7576 82.3856 50.3617 82.3666 49.9657C82.397 49.585 82.4389 49.2005 82.4617 48.8198C82.7011 47.9174 83.1725 47.0761 83.967 46.5583C84.2255 46.3908 84.5068 46.2651 84.8109 46.1928C84.9933 46.1471 85.1834 46.1395 85.3696 46.1166C85.5293 46.0938 85.6889 46.0633 85.8486 46.0519C85.9056 46.0481 85.9588 46.0443 86.0159 46.0443C86.1375 46.0519 86.2591 46.0595 86.3808 46.0633C86.453 46.0633 86.529 46.0633 86.6013 46.0633C87.0498 46.09 87.4908 46.1243 87.9393 46.0062C88.0305 45.9834 88.0153 45.8349 87.9165 45.8387L87.9203 45.8311ZM80.9678 45.0735C81.0476 45.0126 81.1236 44.9516 81.1996 44.8831C81.1312 44.9554 81.0514 45.0202 80.9678 45.0735ZM81.557 45.1648C81.557 45.1648 81.5342 45.1763 81.5228 45.1839C81.652 45.0849 81.766 44.9707 81.8611 44.8412C81.7888 44.9669 81.6824 45.0735 81.557 45.1648ZM82.8912 45.5532C82.8912 45.5532 82.8912 45.5456 82.8912 45.5418C82.895 45.5418 82.8988 45.5456 82.9026 45.5494C82.9026 45.5494 82.895 45.5532 82.8912 45.557V45.5532ZM83.91 45.4199C83.91 45.4199 83.91 45.4199 83.9138 45.4199C83.9138 45.4199 83.9138 45.4199 83.91 45.4199Z" fill="black"/>
<path d="M10.7356 41.034C10.6102 41.034 10.4847 41.0378 10.3631 41.0378C10.3517 41.0264 10.3365 41.0188 10.3175 41.015C10.0894 40.9922 9.86512 40.9998 9.64084 41.0074C9.62944 40.9922 9.61043 40.9807 9.58382 40.9807C9.55341 40.9807 9.5192 40.9807 9.48879 40.9807C8.84638 40.9503 8.19256 40.6038 7.78582 40.1051C7.36008 39.5797 7.24984 38.883 7.18142 38.2243C7.17381 37.8741 7.16621 37.5276 7.14721 37.1773C7.1434 37.0707 6.99135 37.0746 6.98375 37.1773C6.94954 37.8093 6.92673 38.4413 6.92673 39.0733C6.88112 39.2218 6.8355 39.3665 6.79369 39.515C6.75567 39.6558 6.71386 39.7929 6.63783 39.9147C6.56181 40.0366 6.46298 40.1432 6.35654 40.2383C5.97641 40.5886 5.47084 40.8208 4.95767 40.8856C4.80562 40.8894 4.65357 40.897 4.50152 40.9008C3.98454 40.8856 3.46377 40.9236 2.9582 40.9807C2.87457 40.9884 2.87077 41.1102 2.9582 41.114C3.35733 41.1406 3.75266 41.1406 4.1518 41.1368C4.51672 41.133 4.88925 41.0531 5.24657 41.1445C5.73693 41.2701 6.17028 41.5328 6.50479 41.8983C6.55801 41.9668 6.60362 42.0391 6.64544 42.1191C6.8241 42.4427 6.86971 42.812 6.90392 43.1737C6.90772 43.2156 6.91153 43.2574 6.91533 43.2993C6.91533 43.3222 6.91533 43.3488 6.91533 43.3717C6.91533 43.3831 6.91533 43.3983 6.92293 43.4097C6.93433 43.5734 6.94194 43.7333 6.94954 43.8971C6.94954 44.095 6.94574 44.2968 6.94194 44.4948C6.94194 44.4948 6.94194 44.4986 6.94194 44.5024C6.93053 44.727 6.93053 44.9555 6.95714 45.1763C6.96854 45.2829 7.1168 45.2867 7.1244 45.1763C7.1434 44.9517 7.1434 44.7232 7.14721 44.4948C7.15861 44.4796 7.17001 44.4605 7.17381 44.4339C7.19662 44.1826 7.19662 43.9275 7.18142 43.6724C7.20042 43.4288 7.22703 43.1851 7.24224 42.9376C7.39429 42.3589 7.69839 41.8221 8.20396 41.4909C8.37122 41.3843 8.54988 41.3044 8.74374 41.2587C8.86158 41.232 8.98322 41.2244 9.10106 41.2092C9.2037 41.1939 9.30253 41.1749 9.40897 41.1673C9.44318 41.1673 9.48119 41.1673 9.5154 41.1635C9.59523 41.1673 9.67125 41.1749 9.75108 41.1749C9.7967 41.1749 9.84611 41.1749 9.89173 41.1749C10.1768 41.1939 10.4619 41.213 10.747 41.1406C10.8078 41.1254 10.7964 41.0302 10.7318 41.034H10.7356ZM6.28812 40.5505C6.33753 40.5125 6.38695 40.4706 6.43637 40.4287C6.39075 40.4744 6.34133 40.5163 6.28812 40.5505ZM6.66444 40.6076C6.66444 40.6076 6.64924 40.6153 6.64164 40.6191C6.72526 40.5543 6.79749 40.482 6.85831 40.3982C6.81269 40.4782 6.74427 40.5467 6.66444 40.6038V40.6076ZM7.51973 40.8551C7.51973 40.8551 7.51973 40.8513 7.51973 40.8475C7.51973 40.8475 7.52353 40.8475 7.52733 40.8513C7.52733 40.8513 7.52353 40.8513 7.51973 40.8551Z" fill="black"/>
<path d="M55.8037 13.5689C55.625 13.5727 55.4502 13.5765 55.2715 13.5765C55.2563 13.5613 55.2335 13.5498 55.2069 13.546C54.8838 13.5118 54.5645 13.5232 54.2414 13.5346C54.2262 13.5118 54.1995 13.5003 54.1615 13.5003C54.1159 13.5003 54.0703 13.5003 54.0247 13.5003C53.1124 13.4547 52.1811 12.9635 51.6033 12.2554C50.9989 11.5092 50.8392 10.5155 50.7404 9.57892C50.729 9.08398 50.7176 8.58524 50.691 8.0903C50.6834 7.94182 50.4667 7.94182 50.4591 8.0903C50.4097 8.9888 50.3793 9.8873 50.3793 10.7858C50.3146 10.9952 50.25 11.2046 50.193 11.414C50.1398 11.612 50.079 11.8061 49.9725 11.9813C49.8661 12.1564 49.7216 12.3049 49.5696 12.4457C49.026 12.9445 48.3076 13.2757 47.5777 13.3671C47.3611 13.3747 47.1482 13.3823 46.9315 13.3861C46.1979 13.3671 45.4566 13.4204 44.7382 13.5003C44.6165 13.5118 44.6127 13.6831 44.7382 13.6907C45.3046 13.7288 45.8671 13.7288 46.4373 13.7212C46.9543 13.7135 47.4865 13.6031 47.9959 13.7326C48.6915 13.9115 49.3111 14.2846 49.7863 14.8062C49.8623 14.9052 49.9307 15.008 49.9877 15.1184C50.2386 15.5791 50.307 16.1045 50.3565 16.6184C50.3641 16.6794 50.3641 16.7403 50.3717 16.7974C50.3717 16.8316 50.3717 16.8659 50.3717 16.9002C50.3717 16.9192 50.3755 16.9344 50.3793 16.9535C50.3945 17.1857 50.4059 17.4179 50.4173 17.6502C50.4173 17.9319 50.4097 18.2175 50.4059 18.4992C50.4059 18.4992 50.4059 18.503 50.4059 18.5068C50.3907 18.8266 50.3907 19.1502 50.4287 19.4662C50.4477 19.6185 50.6568 19.6223 50.6682 19.4662C50.6948 19.1426 50.6948 18.819 50.6986 18.4954C50.7176 18.4725 50.7328 18.4459 50.7366 18.4116C50.7708 18.0538 50.767 17.6921 50.748 17.3304C50.7784 16.9839 50.8126 16.6337 50.8354 16.2872C51.0521 15.4649 51.4816 14.6996 52.2039 14.2275C52.4396 14.0752 52.698 13.961 52.9717 13.8963C53.139 13.8544 53.3101 13.8506 53.4811 13.824C53.6256 13.8049 53.77 13.7745 53.9183 13.7668C53.9677 13.7668 54.0209 13.763 54.0703 13.7592C54.1805 13.7668 54.2908 13.7745 54.4048 13.7745C54.4732 13.7745 54.5379 13.7745 54.6063 13.7745C55.013 13.8011 55.416 13.8316 55.8265 13.7212C55.9101 13.6983 55.8949 13.5651 55.8075 13.5689H55.8037ZM49.4746 12.8798C49.5468 12.8265 49.619 12.7655 49.6874 12.7084C49.6228 12.7732 49.5544 12.8341 49.4746 12.8798ZM50.0105 12.9635C50.0105 12.9635 49.9915 12.9749 49.9801 12.9826C50.098 12.8912 50.2006 12.7884 50.288 12.6704C50.2196 12.7846 50.1284 12.8798 50.0105 12.9635ZM51.2269 13.3138C51.2269 13.3138 51.2269 13.3062 51.2269 13.3024C51.2307 13.3024 51.2345 13.3062 51.2384 13.31L51.2308 13.3138H51.2269Z" fill="black"/>
<path d="M24.9333 26.8103C24.8307 26.8103 24.7281 26.8103 24.6292 26.8103C24.6216 26.8027 24.6102 26.7951 24.5912 26.7913C24.4049 26.7722 24.2225 26.7799 24.04 26.7837C24.0324 26.7722 24.0172 26.7646 23.9944 26.7646C23.9678 26.7646 23.9412 26.7646 23.9146 26.7646C23.39 26.738 22.8578 26.4562 22.5271 26.0489C22.1812 25.6225 22.09 25.0514 22.0329 24.5146C22.0253 24.229 22.0215 23.9435 22.0063 23.6618C22.0025 23.578 21.8771 23.578 21.8733 23.6618C21.8429 24.1757 21.8277 24.6935 21.8277 25.2075C21.7897 25.3255 21.7555 25.4473 21.7212 25.5654C21.6908 25.6796 21.6566 25.79 21.5958 25.8928C21.535 25.9918 21.4514 26.0793 21.3639 26.1593C21.0522 26.4448 20.6417 26.6352 20.2235 26.6885C20.1019 26.6885 19.9765 26.6961 19.851 26.6999C19.4291 26.6885 19.0033 26.7189 18.5928 26.7646C18.5244 26.7722 18.5206 26.8674 18.5928 26.875C18.9197 26.8979 19.239 26.8979 19.5659 26.8941C19.8624 26.8903 20.1665 26.8255 20.4592 26.9017C20.8584 27.0045 21.2119 27.2177 21.4856 27.5185C21.5274 27.5756 21.5692 27.6365 21.6034 27.6974C21.7479 27.9601 21.7859 28.2609 21.8125 28.5578C21.8125 28.5921 21.8163 28.6263 21.8201 28.6606C21.8201 28.6796 21.8201 28.6987 21.8201 28.7215C21.8201 28.733 21.8201 28.7406 21.8239 28.752C21.8315 28.8852 21.8391 29.0185 21.8467 29.1517C21.8467 29.3155 21.8429 29.4754 21.8391 29.6391C21.8391 29.6391 21.8391 29.6391 21.8391 29.6429C21.8315 29.8256 21.8277 30.0122 21.8505 30.1911C21.8619 30.2787 21.9797 30.2825 21.9873 30.1911C22.0025 30.0046 22.0025 29.8218 22.0063 29.6353C22.0177 29.6238 22.0253 29.6086 22.0291 29.5858C22.0482 29.3802 22.0482 29.1708 22.0367 28.9652C22.052 28.7672 22.0748 28.5654 22.0862 28.3675C22.2116 27.8954 22.4549 27.4575 22.8692 27.1872C23.0061 27.0997 23.1505 27.0349 23.3102 26.9969C23.4052 26.974 23.504 26.9702 23.6029 26.955C23.6865 26.9436 23.7701 26.9283 23.8538 26.9207C23.8842 26.9207 23.9108 26.9207 23.9412 26.9207C24.0058 26.9245 24.0666 26.9283 24.1313 26.9321C24.1693 26.9321 24.2073 26.9321 24.2453 26.9321C24.4772 26.9474 24.709 26.9664 24.9447 26.9017C24.9941 26.8903 24.9827 26.8141 24.9333 26.8141V26.8103ZM21.3069 26.4144C21.3487 26.3839 21.3905 26.3496 21.4285 26.3154C21.3905 26.3534 21.3525 26.3877 21.3069 26.4144ZM21.6148 26.46C21.6148 26.46 21.6034 26.4677 21.5958 26.4715C21.6642 26.4182 21.7212 26.3611 21.7707 26.2925C21.7326 26.3573 21.6794 26.4144 21.611 26.46H21.6148ZM22.3104 26.6618C22.3104 26.6618 22.3104 26.658 22.3104 26.6542C22.3104 26.6542 22.3142 26.6542 22.318 26.6542C22.318 26.6542 22.318 26.6542 22.3142 26.6542L22.3104 26.6618Z" fill="black"/>
<path d="M74.3005 64.8519C74.1979 64.8519 74.0952 64.8519 73.9964 64.8519C73.9888 64.8443 73.9774 64.8366 73.9584 64.8328C73.7721 64.8138 73.5897 64.8214 73.4072 64.8252C73.3996 64.8138 73.3844 64.8062 73.3616 64.8062C73.335 64.8062 73.3084 64.8062 73.2818 64.8062C72.7572 64.7795 72.225 64.4978 71.8943 64.0904C71.5484 63.664 71.4572 63.0929 71.4001 62.5561C71.3925 62.2706 71.3887 61.9851 71.3735 61.7033C71.3697 61.6196 71.2443 61.6196 71.2405 61.7033C71.2101 62.2173 71.1949 62.7351 71.1949 63.249C71.1569 63.3671 71.1226 63.4889 71.0884 63.6069C71.058 63.7211 71.0238 63.8315 70.963 63.9343C70.9022 64.0333 70.8185 64.1209 70.7311 64.2008C70.4194 64.4864 70.0089 64.6767 69.5907 64.73C69.4691 64.73 69.3436 64.7377 69.2182 64.7415C68.7963 64.73 68.3705 64.7605 67.96 64.8062C67.8916 64.8138 67.8878 64.909 67.96 64.9166C68.2869 64.9394 68.6062 64.9394 68.9331 64.9356C69.2296 64.9318 69.5337 64.8671 69.8264 64.9432C70.2255 65.046 70.5791 65.2592 70.8528 65.56C70.8946 65.6171 70.9364 65.678 70.9706 65.739C71.115 66.0016 71.1531 66.3024 71.1797 66.5994C71.1797 66.6336 71.1835 66.6679 71.1873 66.7022C71.1873 66.7212 71.1873 66.7402 71.1873 66.7631C71.1873 66.7745 71.1873 66.7821 71.1911 66.7935C71.1987 66.9268 71.2063 67.0601 71.2139 67.1933C71.2139 67.357 71.2101 67.5169 71.2063 67.6806C71.2063 67.6806 71.2063 67.6806 71.2063 67.6844C71.1987 67.8672 71.1949 68.0537 71.2177 68.2327C71.2291 68.3202 71.3469 68.324 71.3545 68.2327C71.3697 68.0461 71.3697 67.8634 71.3735 67.6768C71.3849 67.6654 71.3925 67.6502 71.3963 67.6273C71.4153 67.4217 71.4153 67.2123 71.4039 67.0068C71.4191 66.8088 71.442 66.607 71.4534 66.409C71.5788 65.9369 71.8259 65.4991 72.2364 65.2288C72.3733 65.1412 72.5177 65.0765 72.6774 65.0384C72.7724 65.0156 72.8712 65.0118 72.9701 64.9965C73.0537 64.9851 73.1373 64.9699 73.2209 64.9623C73.2514 64.9623 73.278 64.9623 73.3084 64.9623C73.373 64.9661 73.4338 64.9699 73.4984 64.9737C73.5365 64.9737 73.5745 64.9737 73.6125 64.9737C73.8444 64.9889 74.0762 65.008 74.3119 64.9432C74.3613 64.9318 74.3499 64.8557 74.3005 64.8557V64.8519ZM70.6741 64.4559C70.7159 64.4255 70.7577 64.3912 70.7957 64.3569C70.7577 64.395 70.7197 64.4293 70.6741 64.4559ZM70.982 64.5016C70.982 64.5016 70.9706 64.5092 70.963 64.513C71.0314 64.4597 71.0884 64.4026 71.1378 64.3341C71.0998 64.3988 71.0466 64.4559 70.9782 64.5016H70.982ZM71.6776 64.7034C71.6776 64.7034 71.6776 64.6996 71.6776 64.6958C71.6776 64.6958 71.6814 64.6958 71.6852 64.6958C71.6852 64.6958 71.6852 64.6958 71.6814 64.6958L71.6776 64.7034Z" fill="black"/>
<path d="M27.8262 51.401C31.8061 49.2919 44.2971 42.7777 46.5665 41.2282C48.8358 39.6825 56.4726 31.6188 58.4265 28.1657C60.3841 24.7126 65.2193 18.168 67.9259 18.6743C70.6286 19.1807 68.1957 23.9816 67.9106 25.0438C67.6255 26.106 61.8362 37.8512 61.0113 39.2218C60.1865 40.5924 53.9486 47.2664 52.9032 49.4594" fill="#FFE9DD"/>
<path d="M57.3506 53.6016C58.9243 50.7272 62.182 44.5519 63.4478 42.3932C64.7099 40.2307 67.1731 30.9259 68.4275 23.757L59.7986 35.4489L57.3506 53.6016Z" fill="#FFE9DD"/>
<path d="M64.8315 38.784C64.7783 43.779 62.5507 51.5952 62.1478 53.08C61.7449 54.5648 59.3843 58.9317 59.3843 58.9317" fill="black"/>
<path d="M66.4089 32.9513C68.1233 37.2877 68.1271 44.0037 68.0549 47.6281C67.9865 51.2526 65.7133 55.8707 63.5466 59.2667C61.3798 62.6628 58.164 68.5068 56.6396 71.2823C55.1153 74.0577 48.7406 76.1974 46.859 77.2824C44.9735 78.3637 37.352 81.7635 29.8672 87.5847C22.3825 93.4097 12.4916 98.4657 11.4234 98.6332C7.4093 98.34 -2.01407 84.8587 1.53632 78.8776C5.0259 77.3205 9.26432 74.2557 13.0618 67.7758C16.8593 61.2922 20.098 49.3109 24.88 44.2321C29.662 39.1533 35.5996 23.9169 36.6525 21.7011C38.3441 20.9092 40.526 25.0286 40.4158 26.7037C40.3018 28.3789 38.9409 33.4767 36.7628 38.1215C34.7709 42.3704 33.6229 48.3515 33.6229 48.3515" fill="#FFE9DD"/>
<path d="M27.8261 51.7818C27.6892 51.7818 27.5562 51.7094 27.4916 51.58C27.3927 51.3934 27.465 51.165 27.6512 51.066C28.267 50.7386 29.0881 50.3084 30.0422 49.8058C35.0789 47.1522 44.4529 42.2143 46.3535 40.916C48.5545 39.416 56.1912 31.3485 58.0957 27.9829C60.0229 24.5831 64.9722 17.7416 67.9942 18.305C68.5872 18.4154 69.0243 18.7124 69.2866 19.1845C70.0317 20.5208 69.108 22.927 68.5568 24.3661C68.4275 24.7011 68.3173 24.9905 68.2755 25.1504C67.96 26.3192 62.0718 38.1977 61.3344 39.4274C60.9922 39.9909 59.8785 41.3005 58.4644 42.9529C56.4117 45.3552 53.8572 48.3439 53.2452 49.6307C53.154 49.821 52.9297 49.901 52.7397 49.8096C52.5496 49.7183 52.4698 49.4898 52.561 49.3033C53.2186 47.9251 55.7009 45.0202 57.8904 42.4579C59.1714 40.9617 60.3802 39.5454 60.6881 39.0352C61.4978 37.6875 67.2757 25.9613 67.5494 24.9524C67.6027 24.7544 67.7129 24.4613 67.8573 24.0958C68.3287 22.8699 69.2068 20.5855 68.6328 19.5576C68.4846 19.2873 68.2337 19.1236 67.8649 19.055C65.6374 18.6439 61.0721 24.2899 58.7685 28.3598C56.7766 31.8739 49.0942 39.9794 46.7907 41.548C44.8558 42.8691 35.8088 47.6319 30.4034 50.4797C29.4492 50.9822 28.6282 51.4163 28.0124 51.7399C27.9553 51.7703 27.8945 51.7856 27.8337 51.7856L27.8261 51.7818Z" fill="black"/>
<path d="M57.3471 53.9823C57.2863 53.9823 57.2216 53.9671 57.1646 53.9366C56.9822 53.8338 56.9137 53.6054 57.0126 53.4188C57.5561 52.4214 58.305 51.0279 59.1033 49.5431C60.5934 46.7677 62.2849 43.6191 63.1136 42.199C64.254 40.2497 66.1546 32.8447 67.5307 24.9828C67.5687 24.7773 67.7664 24.6364 67.9717 24.6745C68.1769 24.7125 68.3176 24.9067 68.2796 25.1161C67.0974 31.8701 65.1131 40.2878 63.7712 42.5874C62.9502 43.9922 61.2624 47.1332 59.7761 49.9048C58.9778 51.3934 58.229 52.7868 57.6816 53.7843C57.6132 53.91 57.4839 53.9823 57.3471 53.9823Z" fill="black"/>
<path d="M59.3842 59.3162C59.3234 59.3162 59.2626 59.301 59.2017 59.2705C59.0155 59.1715 58.9471 58.9393 59.0497 58.7528C59.0725 58.7109 61.3951 54.4087 61.7828 52.981L61.874 52.6422C63.5504 46.524 64.4171 41.8602 64.4513 38.7802C64.4513 38.5708 64.6376 38.3956 64.8352 38.4033C65.0443 38.4033 65.2154 38.5784 65.2116 38.7878C65.1773 41.9325 64.3031 46.6611 62.6077 52.844L62.5165 53.179C62.1097 54.6905 59.8175 58.9317 59.7187 59.1144C59.6503 59.2401 59.521 59.3124 59.3842 59.3124V59.3162Z" fill="black"/>
<path d="M11.4388 99.0139H11.397C8.80834 98.8235 4.92723 94.2359 2.66927 89.9071C0.255461 85.2737 -0.276718 81.1848 1.20578 78.6796L1.2666 78.5768L1.37684 78.5273C5.81293 76.5476 9.63321 72.8622 12.7275 67.5778C14.2023 65.0613 15.5784 61.7338 17.0381 58.2159C19.2999 52.7526 21.6414 47.1027 24.5988 43.9656C28.518 39.8043 33.3152 28.5197 35.3641 23.7036C35.805 22.6681 36.1243 21.9181 36.3068 21.5297L36.3638 21.4079L36.4892 21.3508C36.8542 21.1795 37.4396 21.0843 38.1846 21.5944C39.6367 22.5881 40.8835 25.3293 40.7885 26.7227C40.6706 28.4817 39.287 33.61 37.0974 38.2738C35.1474 42.4275 33.9994 48.3553 33.988 48.4124C33.95 48.618 33.7485 48.755 33.5433 48.7131C33.338 48.6751 33.2011 48.4733 33.243 48.2677C33.2544 48.2068 34.4213 42.1914 36.4132 37.9464C38.637 33.2064 39.9332 28.1619 40.032 26.6656C40.1081 25.5235 38.9449 23.0298 37.7551 22.215C37.3521 21.9409 37.0822 21.9447 36.9302 21.9866C36.7477 22.3901 36.4512 23.0792 36.0635 23.993C33.9994 28.8472 29.1642 40.2193 25.1538 44.4795C22.2953 47.5177 19.9803 53.099 17.7413 58.5015C16.274 62.046 14.8866 65.3925 13.3851 67.9585C10.2338 73.3381 6.33751 77.1073 1.79878 79.167C0.525352 81.4513 1.08414 85.2242 3.3383 89.5492C5.69889 94.0798 9.37473 98.0354 11.397 98.241C12.4766 97.986 22.0748 93.1546 29.6279 87.2763C35.6606 82.582 41.6932 79.502 44.9357 77.8497C45.6959 77.4613 46.3003 77.1529 46.6653 76.9435C47.1594 76.658 47.9387 76.3116 48.8434 75.908C51.3864 74.7696 55.2295 73.0526 56.3053 71.0919C57.7156 68.522 61.0227 62.5066 63.2236 59.0573C64.5351 57.0052 67.5951 51.7779 67.6749 47.6167C67.7243 45.1572 67.8688 37.6761 66.0556 33.0884C65.9796 32.8942 66.0746 32.6734 66.2685 32.5934C66.4623 32.5173 66.6828 32.6125 66.7626 32.8067C68.6329 37.5352 68.4846 45.1344 68.439 47.6281C68.3554 51.9835 65.2155 57.3555 63.8699 59.4647C61.6803 62.8912 58.3846 68.8951 56.9781 71.4574C55.7769 73.6427 51.9528 75.3521 49.1589 76.6009C48.2732 76.9968 47.5129 77.3395 47.053 77.6022C46.6729 77.823 46.0647 78.1314 45.293 78.5273C42.0733 80.1682 36.0825 83.2254 30.1069 87.8778C22.5119 93.7866 12.6172 98.8273 11.4882 99.0025L11.4464 99.0101L11.4388 99.0139Z" fill="black"/>
<path d="M66.892 25.3217C66.7438 25.3217 66.5955 25.2836 66.4663 25.2113L64.6417 24.1948C64.4326 24.0806 64.2844 23.8902 64.2197 23.658C64.1551 23.4295 64.1893 23.1897 64.3072 22.9803L65.8771 20.2734C66.261 19.6109 66.9605 19.1997 67.7017 19.1997C67.907 19.1997 68.1122 19.234 68.3099 19.2949C68.8459 19.47 69.169 19.8393 69.2108 20.3343C69.2906 21.2137 68.4278 23.2582 67.6865 24.8154C67.5421 25.1199 67.2304 25.3179 66.892 25.3179V25.3217Z" fill="black"/>
<path d="M67.7013 19.5804C67.8648 19.5804 68.0282 19.6071 68.1879 19.6566C68.5262 19.767 68.7961 19.9802 68.8303 20.3685C68.9101 21.2328 67.8306 23.6237 67.3402 24.6516C67.2528 24.8344 67.0741 24.9372 66.8879 24.9372C66.8042 24.9372 66.7244 24.9181 66.6446 24.8724L64.82 23.8559C64.5767 23.7189 64.4892 23.4105 64.6299 23.1668L66.1998 20.4599C66.5153 19.9155 67.0931 19.5766 67.6937 19.5766M67.6937 18.8152C66.8194 18.8152 65.9945 19.2987 65.5422 20.0792L63.9723 22.7861C63.8012 23.0831 63.7556 23.4257 63.8468 23.7531C63.9381 24.0805 64.1509 24.3547 64.4512 24.5222L66.2758 25.5387C66.4621 25.6415 66.675 25.6986 66.8879 25.6986C67.3706 25.6986 67.8192 25.4169 68.0244 24.979C69.1306 22.649 69.6552 21.0767 69.583 20.3C69.5259 19.6528 69.1002 19.1578 68.4198 18.9332C68.1841 18.8571 67.9408 18.819 67.6937 18.819V18.8152Z" fill="black"/>
<path d="M35.6871 27.3129C35.4172 27.3129 35.1435 27.2101 34.9344 27.0273L34.5049 26.6504L36.8845 21.0386C36.9947 20.7797 37.2456 20.6122 37.5269 20.6122C37.6828 20.6122 37.831 20.6617 37.9564 20.7607C38.3442 21.0614 38.4924 21.5754 38.3252 22.0399L36.6526 26.6656C36.5576 26.8674 36.4359 27.0121 36.2877 27.1225C36.1166 27.2481 35.9114 27.3129 35.6909 27.3129H35.6871Z" fill="black"/>
<path d="M37.5268 20.9929C37.5952 20.9929 37.6636 21.0158 37.7207 21.0614C37.9753 21.2632 38.0742 21.6021 37.9639 21.9105L36.2914 26.5362C36.2382 26.6504 36.1583 26.7456 36.0595 26.8141C35.9493 26.8941 35.8162 26.9322 35.687 26.9322C35.5083 26.9322 35.322 26.8636 35.1814 26.738L34.9571 26.5438L37.2265 21.1871C37.2797 21.0614 37.3975 20.9929 37.5192 20.9929M37.5192 20.2315C37.0858 20.2315 36.6943 20.4904 36.527 20.8901L34.2577 26.2469L34.041 26.757L34.4592 27.1187L34.6834 27.3129C34.9647 27.5565 35.322 27.6936 35.687 27.6936C35.9873 27.6936 36.2686 27.6022 36.508 27.4309C36.7095 27.2862 36.873 27.0882 36.9794 26.8636L36.9946 26.8294L37.006 26.7951L38.6786 22.1693C38.9028 21.5526 38.7052 20.8673 38.1882 20.4637C37.9981 20.3152 37.7625 20.2353 37.5268 20.2353L37.5192 20.2315Z" fill="black"/>
</svg>
