<svg width="87" height="90" viewBox="0 0 87 90" fill="none" xmlns="http://www.w3.org/2000/svg">
<path fill-rule="evenodd" clip-rule="evenodd" d="M21.6606 87.6924C22.071 88.0962 22.5272 88.2209 23.1385 88.2477C23.0265 88.0005 22.9944 87.9626 22.9414 87.6525C23.1586 87.6019 22.9397 87.7 23.214 87.5746C23.5511 87.4203 23.2023 87.5903 23.4185 87.4481C23.1515 87.285 23.1616 87.327 22.9392 87.1044C22.1496 87.6048 22.7314 87.1619 22.1965 87.3644C22.1126 87.3959 22.1872 87.3785 22.0322 87.485L21.8996 87.5824C21.8466 87.6147 21.7106 87.6693 21.6603 87.6922L21.6606 87.6924ZM26.3023 5.96617L26.3327 5.45858L26.7921 5.53756C26.7325 5.9546 26.7308 5.95608 26.3023 5.96617ZM31.1204 44.0504C31.2741 44.2243 31.0344 44.7553 30.7285 44.4091C30.5841 44.2457 30.7552 43.637 31.1204 44.0504ZM45.1972 22.3825C45.1955 22.3803 45.0942 22.1589 45.0952 22.1431C45.1183 21.7566 45.3235 21.8152 45.6951 21.8292C45.5639 22.3729 45.6142 22.2024 45.1972 22.3825ZM33.1178 49.5364C32.5614 49.4714 32.7999 49.5772 32.6685 49.276C32.7232 49.156 32.7759 48.843 33.1063 49.0157C33.3909 49.1646 33.2245 49.1754 33.1178 49.5364C33.3232 49.6545 33.2578 49.634 33.5743 49.6803C33.4828 50.399 33.2767 49.9231 33.1644 50.7055L32.6028 50.6551L32.5408 51.2259C32.5675 51.468 32.9732 51.9771 31.7701 51.905C31.9689 52.5046 32.037 52.2787 31.7914 52.7501C32.8874 52.5479 33.2791 51.6321 33.7829 50.7848C34.4001 49.7462 34.6421 49.3152 34.7343 47.7668C34.0212 48.1866 33.3487 48.0163 32.7864 47.2998C32.767 47.3217 32.7469 47.3564 32.7354 47.3709C32.6386 47.4967 32.4525 47.7545 32.253 47.7858C31.9463 47.8335 31.8556 47.6662 31.7301 47.4696C31.8644 47.0614 31.8644 47.0826 32.3368 47.0395C32.2562 46.5652 32.0789 46.4456 31.9855 45.9171C31.8684 45.2557 31.8563 44.0937 32.4631 43.9542C32.9384 43.8452 32.5538 44.4925 32.5013 44.7425C32.2074 46.1444 33.7505 48.3098 34.758 46.9751L34.5649 46.7066C34.522 46.7194 33.701 47.5956 33.107 46.0138C32.9619 45.6277 32.8982 45.3714 33.0332 44.9856C33.2855 44.2662 33.3816 44.805 33.777 44.3262C33.2093 44.1569 32.5596 43.3428 31.4251 43.0106C30.298 42.6807 28.0055 42.4996 26.9575 43.186L26.4697 43.5024C25.798 43.9734 24.6755 45.4267 24.4983 45.9707L25.3759 46.1112C25.8147 45.644 25.2845 45.8834 25.7914 45.7129C25.524 45.3682 25.587 45.6199 25.4717 45.2269C25.5749 45.0456 25.6433 44.8547 25.738 44.6596C27.1703 44.7095 26.4753 45.6031 25.9074 45.7195C26.3515 46.8119 25.1357 46.2237 26.6016 46.8631C26.9073 46.9965 26.8967 47.0946 27.2068 47.3141C27.1095 47.9929 26.8173 47.5191 27.1703 48.3873C27.3392 48.8034 27.3436 48.5315 27.8116 48.8669C27.7199 49.1552 27.7706 49.0691 27.5814 49.3523L27.3958 49.6092C27.2492 49.9012 27.2549 50.1677 27.4953 50.3505C27.5204 50.3697 27.8385 50.5343 27.8861 50.5584L28.2972 50.7516C28.7017 50.9737 28.7475 50.971 28.4695 51.4727C29.2623 51.5379 28.8767 51.8538 29.2623 51.6159C29.5322 51.4496 29.5361 51.1305 29.5604 50.7215C29.6224 50.7594 29.7889 50.8441 29.8609 50.8943L30.5542 51.5977L30.2014 52.6906C29.9784 53.1163 29.568 52.9081 29.2042 52.7996C29.2545 52.1269 29.3724 52.4094 29.0338 51.8624C28.6772 52.3452 29.0436 52.7022 28.2707 52.8601C27.9503 52.3112 27.9636 52.088 28.347 51.5814C28.0467 51.4919 28.0131 51.4552 27.7817 51.3143C27.5368 51.7564 27.7184 51.8381 27.0524 51.8538C26.8347 51.3187 27.3039 51.1312 26.7401 51.0426C26.0787 50.9388 26.6913 51.0694 26.2501 51.1211C26.0574 51.1437 26.2027 51.1351 25.8198 51.08C25.8667 50.2959 25.5176 49.1853 26.3773 49.4237C26.845 49.5533 26.5609 49.8146 26.7344 49.385L26.2491 48.9395C26.1366 48.8327 26.2476 48.8772 26.074 48.7621C25.9066 49.2682 25.9382 48.9682 25.759 49.1501C25.2067 49.7091 25.6414 50.0011 24.7378 49.7317L25.03 48.7008C25.1482 48.4523 25.0729 48.5928 25.1616 48.4739C25.093 48.4009 25.1592 48.286 24.5964 48.2067C24.6576 47.7843 24.6998 47.8401 24.8694 47.5232C25.4374 47.6025 25.7255 48.315 26.0414 47.3604C25.7259 47.2066 25.3269 47.2012 24.8763 47.4069C24.7716 47.2275 24.6765 47.0971 24.5532 46.9266C24.3132 46.5952 24.5709 46.7025 24.1142 46.5445C24.0691 47.3001 23.8293 47.4598 23.9779 48.3054C24.2382 49.7893 24.9136 51.16 26.1819 51.9677C26.4614 52.1456 26.5695 52.1966 26.8205 52.3902L28.0104 53.1933C28.4761 53.5493 31.1266 53.3426 31.7909 52.7487C31.4352 52.7664 31.3541 52.8488 31.141 52.2898C31.131 52.2635 31.119 52.2327 31.1099 52.2052C30.9158 51.6216 30.9332 51.6297 31.6622 50.985C32.213 50.4981 31.9157 50.7331 32.6025 50.6534C32.5187 50.5149 32.5501 50.5316 32.49 50.3134C32.6263 50.1335 32.6489 50.1241 32.8188 49.9408C32.8352 49.9231 32.8607 49.9005 32.8769 49.8823L32.9869 49.7588C33.0583 49.6641 33.0406 49.7135 33.1176 49.5344L33.1178 49.5364ZM78.729 35.0126L78.5114 34.8652C78.5717 34.4129 78.5866 34.4011 79.0024 34.329C79.1367 34.7412 79.0649 34.8012 78.729 35.0126ZM26.3765 6.67058C26.3082 6.21319 26.2888 6.53526 26.4111 6.08943C26.7594 6.11822 26.9391 6.02842 26.9286 6.32588C26.9173 6.63688 26.6266 6.66148 26.3765 6.67058ZM59.1021 15.2857L59.6843 15.1784C59.6632 15.5059 59.6674 15.7871 59.386 15.8314C59.1151 15.874 59.096 15.6208 59.1021 15.2857L58.632 15.374C59.0663 16.3329 59.2674 16.4734 60.0373 17.099C61.0355 17.91 60.8061 17.8377 62.4306 17.9353L62.472 17.238L63.051 17.2727L63.1253 17.9772C65.9334 18.1459 67.553 16.8525 68.2693 14.2423C68.4348 13.6402 68.5907 12.8637 68.496 12.2045C68.3141 10.9379 68.2038 11.0664 67.7079 10.3747C67.6939 10.3553 67.6734 10.3277 67.6596 10.3078L66.356 8.82467C66.1133 8.62243 65.9716 8.57396 65.7211 8.40173C64.0836 7.27658 62.4372 7.08467 60.6487 8.22802C60.3817 8.39878 60.1881 8.48145 59.9233 8.64974C59.121 9.16052 57.2852 11.5793 57.8169 13.0106C58.013 13.5383 58.1287 14.5205 58.2998 14.6544C58.6327 14.9149 58.1821 14.6263 58.8739 14.7533C58.8979 14.7577 58.9524 14.8133 58.972 14.7828C58.9918 14.7518 59.0401 14.7998 59.0931 14.8163L59.1014 15.2855L59.1021 15.2857ZM6.17919 51.0672C6.06373 51.5194 6.12673 51.4255 5.79016 51.4892L5.63892 51.5187C5.63254 51.5175 5.44501 51.6853 5.46364 51.3743C5.49133 50.9093 5.83723 50.9127 6.17919 51.0672ZM43.4582 76.8703L43.4928 76.2891L44.0718 76.3241C44.0046 76.8937 44.0426 76.8927 43.4582 76.8705V76.8703ZM44.3895 78.7926C44.3277 78.4858 44.4402 78.6654 44.1718 78.5463L44.1926 78.1977C44.5069 78.1903 44.5108 78.1623 44.7785 78.1162C44.8626 78.4895 44.9065 78.6406 44.3895 78.7926ZM76.2343 30.0799L75.9016 29.3647C76.8297 29.4092 76.6113 29.4695 76.5709 29.7168C76.5493 29.8479 76.426 30.0917 76.234 30.0802L76.2343 30.0799ZM25.5867 6.27323L26.1657 6.30792C26.0655 6.58053 26.0064 6.83125 25.698 6.90654C25.2977 7.00397 25.509 6.53551 25.5867 6.27323ZM48.9645 81.9838C48.4943 82.1051 48.9385 82.0111 48.4874 82.1885C48.3195 81.9008 48.3543 82.0588 48.2835 81.7097C48.9436 81.0887 48.9645 81.9838 48.9645 81.984V81.9838ZM49.5114 43.3054C49.5006 44.2893 49.0145 44.1645 48.8201 43.4805C49.1108 43.361 49.2255 43.4227 49.5114 43.3054C49.7602 42.5869 49.6438 42.8923 50.3983 42.6607C50.7474 42.5535 50.2083 42.5677 50.8511 42.5527C50.7964 43.2788 50.6466 43.1282 50.1284 42.9759C50.0468 43.5418 49.9673 43.3959 49.5111 43.3054H49.5114ZM43.3891 78.0326C43.0513 77.7747 43.0628 77.866 43.0834 77.3144L43.6624 77.3491C43.6212 77.8444 43.6536 77.7848 43.3891 78.0326ZM43.8906 20.9041L43.6732 20.5586C43.95 20.2083 43.8566 20.2142 44.3954 20.2346C44.3248 20.8302 44.3076 20.7149 43.8906 20.9043V20.9041ZM27.5561 45.3524C27.2196 45.7968 26.7528 45.9304 26.933 45.037C27.2912 44.9967 27.4103 45.0446 27.5561 45.3524ZM30.7128 9.96384C31.044 9.82803 30.9439 9.861 31.4144 9.88929C31.3894 10.2584 31.4082 10.3531 31.0957 10.4217C30.7003 10.5086 30.7189 10.2864 30.7128 9.96384ZM75.6335 30.9706C75.793 30.5511 75.8051 30.5496 76.3223 30.5516C76.25 31.2348 76.098 31.4956 75.6335 30.9706ZM19.1987 70.5133L19.8934 70.5552C19.8625 70.9311 19.8248 71.1105 19.5056 71.0987C19.1401 71.0854 19.1889 70.8479 19.1987 70.5133ZM46.1782 81.9328C45.8262 81.9117 45.7971 81.7077 45.7426 81.44C46.0951 81.2956 46.0728 81.3433 46.5602 81.3726C46.4781 81.5635 46.4094 81.9469 46.178 81.9328H46.1782ZM80.8414 34.6728C80.1523 34.6314 80.7617 33.9681 80.8831 33.9755C81.4736 34.0109 81.1363 34.6905 80.8414 34.6728ZM32.4574 48.9134L31.8784 48.8787C31.9554 48.3421 32.0963 48.2587 32.6768 48.3881C32.6359 48.6809 32.6043 48.6713 32.4574 48.9136V48.9134ZM43.8374 39.3318L43.8798 38.6345L44.4581 38.6695C44.4125 39.2275 44.3753 39.3222 43.8374 39.332V39.3318ZM31.2062 46.5051C31.1876 46.8159 31.0185 46.839 30.8312 46.9492C30.388 46.6109 30.4912 46.7453 30.6412 46.2379C30.8961 46.2588 31.2224 46.2372 31.2065 46.5051H31.2062ZM65.9603 17.2142C65.5353 17.0311 65.5355 17.1509 65.5318 16.6052C65.8084 16.5575 65.8802 16.5154 66.2337 16.5307C66.203 16.9005 66.1435 17.0068 65.9603 17.2142ZM76.0512 32.1137C76.0019 31.7446 75.9963 31.4651 76.3826 31.4885C76.7866 31.5129 76.73 31.6344 76.6339 31.8691C76.4983 32.2003 76.4314 32.2072 76.0512 32.1137ZM66.1805 16.0275C66.2552 15.5581 66.3124 15.5241 66.8752 15.5192C66.8342 16.2032 66.7592 16.4128 66.1805 16.0275ZM28.0374 8.05333L27.5709 8.15618C27.4757 7.62645 27.2652 7.36516 27.9631 7.34892C28.0104 7.62621 28.0506 7.69854 28.0374 8.05333ZM44.2115 79.8316L44.9065 79.8715C44.8871 80.2713 44.9092 80.5877 44.5552 80.495C44.314 80.432 44.2184 80.1259 44.2118 79.8316H44.2115ZM47.4937 81.3121C47.4664 81.7717 47.3159 81.645 46.8938 81.626L46.7913 81.1578C47.1088 81.0284 47.5243 80.8001 47.4937 81.3121ZM34.3175 48.9082C34.2526 49.4183 34.1761 49.4414 33.7037 49.4544C33.6481 49.1383 33.601 49.2286 33.6157 48.9828C33.6355 48.6467 34.1052 48.8184 34.3175 48.9082ZM14.0162 28.7912C14.0586 28.458 14.0545 28.2103 14.3984 28.2307L14.7458 28.2516C14.6872 28.9656 14.5249 28.9319 14.0162 28.7909V28.7912ZM17.0954 68.7536C16.7968 68.8065 16.9084 68.7977 16.6269 68.8147C16.3031 68.3949 16.3769 68.622 16.5512 68.1376C17.1099 68.1838 17.1297 68.1794 17.0954 68.7534V68.7536ZM44.1296 40.2823C43.9127 39.9873 44.1032 39.7483 44.1711 39.5847C44.3331 39.5975 44.4584 39.5714 44.5969 39.6519L44.7052 39.8692C44.6971 40.3743 44.1819 40.2798 44.1296 40.2823ZM27.0487 9.04365C27.259 9.4784 27.0124 9.71879 26.7261 9.64743C26.3084 9.54336 26.4484 9.45306 26.4697 9.00871L27.049 9.04365C26.6023 8.27895 27.2117 8.56584 27.6625 8.49719L27.5052 8.94991C27.7878 9.03553 27.8545 9.08425 28.2067 9.11328C28.2121 9.64547 28.1349 9.59355 27.7091 9.66663C27.4407 9.44027 27.4436 9.42772 27.4032 8.94843C27.2421 9.02692 27.2715 9.00428 27.049 9.04389L27.0487 9.04365ZM27.6267 3.24569C27.5218 3.97914 26.8845 3.99907 26.9181 3.43637C26.946 2.96766 27.3272 3.10766 27.6267 3.24569ZM31.964 62.8811C31.9037 63.1948 31.9978 63.2431 31.6757 63.3139C31.3644 63.3828 31.2558 63.2207 31.2714 62.9559C31.3043 62.4043 31.7303 62.6654 31.964 62.8809V62.8811ZM42.8512 24.6909L42.4982 24.3447C42.7696 24.0248 42.8368 24.0015 43.3624 24.0216C43.2761 24.6026 43.265 24.5265 42.8512 24.6909ZM46.8857 23.3003C46.7874 23.4521 46.5869 23.8657 46.3878 23.8536C46.1983 23.8423 46.0446 23.7631 46.0542 23.6002C46.0819 23.1361 46.7028 23.0695 46.8857 23.3003ZM46.378 20.1202C45.9037 19.9696 45.5468 19.4869 46.1812 19.525L46.4126 19.5388C47.1902 19.5855 46.57 19.9713 46.378 20.1199V20.1202ZM61.4716 16.4775C61.4439 16.9421 61.0517 16.8547 60.7629 16.6682C60.7995 16.0566 61.5091 15.8477 61.4716 16.4775ZM44.2515 24.8916C44.3392 25.2504 44.0612 25.4265 43.6202 25.4369C43.5303 25.0892 43.4053 25.1128 43.684 24.8909C44.1652 24.5076 44.2375 24.8823 44.2515 24.8914V24.8916ZM42.2288 19.6374C42.0911 19.5654 41.9308 19.6246 41.7873 19.1444C42.1038 18.9997 42.1374 18.9429 42.6117 18.9606C42.5958 19.2081 42.6694 19.2475 42.4289 19.4974C42.4132 19.5137 42.3786 19.5334 42.3632 19.5467C42.3482 19.5597 42.3097 19.5833 42.297 19.5934C42.284 19.6032 42.2502 19.6207 42.2288 19.6374ZM43.907 38.169C43.6565 38.016 43.4768 38.1004 43.5871 37.7037C43.6722 37.3989 43.9328 37.4572 44.2961 37.4924C44.251 38.0425 44.273 37.9535 43.907 38.169ZM15.2659 72.1431L15.9614 72.1692C15.9339 72.5545 15.9582 72.832 15.5606 72.8155C15.2542 72.8027 15.2348 72.5195 15.2659 72.1433V72.1431ZM60.6818 16.0807C60.1109 16.0334 60.116 16.0393 60.1373 15.4648C60.4879 15.3873 60.3979 15.3718 60.8392 15.3903C60.8058 15.8277 60.8063 15.7426 60.6818 16.0807ZM45.7774 80.8594C45.6992 81.8125 45.045 81.4476 45.0685 81.05L45.0893 80.7014C45.4899 80.7317 45.4607 80.7186 45.7772 80.8594H45.7774ZM8.68057 50.0513C8.66096 50.0705 8.63081 50.0717 8.62174 50.1086L8.42808 50.3862C8.0442 50.38 7.97948 50.3766 7.74023 50.2282C7.93879 49.6281 8.46436 49.5944 8.68057 50.0513ZM49.3805 75.01C49.3518 75.4907 48.8963 75.4467 48.549 75.3099C48.598 74.9389 48.6671 74.7339 49.0468 74.7566C49.2363 74.7679 49.39 74.8471 49.3805 75.01ZM76.5699 28.3502C76.5221 28.4612 76.4172 28.8957 76.3485 28.9804C75.9244 29.5039 75.1655 28.285 76.5699 28.3502ZM45.5679 39.5525C45.218 39.7584 45.3985 39.7784 44.9683 39.8664C44.5795 39.0631 45.32 38.9822 45.3771 38.9578C45.4558 39.1578 45.4899 39.3495 45.5679 39.5525ZM59.5485 25.3446C59.1367 25.2523 58.4944 24.5814 59.59 24.6473C59.8383 24.6621 59.8996 24.7566 59.8547 24.947C59.8179 25.1032 59.764 25.1131 59.7294 25.1593C59.5409 25.4128 59.6765 25.2191 59.5483 25.3446H59.5485ZM28.445 49.9389C28.1881 49.8717 27.9869 49.8269 28.0087 49.4625C28.0246 49.1946 28.1102 49.1188 28.3769 49.1348C28.9919 49.1717 28.684 49.6941 28.445 49.9389ZM13.8133 67.2737C13.523 67.2562 13.1151 67.2885 13.1323 66.9996C13.156 66.6025 13.5907 66.5924 13.9706 66.5833C13.9417 66.9369 13.8929 67.004 13.8133 67.2737ZM43.4219 79.4345C43.4464 79.0204 43.7237 78.9956 44.1446 79.0113C44.139 79.4193 44.1772 79.5657 43.8749 79.719C43.6538 79.8312 43.3991 79.8161 43.4219 79.4345ZM4.43822 54.9288C4.41347 55.3427 4.13646 55.3678 3.71581 55.352C3.61652 54.9677 3.65208 55.0125 3.75724 54.6548C4.04773 54.672 4.45538 54.64 4.43822 54.9288ZM22.1538 85.2723L22.8485 85.3139C22.8419 85.7071 22.8733 86.026 22.4585 86.0011C22.041 85.976 22.1303 85.6648 22.1538 85.2721V85.2723ZM62.3068 25.8601C61.9849 25.6896 62.0494 25.648 61.6258 25.586C61.6817 25.4172 61.7538 25.1271 62.3485 25.1628C62.5801 25.1766 62.6765 25.2856 62.6333 25.4976L62.3068 25.8603V25.8601ZM17.6487 34.1423C17.6198 34.6297 16.3244 35.1275 17.0834 33.8749C17.4619 33.8977 17.6658 33.8559 17.6487 34.1423ZM49.0547 80.4728C49.0282 81.6455 48.321 81.0451 48.3033 81.0242C48.1636 80.8591 48.269 80.7427 48.3985 80.6123C48.6637 80.3449 48.549 80.4423 49.0549 80.4728H49.0547ZM17.1133 31.4272C17.0942 31.7488 16.2835 31.7001 16.3026 31.3785C16.3274 30.9647 16.6044 30.9396 17.0253 30.9553C17.0809 31.2712 17.128 31.1814 17.1133 31.4272ZM45.8537 79.5807C45.0077 79.7741 45.2727 79.6638 45.043 79.532C45.1945 79.0507 45.9476 78.3175 45.8537 79.5807ZM67.4005 14.5013C67.3721 14.9791 67.1532 14.9895 66.7874 15.0384C66.5607 14.6982 66.6217 14.6234 66.8355 14.2341C67.036 14.2462 67.4167 14.2324 67.4005 14.5016V14.5013ZM44.451 48.5871C44.5508 48.2695 44.4338 48.3898 44.7601 48.1925C45.0403 48.023 45.0111 48.0434 45.4093 48.0586C45.3521 48.7675 45.0364 48.9168 44.451 48.5874C44.3534 48.8826 44.3105 48.8831 44.1816 49.1515C43.4572 49.108 43.4879 49.2783 42.9076 49.075C42.7549 49.5969 42.5443 49.6362 42.0761 49.3752C42.3016 48.613 42.5019 48.9301 43.0353 48.9092C43.1856 48.9033 43.3153 48.8046 43.5244 48.6612C43.8085 48.4668 43.7992 48.4747 44.1139 48.331L44.4505 48.5876L44.451 48.5871ZM7.66889 53.3731C7.6407 53.847 7.75886 53.8426 7.43699 53.984C7.02884 54.1634 6.83665 53.7946 6.83052 53.7892C6.98422 53.3251 7.24333 53.1906 7.66889 53.3731ZM62.3585 15.2483C62.3377 15.5987 62.0857 15.8152 61.745 15.7945C61.263 15.7655 61.7604 14.9789 62.0249 14.9949C62.2259 15.0069 62.3701 15.0564 62.3585 15.2483ZM26.8391 86.6037L26.6212 86.4565C26.6776 85.7022 27.0333 85.6382 27.4544 86.0299L27.2885 86.5085L26.8391 86.6037C26.7974 87.3027 26.7273 87.4877 26.1096 87.1432C26.0316 88.0952 25.6762 87.6823 25.1658 87.606C24.9214 87.5696 25.0415 87.72 24.7179 87.5539C24.7814 87.9043 24.7331 87.8609 24.6505 88.2221C24.9263 88.1754 25.3252 88.1161 25.5066 88.0681C26.4874 87.8083 27.2267 87.3635 27.9731 86.6462C29.2652 85.4045 29.6101 83.1163 29.179 81.7645C28.8112 80.6111 29.3469 81.5603 28.5634 80.4463C27.6924 79.2079 28.4092 80.0167 27.0659 78.9178C26.7997 78.7001 26.5589 78.5328 26.1848 78.3815C25.9338 78.2799 25.5061 78.1283 25.1342 78.1049L23.9796 78.0333C24.3235 78.6221 24.5907 79.7313 23.7646 80.3958C23.5428 80.5742 23.4106 80.713 23.1969 80.8704C22.2109 81.5955 21.0264 81.844 20.2822 80.7558C19.7233 79.9382 20.4538 80.1343 20.9421 80.6254C21.6493 81.3369 22.5031 80.7509 23.1753 80.2246C24.4431 79.2323 23.318 78.6748 23.6325 78.0124L22.8218 77.9637C22.9765 78.3052 22.951 78.2474 23.1559 78.5478C23.6033 79.2035 23.4795 79.2345 23.1498 79.6998C22.512 80.5993 21.541 80.6347 21.0835 80.17C20.5687 79.6474 21.2203 79.7704 20.5312 79.3425C20.3616 79.9158 19.8554 80.258 19.5833 80.7516C19.4757 80.9467 19.4497 81.0953 19.3274 81.3305C19.08 81.8056 18.9746 81.8794 18.853 82.5322C18.6868 83.4265 18.7876 84.5807 19.1595 85.2962C19.4526 85.8599 19.7583 86.2811 20.2096 86.6731C20.8438 87.2237 20.6055 87.2426 21.6601 87.6929L21.3196 87.2239C21.5167 86.783 21.5745 87.1802 21.6346 86.1751C22.1791 86.225 21.9658 86.1743 22.332 86.4292C22.3529 86.4437 22.3796 86.4647 22.4004 86.4797C22.4213 86.4947 22.4492 86.5141 22.47 86.5294C22.498 86.55 22.5843 86.6047 22.6105 86.6268C22.8355 86.8155 22.7789 86.6507 22.8669 86.9494C23.52 86.3837 23.102 86.9484 23.066 86.306C23.3155 86.2012 23.9509 85.9426 24.21 85.9839C24.6672 86.057 24.5042 86.5523 24.2005 86.7525C26.2336 87.4358 25.8733 86.9858 26.2599 86.5697L26.8389 86.6044L26.8391 86.6037ZM20.9607 85.7839L20.9931 85.0861C21.2711 85.1668 21.3377 85.2155 21.69 85.2448C21.6741 85.9556 21.55 86.1131 20.9605 85.7841C21.0406 86.2929 21.0203 85.9701 21.2733 86.3862C21.1764 86.5375 21.2024 86.5109 21.1367 86.7279C20.7484 86.5195 21.0683 86.8128 20.8041 86.3662C20.2947 85.5051 20.4234 85.8082 20.18 85.5986C20.0341 85.4729 20.1228 85.6316 20.0116 85.4183C19.8706 85.1483 19.99 85.3592 19.953 85.1402C20.1123 84.9473 20.3258 84.7323 20.5423 84.9363C20.7058 85.0905 20.6175 85.3016 20.5111 85.5236C20.8482 85.636 20.696 85.5821 20.9605 85.7839H20.9607ZM30.363 45.0547C30.2882 45.5089 30.1264 45.61 29.5175 45.5872C29.6089 44.4716 30.1727 44.7592 30.363 45.0547ZM44.8908 18.5394C44.9168 19.0108 44.6633 19.3872 44.0963 19.4003L44.2919 18.4828L44.8908 18.5394ZM19.1166 83.5737C18.7846 83.0275 18.8886 83.2962 19.0494 82.7531C19.4191 82.7753 19.7539 82.728 19.7122 83.1291C19.675 83.4895 19.3968 83.4713 19.1168 83.5739L19.1166 83.5737ZM48.5002 42.9949L48.3739 42.8871C47.8655 42.2828 48.6027 43.3878 48.2617 42.7668C48.1212 42.5104 48.196 42.7678 48.1874 42.3928C48.6811 42.3082 48.5225 42.1755 49.1081 42.2334C49.0944 42.8795 48.9493 42.7897 48.5002 42.9946V42.9949ZM63.6455 28.7402C63.4244 29.0325 63.5727 28.9769 63.1616 29.0611C62.724 28.7053 62.9351 28.7614 62.9853 28.1172C63.48 28.1984 63.559 28.3121 63.6455 28.7402ZM80.9524 33.3631C80.9336 32.5696 80.8843 32.3578 81.4498 32.2598C81.6462 32.7096 81.5665 33.3048 80.9524 33.3631ZM22.6718 84.3704C22.4517 84.4415 21.8415 84.6604 21.8751 84.0894C21.9021 83.6303 22.2769 83.7506 22.7066 83.7892L22.6718 84.3704ZM27.9932 43.8626C28.1156 43.7012 28.1901 43.5905 28.4006 43.4547C28.7294 43.2426 28.5664 43.3137 29.0704 43.344C29.0262 44.1941 28.5024 44.1559 27.9935 43.8626H27.9932ZM60.699 25.5304C60.683 25.7966 60.6516 25.6632 60.5553 25.9885C59.6226 25.9526 59.6049 25.9176 60.0177 25.2563C60.2675 25.2713 60.7159 25.2452 60.6987 25.5304H60.699ZM17.6967 33.3286C17.5251 33.4536 17.4057 33.5481 17.2136 33.633C16.7257 33.3422 16.9917 33.7174 16.7772 33.1567C17.0172 32.8398 17.0263 32.7896 17.4999 32.7335C17.5822 32.933 17.6131 33.0649 17.697 33.3286H17.6967ZM26.8345 4.83167L26.4871 4.81076C26.4498 5.26692 26.5025 5.08534 26.3366 5.38502C25.5816 5.3395 25.822 5.36976 25.6558 5.11093C25.9162 4.79403 25.7801 4.86784 26.3645 4.92025C26.402 4.46409 26.3491 4.64566 26.515 4.34599L26.9781 4.37379C26.8872 4.53322 26.8509 4.5598 26.8347 4.83192L26.8345 4.83167ZM16.6799 65.8127C16.4333 66.1377 16.3811 66.2696 16.0693 66.3592C15.7597 66.0201 15.8557 66.1473 15.8923 65.532L16.3664 65.3206C16.3882 65.3475 16.4218 65.3489 16.4274 65.3861L16.6796 65.8125L16.6799 65.8127ZM62.5904 28.8972C62.2644 29.3588 62.297 29.3593 61.867 29.3334C61.7378 29.0337 61.7033 28.7848 61.6908 28.3899C62.1994 28.4959 62.3299 28.5997 62.5904 28.8974V28.8972ZM17.6367 65.5204C17.8166 65.4818 18.1975 65.4798 18.3613 65.5145C18.8651 65.6215 18.5814 66.4025 18.0894 66.2076C17.7507 66.0733 17.697 65.8745 17.6369 65.5207L17.6367 65.5204ZM15.7798 69.3749L15.6084 70.2978C15.0416 70.116 15.0512 69.8958 15.0848 69.3331C15.2468 69.2671 15.7999 69.0346 15.7798 69.3746V69.3749ZM49.3158 78.039C49.1699 77.9174 48.9093 77.6638 49.0152 77.3358C49.1292 76.983 49.3868 77.1099 49.8345 77.1368C49.8144 77.8023 49.7322 77.7937 49.3158 78.039ZM5.22291 53.4595C5.20011 53.8423 4.7971 53.9434 4.49338 53.9988C4.4343 53.9014 4.27914 53.6981 4.28257 53.6364C4.30904 53.1935 5.26483 52.759 5.22291 53.4595ZM61.2834 27.4318C61.1299 28.5021 60.6994 27.992 60.2133 27.8343C60.319 27.4773 60.2614 27.4734 60.5683 27.3577C60.8078 27.2674 61.0125 27.3073 61.2834 27.4318ZM7.52058 51.9645L7.12665 52.3895C6.86877 52.326 6.68785 52.259 6.46453 52.1343C6.56234 51.8039 7.06389 50.882 7.52058 51.9645ZM46.4932 80.5523C46.518 80.137 46.3582 79.4943 46.7872 79.5202C47.2299 79.547 47.3554 79.6299 47.2211 79.9866C47.1669 80.1303 47.1058 80.2585 46.9906 80.3724C46.7999 80.5604 46.809 80.5373 46.4935 80.5523H46.4932ZM5.65582 50.1027L5.0518 50.784C4.79564 50.9262 5.06112 50.8517 4.68092 50.8605C4.71695 50.2573 4.65493 50.0014 5.3293 49.7329L5.65582 50.1025V50.1027ZM19.6919 31.0633C19.5301 31.6378 19.1386 31.8305 18.6121 31.6339C18.7501 31.1674 18.7594 31.1694 19.008 30.8412C19.2362 30.8549 19.5585 30.8997 19.6919 31.0636V31.0633ZM17.8347 71.948C17.1613 72.0622 17.4692 71.9564 16.9152 71.7763C16.9797 71.5575 16.8525 71.7738 17.0116 71.5135L17.5484 70.9033C17.8198 71.2916 17.8664 71.4175 17.8347 71.948ZM20.8889 83.0969C20.217 83.212 20.63 83.3584 19.9554 83.1574L19.9966 82.3432C20.7097 82.7204 20.8154 82.092 20.8887 83.0969H20.8889ZM28.1006 45.9688C28.0633 46.4461 28.0114 46.4746 27.8204 46.7684L27.1389 46.5868C27.1818 45.9518 27.4809 45.6836 28.1006 45.9688ZM27.966 44.3277C27.9123 45.2269 27.2353 45.0316 26.91 44.4974C27.0365 44.3444 27.3816 44.0592 27.6326 44.0742C27.8221 44.0856 27.9758 44.1648 27.966 44.3277ZM83.1043 33.7587C83.0351 34.2417 83.0474 34.179 82.1097 34.5155C81.9453 34.113 81.9327 34.1453 81.9531 33.5727C82.3946 33.8618 82.5132 33.8037 83.1043 33.7585V33.7587ZM9.63955 51.5084C9.60572 52.0755 9.36475 51.9166 8.91003 52.0477L8.48152 51.4387C9.04289 51.144 9.65843 51.1905 9.63955 51.5081V51.5084ZM7.80127 55.1294C7.55049 55.4463 7.54191 55.3921 7.18989 55.5607C7.10949 55.1653 7.10532 55.2927 6.71335 55.1025C6.69668 55.0947 6.66211 55.0772 6.63858 55.061C6.75919 54.779 6.79228 54.6036 7.7086 54.6587L7.80151 55.1294H7.80127ZM12.9055 68.8521C12.9381 68.4554 12.9327 68.2037 13.3926 68.2896C13.6382 68.3354 13.8971 68.5735 13.9461 68.8358C14.078 69.5444 13.3541 69.042 13.047 68.9155L12.9487 68.8747C12.9425 68.8722 12.919 68.8607 12.9053 68.8518L12.9055 68.8521ZM27.2404 7.77236C26.9842 8.214 26.6714 8.52229 26.027 8.63276C25.8564 8.136 26.1096 8.65761 25.939 8.16085C26.4807 7.93892 26.5182 8.19333 26.5665 7.38213C26.8602 7.60086 26.9279 7.59644 27.2404 7.7726V7.77236ZM17.8656 28.5562C17.8497 28.8224 17.8183 28.6888 17.722 29.0141C17.178 28.9951 17.1667 29.0862 16.6728 29.0677C16.7017 28.6812 16.7375 28.6187 17.1567 28.3643C17.4307 28.198 17.8916 28.1172 17.8656 28.5562ZM83.8649 32.8708C83.4582 32.9387 82.6689 33.242 82.7013 32.6924C82.7339 32.14 83.3813 32.3142 83.8492 32.2151L83.8649 32.8708ZM58.3763 25.5075L58.2189 26.1979C57.9331 26.1565 57.9206 26.3266 57.5879 25.6404C57.1332 24.702 58.413 24.8897 58.376 25.5075H58.3763ZM64.0191 30.2792C63.8181 30.5447 63.8718 30.3917 63.7597 30.7302C62.6149 30.6357 63.1709 29.5283 63.4818 29.547C63.8566 29.5694 63.883 29.9793 64.0193 30.2792H64.0191ZM19.561 29.3578L20.3717 29.4065C20.3601 29.5992 20.5134 30.246 19.5127 30.0698C19.1801 30.0113 19.0857 29.964 19.1237 29.7069C19.1563 29.4855 19.307 29.3428 19.561 29.358V29.3578ZM8.01894 57.2436C7.9258 57.0842 7.9003 56.8954 7.8221 56.6484C8.11897 56.4737 8.38788 56.2806 8.66734 56.116C9.06911 56.9803 8.89531 57.2962 8.01894 57.2436ZM43.6296 75.9474C43.3486 75.5658 43.6087 75.5456 43.685 75.0176C44.6255 75.053 43.7114 74.6446 44.8104 74.8961C44.492 75.4324 44.2233 75.7707 43.6296 75.9474ZM61.5216 27.3297C61.35 26.908 61.5518 27.0625 61.2459 26.6937C60.9206 26.302 60.9943 26.6705 61.0186 26.0163L61.8295 26.0643C62.0423 26.594 62.0291 27.031 61.5216 27.3297ZM19.8721 84.5522C19.9829 83.5715 20.6433 84.054 21.1299 83.9826C21.3517 84.9545 20.4369 84.7205 19.8721 84.5522ZM45.334 41.5216L44.9097 41.5388C44.892 41.5349 44.8611 41.5147 44.8442 41.5105C44.5809 41.4436 44.9151 41.4539 44.665 41.461C44.6422 41.4615 44.0446 41.7066 44.0671 41.3284C44.1041 40.7074 44.8244 40.7908 45.3757 40.8238L45.334 41.5213V41.5216ZM51.0967 42.3345C50.4701 42.2968 50.9332 41.7669 50.9346 41.7356L50.8425 41.4684C50.8356 41.4514 50.8128 41.4136 50.8045 41.3838L51.3036 40.9345C51.3256 40.9227 51.3418 40.6899 51.5396 40.9252C51.7688 41.198 51.5975 40.8769 51.4931 41.2886C51.2992 42.0535 51.5703 41.295 51.5683 41.9224C51.5678 42.1103 51.3494 42.3497 51.0964 42.3345H51.0967ZM59.5032 12.4585C59.2958 12.8826 59.4029 12.8278 59.0021 13.0637C58.6508 12.8292 58.4699 12.4279 58.4925 11.8667C59.4934 11.6888 58.7342 11.7093 59.5032 12.4587V12.4585ZM80.1001 33.4618C80.0731 33.9157 79.2696 34.1413 78.8935 34.206C78.9092 33.1818 79.1387 33.4908 79.3564 33.3631L79.5608 33.2069C79.8773 33.0142 80.1234 33.0678 80.0999 33.462L80.1001 33.4618ZM33.6664 65.3954C33.8194 65.3991 34.0074 65.3376 34.382 65.3602C34.3979 65.9628 34.2545 66.0403 33.8572 65.9411C33.2448 65.7886 33.9327 65.9977 33.1767 66.0819C32.9229 65.7325 32.9707 65.7446 32.9923 65.2768C33.4208 65.3123 33.3987 65.3893 33.6662 65.3957L33.6664 65.3954ZM31.1746 50.9361C31.1477 51.3876 30.7704 51.2618 30.3431 51.2363C30.1752 50.2481 30.1715 50.1761 30.9844 50.2248C31.0913 50.4605 31.1957 50.5815 31.1744 50.9361H31.1746ZM29.024 9.04611C27.9807 8.0617 28.2901 8.88471 28.1462 8.17685C28.5458 8.01052 28.5771 8.167 28.912 8.05063C29.2856 7.92072 29.0316 7.78958 29.5704 7.67935C29.5579 8.26641 29.606 8.07031 29.3947 8.47234L29.024 9.04611ZM59.2627 28.1303L58.8026 28.099C58.6979 27.4837 58.7143 27.7381 58.2581 27.4837C58.2932 27.0575 58.3915 26.8452 58.5452 26.5677C58.9967 26.828 58.7729 26.9906 59.1595 27.3474C59.3897 27.5597 59.4448 27.2509 59.4693 27.6692C59.4811 27.866 59.3956 27.7393 59.2625 28.1303C59.4318 28.2294 59.5689 28.288 59.7329 28.3719C60.0216 28.52 59.9317 28.4703 60.1646 28.648C60.0045 29.189 59.9961 29.6156 59.3267 29.6144C59.1141 29.3125 59.0847 29.264 59.1867 28.9186C59.2627 28.6603 59.2421 28.8846 59.261 28.6612C59.2698 28.5552 59.2544 28.2821 59.2627 28.1305V28.1303ZM36.183 64.4157C35.9033 65.3593 35.5388 64.6494 35.1311 64.9589C35.0034 65.0559 34.9142 65.2771 34.7237 65.4751C34.7154 65.4606 34.7117 65.4146 34.7095 65.4267L34.5352 65.019C34.4742 64.908 34.4754 64.9796 34.4168 64.7788C34.5629 64.693 34.5379 64.706 34.6933 64.5956L35.0233 64.3485C35.2554 64.4366 35.1932 64.368 35.3162 64.5559C35.6447 64.2371 35.3461 64.3881 35.7597 64.1596L36.1828 64.4154L36.183 64.4157ZM45.7556 42.2471C45.3668 42.2238 45.3583 42.0073 45.3269 41.6379C46.5771 41.1326 45.4877 41.6163 46.1444 40.9872C46.844 41.1956 46.6504 41.7524 46.6389 41.7703C46.3979 42.1475 46.5504 41.7966 46.1702 41.9627C45.6198 42.2031 46.2341 42.2757 45.7556 42.2471ZM51.0023 80.9401L50.9883 81.1726C50.6356 81.317 50.6579 81.2693 50.1706 81.24L49.8443 81.7495C49.5918 81.9771 49.4996 81.8669 49.2094 81.7655C49.3187 81.0023 49.4952 81.3664 49.7573 81.2439C50.0347 81.1143 50.1473 80.7627 50.301 80.5479C50.789 80.5771 51.0268 80.524 51.0021 80.9401H51.0023ZM60.5239 13.9099C60.6904 15.0788 59.7611 14.4718 59.5154 14.4329C59.2075 14.3845 59.4684 14.5774 59.0413 14.3493C59.1031 13.9185 59.2519 13.7871 59.5515 13.5907C60.1579 13.7487 59.4703 13.6291 59.9275 13.8245C60.0503 13.8769 60.1768 13.8171 60.5237 13.9099H60.5239ZM48.874 50.3667C48.7956 50.9863 48.76 50.7872 48.4178 51.0899C48.0707 51.3967 48.2524 51.4444 47.8648 51.6966C47.489 51.5199 47.5066 51.4045 47.4427 50.9806C47.6822 50.8463 47.7778 50.7853 48.1514 50.7899C48.1058 50.5213 48.0776 50.5171 48.0702 50.2016C48.4372 50.2238 48.6201 50.2496 48.874 50.3667ZM30.324 49.602C30.2843 49.9 30.2353 50.1207 30.0342 50.2637C29.8045 50.427 29.8668 50.2858 29.3559 50.2437C29.226 50.6364 29.0946 50.7722 28.6264 50.783C28.6669 50.1047 28.607 49.9374 29.2412 49.8392C29.9207 49.7339 29.4346 49.2062 30.324 49.6018V49.602ZM77.307 33.5272C77.1798 33.8704 77.2148 33.7784 76.9319 33.9711C76.5998 33.2639 76.6956 33.2674 77.547 33.3018C77.5448 32.9377 77.4597 32.9195 77.4646 32.8366C77.4796 32.5858 78.3233 31.2656 78.2118 33.0071C78.1687 33.6812 78.0633 33.5722 77.3073 33.527L77.307 33.5272ZM47.4709 50.5154C47.389 50.7919 47.3137 51.0195 47.1907 51.315C46.7641 51.1725 46.7305 51.0372 46.6533 50.5828C46.2564 50.7225 46.3886 50.9169 46.1694 50.9036C45.4404 50.8598 45.9365 50.1613 46.116 49.8505L46.8109 49.8924C46.8347 50.5218 46.9752 50.2418 47.4711 50.5154H47.4709ZM33.2936 64.1281C32.9752 64.1089 32.6383 63.5905 32.6526 64.0493C32.6545 64.1133 33.0754 64.8025 32.5288 64.8933C32.0755 64.9683 32.2277 64.7631 32.1245 64.3451C32.0686 64.1177 32.0012 64.5429 32.0216 63.9347C32.0476 63.1611 32.4783 63.6264 32.9026 63.5575C33.3674 63.4822 32.8207 63.5044 33.3012 63.4642C33.4213 63.4542 33.4792 63.4839 33.6829 63.4515C33.6588 63.8557 33.712 64.1532 33.2938 64.1281H33.2936ZM44.1264 50.0811L44.2838 49.3907C44.6209 49.5031 44.4689 49.4493 44.7332 49.651C44.8052 49.1481 44.6415 49.4493 44.9315 49.2354C45.1087 49.1048 45.2992 49.1449 45.382 49.1993C45.5965 49.341 45.4548 49.4084 45.5232 50.1729C45.6159 51.207 45.4178 50.598 44.6471 50.2794C44.3549 50.1583 44.3863 50.226 44.1262 50.0811H44.1264ZM10.3931 54.47C10.2833 54.953 10.2838 55.0046 9.77928 55.0162C9.73344 55.3375 9.70329 55.3104 9.6849 55.4984C9.62803 56.0764 9.81311 55.4162 9.6621 55.9113C9.55253 56.271 9.31916 56.2651 8.89262 56.2461C8.92448 55.8239 9.00783 55.8326 8.98062 55.5895C8.924 55.0843 8.79309 55.5592 8.86002 54.8444C9.18311 54.7327 9.37676 54.839 9.7023 54.6752C10.0766 54.4865 9.90455 54.2599 10.3933 54.47H10.3931ZM43.4714 51.3248C42.6174 51.2734 43.2793 51.344 42.8983 51.0601C42.8789 51.0458 42.8527 51.0237 42.8329 51.0096L42.6939 50.9179C42.3529 50.706 42.7642 51.0015 42.4732 50.7985C42.4718 49.076 42.9753 49.8456 43.2332 50.1027C43.6788 50.5468 43.5293 50.1291 43.7514 50.6482C43.8585 50.8984 43.9213 51.3524 43.4712 51.3253L43.4714 51.3248ZM47.4726 42.6999C47.8248 42.864 47.6319 42.4954 47.6834 43.0625C48.158 43.0273 48.1097 42.8431 48.2227 43.1742C48.3188 43.4559 48.1381 43.5898 47.9381 43.7229C47.6831 43.5002 47.7515 43.6757 47.6694 43.295C46.9541 43.4402 47.5091 43.4402 46.8587 43.2463L47.2365 42.6858L46.7575 42.2521C46.5764 42.7599 46.7965 42.5075 46.4231 42.7537L46.091 42.5215C46.584 41.7861 46.4427 42.3598 47.1434 42.0818C47.805 41.8193 47.8891 41.9991 47.5692 42.5503L47.4726 42.7001V42.6999ZM28.4536 10.8228C28.383 10.588 28.3019 9.87674 28.295 9.58543C29.2059 9.64005 28.6169 9.76799 30.4814 9.95006C30.2634 10.6875 30.1926 10.3917 29.5793 10.4198C28.7171 10.4596 29.1819 10.6833 28.4536 10.8225V10.8228ZM21.7577 66.5845C21.6645 67.719 21.5878 67.0624 22.298 68.3051C22.4124 68.5051 22.3784 68.3619 22.4487 68.6365L22.1018 68.9298C21.679 68.7057 21.4939 68.5558 21.214 67.7299C21.0213 67.1618 21.0904 66.2598 21.7577 66.5845C21.7466 66.1126 21.6606 66.1436 21.3704 65.8285C19.5007 63.7989 18.2478 63.3523 15.53 64.4984L13.6593 65.7318C12.0566 67.4383 12.1338 69.6293 12.9092 71.821C13.2808 72.8716 14.5477 74.0278 15.5809 74.3435L18.1198 74.7617C18.8518 74.7573 19.5225 74.4874 20.0826 74.1188L20.8855 73.4142C20.7825 73.0832 20.6646 73.2185 20.7036 72.568C20.5844 72.6226 20.1643 72.7929 20.0697 72.8645C19.6718 73.1661 19.7466 73.5807 19.0393 73.1866L19.0048 73.7677C19.9826 73.7448 18.9001 73.4114 20.0679 73.4816C20.0368 73.8617 20.1466 73.8688 19.8637 74.0081C19.5308 74.1722 19.4502 73.9249 19.4477 73.9235C19.2247 74.2325 19.2852 74.6335 18.5209 74.0885C18.5118 74.1028 18.5059 74.1306 18.503 74.1368C18.5 74.1434 18.487 74.1781 18.4829 74.1862C18.4785 74.1948 18.465 74.2273 18.4591 74.2369L18.1456 74.5324C17.7747 74.4089 17.6793 74.3011 17.6014 73.9166C17.9176 73.7871 17.7315 73.8179 18.1872 73.8351C18.0056 73.007 18.3429 73.0387 19.0393 73.1863C19.1313 72.5442 19.3374 72.6079 20.0005 72.6608C19.9245 72.1566 20.4128 72.0122 20.6273 72.2137C20.7087 72.29 20.4734 72.4435 21.5059 72.7513C21.992 71.9492 22.5468 71.1299 22.6598 70.0732C21.6672 70.4366 20.8536 69.2629 20.5864 68.7273C20.0412 67.6351 20.3065 67.5313 20.3957 66.0356C20.8144 65.9192 20.7908 65.7131 20.9992 65.9478C21.2591 66.2401 20.6447 67.1312 20.9441 68.0785L21.0813 68.3969C21.4728 69.196 21.9396 69.5112 22.8578 69.5663C22.7488 69.2504 22.6642 68.6493 22.6581 68.4028C22.6318 67.3451 22.7868 67.611 23.0915 67.5973C22.9993 67.3707 22.9206 67.1089 22.8797 66.7954C22.361 66.8581 22.7917 66.9959 21.9682 66.9465C21.9089 66.6101 21.9962 66.7728 21.7574 66.5838L21.7577 66.5845ZM46.2437 51.608C46.2074 52.2187 45.6134 51.9264 45.3806 51.716C45.243 51.8728 45.2166 51.9244 44.9989 52.0524C44.6601 52.2517 44.8248 52.2118 44.3493 52.1941C44.3343 52.1688 44.3211 52.0967 44.3152 52.1127L44.2213 51.7547C44.1921 51.576 44.1794 51.5249 44.173 51.2505C44.6361 51.2289 44.8295 51.0566 45.2291 51.0808C45.5274 51.0987 45.0773 51.2545 45.777 51.3039C45.9966 51.3194 46.2712 51.1467 46.2435 51.6085L46.2437 51.608ZM64.0115 16.7639C64.694 16.2999 64.4611 16.0947 65.3279 16.1264C65.2624 17.2218 65.3154 16.3289 64.5604 17.115C64.5442 17.132 64.4773 17.2149 64.4481 17.24C64.0336 17.102 64.1863 17.0983 63.8919 16.8235C63.7556 17.2233 63.7818 17.0976 63.3989 17.2937C62.879 16.8611 63.5173 17.026 62.8407 16.9101L62.8821 16.2128C63.1616 16.0851 63.1954 16.0312 63.5908 16.0221C63.6019 16.5068 63.7384 16.5371 64.0115 16.7639ZM57.2854 26.2584C57.2854 26.8915 57.4514 27.2684 56.7098 27.3904C56.6194 27.0588 56.6875 26.7448 56.5833 26.333C55.5751 26.3544 55.9102 26.3497 55.58 26.5573L55.3167 26.6902C54.938 26.1157 55.1074 26.0234 55.6707 26.0448C55.7163 25.4881 55.756 25.4275 56.2914 25.3823C56.8395 25.9917 56.2409 25.9427 57.2852 26.2584H57.2854ZM16.5863 73.3895C16.3534 72.6888 17.1385 72.8394 17.4315 72.8571C17.4239 72.9489 17.3503 73.3418 17.3506 73.3507C17.3511 73.3726 17.3543 73.4051 17.357 73.426C17.3597 73.4466 17.3717 73.4776 17.3763 73.4978C17.6332 74.6456 16.9321 73.9832 16.7351 73.9402L16.03 74.0152C15.7234 74.0772 15.4093 74.5979 14.9649 73.2926C15.4976 73.2124 15.9136 73.3371 16.5863 73.3898V73.3895ZM32.2947 61.3852C32.8531 61.4659 32.779 61.5188 32.6854 62.096L33.2951 62.1479C33.2551 62.6346 33.119 62.9252 32.6494 62.7342L32.2157 62.3384C31.7688 61.5621 32.1257 62.0525 32.103 61.5756C32.0841 61.1837 31.8711 61.4128 31.859 60.8921L31.5117 60.8712C31.4112 61.0927 31.5548 61.2085 31.2406 61.0147C30.725 60.697 31.2288 60.1543 32.2481 60.2155L32.3699 60.6712C32.377 60.6857 32.4015 60.7138 32.4084 60.7283C32.5138 60.9509 32.5094 60.7492 32.4785 60.9844C32.4496 61.2068 32.3699 61.2558 32.2944 61.385L32.2947 61.3852ZM41.806 20.7791C41.8378 20.7582 43.1486 19.8249 42.7868 20.7579C42.6983 20.9867 42.649 20.9429 42.3642 21.1626C41.4929 20.9818 42.2769 20.8418 41.2061 21.093L40.8061 20.2388C40.669 19.9757 40.7543 20.3517 40.6962 19.896C40.0827 19.8729 40.3766 19.9829 39.8856 19.8473C39.9422 19.1562 40.1719 19.1646 40.8536 19.2056C40.9617 19.7371 41.0036 19.3897 41.34 19.6559C41.3549 19.6677 41.3848 19.6889 41.3968 19.7019C41.5476 19.8682 41.3429 19.8668 41.5775 20.3155C41.7028 20.5549 41.7116 20.4031 41.806 20.7793V20.7791ZM45.5541 26.1369C45.0021 26.1036 45.2185 26.1383 45.1048 25.8766C45.2847 25.333 45.3073 25.6428 45.9432 25.4605C46.0486 25.1047 46.1111 25.1325 46.2165 24.777C45.951 24.761 45.8152 24.7187 45.5745 24.795C45.1675 24.9241 45.5318 25.0855 44.9219 25.0491C44.7868 24.7167 44.8195 24.8171 44.8476 24.3447L45.7252 24.2209C46.0238 24.1218 46.0366 23.8029 46.4472 24.3555L46.7475 24.6427C46.8899 24.7529 47.3578 24.7541 46.8563 25.2309C46.7935 25.2905 46.3011 25.5363 46.1878 25.6128C45.7245 25.926 45.8184 26.1529 45.5544 26.1371L45.5541 26.1369ZM7.23009 56.0579C7.66865 56.0973 7.36958 55.9735 7.73386 56.1765C7.0411 57.5123 7.15606 56.1994 7.08546 57.3041C7.55613 57.3324 7.46053 57.2879 7.77332 57.4621C7.57157 57.8265 7.73312 57.9925 7.30266 57.9529C7.20803 57.9443 6.90872 57.7443 6.68858 57.6924C6.59592 57.6705 6.02991 57.8513 5.83257 56.879L6.22895 56.5872C6.42237 56.4206 6.53366 56.2808 6.58293 55.9907L7.23034 56.0579H7.23009ZM40.8014 23.985C40.8139 24.2175 40.7646 24.2089 41.0225 24.3262L41.1598 24.3607C41.1799 24.3668 41.2137 24.3742 41.2355 24.3804C41.4363 24.437 41.8761 24.5482 42.083 24.6451C42.3284 25.54 42.2597 25.5739 41.5214 25.8751C41.1078 25.3719 41.2196 25.9349 41.1882 25.2912C40.2822 25.5855 40.5751 25.2875 40.3204 24.6333C40.2246 24.3873 40.0704 24.5501 40.0927 24.1754C40.1229 23.6686 40.4435 23.9252 40.8014 23.9847V23.985ZM30.3475 47.2701C30.285 47.7629 30.1708 48.0434 29.9497 48.3089C30.2943 48.565 30.2497 48.2402 30.3365 48.6996C30.3613 48.8314 30.3497 49.0777 30.0681 49.1821C30.0372 49.1936 28.7174 49.2684 28.7519 48.6905C28.787 48.1007 29.0907 48.6243 29.4815 48.1509C29.0603 48.0901 29.0189 48.1105 29.0458 47.6581C29.0716 47.2258 29.0015 47.5683 29.241 47.381C29.2942 47.3395 29.5457 47.2349 29.5555 47.2317C29.9771 47.0912 29.9239 47.0826 30.3475 47.2698V47.2701ZM32.6445 59.423C32.3378 59.4046 32.0149 58.989 32.0473 58.7922C32.137 58.2529 32.5194 58.8323 32.7947 58.8488L34.5308 58.4558C35.4444 58.0265 35.089 57.6058 35.5692 57.1491C36.6615 58.0341 34.5553 59.5379 32.6442 59.423H32.6445ZM19.8478 34.1487C19.2024 34.285 19.0891 34.3738 18.6081 34.9796C17.9801 35.7708 18.4473 35.9581 18.0823 36.6177C17.6921 36.4876 17.7735 36.5791 17.6911 36.0853C17.4442 34.6068 19.6196 32.6048 20.5862 33.7253C20.7678 33.9359 20.7217 33.7636 20.7894 34.0973C20.3587 34.2737 20.7112 34.1497 20.3621 34.1293L19.9302 34.1268C19.9125 34.1293 19.8731 34.1359 19.8478 34.1482C20.3795 34.2405 20.4146 34.3246 20.3935 34.8898C19.4188 34.9119 18.9334 36.1798 19.5468 36.4142C20.0118 36.5919 19.6882 36.462 19.901 36.3318L20.0846 36.168C20.4641 36.2676 20.3915 36.3451 20.4761 36.3791L20.7573 36.428C20.4143 36.8802 20.0591 36.8468 20.2479 37.3305C20.7487 37.1617 20.2726 36.9235 20.9705 36.9073C20.9865 37.6019 21.0801 37.3421 21.3885 37.5342L21.3417 38.4793C21.8655 38.307 21.7111 38.0157 21.9712 38.542C22.1587 38.9216 22.1246 39.0457 21.9898 39.3018C22.369 39.2329 22.2828 39.165 22.6988 39.1111C22.6661 39.6113 22.4683 39.8837 22.7245 40.0451C22.9821 40.2077 23.0883 39.9346 23.4677 39.8571C23.6639 40.3396 23.6962 40.406 23.7489 41.0364C23.8406 42.1364 24.1421 41.3567 24.6317 42.0053L24.7861 42.2041C24.9079 42.3566 24.9445 42.2513 25.0317 42.6472C25.1006 42.9602 24.9915 42.9393 25.2286 43.4626C25.4485 43.3332 25.5575 43.2739 25.7821 43.0933C25.9873 42.9284 25.836 43.0898 26.025 42.8748C26.1645 42.7161 26.1096 42.8253 26.2103 42.5884C25.7088 42.4211 25.712 42.0993 25.3654 41.6901C24.2125 40.3283 24.1892 41.1326 23.1307 38.8397C22.6034 37.6978 21.451 36.5004 20.9365 35.7347C20.8303 35.577 20.9065 35.6919 20.7889 35.5337C20.556 35.2217 20.5898 35.4431 20.5028 35.013C20.9502 34.4713 21.0186 35.3469 21.4934 33.5274C21.8996 31.9703 21.9886 31.0867 21.2463 29.6181C20.4803 28.1022 18.5405 27.0903 16.8054 26.9705C15.3522 26.8701 15.1019 27.1407 14.038 27.6973C13.0474 28.2154 12.9232 28.6504 12.214 29.4803C11.2325 30.6288 11.4389 31.4314 11.5663 32.2928C11.8865 34.4567 11.9218 34.566 13.4235 36.2528C13.8456 36.7272 14.3925 36.9157 15.1598 37.018C17.9458 37.3898 17.6362 37.0685 19.0023 36.789C18.9817 36.383 19.0244 36.4969 18.6687 36.5355C18.7136 35.7829 18.6601 35.5034 18.9888 35.0364C19.0876 34.8959 19.2823 34.6895 19.4367 34.5507C19.7149 34.301 19.6316 34.4661 19.8483 34.1477L19.8478 34.1487ZM13.5171 70.2887C13.8542 70.1507 13.9581 70.0874 14.219 70.2141C14.3349 70.5517 14.2273 70.66 13.9456 70.8976C15.3503 71.0079 14.1346 70.6755 15.5807 70.7626C15.5226 71.7362 15.2608 71.4434 14.5107 71.1648C14.3513 71.4276 14.2925 71.452 14.244 71.8427C14.5634 72.1052 14.5884 72.0238 14.8951 72.2378C14.6028 72.6824 14.4004 72.4403 14.3736 72.442C14.1503 72.4566 14.3508 72.1992 14.1959 72.5459L13.7326 72.5181C13.626 71.9928 13.2465 71.9812 13.4407 71.5671C13.7289 70.9528 13.4034 71.6577 13.6939 71.3398C13.9738 71.0332 13.7363 70.9392 13.6316 70.7483C13.4965 70.5015 13.6081 70.7527 13.5032 70.521C13.0754 70.7161 13.2306 70.7139 12.8013 70.5953C12.8633 69.8355 12.8175 70.3893 13.096 69.9361C13.1097 69.914 13.1281 69.8862 13.1411 69.8628L13.3409 69.3444L13.9008 69.3911C13.8319 70.2048 13.7517 69.4945 13.5169 70.2882L13.5171 70.2887ZM45.7444 35.1028C45.7637 35.4188 45.7049 35.3858 45.9709 35.5644C46.1143 35.6609 46.3469 35.7081 46.4869 35.7312L47.212 35.3351L47.2453 34.9771C47.036 34.9887 46.734 35.0253 46.5379 35.0704C46.0922 35.1725 46.5006 35.0923 46.0495 35.2763L45.7444 35.1031V35.1028ZM47.2453 34.9771L47.349 35.2234C48.0182 35.2101 47.3932 35.2832 47.7758 35.1009L48.4568 34.6322C48.7149 34.4767 48.4159 34.5138 48.8907 34.5025L48.5759 35.2665C48.3634 35.6454 48.3232 35.5777 48.1126 35.8557C48.1967 36.2698 48.6914 36.8579 47.7028 36.881C47.7341 36.3532 47.9305 35.6471 47.4012 35.7795C46.6548 35.9662 47.5221 36.0494 46.8105 36.7107L45.8865 36.0774C45.6838 35.8616 45.8194 35.8454 45.596 35.6717C45.4443 35.5536 45.2185 35.5575 44.9996 35.4355L45.0342 34.8543C45.4536 34.8888 45.509 34.9796 45.7441 35.1028C45.689 34.6516 45.5872 34.2761 45.4372 33.9455C44.8028 34.3187 44.3078 35.1555 43.8786 35.7799C42.9454 37.1379 42.8103 39.1335 43.3347 40.7692C43.683 41.8559 43.9607 42.1805 44.6182 42.7092C44.9261 42.4669 44.806 42.4172 45.2855 42.3352C45.4634 42.7769 45.2529 42.8657 45.0053 43.1349C45.2877 43.3073 45.5014 43.4392 45.7882 43.6486C45.8976 43.3184 45.7728 43.4655 46.0635 43.311C46.7707 42.9351 46.5572 43.7182 46.4621 44.0391C47.2706 44.1048 46.9487 44.383 48.5345 44.3995C49.5344 44.4096 50.3046 44.0671 51.0553 43.5285L52.8131 41.9192C52.6423 41.8855 52.4565 42.0301 52.2648 41.635C52.1834 41.4669 52.216 41.6498 52.2013 41.3511C52.6977 41.1473 52.7594 41.2315 53.1019 41.5014C53.2174 40.9842 53.4593 40.7871 53.5495 40.1447C53.5753 39.9609 53.6103 39.4078 53.59 39.2349C53.5326 38.7494 53.4944 39.1096 53.4346 38.605C53.2147 36.7518 53.6667 37.8196 52.7418 36.0282C52.5579 35.6724 52.7241 35.7686 52.4084 35.4434C51.4928 34.5013 49.5401 33.6141 48.2514 33.5314C48.4399 34.4592 48.3435 33.3158 48.8027 34.0311C48.3663 34.5593 48.3004 33.8672 48.182 34.6937C47.9099 34.4863 47.7278 34.2742 47.5932 33.8958C47.3365 33.1729 47.6988 33.2649 46.8754 33.2155C46.8357 33.4517 46.9406 33.6246 46.2618 33.7619L46.2481 33.9944C47.6076 34.0761 46.4925 34.3591 47.617 34.4267C47.5527 34.9159 47.6165 34.7153 47.2453 34.9776V34.9771ZM5.16408 55.6067C5.98946 55.6682 5.42049 55.0551 6.25616 55.6212C6.02304 56.006 6.25494 55.9388 5.84801 56.0294C5.46535 56.1145 5.54845 55.8446 4.99665 56.1713C4.87997 56.2405 4.87923 56.2331 4.78215 56.3077C4.61375 56.4363 4.55908 56.5345 4.44951 56.6792C4.67062 56.6413 5.82963 56.1086 5.52345 56.9961C5.31214 57.6075 5.48913 57.0581 5.09593 57.5344C3.80676 57.1501 4.05409 57.465 4.10214 56.658C3.55696 56.6132 3.46405 56.4437 2.7333 56.2257L2.76099 55.7607C3.62192 55.6133 2.99756 55.4418 3.91584 55.8252C4.02763 55.8719 4.26688 55.959 4.39459 55.9056C4.55565 55.8382 4.38111 55.9962 4.53849 55.7772C4.71499 55.5319 4.56913 55.7447 4.63458 55.5235C4.8025 55.5336 5.09985 55.6018 5.16359 55.6062L5.16408 55.6067ZM34.7968 66.2015C34.9404 65.8147 34.9627 65.9077 35.918 65.734L36.3865 65.641C36.6385 65.4941 36.6083 65.1863 36.725 64.9041C37.2246 63.6948 38.6572 63.1668 39.929 63.9435C39.408 64.6317 39.4125 63.9898 38.616 64.071C37.9581 64.1379 37.7183 64.4245 37.4313 64.8431C36.6912 65.9224 37.1525 65.9869 37.2298 66.2502C37.3849 66.7809 36.8194 66.8557 36.5336 65.9761C36.1529 66.2735 36.435 66.4411 35.8131 66.2765C35.5378 66.2034 35.7097 66.165 35.5273 66.2635C35.1873 66.447 35.0924 66.6879 34.7968 66.2015ZM3.64521 50.6819C3.60623 51.3342 3.28217 51.6725 2.7583 51.9116C2.73869 52.4379 2.84655 52.3806 2.81174 52.9647C3.29662 52.9457 3.89451 52.9239 3.22652 53.8062C2.65314 53.7235 2.8919 53.6101 2.44354 53.2924L2.2994 53.7503C2.44035 53.8148 2.52126 53.8778 2.69579 53.9164C3.21328 54.0305 3.91731 53.6893 3.50426 54.4641C3.06473 55.2878 3.35178 55.2603 2.82375 55.3341C2.33912 55.4017 2.65853 55.0027 2.42737 55.5078L1.9643 55.48C1.88341 55.0046 1.88904 55.4487 1.83952 55.0455C1.77456 54.5145 1.79221 55.01 1.90841 54.6823L2.07535 53.6204L1.68631 54.2968C1.30954 54.067 1.47134 54.2744 1.24384 53.9203C1.54193 53.4285 1.17153 53.627 1.72775 53.5995C1.79736 53.0592 2.05746 52.7157 2.10673 52.432C2.16531 52.0957 1.9795 51.4889 1.99593 51.0495C2.31902 50.9942 2.66441 50.7796 2.8767 50.5466C3.24441 50.1431 2.76614 50.5195 3.00565 49.7106L3.58466 49.7452C3.53514 50.2378 3.47557 50.1209 3.55868 50.4383C3.64325 50.7619 3.67708 50.1404 3.64497 50.6822L3.64521 50.6819ZM40.4442 20.2306C40.2751 20.8947 40.0787 20.973 39.5713 21.2281C39.7005 21.5455 39.6696 21.3587 39.6524 21.8161L40.6337 21.4284C40.7494 21.3457 40.5729 21.3952 40.9107 21.2461C41.2223 21.514 41.364 21.7999 41.3618 22.3855C41.7908 22.4113 42.1786 22.46 42.5796 22.4994C43.0643 22.5471 42.9652 22.3786 43.5693 22.4015C43.1653 23.3367 43.7315 22.9888 42.4478 23.0271C42.436 23.0276 42.4036 23.0274 42.3923 23.0271L42.1604 23.005C40.8923 23.0281 41.0914 22.6436 40.9316 23.7594C40.4491 23.7372 40.6026 23.7803 40.2437 23.6014C40.3371 22.9506 40.4315 23.2363 40.6497 22.8045C40.8678 22.3722 40.8735 22.2386 40.5727 21.9881C40.5156 22.6829 40.4134 22.5653 39.9451 22.7668C39.4774 22.4556 39.9849 22.6254 39.5027 22.3904C38.8913 23.1977 38.9889 23.2442 38.4049 23.2577C38.2338 22.245 38.4076 23.2857 38.6971 22.2199C39.034 20.9796 39.1151 21.9847 39.0264 21.0709C38.9867 20.662 38.9175 20.5559 38.9396 20.1401C39.6605 20.1672 39.4215 19.9359 39.6483 19.9494C40.0635 19.9745 40.0503 20.1103 40.445 20.2306H40.4442ZM12.9719 30.945C13.184 31.0939 13.6333 31.1615 13.8706 31.2321C13.8316 31.6625 13.7811 31.5129 13.6309 31.7973L13.4904 32.3014C13.475 32.3718 13.4671 32.3777 13.4554 32.4417C13.3889 32.7945 13.5735 32.5312 14.4979 33.0951C14.8573 33.3144 14.8328 33.2733 15.2583 33.2989L15.2235 33.88C16.27 33.943 15.7114 33.8633 16.0271 34.0451C15.9075 34.9077 15.8773 34.1521 15.2721 35.1757C15.2561 35.2025 15.1451 35.3757 15.1333 35.3912C15.8082 35.4318 15.6537 35.3801 16.046 35.6793C16.2244 35.137 16.6936 35.0182 17.2457 35.0514C17.2025 35.5784 17.18 35.4881 16.8667 35.7285C16.9123 35.9101 17.042 35.9492 16.9991 36.178C16.8939 36.7375 16.0416 36.645 16.271 35.8092C15.883 35.8887 15.5153 36.8059 14.9769 35.7504C14.6872 35.1821 15.1475 35.5976 14.5614 35.2399C13.5483 35.4207 14.6374 35.702 13.4914 35.6422C13.436 35.3169 13.4512 35.3769 13.2877 35.1631C14.0018 34.2201 13.4902 34.8895 14.3714 34.5286C14.3136 34.1886 14.2731 34.3298 14.2638 34.0291C14.2562 33.7828 14.3653 33.8729 14.304 33.708L13.8434 33.6357C13.7637 34.9685 12.9837 34.409 12.9955 34.2127C13.0239 33.7383 13.258 33.7811 13.1774 33.5444C13.0575 33.1911 13.0624 33.4741 12.9908 33.478C12.529 33.5048 13.1141 33.5523 12.6746 33.5397C12.0613 33.522 12.5601 33.0892 12.6361 32.4414C12.0171 32.3381 11.947 31.8475 12.9026 31.874C12.8567 31.8029 12.7057 31.6228 12.7003 31.6132L12.44 30.9676C12.3147 30.7125 12.4292 31.192 12.277 30.6702C12.2936 30.6478 12.3253 30.5892 12.328 30.604L12.4204 30.212C13.1352 29.919 12.9685 30.14 13.3916 29.4483C13.8878 28.6379 14.5536 29.2695 14.57 29.2911C14.8423 29.6548 14.3594 29.4712 13.8532 30.2231C13.2311 31.148 13.5345 29.8848 12.9715 30.9452L12.9719 30.945ZM22.8755 79.0165C22.4774 78.8839 22.6181 78.9567 22.433 78.6398C21.0198 79.2852 21.2713 78.6342 21.2196 79.5002C21.2203 79.5005 22.3122 80.3178 22.8755 79.0165ZM21.9398 77.4052C21.8976 77.2275 21.904 77.2731 21.8675 77.1729L20.8021 74.809C20.3511 75.0149 20.2601 74.9406 19.9566 75.3414C20.2734 75.3872 20.2079 75.3677 20.4128 75.4856C20.3182 76.1464 19.966 76.0896 20.6028 76.1969C20.4871 77.0046 20.1344 76.409 20.1922 76.8199C20.2552 77.2672 20.6967 76.3981 21.2701 76.7035C21.0902 77.247 20.945 77.045 20.5366 77.3594C20.6171 77.7819 20.6259 77.5287 20.8009 77.9452L20.874 77.4965C21.5272 77.6913 21.0997 77.7873 21.7935 77.6682C21.2247 78.6435 21.4037 77.9959 20.8323 78.1937C20.8764 78.4112 20.8372 78.5141 21.0463 78.5749C21.3127 78.6521 21.8645 78.2954 22.3377 78.2843L21.9393 77.4052H21.9398ZM52.9548 77.4406C53.009 76.5335 52.4038 75.5353 52.0088 74.7598C51.8561 74.4596 51.7174 74.3326 51.5063 74.1105L50.8922 73.4432C50.6677 73.2663 50.4951 73.1804 50.1357 73.017C46.9617 71.5745 44.5986 72.4206 42.7931 75.2489L42.6113 75.5392C42.2173 76.3226 42.7235 75.7075 42.6086 77.4035C42.4487 79.7623 43.481 81.0422 45.2345 82.2227C45.7799 82.5898 47.0223 83.0331 47.5054 83.0624C48.8912 83.1456 51.1974 82.0955 51.7747 80.9479C52.5587 79.3898 52.8345 79.454 52.9543 77.4406H52.9548ZM44.5466 72.2696C44.4692 71.8882 44.3576 71.8178 44.0865 71.4687L42.6794 69.5282C41.9658 68.5256 41.037 67.5653 40.657 67.0382C40.3758 66.6485 40.356 66.5639 39.9917 66.1931C39.4125 65.6038 39.8919 65.5908 39.1377 65.5285C39.0776 66.5361 39.0462 66.0807 38.6052 66.663C39.0322 66.59 39.4774 66.368 39.8652 66.9721C39.4696 67.4944 39.4331 67.1684 39.2546 67.6351C39.7598 68.4636 39.9996 67.2407 40.6271 67.8342C40.4467 68.3799 40.3587 68.1848 39.8978 68.3738C40.0626 69.1847 40.3087 68.7482 40.9193 68.7849C40.8431 69.3181 40.8068 69.0964 40.5303 69.4615C40.7448 69.7011 40.6918 69.7373 40.9659 69.9543C41.5466 69.5813 40.8928 69.5378 41.6886 69.5311C41.6165 70.4095 41.2708 69.9693 41.626 70.5773C42.132 70.4737 42.3708 69.928 42.4137 70.5116C42.4438 70.9205 42.1291 70.7638 41.8329 71.173C42.019 71.4781 41.918 71.4977 42.5387 71.3932C43.1729 71.2861 42.8767 71.0261 43.4442 71.2699C43.2773 71.775 43.004 71.9436 42.3605 71.9047C42.4169 72.2019 42.5112 72.2956 42.6733 72.5068C43.4092 72.3572 42.6407 72.1593 43.7364 72.2206C43.5425 72.9814 43.3119 72.5336 43.2109 73.2387C43.6479 73.1723 44.2814 72.6202 44.5471 72.2691L44.5466 72.2696ZM14.1165 64.1421C13.7718 64.0833 13.8258 64.0737 13.6674 63.8773C13.5046 63.6754 13.6123 63.7519 13.4639 63.5105L11.4386 60.5826C10.6181 59.4152 10.7221 59.4513 10.0484 58.2984C9.86507 58.4064 9.32087 58.7964 9.19634 58.9469C9.65083 58.9846 9.46992 58.9317 9.76825 59.098C9.46036 59.505 9.49835 59.1881 9.62484 59.5561C10.2247 59.8339 9.52238 59.0326 10.1659 59.6049C10.3691 59.7857 10.1337 59.9016 10.5306 59.9606C10.5046 60.2778 10.2117 60.6793 10.9805 61.0006C11.2665 61.1202 11.4067 61.0265 11.4038 61.2641C11.3994 61.6022 11.396 61.2573 11.2874 61.4846C11.1533 61.7648 11.1516 61.3869 11.2442 61.6367C11.3989 62.3984 11.6024 61.944 12.0272 62.1501C11.9635 62.7677 11.9446 62.2579 11.7541 62.8336C12.2488 63.4239 12.0573 63.1975 12.9053 63.2576L12.7479 63.71C13.2499 63.6874 13.2619 63.6985 13.4357 63.868C13.3546 63.975 13.3973 63.961 13.2737 64.0464C13.0639 64.1913 12.8415 64.1113 12.7202 64.1748C12.9384 64.5488 13.0511 64.4538 13.1418 64.9001C13.4318 64.8409 13.5453 64.7587 13.7542 64.5983L13.8841 64.4934C13.9013 64.4765 13.9275 64.4519 13.9429 64.4346L14.1167 64.1423L14.1165 64.1421ZM39.9829 64.9963C40.0844 64.0968 41.3834 62.9109 40.3869 59.5775C40.1523 58.7927 39.4909 58.2639 38.7932 57.8009C37.2359 56.7668 36.6936 56.8664 34.8956 56.7584C34.8652 57.5718 35.1194 57.0677 35.0203 57.6461C34.8728 58.5075 33.4063 58.5353 32.7001 58.4927C32.2255 57.6803 32.641 57.9118 32.1765 57.528C32.0507 57.9082 31.5972 58.2615 31.3337 58.8074C31.1026 59.2865 30.9037 59.6669 30.7317 60.2318C30.2607 61.7789 30.2154 63.8712 31.2298 65.0834C31.8014 65.7665 32.6543 66.5004 33.4647 66.8365C34.7347 67.3633 35.6489 67.4196 36.9591 67.0333C37.7968 66.7863 37.7151 66.9738 37.7088 66.2566C37.698 64.984 38.677 64.9176 39.9826 64.9961L39.9829 64.9963ZM44.6165 57.4591C44.4995 57.4923 44.086 57.5199 43.7989 57.5265C43.3202 56.4698 43.356 57.2608 43.1398 56.7057C43.0638 56.5111 43.3881 56.0476 43.4467 55.6389C43.1886 55.7162 43.3398 55.6426 43.1515 55.8015L42.3374 56.8644C42.1379 57.1486 42.1945 56.9264 42.069 57.3058C43.3533 57.6887 46.3239 58.7129 47.512 57.6328C47.008 57.5947 46.9024 57.5334 46.7291 57.1191C46.2927 57.2084 46.5724 57.2276 46.1361 57.3167C45.9537 57.124 45.8892 56.9953 45.7005 56.8238C45.6365 57.3066 45.651 57.1991 45.3183 57.3841C44.778 57.204 44.8682 57.169 45.0055 56.782C44.6829 56.8994 44.9038 56.7756 44.7439 57.0962C44.7432 57.0977 44.6344 57.4153 44.6165 57.4586V57.4591ZM45.5556 56.0727C45.8228 56.4194 45.7159 56.3588 46.3069 56.3943C46.0525 55.742 46.7391 56.1305 45.8554 55.7634L45.5556 56.0727ZM44.9153 56.0926C44.6118 55.7523 44.6957 56.1322 44.7204 55.7157C44.7246 55.6456 44.8364 55.4347 44.8709 55.1417L43.9978 56.1389C44.7202 56.3244 44.3694 56.2171 45.0401 56.2016L44.9153 56.0926ZM34.4925 57.6675C34.3908 57.1449 34.2646 57.2835 34.0842 56.4863C33.8464 55.4337 33.119 54.3307 32.5349 53.4671C32.1287 53.5367 31.4558 53.7909 31.2195 54.0879C31.4957 54.0404 31.5681 54 31.9211 54.0136C31.8242 54.6912 31.6749 54.2094 31.6958 54.7645L31.9382 54.6262C31.9581 54.6173 31.9917 54.5982 32.0123 54.591C32.4768 54.4267 32.5555 54.5477 32.2353 54.9591C31.949 55.3277 32.1949 54.7517 31.9605 55.2991C32.8139 55.2792 32.1003 54.9013 32.9009 55.1225C32.8099 55.7563 32.7683 55.3988 32.3959 55.792C32.6793 55.7853 33.3801 55.5457 33.2149 56.0126C33.134 56.2407 32.7352 56.2565 32.5793 56.6194C32.9683 56.9095 33.4105 57.0453 33.8427 57.1658L33.6679 57.8513C34.0131 57.7098 34.1474 57.809 34.4923 57.6675H34.4925ZM41.1725 55.6741C41.3603 55.3043 41.6361 56.0035 42.131 56.2602C42.346 55.9056 42.7998 55.4007 42.8954 55.1397C42.7044 54.8427 42.7527 54.8801 42.3369 54.7561C42.3507 55.3454 42.6345 55.4504 42.1658 55.679C42.1068 55.5863 42.1033 55.6217 42.0411 55.4482C42.0293 55.4153 41.995 55.3075 41.9893 55.2708L42.1399 54.6663C42.1509 54.6383 42.1673 54.6095 42.1774 54.5812C42.2546 54.3625 42.2404 54.4215 42.2556 54.1681C43.1059 54.4215 42.8351 54.6375 43.379 54.8189C43.5195 54.5868 43.556 54.5529 43.6452 54.2515C43.0577 54.0556 43.2596 53.645 42.5218 53.6007C42.1705 53.5795 42.0555 53.9289 41.6506 54.3524L40.4244 55.9233C40.2825 56.1401 40.1702 56.0919 39.9106 56.4762C39.8111 56.6233 39.7441 56.7729 39.6502 56.9277C38.9768 56.8721 39.3122 56.7208 39.0756 56.7791C38.756 56.8578 39.0622 57.0032 39.106 57.0583C39.1065 57.0588 40.0608 57.977 40.269 57.9241C40.6492 57.8274 40.2822 57.6454 40.2722 57.5846C40.1565 56.895 40.4224 57.1228 40.7877 57.3457C40.8203 56.7978 40.798 56.8246 40.7274 56.4088C41.4971 56.272 40.773 56.2024 41.5378 56.4575C41.4233 56.2614 41.2493 56.1135 41.1907 55.9681C41.1841 55.9514 40.9769 56.0582 41.1721 55.6739L41.1725 55.6741ZM11.192 52.7683C11.2391 51.9786 10.4941 50.5518 10.0492 50.0434C8.90855 48.7397 7.98953 47.8692 5.65141 48.2286C3.98055 48.4855 2.42614 49.157 1.72186 50.7496C0.983261 52.4197 0.770233 53.0515 1.22227 54.7104C1.73559 56.5953 2.67446 57.4163 4.25069 58.0676C4.8932 58.3331 5.42957 58.4905 6.16547 58.4822C6.51871 58.478 7.1845 58.4443 7.33575 58.4359L8.25379 58.2548C9.58464 57.7868 9.39392 57.764 9.51551 57.2003C9.75501 56.0904 11.001 55.9698 11.1922 52.7681L11.192 52.7683ZM40.7463 50.1023C40.3298 50.4007 40.0001 51.0904 39.975 51.6882C39.9736 51.7205 39.978 51.7534 39.9777 51.7844C39.9775 51.8135 39.9822 51.8467 39.9824 51.8745C39.9844 52.2967 39.9018 52.277 40.1388 52.6411C40.6499 51.7178 40.0741 51.9232 40.2381 51.3871C40.4244 50.7784 41.616 51.7261 41.9869 50.8859C42.3227 50.9462 42.3526 51.0109 42.5522 51.1533C42.496 51.546 42.4384 51.5736 42.2791 51.8368C41.7959 51.797 41.8719 51.7682 41.5974 51.5755C41.3172 51.9328 41.2667 52.0182 41.3182 52.3621C42.2558 52.2015 41.9714 51.8516 43.3008 52.248C43.227 53.1487 42.979 52.695 41.9991 52.6362C41.87 52.807 41.7947 52.8375 41.69 53.0348C41.5915 53.2203 41.5937 53.3544 41.5079 53.5399C41.0715 53.3694 41.3843 53.5131 41.0438 53.0629C40.631 53.1175 40.8882 53.1278 40.4827 53.2489C40.4639 53.2545 40.4288 53.2599 40.4109 53.2656C39.9454 53.4076 40.1562 53.1342 40.0908 53.4548C40.0689 54.0337 40.269 54.2084 40.3619 54.7544C40.7176 54.6786 40.5526 54.7463 40.8063 54.5125C40.295 54.2079 40.3793 54.4626 40.4244 53.7082C41.8793 53.7631 40.5563 53.8032 41.4598 53.8871C41.6878 53.5107 41.9548 53.1805 42.2239 52.7666C43.5734 53.1687 43.0564 53.1426 43.6948 53.4383C43.6099 52.9401 43.5751 53.1135 43.8521 52.7479C44.3255 53.037 44.7773 53.4383 44.9293 53.9902C45.0768 54.5266 44.8935 54.5925 45.3286 54.9529C45.6081 55.1842 45.6336 55.1808 45.9525 55.2012C45.7573 54.9537 45.7318 54.8978 45.6017 54.59C46.1991 54.2589 45.7448 54.2161 46.4253 54.4193C46.3896 53.8485 46.4724 54.0173 46.102 54.0286C45.7309 54.0396 46.0875 54.1152 45.8147 54.0478C45.5348 53.9784 45.2953 53.5985 45.134 53.3665C44.7837 52.8623 44.9241 53.4691 44.894 52.8109C45.1668 52.4805 45.5782 52.3274 46.0292 52.6788C46.7264 53.2216 45.7983 52.9381 47.0943 52.9433C47.1181 52.8112 47.2779 52.1606 47.3272 52.0944C47.4645 51.9094 47.7535 51.9788 47.8533 52.2027C47.8665 52.2327 48.0408 53.0493 47.7545 53.5663C48.6519 53.4122 48.7936 53.892 49.3758 53.6634C49.0986 53.1888 49.0701 53.4336 49.0184 52.667C48.9978 52.3609 49.0089 52.0196 49.1393 51.783L49.6643 51.9771C49.6837 51.9918 49.705 52.0187 49.7234 52.0342C49.7421 52.0494 49.7636 52.076 49.782 52.0912C49.8002 52.1065 49.8237 52.1313 49.8426 52.1461C50.0884 52.3407 50.2446 52.3784 50.4873 52.5636C50.3569 54.1563 49.6111 53.7535 49.3341 54.3607C49.6393 54.5047 49.4511 54.2968 49.87 55.1203C49.1054 56.0397 50.0264 55.6126 49.0267 55.8739C48.1673 56.0985 48.6598 56.1881 48.0229 56.4536C47.5802 56.1359 47.882 56.3281 47.6785 55.713C47.4088 55.9482 47.2868 56.2186 47.2201 56.6831C48.0271 56.7997 47.5111 57.0979 47.7506 57.5317L48.195 57.2901C48.8689 56.8266 49.305 56.2678 49.7541 55.7041C51.4362 53.5941 50.2495 51.0468 50.2438 50.799C49.5303 50.8716 50.2446 51.0188 49.4101 51.1339C49.2888 50.7764 49.3162 50.7636 49.3449 50.2784L49.6842 50.1672C49.9347 50.0855 49.7568 50.1911 49.9377 50.0806L49.3261 49.4178C49.0927 49.1722 49.0128 49.0007 48.7331 48.8418C48.6389 49.2042 48.6816 49.248 48.3509 49.402C47.4983 49.1479 48.2501 49.4431 47.4297 49.4557L47.1215 48.8615L48.3997 48.5881C47.9555 48.1165 48.0173 48.0562 47.1632 47.8854C47.0642 48.24 47.0465 48.6093 46.7923 48.7475C46.5857 48.8597 46.1792 48.6799 45.9608 48.5581C46.0937 48.1561 46.453 48.2439 46.1319 47.6352C44.9136 47.9654 43.8742 47.337 42.6689 48.0591L41.5481 48.9011C41.2064 49.2377 40.9129 49.6084 40.7463 50.1025V50.1023ZM34.5467 45.0727C33.9856 45.0857 33.9991 45.2705 33.4836 45.3588C33.5998 45.615 33.6446 45.8103 33.8177 46.0524C34.0091 46.3206 34.0685 46.4087 34.4636 46.4675C34.5862 46.1821 34.6649 46.234 34.8387 46.0234C34.5737 45.6007 34.5026 45.815 34.5467 45.0727ZM59.8395 34.1106C59.6329 33.5744 59.8265 33.9834 59.3176 33.8918C58.4564 33.7368 58.6067 33.091 57.6254 34.2109C57.985 34.2324 58.5452 34.2998 58.8825 34.2646C59.3492 34.2161 59.2651 34.0889 59.8395 34.1106ZM57.5095 34.2041C57.4624 34.1236 57.4242 34.0564 57.3886 33.9816L57.0905 33.4699C57.0702 33.4428 56.8319 33.1456 56.815 32.8582C56.8128 32.8203 56.7949 32.8088 56.7804 32.7864C56.4728 32.9741 56.0279 33.3988 55.909 33.758C56.4895 33.899 56.8047 34.1583 57.5095 34.2041ZM56.4365 32.3696C56.3899 32.047 56.2311 31.9252 56.0333 31.672C56.2539 30.9908 56.3375 31.5751 56.3115 31.2203C56.3083 31.1768 56.022 30.5257 55.4471 31.3746L53.3806 33.6217C52.732 34.2853 53.0232 34.2845 52.277 34.2395C52.4646 34.5606 52.7803 34.8012 53.0801 35.0814L53.3186 34.3913L54.116 34.5832C54.0275 34.0638 53.8356 33.9248 53.8378 33.4C54.5301 33.4999 54.1746 33.6645 54.6139 34.0299C54.8233 33.7516 54.8576 33.82 54.7828 33.4499C54.7453 33.2639 54.6249 32.9965 54.5673 32.8607C55.2822 32.7381 54.9243 32.4896 55.4126 32.3282C55.7567 32.7276 55.4667 32.8252 55.9082 32.8892C55.8965 32.4023 55.402 32.5455 55.7604 31.8827C56.224 32.0236 56.0835 32.0915 56.436 32.3696H56.4365ZM60.7678 32.1836C60.6887 31.7931 60.2011 31.4755 59.85 31.2402L59.6326 31.1027C59.623 31.0668 59.5826 31.0734 59.5564 31.0611C59.4961 31.724 59.4193 31.3082 59.766 31.6398C60.0381 31.9004 59.9893 31.7304 60.0731 32.142L60.7678 32.1836ZM59.0237 32.1954C59.0514 31.7316 59.0759 31.6981 58.9183 31.2951L58.7163 30.929C58.7018 30.911 58.6758 30.8882 58.6606 30.8707L58.1762 30.309C58.1625 30.2893 58.1392 30.2642 58.1267 30.2435C57.9524 29.949 58.0608 30.12 57.9988 29.8103C57.7784 28.7092 57.0552 28.9095 56.8601 29.4993C57.9968 29.8381 58.5094 31.0774 58.4309 32.3932C59.1078 32.4338 58.9818 32.4508 59.2401 32.9264L59.5821 32.579L59.0911 32.2451C59.0825 32.2099 59.0453 32.2133 59.0239 32.1954H59.0237ZM54.259 28.2929C54.2857 27.8449 54.2935 27.9251 53.9393 27.807C53.6289 28.8559 54.2413 30.5388 54.1947 31.3219C54.9 31.3054 54.7777 30.8392 55.3209 30.4827C56.2784 29.8543 58.2608 31.3342 57.0685 32.7256C57.4102 32.8053 57.4298 32.7487 57.7156 32.6998C57.7786 31.7412 57.8549 31.1556 57.3433 30.6114C55.8928 29.0687 54.9049 30.2529 54.1555 30.0364C54.2237 29.205 54.5568 29.4781 54.7225 28.3207L54.2594 28.2929H54.259ZM74.0827 29.1339C73.552 29.0948 73.0877 28.9575 72.6999 28.9341C71.8936 28.8856 71.6593 28.9885 71.535 28.9809L65.2882 28.489L65.2051 29.8838C66.5344 29.6521 65.8883 29.4427 66.7453 29.3932C66.7558 29.8469 66.8316 29.7022 66.8124 30.2138L67.1733 30.2374L67.4616 29.0699C67.7116 29.157 67.8074 29.1164 67.7871 29.4557L67.6229 30.2625C69.8874 30.3985 67.8724 29.5199 69.102 29.3014C69.2241 29.6614 69.1596 29.827 69.1282 30.353L69.5916 30.3808C69.6362 29.6161 69.492 29.6474 70.0014 29.3556C70.1446 29.9092 70.0907 29.8088 70.048 30.525C71.4453 30.6089 70.3375 29.6695 71.004 29.4975C71.3269 29.4144 71.1511 29.8449 71.0901 30.5877C72.7685 30.6886 70.827 29.7057 72.1611 29.7232L72.2481 30.6571L72.5955 30.678C72.6278 30.1328 72.5658 29.9033 72.7805 29.5226C73.0737 29.6493 73.0514 29.5406 73.0818 30.0088C73.0938 30.1975 73.0397 30.4202 73.0588 30.7058C73.6907 30.7477 73.7827 30.9187 73.9028 30.2942C73.9621 29.9854 74.0501 29.4434 74.0822 29.1341L74.0827 29.1339ZM85.3831 30.6293C85.4578 29.3753 84.5025 27.0248 83.5671 26.3084C81.8607 25.0019 79.9069 24.9669 77.8353 25.5601C76.8211 25.8507 75.7614 27.2765 75.2824 28.2617C75.23 28.3697 75.1172 28.583 75.0527 28.725L74.6225 30.7378C74.5644 31.49 75.4334 33.2686 75.8916 33.7944C77.1687 35.2598 79.4434 35.7984 81.4594 35.4958C83.0714 35.2537 85.2504 32.8626 85.3835 30.6296L85.3831 30.6293ZM40.0493 26.8558C40.0076 26.5775 39.991 26.6572 40.0067 26.468C40.0376 26.0931 40.1969 26.3504 40.0626 25.9617L39.9422 25.618C39.5328 26.0985 39.3691 25.7912 38.831 25.8495C39.0722 26.5541 40.1815 27.1232 40.8254 27.4859C41.0372 26.846 41.1833 27.4084 41.1056 26.686C40.1925 26.6312 40.634 26.7365 40.0496 26.856L40.0493 26.8558ZM64.5866 28.5633C64.6118 28.1409 64.186 27.1031 64.0044 26.7707C63.001 24.9364 62.0305 24.34 59.8054 23.7894C59.2524 23.6526 59.3384 23.7289 58.8472 23.6983C57.8407 23.6354 56.8856 23.892 56.1046 24.5489L55.1971 25.2555L54.206 27.2396C54.6203 27.1688 54.91 27.0285 55.0731 27.513C55.0777 27.5272 55.0826 27.5659 55.0858 27.5789L55.4658 27.5486C55.3165 27.0416 55.2912 27.4109 55.2689 26.9535C56.5042 26.2267 55.7516 27.1171 56.2865 27.8099C56.5846 28.1955 56.4904 27.9074 56.9878 28.1667C57.3021 28.3306 57.0172 28.2235 57.3602 28.3958C58.5508 28.9936 57.4394 28.6502 58.4658 29.1715C59.2762 29.5832 58.5819 29.4478 58.8759 30.0248C59.0602 30.387 58.8631 30.1402 59.3838 30.2064C59.9184 30.2745 59.8336 30.5088 60.4918 30.6301C60.6695 30.2462 60.7203 29.7308 61.1451 29.7564C61.6984 29.7896 61.5062 30.6227 60.6195 30.7745C60.6396 31.1849 60.9071 31.1123 60.9441 31.1229C61.1002 31.1684 61.8104 31.3918 61.9166 31.1327C61.931 31.0975 61.9668 31.0988 61.9955 31.0904C62.169 31.4577 62.1247 31.5576 62.5397 31.7062L62.512 32.1713C62.1342 32.2453 62.1124 32.2817 61.8621 32.5546C61.603 32.8366 61.6641 32.8695 61.4182 32.9456C60.8507 33.1207 60.5766 33.2216 59.8508 33.1781L60.3514 33.325C60.3055 33.7287 60.2531 33.7587 60.078 34.0085C61.1603 33.8229 61.1123 33.6694 61.6697 33.4571C61.8712 33.3803 62.0215 33.366 62.1982 33.3026C62.5431 33.1786 63.5416 32.3312 63.5369 31.8096C63.3266 31.8694 62.1568 31.7978 62.799 31.256C62.184 31.2053 62.2776 31.1888 62.2186 30.5213C62.7476 30.5914 62.9243 30.5821 62.9216 31.1468C63.4597 31.0144 62.9172 31.0304 63.5146 30.9489C63.6031 31.46 63.5337 31.304 63.8674 31.4368C64.5356 30.4069 64.4993 30.028 64.5866 28.5638V28.5633ZM39.3311 23.313C39.8674 23.3573 39.7279 23.2961 39.9545 23.6386C39.7213 23.8696 39.6958 23.8069 39.4191 24.0184C39.801 24.9012 39.9199 24.4279 39.336 25.18C39.9905 25.2656 40.0344 25.4989 40.6896 25.6317L40.445 26.1735C41.148 26.0165 41.2608 26.0234 41.351 26.4673C41.5383 26.3905 41.882 26.2781 42.1479 26.2508C42.661 26.1976 42.6816 26.3822 42.7478 26.4346C42.7672 26.411 42.7777 26.3696 42.787 26.3521L42.9606 26.05C43.1483 25.8399 42.8189 25.8556 43.2457 25.8815C43.7786 25.9135 43.2069 25.9597 43.5776 25.9509C43.8825 25.9437 43.7705 25.7963 44.4108 25.8347C44.3385 26.3994 44.2998 26.4855 43.7901 26.4973C43.8097 27.342 43.9544 26.7404 44.5868 26.7785C44.9974 26.8031 45.4968 26.8942 45.0553 27.2787C44.853 27.4552 44.6834 27.4301 44.326 27.5998C44.3101 27.6075 44.2637 27.665 44.2542 27.6426C44.2446 27.6205 44.2061 27.6707 44.1838 27.6874C43.6092 27.3139 43.949 27.1845 42.9503 27.4146C42.6166 27.4916 42.5929 27.5895 42.2882 27.5002C41.8918 27.3843 41.9626 27.3621 41.8957 27.0831C41.4777 27.3535 41.7714 27.3302 41.3365 27.7497C42.4882 28.0026 42.1619 27.9157 43.4685 27.9945C44.4135 28.0513 44.8246 27.868 45.384 27.5555C45.8074 27.3191 46.0287 27.3486 46.3172 26.9992C46.0169 26.8044 45.9039 27.1434 45.6431 26.6088C45.9792 26.1191 45.8471 26.3972 46.3915 26.161L46.8083 26.562C47.1073 26.1671 47.1215 26.3645 47.4647 25.9388C48.2712 24.9384 48.5865 24.0293 48.6652 22.7078C48.7211 21.7728 48.2416 20.6969 47.8172 19.9418C47.339 19.0915 46.898 18.6695 45.9949 18.1509C44.804 17.4666 43.3298 17.3795 41.9533 17.7215C40.3143 18.1287 39.8468 18.471 38.896 19.4723C38.5814 19.8035 38.5366 19.696 38.3243 20.1937C38.2368 20.3989 38.0799 20.9161 38.0667 21.1376C37.8576 24.6424 38.0971 23.0028 38.5189 25.2477C38.5368 25.2228 38.5535 25.1852 38.5621 25.167C38.7334 24.7878 38.6677 25.0668 38.7043 24.0925C39.0894 23.8657 38.7967 23.9065 39.2972 23.8947L39.3318 23.3135L39.3311 23.313ZM53.9057 18.7101L54.2553 18.6107C54.1474 18.0793 54.0967 18.4063 53.9491 18.0131C53.8099 17.6418 53.8966 17.9895 53.9773 17.4275C54.5661 17.6238 54.4222 17.9498 54.8581 18.3034L55.3322 18.0921C54.7389 17.0764 54.5612 17.3035 54.939 16.7853C55.5261 17.2186 55.5699 17.3101 55.5763 17.6305C55.5851 18.082 55.5592 17.8202 55.5006 17.9422C55.8359 17.923 55.8798 17.8517 56.1676 17.7304C56.0877 17.1076 55.9582 17.3406 56.0085 16.4994C56.7471 16.7457 56.2838 17.0789 56.7638 17.4782C57.2158 17.2718 57.1837 17.5301 57.079 16.8835C56.9856 16.3078 56.8952 16.853 57.0717 16.2135C57.6075 16.291 57.623 16.508 57.6021 17.0621C58.0581 17.0515 58.0892 16.9332 58.5425 16.8855C58.4035 16.3796 58.2395 16.2952 58.0012 15.9353C57.7943 15.6228 57.7551 15.2734 57.3727 15.0653C57.2288 15.5 57.306 15.3221 56.891 15.5155L48.6205 19.5553C48.7934 19.9364 48.9625 20.382 49.1302 20.7523C50.3007 20.2949 48.9988 20.3515 49.6563 19.7277C50.4476 20.0104 49.7144 20.8037 50.5302 20.3699C50.2686 19.8933 50.1041 20.2912 50.1399 19.4133C50.1563 19.4158 50.4174 19.4719 50.4208 19.4721C50.5873 19.4787 50.5128 19.4844 50.6324 19.4411C50.7952 19.382 50.6226 19.4475 50.8226 19.3232C51.4308 18.9461 50.2804 19.4455 50.9646 19.2295L51.3173 19.5757C51.5357 19.8463 51.2514 19.6593 51.6178 19.9686C51.6022 19.2888 51.381 19.5799 51.5644 18.9156C52.0539 18.9928 52.0032 19.0093 51.9958 19.5444L52.6947 19.45C52.6795 18.7884 52.5425 19.1746 52.4462 18.7792C52.365 18.4461 52.4574 18.4523 52.6477 18.2901C53.1882 18.7426 52.6687 18.919 53.4172 19.0268C53.4309 18.2264 53.1725 18.7574 53.2549 17.8504C53.843 18.0465 53.7143 18.3499 53.9057 18.7099V18.7101ZM39.6846 17.3852C39.3149 17.2253 39.5875 17.3766 39.2649 16.9886L38.3005 15.7559C37.8303 15.2316 37.4487 14.7009 36.9991 14.1615L36.0097 12.9552C35.8908 12.8044 35.8278 12.7266 35.7013 12.5677L34.5377 10.8939C33.9459 10.9005 34.04 10.9975 33.6005 11.2472C32.8352 11.6824 33.0386 11.6251 33.1384 11.8773C33.3 11.9135 33.5995 11.446 33.7691 11.816C33.877 12.0513 33.5733 12.2611 33.4892 12.5556L33.7895 12.9486C34.1763 12.6454 33.8523 12.7446 34.3011 12.6292C34.497 12.8393 34.6215 12.8413 34.7485 12.9815C35.0461 13.3098 34.7649 13.0263 34.9032 13.4466C35.0485 13.8877 35.1598 13.5019 35.0961 14.4268C35.6011 13.9096 35.3515 14.0144 35.8185 14.0036C35.7567 14.7587 35.6219 14.3822 35.4157 14.9127C36.035 14.8982 36.2031 14.2924 36.3838 14.7577C36.4914 15.035 36.0185 15.3064 35.8445 15.5219C36.208 15.7992 36.1776 16.0039 36.6203 16.1518C36.8998 15.2075 37.6225 15.5763 36.8243 16.6306C37.5305 16.7029 36.8564 16.399 37.8803 16.4606C37.7164 16.9563 37.5955 16.8013 37.2597 17.1231C37.3714 17.3146 37.493 17.6315 37.7958 17.585C38.1841 17.5252 38.0007 17.3064 38.2 16.9465C38.5003 17.036 38.5341 17.0727 38.7653 17.2137C38.2628 18.0795 38.3689 17.6452 38.0149 18.1019C38.1314 18.2537 38.1407 18.2631 38.2257 18.4646C38.8913 18.4491 39.5659 17.7449 39.6846 17.3857V17.3852ZM35.301 7.08984C35.4255 5.00464 34.5815 2.6456 32.6548 1.73869C31.861 1.3652 30.2843 0.790446 29.5653 0.870656C28.5279 0.986295 27.4637 1.50667 26.8707 2.14072C26.4751 2.5644 26.2672 2.76812 25.9029 3.28038C24.6084 5.09961 24.4142 5.93123 25.144 7.87791C25.8027 9.63562 26.4288 10.5007 28.3278 10.9837C28.6642 11.0693 28.8068 11.1284 29.1432 11.1913C31.972 11.7223 35.1294 9.96138 35.2731 7.55485L35.3008 7.08984H35.301ZM34.5467 45.0724C35.0762 45.2488 34.6382 45.2614 35.2277 45.3465C35.304 44.8151 35.1191 45.1243 35.4998 44.8963C35.6989 45.0995 35.9805 45.5276 36.222 45.4567C36.7199 45.3108 35.9273 45.3096 36.3183 44.5956C36.8929 44.787 36.5267 44.9177 37.1013 45.1091C37.4521 44.6455 37.2244 44.9932 37.2724 44.1862C37.6654 44.2428 37.9392 44.7841 38.1096 44.4347C38.2701 44.1055 37.8784 44.2236 38.1245 43.5374C38.6175 43.7017 38.3277 43.6599 38.6503 43.9534C38.9761 44.2494 38.6758 44.1168 39.2548 44.072L39.3034 43.2584C40.3298 43.4065 39.1916 43.6191 40.0863 43.7721C40.3837 43.2114 39.8564 43.3398 40.2631 42.7599C40.5416 42.9267 40.6144 42.9528 40.6933 43.3418C41.5067 43.2023 41.1853 43.1486 41.212 42.4398L41.5594 42.4607C41.6182 42.7513 41.4569 42.6996 41.8045 42.7966C42.3409 42.9464 42.0425 42.1514 42.071 41.6751C42.6242 41.8562 42.5081 42.0449 42.7172 42.5303C43.026 42.4774 43.064 42.445 43.3101 42.3325L42.4311 40.0318C41.7766 37.5015 43.8953 33.8517 45.2337 33.4659C45.1212 32.8041 44.5991 31.1022 44.1855 30.4374C44.0482 30.2167 44.1659 30.4549 44.0536 30.2224C43.9132 29.9311 43.9149 29.5531 43.7972 29.235C44.2833 29.205 44.2402 29.4336 44.4064 29.8002C44.5378 29.7463 44.5586 29.7355 44.7302 29.6584C45.1433 29.4729 45.2627 29.6183 45.8098 29.6511C45.7833 30.2959 45.9792 30.0536 46.1086 30.4856C45.6076 30.7804 45.5223 30.8803 45.6198 31.471C46.0594 31.5141 46.0086 31.3379 46.3935 31.5525C46.2518 32.5408 46.0407 31.5008 45.7659 32.3312C46.0395 32.6579 46.3638 32.4963 46.7874 32.7426C46.6722 32.8949 46.7144 32.8437 46.5599 32.9815C46.543 32.9965 46.5119 33.0204 46.4962 33.0336L46.2964 33.1798C46.722 33.1958 46.9438 33.123 47.2368 33.0031C47.2189 32.2301 46.7754 31.412 46.6156 30.6977L45.9946 28.4957C45.3193 28.4703 45.5085 28.6211 44.9982 28.7324C44.6873 28.8 44.2191 28.7988 43.8931 28.8473C42.2082 29.097 41.1657 28.5837 39.6828 27.9539C36.9866 26.8081 36.3519 21.0947 37.9507 19.1658L32.1 12.0365C31.1143 12.1125 30.8807 12.3015 29.7678 12.2451C27.373 12.1243 25.3271 10.8188 24.5111 8.66081C23.8624 6.9459 23.5209 6.14036 24.2985 4.19516C24.7984 2.94454 25.887 1.71999 26.8779 1.03304C28.2702 0.0680696 29.1564 -0.206266 30.9817 0.149017C32.1424 0.374883 32.3101 0.448695 33.172 0.950127C34.6306 1.79872 35.1056 2.51889 35.7121 4.08346C36.0514 4.95937 36.0244 5.3641 36.1058 6.16546C36.3093 8.17143 35.8717 8.96098 34.7522 10.4392C35.026 10.9077 35.5123 11.3439 35.8384 11.7833L38.5586 15.1954C38.7621 15.5135 38.5726 15.3133 38.8506 15.593C39.0717 15.8157 39.0318 15.7015 39.2583 16.0069C39.4897 16.3188 39.8917 17.0565 40.2771 17.1871C40.3418 17.209 42.7684 16.385 44.919 16.7964C46.8828 17.1719 47.5081 18.3433 48.3073 18.9527C48.7448 18.8777 49.1601 18.7369 49.5347 18.4815C50.5647 17.7788 51.8211 17.426 52.9146 16.8463C53.7721 16.3917 56.8226 14.7178 57.3999 14.5997C57.2462 14.2157 57.2844 13.779 57.1518 13.3907C56.9631 12.8388 56.6988 12.3268 57.256 11.0841C58.0424 9.33078 58.7854 8.39435 60.4683 7.27904C61.3971 6.6632 61.466 6.69199 62.473 6.67944C63.8355 6.66296 63.3106 6.47596 64.8082 6.9026C66.0118 7.24533 67.2958 8.37442 68.0349 9.31159C69.4594 11.1185 69.5266 13.6626 68.5115 15.8804C68.4453 16.0251 68.0702 16.6677 67.9842 16.7733C67.4711 17.4024 66.4001 18.2744 65.6169 18.5598C61.8239 19.942 59.1259 17.3901 59.0936 17.3844C58.6476 17.4757 58.905 17.4883 58.4687 17.6667C58.1775 17.7857 58.0826 17.7766 57.7387 17.8379C56.6441 18.033 54.5744 19.1242 53.4904 19.7297L50.6488 21.2298C50.1799 21.4545 50.0222 21.714 49.4221 21.7027C49.5393 22.8106 49.4339 23.3859 49.1625 24.387C48.8596 25.5045 47.4689 27.8269 46.3704 28.0518L46.6989 28.5331C46.8024 28.9619 46.6786 28.8251 46.6842 29.1332C46.6977 29.8629 46.9764 29.4562 47.1713 30.0944C47.3142 30.5622 47.176 30.6074 47.386 31.2191C47.5446 31.6812 47.4557 32.1538 47.5741 32.4919C47.7479 32.9881 48.0178 32.6538 48.7632 32.7409C49.8109 32.8631 51.1891 33.5818 52.0525 34.1091C52.4143 33.6207 52.5349 33.5528 52.9985 33.0683C54.8956 31.086 52.7423 32.1683 53.26 28.0496L54.6568 25.024C54.9296 24.6737 54.8625 24.8107 55.1243 24.556C56.8787 22.8505 59.2382 22.557 61.4917 23.4988C63.0322 24.1425 64.8403 25.9442 64.9825 27.7701C66.4239 27.8567 70.918 28.4762 72.0853 28.363L74.3558 28.4499C74.6007 27.6222 75.1824 26.8103 75.6754 26.22C76.2431 25.5407 76.8591 25.1463 77.6877 24.7713C78.5143 24.3971 79.3792 24.1912 80.5333 24.2615C82.8356 24.402 83.8774 25.1835 84.9707 26.92C85.4174 27.6296 85.7824 28.4083 85.9579 29.3406C86.2222 30.744 86.1969 30.8146 85.737 32.1415C85.2754 33.4736 84.6753 34.4521 83.6499 35.3656L83.0182 35.7696C82.9962 35.7819 82.9667 35.7986 82.9449 35.8112L82.8013 35.8968C81.1787 36.8308 78.403 36.5688 76.866 35.6803C74.2607 34.1743 74.5593 32.485 73.9427 31.6745C73.3939 30.9534 70.39 31.1822 69.8007 31.0766C67.6569 30.6923 67.0669 30.9716 65.7262 30.8601C65.2041 30.8168 65.4262 30.8697 65.0408 30.6896C64.8413 31.3643 63.9764 32.5315 63.5421 32.9647C63.0839 33.4216 63.141 33.4706 62.5789 33.8598L61.4054 34.5111C59.6802 35.3346 56.9572 35.0135 55.4251 34.0783C55.1022 34.5035 54.7009 34.7102 54.2938 35.1565C54.2776 35.1744 54.2536 35.1991 54.2366 35.216C54.2197 35.233 54.1942 35.2559 54.1766 35.2719C53.8939 35.528 53.904 35.5839 53.4748 35.5939C53.5458 35.9433 53.9474 36.7001 54.1165 37.2218C54.3837 38.0453 54.4482 39.0786 54.3237 39.926C54.0727 41.636 53.0306 43.0052 51.6458 43.947C50.9055 44.4504 50.5353 44.7671 49.4749 44.9647C47.6623 45.3025 45.6147 44.5324 44.3868 43.4643C43.7016 42.8681 43.9169 42.9277 42.9162 43.1233C42.3911 43.2259 41.7878 43.4882 41.3819 43.7487C40.1047 44.5683 38.2253 44.9027 36.8285 45.7931C36.459 46.0283 35.8729 46.4397 35.3898 46.5226C35.8602 47.6716 35.338 49.4657 34.9458 50.3635C34.7352 50.8455 34.3862 51.3982 34.0704 51.855C33.6485 52.465 33.7027 52.5558 33.0712 52.9893L34.0349 54.8833C34.2067 55.1527 34.0819 54.9431 34.2295 55.2595C34.3893 55.6022 34.4673 55.7698 34.5896 56.04C35.6601 55.8564 36.7537 55.9556 37.8009 56.3706C38.1439 56.5065 38.426 56.6647 38.731 56.7552C39.2664 56.4403 39.509 55.9177 39.9652 55.5464C39.0732 54.019 39.5541 53.5446 39.2512 52.1011C38.9261 50.553 40.6516 48.5084 41.8557 47.7594L42.7934 47.2014C43.3849 46.9554 44.2132 46.8732 44.7812 46.7322C45.2644 46.6124 45.3764 46.6466 46.0128 46.7113C47.4581 46.8582 48.7728 47.4927 49.7528 48.5935C50.6378 49.587 51.4284 51.1265 51.4266 52.5002C51.4252 53.4686 51.3004 54.4178 50.9606 55.0841C50.0926 56.7864 48.3913 58.8429 46.2827 58.8532C42.6235 58.8712 42.6242 58.0607 41.6935 57.7502L40.6097 58.385C41.0375 59.1253 41.1012 59.22 41.3329 60.1614C41.5726 61.136 41.6221 62.6964 41.3101 63.6913C41.1027 64.3517 40.5644 65.1819 40.4045 65.7217C41.0627 66.8483 42.2232 67.6863 42.8718 68.8075C42.8892 68.8375 42.9321 68.9298 42.9491 68.9603L43.4516 69.7189C43.745 70.1039 44.0326 70.3384 44.3091 70.721C45.1222 71.8466 44.9629 72.0964 46.2724 71.7411C47.0345 71.5344 46.6935 71.4702 47.7275 71.5091C50.2154 71.603 52.0745 73.0906 53.2328 75.099C53.5441 75.6389 53.553 75.6389 53.7417 76.301C54.0472 77.3707 53.7177 78.2174 53.4601 79.2532C52.9708 81.2206 51.7578 82.4581 50.3091 83.2568C48.5926 84.2028 46.429 84.0279 44.7261 83.0068C43.2918 82.1469 42.1725 80.7189 41.8236 78.8765C41.7508 78.4924 41.5787 76.1605 41.6469 75.8185C41.8484 74.8075 42.7248 74.2787 42.9579 73.5743C42.4649 73.359 42.7654 73.7252 42.3102 73.0557L40.6813 70.6489C40.4641 70.3268 40.4263 70.0987 40.2158 69.7422L38.4422 67.4437C36.8258 67.5072 36.9216 68.5349 33.7858 67.7626C32.8805 67.5397 32.2598 67.0363 31.598 66.5189C31.1342 66.1562 30.728 65.7984 30.5537 65.2471L29.5609 65.6127C29.1893 65.7677 29.0787 65.858 28.7232 66.0305C28.3653 66.2042 28.2423 66.2834 27.8939 66.4546L23.506 68.4399C24.0313 69.7314 23.243 71.5285 22.533 72.6743C22.4426 72.8202 22.3619 72.9331 22.2494 73.0985L21.5292 74.0349C21.2235 74.5612 22.2607 76.6826 22.5159 77.246C24.1174 76.9714 25.9125 77.1828 27.1625 77.9519C28.0881 78.5215 29.5116 79.9018 29.8693 81.0505C30.1041 81.8054 30.1193 82.7942 30.1235 83.3933C30.1392 85.5792 28.7554 87.5527 26.8327 88.4576C24.2108 89.6915 22.5335 89.3748 20.2623 87.8376C19.0621 87.0251 18.3689 85.8739 18.0453 84.4206C17.8195 83.4066 17.808 83.0154 18.1198 81.9498C18.7675 79.7367 19.901 79.1693 20.2476 78.2577C19.9297 77.8658 19.143 76.1797 18.8935 75.6288C17.0508 75.5181 15.9952 75.4954 14.7009 74.9595C12.3861 74.0007 11.3575 70.9437 11.5249 68.5312C11.5801 67.7343 11.6698 67.3059 11.9948 66.7117C12.1564 66.4167 12.2385 66.228 12.4282 65.9557C12.6341 65.6602 12.7749 65.5797 12.8886 65.2362C12.4952 65.1051 12.2338 64.6206 12.0228 64.2462L10.0673 61.0343C8.4879 58.8047 8.70312 59.1873 6.8695 59.2938C6.315 59.3261 5.88405 59.3797 5.22903 59.282C3.25912 58.988 1.78339 57.7583 0.973457 56.3655C-0.0850449 54.545 -0.11422 53.1332 0.68174 50.8037C0.933006 50.0678 1.21394 49.665 1.74539 49.1629L2.76321 48.3202C3.91952 47.5112 5.45873 47.1665 6.87906 47.3045C9.56821 47.5656 11.5688 49.6513 12.0581 52.3274C12.4523 54.4833 11.5006 56.0877 10.3392 57.6176L11.8485 60.22C12.112 60.7745 12.4934 60.9817 12.9295 61.7882C13.1222 62.1447 13.2379 62.1915 13.4659 62.5212C14.1506 63.511 14.3555 63.2866 14.2317 64.1507C14.5796 63.9918 14.998 63.778 15.3133 63.6377C16.3065 63.1968 18.0813 62.7697 19.1006 63.2271C19.3595 63.3432 19.4269 63.3855 19.6747 63.4871C20.267 63.73 20.6871 64.0124 21.1885 64.4455C21.7265 64.9107 22.285 65.485 22.5951 66.1695C23.6227 65.9936 26.4383 64.2088 27.7302 63.7915C28.2433 63.6257 28.1366 63.6569 28.5999 63.4064C28.9368 63.2244 29.0422 63.141 29.4042 63.0792C29.5011 63.6532 29.6003 63.5545 28.9885 63.8432L26.4518 65.0736C25.3967 65.6958 23.9887 66.0698 23.0495 66.7801C23.0768 67.1861 23.1934 67.2584 23.1998 67.7225C23.6624 67.567 23.3106 67.8123 23.3709 66.7996C23.657 66.8891 23.5455 66.818 23.78 67.0141C23.9051 66.5031 23.734 66.6731 24.0865 66.4925C24.5204 66.8234 24.4201 67.0311 24.7398 67.2316C25.2739 66.7799 24.499 66.6751 24.8976 66.2989C25.1545 66.0565 25.5068 66.4635 25.5781 66.8153C25.8431 66.6901 26.2535 66.4632 26.5325 66.4062C26.5219 65.9522 26.4462 66.0971 26.4653 65.5856C26.9352 65.6535 26.933 65.6737 27.0166 66.0853C27.4422 66.0755 27.4924 65.9478 27.8481 65.7854L27.8966 64.9717C28.2908 65.1031 28.2492 65.0564 28.3323 65.4646L28.5639 65.4783C28.6058 64.9484 28.4558 64.5372 28.6401 64.1997C29.0699 64.3431 29.1589 64.5318 29.1709 65.0483C29.5567 64.9284 29.7793 64.8133 30.1181 64.7552C30.1039 64.1357 29.6815 63.4175 29.5937 62.6882C29.3984 61.0587 30.754 57.1858 31.9792 56.9348C31.9105 56.532 30.8971 54.4951 30.64 54.0549C30.236 54.2202 28.9912 54.2173 28.3457 54.1336C27.6677 54.0458 27.5829 53.7348 26.8019 53.4007C25.2999 52.758 24.9869 52.0041 24.1485 51.0291C23.5229 50.3018 22.9696 48.2688 23.1728 47.2196C23.5016 45.5242 24.2073 45.1563 24.8557 43.8636L23.24 41.7125C23.0449 41.4537 23.0834 41.5481 22.9103 41.3456L20.3396 38.0214C20.1265 37.7379 19.9407 37.5054 19.6684 37.2978C19.1781 37.5861 18.2885 37.9385 17.545 37.9987C16.6831 38.0684 15.7976 38.0398 14.8198 37.8838C13.6377 37.6951 13.1095 37.0808 12.2912 36.2718C11.4908 35.4808 11.1212 34.5325 10.8466 33.4854C10.601 32.5499 10.2443 32.6301 10.5475 31.1962C11.0204 28.9587 12.438 27.357 14.4592 26.4429C16.3046 25.6081 18.2652 26.0722 19.9218 26.9449L20.9083 27.7192C21.4314 28.3217 21.7405 28.6307 22.1136 29.3942C22.4396 30.0615 22.6671 30.539 22.8216 31.4098C22.9007 31.8549 22.4499 33.7127 22.2673 34.1573C21.6344 35.7 21.4336 35.3012 21.9609 36.137C22.5147 37.0148 22.7689 36.9167 23.2354 37.8656C23.5273 38.4596 24.0438 39.0262 24.3752 39.6007C24.5625 39.9255 24.4471 39.7383 24.6672 40.0008L26.5707 42.3788C27.2441 42.0712 27.8692 41.9266 28.81 41.9327C29.8967 41.9396 29.9683 41.8006 31.0724 42.1123C32.5113 42.5183 33.6834 43.0768 34.5149 44.2211C34.7416 43.9657 35.176 43.8858 35.4618 43.7549C35.7972 43.6014 36.0756 43.5128 36.4301 43.3612C36.788 43.2079 37.0461 43.1196 37.3619 42.927L40.129 41.466C40.6872 41.1833 41.6023 40.9707 41.7986 40.3777L42.2619 40.4055C42.31 41.0671 42.296 41.026 41.7339 41.2947C40.1339 42.0599 38.5194 42.7673 37.0064 43.6405C36.7559 43.7849 36.7961 43.7918 36.5098 43.947C35.969 44.2396 34.9076 44.636 34.5455 45.0746L34.5467 45.0724Z" fill="black"/>
</svg>
