<svg width="95" height="109" viewBox="0 0 95 109" fill="none" xmlns="http://www.w3.org/2000/svg">
<g clip-path="url(#clip0_1261_8678)">
<path d="M56.4292 23.214C56.5727 22.9854 56.7887 22.9342 57.0402 22.8754C57.3042 22.8136 57.5691 22.759 57.8366 22.7163C58.3579 22.6323 58.8903 22.6021 59.4177 22.5869C60.4927 22.5552 61.583 22.6758 62.6405 22.8621C64.7459 23.2331 66.8097 23.9866 68.64 25.0944C69.5433 25.641 70.4763 26.2678 71.1766 27.0668C71.3128 27.2221 71.4109 27.4664 71.2255 27.6287C70.9957 27.8298 70.7435 27.6165 70.5519 27.4798C70.1313 27.1801 69.715 26.8725 69.288 26.5824C67.5325 25.3895 65.5786 24.5043 63.5178 23.9939C62.3623 23.708 61.1815 23.5419 59.9916 23.5041C59.3902 23.4851 58.791 23.482 58.19 23.5053C57.9045 23.5164 57.6191 23.5206 57.3336 23.5312C57.0459 23.5423 56.7284 23.6133 56.4849 23.4267C56.42 23.377 56.3803 23.2927 56.4292 23.2144V23.214Z" fill="black"/>
<path d="M32.107 22.0925C32.3249 21.7505 32.8492 21.6016 33.2209 21.4906C33.63 21.3684 34.0555 21.3024 34.4803 21.265C35.3004 21.1924 36.122 21.255 36.9372 21.3547C37.7565 21.4551 38.5671 21.5848 39.3555 21.8353C39.739 21.957 40.1184 22.1021 40.4813 22.2761C40.8515 22.4533 41.2613 22.6655 41.5235 22.9892C41.6284 23.1186 41.5349 23.3358 41.3514 23.2847C40.9827 23.182 40.6458 22.98 40.2916 22.8369C39.9291 22.6903 39.5593 22.5666 39.1807 22.4682C38.4484 22.2781 37.6909 22.1593 36.9368 22.1059C36.1816 22.0528 35.4111 22.0212 34.6551 22.0715C34.286 22.096 33.9208 22.1506 33.5636 22.2475C33.3774 22.2979 33.1915 22.3578 33.0148 22.4353C32.8153 22.5231 32.6489 22.6361 32.4241 22.6453C32.1505 22.6563 31.96 22.3231 32.107 22.0925Z" fill="black"/>
<path d="M39.4214 39.2419C39.4749 38.6895 39.8099 38.2669 40.1549 37.8577C40.5098 37.4371 40.835 36.9969 41.1342 36.5351C42.2859 34.76 43.1239 32.6338 43.3396 30.5183C43.3949 29.9759 43.4052 29.4117 43.3014 28.8742C43.2487 28.6028 43.1655 28.3379 43.061 28.0822C42.9587 27.8325 42.7847 27.6233 42.7271 27.3622C42.7148 27.3073 42.7633 27.2481 42.8225 27.2668C43.2144 27.3901 43.4731 27.873 43.6231 28.2356C43.8139 28.6964 43.9112 29.1937 43.9421 29.6904C44.0074 30.7313 43.8177 31.794 43.5567 32.798C43.2754 33.8809 42.8488 34.9299 42.3195 35.9151C42.0581 36.4018 41.7692 36.8736 41.4524 37.3264C41.1418 37.7699 40.7854 38.1776 40.4678 38.6151C40.2995 38.8468 40.1599 39.0911 40.1618 39.3846C40.1641 39.7167 40.2808 40.0496 40.3785 40.3634C40.5842 41.0249 40.9529 41.6696 41.0731 42.3518C41.1162 42.5965 40.8296 42.8121 40.6319 42.6087C40.2152 42.18 40.003 41.5727 39.8069 41.0199C39.6115 40.4699 39.3638 39.8354 39.4211 39.2419H39.4214Z" fill="black"/>
<path d="M29.6684 30.4382C29.6154 30.3714 29.6455 30.2645 29.7409 30.2633C29.8359 30.2622 29.923 30.2698 30.0172 30.2855C30.0493 30.2908 30.0703 30.2927 30.1164 30.295C30.1622 30.2973 30.208 30.2966 30.2538 30.2985C30.2966 30.3004 30.3393 30.3 30.382 30.2977C30.4049 30.2966 30.4278 30.2947 30.4507 30.2924C30.4507 30.2924 30.4587 30.2912 30.4645 30.2908C30.4713 30.2897 30.4855 30.2874 30.4878 30.287C30.5301 30.2798 30.5709 30.2675 30.6133 30.2599C30.6457 30.2542 30.6782 30.253 30.711 30.2504C30.7202 30.2496 30.761 30.2458 30.7526 30.2466C30.7969 30.2416 30.8575 30.2366 30.9091 30.2481C30.9365 30.2153 30.9636 30.182 30.9911 30.1492C30.8934 30.1679 30.7942 30.1801 30.6957 30.1752C30.5408 30.1675 30.3862 30.1408 30.2435 30.0794C30.1737 30.0492 30.1145 30.0148 30.0561 29.9656C30 29.9183 29.9626 29.8644 29.921 29.8045C29.8856 29.7537 29.9439 29.6915 29.9978 29.7049C30.0565 29.7194 30.1168 29.727 30.1764 29.7392C30.2374 29.7518 30.2973 29.7675 30.3584 29.7805C30.4775 29.8057 30.5847 29.8247 30.7072 29.8232C30.8274 29.8217 30.9297 29.8122 31.0438 29.7828C31.1338 29.7595 31.259 29.7205 31.3624 29.7308C31.4235 29.6679 31.4857 29.6056 31.551 29.5465C31.3842 29.548 31.2174 29.5362 31.0537 29.5033C30.8804 29.4686 30.703 29.4098 30.5511 29.3174C30.4172 29.2361 30.2191 29.1029 30.2145 28.9334C30.2134 28.8933 30.2542 28.8655 30.2912 28.875C30.3725 28.8964 30.4091 28.9418 30.4717 28.9953C30.5347 29.0495 30.6045 29.0926 30.6767 29.1331C30.8224 29.2151 30.9762 29.272 31.1399 29.3056C31.3365 29.3461 31.5391 29.351 31.7387 29.3434C31.7566 29.3426 31.7746 29.3434 31.7925 29.3426C31.9318 29.23 32.0734 29.1208 32.2184 29.0155C32.057 28.9964 31.8967 28.9571 31.7494 28.8933C31.5582 28.8105 31.3838 28.6968 31.2228 28.5647C31.1449 28.5009 31.0713 28.4318 31.0018 28.3593C30.9209 28.2753 30.8896 28.181 30.8358 28.0803C30.8148 28.0413 30.861 27.9825 30.9022 28.0138C30.9747 28.0688 31.0602 28.1001 31.13 28.1597C31.1987 28.2188 31.2659 28.2784 31.3395 28.3314C31.4918 28.4414 31.6578 28.536 31.8353 28.599C32.0204 28.6647 32.2058 28.7147 32.4035 28.7189C32.4794 28.7204 32.5554 28.7189 32.6313 28.7219C32.6428 28.7143 32.6538 28.7067 32.6649 28.6987C32.6336 28.6922 32.6023 28.6861 32.5722 28.6784C32.3886 28.6311 32.2024 28.5647 32.0371 28.4708C31.8761 28.3792 31.7242 28.2692 31.5861 28.1459C31.5139 28.0814 31.4456 28.0127 31.3823 27.9398C31.3346 27.8852 31.2724 27.7615 31.2014 27.7371C31.1445 27.7173 31.1228 27.6489 31.1663 27.6035C31.3178 27.4439 31.4933 27.7199 31.5918 27.8123C31.7318 27.9444 31.8887 28.0562 32.0574 28.149C32.2196 28.2379 32.3905 28.3158 32.5672 28.3715C32.6592 28.4005 32.7534 28.4238 32.8466 28.4483C32.892 28.4601 32.934 28.4754 32.9775 28.4918C33.1545 28.3803 33.3362 28.2761 33.5262 28.1868C33.5121 28.181 33.498 28.1776 33.4839 28.1715C33.2747 28.0841 33.0763 27.9764 32.892 27.8444C32.7073 27.7119 32.5394 27.563 32.3928 27.3886C32.3218 27.3042 32.2474 27.2164 32.1963 27.1187C32.1421 27.0149 32.0959 26.9061 32.0535 26.7969C32.0108 26.6862 32.1707 26.6416 32.2306 26.7221C32.3516 26.8851 32.4943 27.0412 32.6348 27.1878C32.771 27.3298 32.9206 27.4642 33.0813 27.5779C33.2457 27.6943 33.4228 27.7959 33.609 27.8738C33.6995 27.9115 33.7907 27.9463 33.8808 27.9852C33.9037 27.9951 33.9239 28.0085 33.9456 28.0203C34.0307 27.994 34.1166 27.9703 34.2028 27.9501C34.1685 27.9329 34.1349 27.9138 34.1021 27.8936C33.9479 27.7982 33.8029 27.6825 33.6682 27.5615C33.5381 27.4447 33.3961 27.3119 33.3152 27.155C33.2717 27.0706 33.2312 26.9809 33.2167 26.887C33.2015 26.7889 33.1912 26.6912 33.1717 26.5938C33.1633 26.5511 33.2259 26.5171 33.2469 26.5622C33.2854 26.6438 33.3282 26.7183 33.3805 26.7923C33.4289 26.861 33.4709 26.9343 33.5213 27.0015C33.6209 27.1332 33.7304 27.2504 33.8556 27.358C33.9731 27.4592 34.088 27.568 34.212 27.6611C34.2773 27.7104 34.3479 27.752 34.4169 27.7951C34.4604 27.8226 34.5097 27.8478 34.5421 27.8871C34.6768 27.8692 34.8123 27.8558 34.9482 27.8524C34.7528 27.6451 34.6013 27.3935 34.4727 27.1424C34.3624 26.9271 34.2563 26.711 34.188 26.4782C34.1219 26.2514 34.1162 26.0464 34.1616 25.8163C34.1685 25.7815 34.2174 25.7869 34.2269 25.8163C34.2918 26.0129 34.3918 26.211 34.4868 26.3946C34.5814 26.5774 34.6856 26.7561 34.7928 26.932C34.9012 27.1092 34.9974 27.2943 35.1195 27.4626C35.1966 27.5691 35.2851 27.6535 35.3832 27.7314C35.3817 27.7276 35.3786 27.7237 35.3771 27.7199C35.2882 27.5207 35.2416 27.3183 35.2126 27.1027C35.1974 26.9897 35.1771 26.8706 35.1832 26.7568C35.1897 26.6385 35.2271 26.5347 35.2645 26.4236C35.2676 26.4148 35.2821 26.4102 35.2867 26.4205C35.321 26.5011 35.366 26.5767 35.3939 26.6599C35.4271 26.7587 35.4427 26.861 35.4656 26.9622C35.508 27.147 35.5576 27.3355 35.6236 27.5134C35.6809 27.668 35.7671 27.8127 35.8896 27.9238C35.8953 27.9291 35.9022 27.9333 35.9083 27.9386C36.1274 27.9822 36.3445 28.039 36.5575 28.1112C36.5296 28.0616 36.4995 28.0135 36.4739 27.9627C36.4178 27.8501 36.3705 27.7367 36.3369 27.6153C36.3209 27.5573 36.3018 27.4974 36.3037 27.4367C36.3052 27.3729 36.314 27.3088 36.3189 27.2451C36.3197 27.2344 36.3361 27.2267 36.3415 27.239C36.3647 27.2935 36.3934 27.3435 36.4258 27.3932C36.4571 27.4409 36.4739 27.4955 36.4968 27.5478C36.5464 27.66 36.6017 27.7715 36.6597 27.8791C36.7174 27.9856 36.7803 28.0894 36.8463 28.191C36.854 28.2028 36.8628 28.2154 36.8723 28.228C37.3879 28.4376 37.8744 28.7193 38.3007 29.0437C39.0277 29.5972 39.8482 30.2313 40.2966 31.0409C40.3214 31.0856 40.2718 31.1352 40.2271 31.1104C39.5181 30.7172 39.0021 30.0576 38.3503 29.5808C38.2259 29.4896 38.0977 29.4018 37.9679 29.3159C38.0217 29.4797 38.0275 29.6537 38.0008 29.8228C37.974 29.9931 37.8954 30.1397 37.7905 30.274C37.7718 30.2981 37.7508 30.3214 37.7294 30.3443C37.7764 30.3523 37.8233 30.3599 37.8699 30.3698C38.3442 30.4699 38.8819 30.6485 39.1907 31.0424C39.2189 31.0783 39.1945 31.1539 39.1388 31.1314C38.6293 30.9253 38.1675 30.7279 37.613 30.6745C36.9891 30.6142 36.3651 30.6832 35.7431 30.7348C35.129 30.7855 34.507 30.805 33.8911 30.8031C33.49 30.802 32.9401 30.7581 32.7428 30.3427C32.7096 30.2725 32.7657 30.1714 32.8523 30.2004C33.066 30.2725 33.2591 30.337 33.485 30.3603C33.6098 30.3733 33.7346 30.3782 33.8594 30.3798C33.6919 30.1271 33.6636 29.7812 33.6999 29.4823C33.7304 29.23 33.7838 28.9678 33.8941 28.7372C33.9151 28.6929 33.9403 28.6509 33.9655 28.609C33.9529 28.6139 33.9399 28.6177 33.9273 28.6227C33.5537 28.7804 33.2144 29.0166 32.8847 29.2499C32.5497 29.4865 32.2089 29.7217 31.9089 30.0034C31.604 30.2897 31.3766 30.6382 31.1182 30.9638C30.8541 31.2971 30.5717 31.5307 30.1729 31.678C29.8772 31.7872 29.7539 31.3642 29.9733 31.2043C30.1912 31.0455 30.3778 30.86 30.5534 30.6642C30.4607 30.6806 30.3653 30.6859 30.274 30.6844C30.0588 30.681 29.8062 30.6092 29.6684 30.4363V30.4382Z" fill="black"/>
<path d="M54.0238 31.6979C54.2478 31.6765 54.4715 31.6837 54.6947 31.6471C54.9359 31.6074 55.1721 31.5314 55.4026 31.4516C55.822 31.3062 56.2254 31.094 56.6085 30.8676C56.5578 30.8359 56.5063 30.8008 56.4712 30.7539C56.4521 30.7287 56.4368 30.7054 56.4273 30.6748C56.4196 30.6504 56.4143 30.6256 56.4097 30.6004C56.4051 30.5741 56.4246 30.555 56.4509 30.5592C56.4689 30.5622 56.4868 30.5653 56.5051 30.5664C56.5353 30.5687 56.5608 30.576 56.5898 30.584C56.6181 30.5916 56.6448 30.6054 56.6711 30.6176C56.6776 30.6199 56.6837 30.6225 56.6902 30.6252C56.7032 30.6302 56.7165 30.6348 56.7299 30.639C56.7768 30.6542 56.8253 30.6664 56.873 30.6798C56.8875 30.684 56.9028 30.6871 56.9177 30.6905C57.0222 30.6306 57.126 30.5691 57.2321 30.5118C57.2157 30.5034 57.1982 30.4962 57.1825 30.4866C57.1089 30.4427 57.0447 30.3843 56.9905 30.3175C56.9596 30.2794 56.9287 30.2416 56.9131 30.1946C56.9009 30.1572 56.8906 30.1187 56.8806 30.0805C56.8673 30.0293 56.936 29.9828 56.9738 30.0263C56.9947 30.0503 57.0161 30.0709 57.0428 30.0889C57.0764 30.1118 57.1035 30.14 57.1344 30.1664C57.1344 30.1664 57.1604 30.1874 57.1463 30.1767C57.152 30.1809 57.1577 30.1851 57.1634 30.1893C57.1779 30.1996 57.1928 30.2095 57.2081 30.2191C57.2401 30.2389 57.2729 30.258 57.3062 30.2756C57.3222 30.284 57.3386 30.2912 57.3546 30.2992C57.3558 30.3 57.355 30.2992 57.3558 30.3C57.3573 30.3007 57.3569 30.3004 57.3596 30.3015C57.368 30.3046 57.3764 30.308 57.3848 30.3111C57.4187 30.3233 57.4535 30.3328 57.4886 30.3401C57.4973 30.342 57.5061 30.3435 57.5153 30.345C57.5176 30.3454 57.5279 30.3469 57.5328 30.3477C57.5378 30.3481 57.5435 30.3488 57.5447 30.3488C57.5466 30.3488 57.5485 30.3496 57.5504 30.35C57.5924 30.3294 57.6332 30.3065 57.6756 30.2862C57.6458 30.2672 57.616 30.2481 57.5874 30.2248C57.5241 30.1732 57.4695 30.1118 57.4225 30.045C57.3745 29.9767 57.3573 29.8999 57.3447 29.8182C57.3409 29.7931 57.3726 29.7648 57.3932 29.79C57.4374 29.8438 57.4935 29.8839 57.5431 29.9316C57.5935 29.9797 57.6443 30.0156 57.7088 30.0496C57.7244 30.058 57.7404 30.0656 57.7568 30.0729C57.7588 30.0736 57.758 30.0732 57.7588 30.0736C57.7607 30.0744 57.7603 30.0744 57.7637 30.0755C57.7717 30.0786 57.7801 30.0816 57.7881 30.0847C57.8213 30.0965 57.8542 30.1095 57.8877 30.1206C57.9202 30.1313 57.9534 30.1393 57.987 30.1454C58.0522 30.1175 58.1171 30.0877 58.1831 30.0618C58.1556 30.0454 58.1282 30.029 58.1022 30.0099C58.0259 29.9541 57.9667 29.8782 57.9064 29.8064C57.8389 29.7263 57.7782 29.64 57.7393 29.5423C57.703 29.4518 57.6798 29.3575 57.6675 29.2613C57.6668 29.2563 57.6744 29.2548 57.6767 29.259C57.7576 29.4178 57.8816 29.5621 58.0171 29.677C58.0831 29.7331 58.1625 29.7644 58.2369 29.806C58.3194 29.8518 58.3701 29.8736 58.4636 29.8996C58.4953 29.9083 58.5258 29.9179 58.5567 29.9278C58.5903 29.9167 58.6231 29.9026 58.6571 29.8919C58.6399 29.8786 58.6212 29.8675 58.6044 29.8537C58.4957 29.7648 58.4037 29.661 58.3293 29.5415C58.2575 29.4266 58.2045 29.3048 58.1743 29.1728C58.1591 29.1056 58.1507 29.0384 58.1484 28.9697C58.1476 28.9388 58.1453 28.9052 58.1503 28.8746C58.1564 28.8391 58.1686 28.8082 58.1709 28.7708C58.1717 28.7601 58.1869 28.7574 58.19 28.7681C58.1995 28.8029 58.2175 28.8265 58.2354 28.8563C58.2503 28.8811 58.2606 28.9101 58.2736 28.9361C58.2995 28.9872 58.3285 29.0376 58.3579 29.0869C58.4171 29.1857 58.4846 29.2815 58.5583 29.3651C58.6346 29.4514 58.7193 29.5365 58.8105 29.6072C58.8158 29.611 58.8349 29.6247 58.8345 29.6243C58.846 29.6323 58.8574 29.6404 58.8693 29.648C58.8948 29.6652 58.9212 29.6812 58.9479 29.6965C58.9563 29.7011 58.9654 29.7056 58.9742 29.7102C58.888 29.543 58.8239 29.3621 58.7785 29.1796C58.6872 28.812 58.6663 28.4269 58.7605 28.0581C58.7639 28.0448 58.7838 28.0478 58.7842 28.0612C58.7926 28.4066 58.8361 28.7532 58.9529 29.08C59.009 29.2369 59.0822 29.3865 59.1681 29.5293C59.2062 29.5926 59.2463 29.6545 59.2986 29.7075C59.3055 29.7148 59.3142 29.719 59.3215 29.7255C59.3852 29.7148 59.4493 29.7049 59.5135 29.6946C59.428 29.5549 59.3661 29.3961 59.3246 29.2392C59.2139 28.8219 59.2459 28.3856 59.2658 27.9593C59.2669 27.9344 59.3032 27.9344 59.3047 27.9593C59.3238 28.354 59.3543 28.7555 59.499 29.1273C59.5558 29.2735 59.6337 29.4159 59.7317 29.5381C59.763 29.577 59.797 29.6133 59.8302 29.6507C59.9676 29.6358 60.105 29.6224 60.2435 29.6163C60.208 29.5808 60.1798 29.5369 60.1546 29.4938C60.1012 29.4014 60.0748 29.3006 60.0508 29.1976C60.0252 29.0892 60.0069 28.98 59.9886 28.8704C59.968 28.746 59.9393 28.6227 59.9455 28.496C59.9496 28.4051 60.092 28.3448 60.1351 28.4448C60.1607 28.5044 60.1817 28.5593 60.1943 28.6227C60.205 28.6754 60.2153 28.7284 60.2259 28.7811C60.2481 28.8914 60.2675 29.0014 60.287 29.1121C60.3038 29.2098 60.3286 29.3052 60.3473 29.4026C60.361 29.4739 60.3832 29.5415 60.3855 29.6125C60.4118 29.6121 60.4381 29.6102 60.4645 29.6098C60.45 29.5644 60.4393 29.5178 60.432 29.4758C60.4023 29.3071 60.411 29.1403 60.4374 28.972C60.4622 28.812 60.4958 28.6464 60.5526 28.4948C60.5812 28.4181 60.6095 28.3398 60.6446 28.2662C60.6797 28.1921 60.7285 28.1429 60.7934 28.0948C60.8239 28.0722 60.8747 28.0955 60.8823 28.131C60.914 28.2818 60.869 28.4104 60.8362 28.5574C60.8052 28.6967 60.7629 28.833 60.7339 28.9727C60.706 29.1079 60.6885 29.248 60.7045 29.3858C60.7137 29.4629 60.7461 29.5396 60.764 29.6167C61.0243 29.6297 61.2834 29.6606 61.5372 29.7167C61.5368 29.711 61.5357 29.7041 61.5353 29.6991C61.5322 29.6163 61.5712 29.5205 61.6002 29.4442C61.6326 29.3594 61.6715 29.2827 61.7211 29.2071C61.7746 29.1262 61.8333 29.0491 61.8936 28.9735C61.9245 28.9349 61.96 28.9033 61.9967 28.8704C62.0165 28.8525 62.0333 28.8395 62.0585 28.83C62.0802 28.8219 62.1016 28.8166 62.1207 28.8032C62.1413 28.7887 62.1711 28.8128 62.1634 28.8361C62.1508 28.8746 62.1615 28.9151 62.1447 28.9529C62.1276 28.9926 62.1115 29.0338 62.0917 29.072C62.0528 29.1464 62.0077 29.217 61.97 29.2926C61.9318 29.3693 61.9013 29.4415 61.8669 29.5197C61.8398 29.5816 61.8219 29.6648 61.7963 29.7339C61.7917 29.7469 61.7849 29.7621 61.7776 29.7774C61.7933 29.782 61.8093 29.785 61.8249 29.7896C62.1085 29.874 62.3852 29.9862 62.6428 30.132C62.7141 29.9999 62.8286 29.8873 62.9343 29.785C63.0087 29.7129 63.0801 29.6377 63.1484 29.5598C63.2163 29.4823 63.2763 29.3949 63.3793 29.3651C63.4194 29.3537 63.448 29.385 63.4529 29.4213C63.4655 29.5178 63.4129 29.6022 63.3636 29.6812C63.3167 29.7564 63.2671 29.8297 63.2152 29.9015C63.1579 29.9805 63.0988 30.0564 63.0309 30.1267C63.0053 30.153 62.9801 30.1794 62.9565 30.2068C62.9503 30.2137 62.9446 30.221 62.9385 30.2278C62.9358 30.2313 62.932 30.2359 62.9316 30.2366C62.9198 30.253 62.9084 30.2702 62.8984 30.2878C62.8977 30.2893 62.8965 30.2912 62.8958 30.2927C62.9141 30.3057 62.9339 30.3164 62.9519 30.3298C63.1095 30.4466 63.2556 30.5764 63.3972 30.7122C63.4373 30.5821 63.5564 30.4672 63.648 30.3771C63.7258 30.3007 63.804 30.2244 63.8842 30.1503C63.9242 30.1129 63.97 30.0813 64.0135 30.048C64.0586 30.0137 64.0986 29.9992 64.1528 29.9835C64.1616 29.9809 64.17 29.9896 64.1677 29.9984C64.1551 30.0461 64.1448 30.0862 64.1162 30.1271C64.0864 30.1698 64.0586 30.2145 64.0261 30.2553C63.9597 30.3389 63.8907 30.4206 63.8243 30.5042C63.7628 30.5817 63.7006 30.6569 63.635 30.7309C63.601 30.7695 63.5628 30.8035 63.5235 30.8359C63.5983 30.9111 63.6724 30.9867 63.7453 31.0634C63.7472 31.0619 63.7491 31.0608 63.751 31.0592C63.7456 31.063 63.7456 31.063 63.751 31.0585C63.7621 31.0497 63.7724 31.0405 63.7846 31.0329C63.8082 31.0184 63.8334 31.015 63.8594 31.0073C63.8704 31.0039 63.8811 31.0004 63.8918 30.9962C63.8933 30.9955 63.893 30.9959 63.8941 30.9955C63.8949 30.9951 63.8952 30.9947 63.8987 30.9932C63.9178 30.984 63.9357 30.9733 63.9544 30.9634C64.033 30.921 64.1059 30.8737 64.1773 30.8207C64.2452 30.7699 64.307 30.718 64.3791 30.6661C64.4391 30.6229 64.4982 30.5561 64.5761 30.5531C64.5837 30.5531 64.5917 30.5573 64.5955 30.5641C64.6394 30.6466 64.5738 30.7466 64.5264 30.8134C64.4669 30.8974 64.3894 30.963 64.3127 31.0306C64.2379 31.0959 64.1574 31.1692 64.0654 31.2096C64.0208 31.2291 63.9758 31.2448 63.9284 31.2539C63.9414 31.2673 63.9544 31.281 63.9674 31.2944C64.3211 31.6604 64.6825 32.0193 65.0428 32.3789C65.0527 32.3735 65.0619 32.3682 65.0733 32.3632C65.1267 32.3399 65.1859 32.343 65.2431 32.3395C65.3412 32.3338 65.4332 32.335 65.5278 32.3025C65.616 32.2723 65.7007 32.2204 65.7816 32.1742C65.8713 32.1227 65.9617 32.0773 66.0594 32.0429C66.077 32.0368 66.0949 32.0597 66.0842 32.075C65.9629 32.2487 65.798 32.4262 65.6003 32.5109C65.5042 32.5522 65.3744 32.5873 65.2523 32.5857C65.3008 32.6331 65.3492 32.6808 65.3981 32.7277C65.4297 32.7098 65.4721 32.7064 65.5068 32.7041C65.5148 32.7037 65.5229 32.7026 65.5313 32.7022C65.5385 32.7022 65.5648 32.7048 65.5698 32.7056C65.5774 32.706 65.5935 32.7071 65.5988 32.7075C65.6152 32.7083 65.6316 32.7079 65.648 32.7075C65.656 32.7075 65.6644 32.7064 65.6725 32.706C65.6912 32.7048 65.674 32.7064 65.6847 32.7048C65.7473 32.6953 65.8003 32.6781 65.8499 32.6503C65.9125 32.6155 65.9568 32.5667 66.014 32.5212C66.0678 32.4785 66.1838 32.4212 66.2415 32.488C66.2525 32.5006 66.2613 32.5201 66.2544 32.5373C66.2415 32.5693 66.2167 32.5888 66.1907 32.6109C66.1689 32.6296 66.1502 32.6522 66.13 32.6724C66.0812 32.7216 66.0365 32.7713 65.9804 32.8133C65.8766 32.8911 65.7465 32.9331 65.6171 32.9419C65.6389 32.9633 65.6606 32.9839 65.682 33.0053C65.8503 32.9259 66.0526 32.9465 66.2327 32.914C66.3376 32.8953 66.4422 32.8659 66.5441 32.8354C66.5838 32.8236 66.6238 32.8106 66.6612 32.7926C66.7105 32.7694 66.7467 32.7388 66.8013 32.7289C66.8654 32.7174 66.9146 32.7655 66.9024 32.83C66.8822 32.9377 66.7589 33.0037 66.6685 33.0518C66.5563 33.1118 66.4403 33.1511 66.3155 33.1755C66.1815 33.2018 66.0098 33.2251 65.8625 33.1915C66.0232 33.3637 66.1731 33.5443 66.2968 33.7447C66.3766 33.8744 66.2174 34.0325 66.088 33.9535C65.682 33.7057 65.3691 33.3534 65.034 33.0198C64.6875 32.6743 64.3387 32.3308 63.991 31.9864C63.535 31.5349 63.0847 31.0619 62.547 30.7229C62.5588 30.7676 62.568 30.8103 62.5748 30.8474C62.6092 31.0363 62.5947 31.2234 62.5462 31.4089C62.5027 31.5749 62.4401 31.7356 62.3771 31.8952C62.3252 32.0269 62.2661 32.159 62.1734 32.2647C62.4123 32.3143 62.6527 32.325 62.8931 32.3705C62.9496 32.3811 62.9648 32.475 62.9099 32.4987C62.4592 32.6949 61.8906 32.4659 61.4529 32.3273C60.851 32.1372 60.2504 32.0364 59.6195 32.0105C59.0151 31.9857 58.4037 32.0013 57.8011 32.054C57.4905 32.0811 57.1829 32.1315 56.8734 32.1674C56.6154 32.1972 56.3422 32.2311 56.1018 32.117C56.0063 32.0716 56.0315 31.9135 56.1311 31.891C56.3857 31.8341 56.6604 31.8593 56.9207 31.8276C57.2146 31.7918 57.5061 31.7471 57.8011 31.7189C57.9446 31.7051 58.0877 31.6952 58.2312 31.6872C57.9954 31.3574 57.9042 30.984 58.0244 30.605C57.5561 30.7882 57.1077 31.0199 56.6639 31.2906C55.9148 31.7467 54.8531 32.3479 53.9578 31.9414C53.8273 31.8822 53.9097 31.7085 54.0238 31.6975V31.6979Z" fill="black"/>
<path d="M33.6598 54.3253C33.7098 53.9237 33.638 53.5172 33.6793 53.1145C33.7541 52.3854 34.2147 51.8983 34.8722 51.6231C35.6156 51.3124 36.4552 51.1978 37.2474 51.0841C39.0246 50.8291 40.8385 50.8596 42.6199 51.0551C43.524 51.1543 44.4257 51.2833 45.3042 51.5242C46.0957 51.741 46.8647 52.0338 47.6173 52.3594C48.4095 52.7018 49.1876 53.0755 49.9795 53.4191C50.7538 53.7554 51.5411 54.0111 52.3456 54.2616C53.0809 54.4902 53.8411 54.7475 54.4117 55.2884C54.4632 55.3373 54.512 55.3899 54.559 55.4441C54.6906 55.4193 54.8547 55.4941 54.8765 55.6678C54.8914 55.7869 54.907 55.9056 54.9238 56.0244C54.9318 56.0427 54.9417 56.0606 54.9494 56.0789C55.0246 56.2652 55.1173 56.5553 55.0448 56.7702C55.0429 56.8523 55.0226 56.9325 54.9658 57.0092C54.757 57.2913 54.4319 57.4455 54.1014 57.5367C53.7373 57.6375 53.3546 57.6623 52.9798 57.6925C52.5223 57.7291 52.0643 57.7635 51.6064 57.7978C49.7582 57.9368 47.9081 58.0547 46.056 57.9139C45.1386 57.844 44.2372 57.7165 43.3347 57.5402C42.4394 57.3653 41.5659 57.3497 40.6568 57.3695C38.8033 57.4096 37.0021 56.9523 35.1943 56.5973C34.8028 56.5206 34.3357 56.521 33.9861 56.308C33.6991 56.1331 33.5529 55.8213 33.5133 55.4972C33.464 55.0945 33.6102 54.7192 33.6594 54.3253H33.6598ZM34.0307 55.5453C34.1185 55.9457 34.4769 55.9896 34.8253 56.0518C35.6271 56.195 36.4422 56.279 37.2493 56.387C38.05 56.4943 38.856 56.6019 39.6646 56.6195C40.4576 56.6366 41.2507 56.5477 42.0429 56.587C42.826 56.6256 43.5885 56.8149 44.3605 56.9367C46.1522 57.2195 47.984 57.1741 49.7898 57.0855C50.7008 57.0409 51.6117 57 52.5226 56.9577C53.1687 56.9275 53.877 56.9687 54.4449 56.6244C54.4494 56.3614 54.4285 56.095 54.4063 55.8323C54.2147 55.6151 53.9823 55.43 53.7343 55.283C53.1088 54.9128 52.3822 54.7845 51.6972 54.5688C50.2947 54.1272 48.9686 53.4798 47.6222 52.8965C46.1942 52.2781 44.7581 51.8036 43.2103 51.5994C41.6536 51.3937 40.0535 51.3379 38.4877 51.4555C37.692 51.5154 36.9021 51.6143 36.122 51.7838C35.55 51.9078 34.8459 52.0369 34.4387 52.501C33.9724 53.0324 34.2112 53.8661 34.1235 54.5101C34.0777 54.8456 33.9567 55.2052 34.0311 55.5445L34.0307 55.5453Z" fill="black"/>
<path d="M73.1591 11.3821C73.4724 11.9543 73.6907 12.583 73.9765 13.1709C74.2498 13.732 74.5501 14.2836 74.8947 14.8043C75.2668 15.3666 75.7045 15.8811 76.2071 16.3308C76.7147 16.785 77.2703 17.182 77.7897 17.6222C78.7804 18.462 79.6318 19.4678 80.2992 20.582C81.022 21.7887 81.4712 23.1339 82.2738 24.2958C82.7069 24.9234 83.2072 25.5021 83.7113 26.0728C84.2139 26.6419 84.77 27.1687 85.231 27.7722C85.2691 27.8222 85.1947 27.8936 85.1447 27.8585C84.5975 27.4733 84.1086 27.0042 83.6304 26.5369C83.1427 26.0605 82.6916 25.5601 82.2787 25.0173C81.8528 24.4573 81.4842 23.8607 81.1735 23.2293C80.8549 22.5811 80.5824 21.9112 80.2473 21.2711C79.6253 20.082 78.7949 19.0067 77.8042 18.1016C77.2829 17.6252 76.7032 17.2213 76.1606 16.7705C75.6629 16.3567 75.2256 15.8937 74.8443 15.3704C74.4169 14.784 74.0712 14.1477 73.7701 13.4889C73.472 12.8376 73.1522 12.1555 72.9641 11.4638C72.9328 11.3489 73.0999 11.2741 73.1587 11.3817L73.1591 11.3821Z" fill="black"/>
<path d="M77.2017 18.4058C77.5326 18.7837 77.7196 19.312 77.9512 19.7552C78.1939 20.2198 78.4481 20.6786 78.7244 21.1241C79.298 22.0498 80.0238 22.838 80.6852 23.6969C81.34 24.5478 81.7735 25.5261 82.2937 26.4587C82.8177 27.397 83.4466 28.2722 84.1301 29.0998C84.5025 29.5506 84.8864 29.9927 85.2772 30.4278C85.6714 30.8668 86.1111 31.2867 86.4095 31.8001C86.4416 31.8555 86.3763 31.9253 86.3202 31.8895C85.8836 31.6127 85.5306 31.2272 85.1788 30.8531C84.8094 30.4611 84.4445 30.0641 84.0992 29.6507C83.4202 28.8387 82.7837 27.9871 82.2426 27.0767C81.6816 26.1331 81.2729 25.0994 80.639 24.1996C80.025 23.3282 79.2667 22.5807 78.6908 21.678C78.3676 21.1714 78.0775 20.6443 77.8043 20.1087C77.6639 19.8335 77.528 19.5556 77.394 19.2769C77.2708 19.0204 77.1319 18.757 77.0807 18.4757C77.0689 18.4108 77.1502 18.3455 77.2021 18.4051L77.2017 18.4058Z" fill="black"/>
<path d="M77.0986 20.5053C77.4936 20.5817 77.66 20.9947 77.7874 21.339C77.9733 21.8395 78.1187 22.3533 78.3118 22.851C78.516 23.3774 78.7556 23.8916 79.0529 24.3722C79.3609 24.8704 79.7421 25.3128 80.1245 25.7544C81.5514 27.4035 82.7119 29.243 83.6648 31.202C83.9251 31.7376 84.1758 32.2773 84.3994 32.8293C84.62 33.3736 84.9062 33.9756 84.9742 34.5627C84.9814 34.6249 84.899 34.6284 84.8704 34.591C84.5483 34.173 84.3441 33.6214 84.122 33.1442C83.9041 32.6758 83.6908 32.2048 83.4709 31.7372C83.0199 30.776 82.5302 29.8305 81.9929 28.9147C81.4468 27.9841 80.8366 27.0992 80.1459 26.2698C79.4513 25.4353 78.7827 24.6348 78.3286 23.6378C78.0832 23.0988 77.8844 22.5403 77.705 21.9765C77.6222 21.7165 77.5631 21.4467 77.4627 21.1924C77.3696 20.9565 77.2173 20.7485 77.0658 20.5489C77.049 20.5267 77.0769 20.5019 77.0986 20.5061V20.5053Z" fill="black"/>
<path d="M76.7474 24.1286C77.1302 24.3909 77.4355 24.6772 77.7309 25.0379C78.0106 25.3796 78.2556 25.7475 78.4815 26.127C78.9604 26.932 79.3478 27.7871 79.747 28.6334C80.1465 29.4804 80.556 30.332 81.0845 31.1081C81.6478 31.9357 82.379 32.6125 83.1133 33.2847C83.522 33.6588 83.9257 34.0313 84.2913 34.4489C84.4638 34.6459 84.6245 34.8539 84.7752 35.0685C84.921 35.2757 85.0874 35.4964 85.0908 35.7579C85.0908 35.785 85.0622 35.7983 85.0397 35.7873C84.8378 35.6869 84.7107 35.5006 84.5649 35.3338C84.4031 35.1486 84.2303 34.9742 84.0559 34.8009C83.704 34.4508 83.3346 34.1172 82.9698 33.7809C82.2519 33.1194 81.544 32.4567 80.9758 31.657C79.9053 30.15 79.3089 28.3856 78.4468 26.7641C77.9594 25.8479 77.3538 25.0112 76.6593 24.2424C76.6066 24.1844 76.6757 24.0794 76.7474 24.1283V24.1286Z" fill="black"/>
<path d="M79.512 29.4697C79.7524 29.74 79.9069 30.0824 80.0619 30.4057C80.2225 30.7409 80.3729 31.081 80.5099 31.4265C80.7946 32.1445 81.0522 32.8732 81.3403 33.5901C81.6288 34.3081 81.9543 35.015 82.3577 35.6762C82.7733 36.3579 83.2957 36.9504 83.8426 37.5287C84.4299 38.1498 85.1367 38.7953 85.3889 39.637C85.4195 39.7381 85.2912 39.8019 85.2187 39.7358C84.6413 39.2079 84.1483 38.5781 83.6197 38.0009C83.0939 37.4268 82.5703 36.8481 82.1459 36.1927C82.1192 36.1518 82.0963 36.1091 82.0703 36.0675C82.0631 37.0786 82.1177 38.0662 82.3943 39.0506C82.5386 39.5644 82.7256 40.0725 82.9519 40.5561C83.0691 40.8069 83.1824 41.06 83.3045 41.3085C83.403 41.5085 83.5407 41.7051 83.5701 41.9296C83.5736 41.9571 83.5392 41.9693 83.519 41.959C83.3049 41.8498 83.1633 41.612 83.0267 41.4208C82.8557 41.1814 82.7096 40.9375 82.5829 40.6718C82.3432 40.1695 82.1574 39.6484 82.0234 39.1083C81.7593 38.041 81.6433 36.8725 81.8681 35.788C81.8708 35.7751 81.8761 35.7647 81.8822 35.7552C81.2125 34.5795 80.7942 33.2736 80.334 32.0067C80.1832 31.5914 80.0298 31.176 79.8669 30.7653C79.7073 30.363 79.4868 29.9698 79.37 29.5522C79.3479 29.4736 79.4543 29.4048 79.5116 29.4697H79.512Z" fill="black"/>
<path d="M80.942 37.5898C81.171 38.0726 81.3313 38.5826 81.5122 39.0846C81.7114 39.6373 81.9297 40.1813 82.1674 40.7188C82.3903 41.223 82.6368 41.7166 82.923 42.188C83.0658 42.4228 83.2215 42.6488 83.3673 42.8812C83.4707 43.0461 83.6676 43.2458 83.6393 43.4504C83.6374 43.4645 83.6199 43.4756 83.6065 43.4752C83.3985 43.4683 83.2421 43.2202 83.1188 43.0728C82.9421 42.8618 82.7937 42.6323 82.6513 42.3968C82.3586 41.9128 82.1056 41.4047 81.8824 40.8852C81.6633 40.3756 81.4817 39.8496 81.3103 39.3224C81.1294 38.7659 80.9481 38.2055 80.8531 37.6272C80.8451 37.5775 80.9161 37.5359 80.9417 37.5898H80.942Z" fill="black"/>
<path d="M80.4444 39.916C80.7062 40.6302 80.8806 41.37 81.1523 42.0826C81.2927 42.451 81.4545 42.8087 81.6274 43.1633C81.7843 43.4859 81.9663 43.8061 82.0651 44.1524C82.0773 44.1951 82.0232 44.2241 81.9922 44.1947C81.7137 43.9321 81.5225 43.576 81.3561 43.2343C81.1905 42.8938 81.0416 42.5442 80.9081 42.1895C80.6398 41.4765 80.4035 40.6878 80.4066 39.9213C80.4066 39.8984 80.4375 39.8961 80.4448 39.9164L80.4444 39.916Z" fill="black"/>
<path d="M79.8296 41.9174C80.0147 42.5201 80.2364 43.1213 80.4776 43.7042C80.7173 44.2841 80.9814 44.8498 81.1825 45.4445C81.1932 45.4758 81.1478 45.5029 81.1256 45.4773C80.2922 44.5081 79.8945 43.1981 79.6613 41.9636C79.6407 41.8544 79.796 41.8086 79.8296 41.917V41.9174Z" fill="black"/>
<path d="M53.7699 1.97302C54.1237 1.13323 55.043 0.934735 55.8639 0.851901C57.1107 0.726314 58.3631 0.620958 59.6172 0.638517C62.0569 0.672872 64.4065 1.30615 66.7039 2.0822C70.53 3.37471 74.2329 5.10545 77.5752 7.38396C80.8762 9.63422 83.7941 12.4036 85.9781 15.7639C88.4907 19.6297 89.8065 24.0974 91.0247 28.5013C92.3226 33.1927 93.746 38.0654 93.269 42.9866C93.2099 43.5958 93.1209 44.1947 92.9794 44.7902C92.8633 45.2777 92.176 45.0594 92.2459 44.5879C92.421 43.408 92.5424 42.2266 92.542 41.0325C92.5413 39.8568 92.447 38.6815 92.2875 37.5169C91.9604 35.1326 91.3704 32.7934 90.7556 30.4699C89.602 26.1098 88.4644 21.6578 86.2662 17.6844C84.3894 14.292 81.6917 11.3657 78.6036 9.03759C75.4896 6.6896 71.997 4.88481 68.3678 3.47931C66.3059 2.68074 64.1787 1.9402 61.9954 1.56076C60.8101 1.35463 59.6122 1.30234 58.4112 1.32906C57.8075 1.34242 57.2045 1.36646 56.6012 1.39624C56.1158 1.42029 55.6185 1.42029 55.1415 1.52488C54.7374 1.61344 54.3683 1.75353 54.1733 2.14327C54.0634 2.36276 53.6726 2.20549 53.7707 1.97341L53.7699 1.97302Z" fill="black"/>
<path d="M76.1626 88.9977C76.5076 90.076 77.4937 90.7047 78.5496 90.9647C79.7571 91.2617 81.0542 91.104 82.2204 90.712C84.6308 89.9016 86.6522 88.0644 88.1573 86.0603C91.3641 81.7903 92.5384 76.3546 92.1983 71.0906C92.0919 69.4446 91.832 67.8166 91.482 66.2057C91.3034 65.3835 91.0955 64.5673 90.8615 63.7588C90.6276 62.95 90.349 62.1606 90.1979 61.3315C90.1784 61.2246 90.3185 61.1536 90.3795 61.2547C90.7837 61.925 91.0424 62.6484 91.2928 63.3882C91.542 64.1242 91.7694 64.8674 91.9724 65.6175C92.3819 67.1283 92.6719 68.6686 92.8498 70.2241C93.1829 73.1378 93.0692 76.0931 92.3834 78.9495C91.753 81.5754 90.6501 84.1097 89.053 86.2931C87.4437 88.4934 85.3459 90.4181 82.7417 91.3426C81.3626 91.832 79.796 92.0118 78.3687 91.6228C77.1666 91.2953 75.8618 90.4612 75.6352 89.1427C75.5764 88.7999 76.0538 88.656 76.1629 88.9973L76.1626 88.9977Z" fill="black"/>
<path d="M53.0564 99.773C53.2709 98.0884 53.643 96.4508 54.1429 94.8293C54.3906 94.0257 54.6425 93.2214 54.8153 92.3973C54.9893 91.5667 55.0302 90.7261 55.1015 89.8829C55.2405 88.2426 55.653 86.6607 56.3143 85.1541C56.9936 83.6058 57.9217 82.1839 58.8414 80.7707C59.7921 79.3103 60.7507 77.8551 61.7196 76.4073C63.648 73.5252 65.5977 70.6566 67.5783 67.8105C69.554 64.9716 71.5846 62.1583 73.7072 59.427C73.9338 59.1354 74.164 58.8506 74.4032 58.5708C73.7167 57.0016 73.1965 55.3594 72.8871 53.6737C72.7958 53.1759 72.7184 52.6743 72.6688 52.1708C72.6199 51.6742 72.6176 51.1661 72.4413 50.6932C72.1078 49.7988 71.3289 49.1686 70.624 48.57C69.9051 47.9589 69.2506 47.3317 68.7636 46.5145C68.298 45.7331 67.9588 44.8849 67.4631 44.1203C66.9315 43.3007 66.1602 42.6797 65.6053 41.8777C65.0783 41.1165 64.7009 40.2534 64.4616 39.3602C64.2063 38.4063 64.1178 37.3863 64.2723 36.4083C64.3811 35.7208 64.7226 34.6799 65.4214 34.3459C65.4305 34.3142 65.4397 34.2829 65.4519 34.2527C65.6171 33.8439 66.0476 33.9878 66.346 34.1474C67.0021 34.4986 67.5069 35.1689 67.9336 35.7609C68.1847 36.1098 68.4099 36.4725 68.6011 36.8576C68.7526 37.1622 68.9136 37.4852 68.9876 37.8218C69.4479 38.3586 69.9073 38.8968 70.3764 39.4258C70.6099 39.6896 70.8408 39.9557 71.0736 40.2198C71.1495 40.3061 71.2209 40.395 71.293 40.4836C71.2705 40.3221 71.2499 40.1599 71.235 39.9977C71.1575 39.1441 71.1942 38.2792 71.3251 37.4325C71.3934 36.9893 71.496 36.5576 71.6372 36.132C71.7227 35.8739 71.8055 35.6128 71.9341 35.3781C71.9693 35.0559 72.1669 34.7932 72.4944 34.6978C72.8332 34.5993 73.1752 34.7108 73.4419 34.9261C73.7354 35.1628 73.9441 35.5078 74.1285 35.8315C74.3353 36.1949 74.4998 36.5832 74.6482 36.9733C74.8142 37.4103 74.9474 37.86 75.0703 38.3108C75.0821 38.3536 75.0913 38.3982 75.0982 38.4433C77.5562 40.976 79.6963 43.8264 81.327 46.9622C81.6232 47.5318 81.896 48.1116 82.1437 48.7025C82.3574 47.3852 83.0237 45.8193 84.3586 45.3143C84.3987 45.2991 84.4384 45.3025 84.4746 45.3162C84.6116 45.2082 84.767 45.1376 84.9303 45.133C84.8479 45.0139 84.7925 44.8696 84.7719 44.7478C84.7139 44.4073 84.7402 44.0703 84.7914 43.7309C84.9127 42.9259 85.1131 42.1265 85.2974 41.3341C85.3936 40.9211 85.4928 40.5088 85.5951 40.0969C85.6878 39.7236 85.7691 39.3434 85.934 38.9937C86.2053 38.4185 86.7495 38.0791 87.3341 37.8837C87.6658 37.7726 88.005 37.7127 88.3512 37.6672C88.571 37.6382 88.8156 37.6592 88.9556 37.8234C89.1655 37.6634 89.443 37.5867 89.6994 37.6699C90.0211 37.7745 90.1738 38.099 90.2658 38.3986C90.3821 38.7781 90.4413 39.1758 90.4627 39.5713C90.5111 40.4622 90.3955 41.4265 90.1608 42.2876C90.157 42.301 90.149 42.3098 90.1429 42.3208C90.3902 43.2087 90.4279 44.1657 90.5211 45.0765C90.626 46.1053 90.7313 47.1336 90.8367 48.1624C91.045 50.1977 91.2377 52.235 91.4366 54.2715C91.5278 55.2044 91.5843 56.156 91.2916 57.0619C90.9931 57.9849 90.489 58.8556 90.0471 59.7156C89.5922 60.6008 89.1507 61.4941 88.6752 62.3682C88.2176 63.2095 87.6925 63.9974 87.1254 64.7681C86.4865 65.6358 85.8702 66.5076 85.3718 67.4658C84.8738 68.4231 84.5044 69.4427 83.9946 70.3932C83.9621 70.4539 83.9117 70.4841 83.8583 70.4928C83.7129 70.8039 83.5679 71.1169 83.4225 71.4303C83.6328 71.4258 83.8434 71.4658 83.9938 71.5391C84.6193 71.8445 84.6864 72.6198 84.6601 73.2325C84.628 73.9784 84.251 74.4773 83.6683 74.909C83.0237 75.3865 82.3521 75.8213 81.7155 76.3114C81.3243 76.6126 80.9328 76.9138 80.5393 77.2123C80.3031 77.3913 80.0692 77.5856 79.8288 77.7681C79.1453 78.7186 78.4248 79.6435 77.7153 80.581C77.3459 81.0689 76.9796 81.5586 76.654 82.0774C76.3285 82.5958 76.09 83.1439 75.816 83.6879C75.6542 84.0093 75.155 83.7833 75.2451 83.447C75.3848 82.9252 75.6614 82.4209 75.9297 81.9549C76.1904 81.5017 76.4823 81.0673 76.788 80.6436C77.4257 79.7603 78.1462 78.94 78.7949 78.0651C78.811 78.0437 78.8259 78.0216 78.8419 77.9998C78.7442 77.8307 78.7556 77.5906 78.9533 77.5055C79.1254 77.3482 79.3117 77.2035 79.5032 77.0646C80.5283 75.564 81.4308 73.9791 82.236 72.3514C82.2753 72.2698 82.3147 72.1881 82.3555 72.1068C82.6032 71.5998 82.8447 71.0898 83.0718 70.5738C83.3191 70.0122 83.5095 69.3591 83.8537 68.8507C83.8778 68.8155 83.9178 68.7999 83.9568 68.801C84.0888 68.5151 84.2144 68.2269 84.3166 67.9299C84.3514 67.8299 84.446 67.7711 84.5403 67.7788C84.5639 67.728 84.5861 67.6761 84.6101 67.6253C85.0112 66.7687 85.4779 65.9557 86.0332 65.1895C86.5934 64.4169 87.1834 63.6703 87.6719 62.848C88.1634 62.0205 88.5866 61.1532 89.0148 60.2916C89.4487 59.419 89.9017 58.5552 90.3287 57.6795C90.5382 57.2497 90.7161 56.8076 90.7962 56.3339C90.8737 55.8762 90.866 55.404 90.8386 54.9422C90.7794 53.9485 90.6523 52.9583 90.5619 51.967C90.4695 50.9551 90.3753 49.9439 90.2742 48.9327C90.1616 47.802 90.0623 46.6698 89.9582 45.5384C89.9063 44.9727 89.8509 44.4073 89.8074 43.8412C89.7708 43.3645 89.7322 42.898 89.759 42.4254C89.5109 42.4293 89.2499 42.2731 89.0694 42.1231C88.816 41.9124 88.6362 41.6192 88.5328 41.3085C88.4069 40.9291 88.3969 40.5111 88.4134 40.1152C88.4302 39.7099 88.455 39.301 88.4943 38.8972C88.5195 38.6384 88.563 38.3685 88.6866 38.1394C88.653 38.1368 88.6194 38.136 88.5847 38.141C88.4202 38.1658 88.2573 38.22 88.097 38.262C87.7867 38.3437 87.4761 38.4238 87.1899 38.5735C86.9006 38.7246 86.6522 38.9338 86.4988 39.2258C86.3102 39.5843 86.2442 40.0171 86.1484 40.4073C85.9301 41.2971 85.7283 42.1907 85.5333 43.0858C85.4516 43.4607 85.3543 43.8386 85.3379 44.2234C85.3295 44.4188 85.3657 44.5921 85.3837 44.7841C85.3982 44.9364 85.4695 45.1112 85.4161 45.2594C85.4104 45.275 85.4016 45.2907 85.3913 45.3052C85.9095 45.7205 86.0175 46.5984 86.0614 47.2058C86.0927 47.6402 86.0794 48.078 86.0504 48.5124C86.0297 48.8208 86.0191 49.138 85.866 49.4045C85.9733 49.4911 86.0649 49.6133 86.1313 49.7133C86.3827 50.0935 86.5839 50.4974 86.7525 50.9207C87.0949 51.78 87.2601 52.7072 87.2979 53.6294C87.3376 54.6001 87.2406 55.5735 87.151 56.5389C87.0601 57.5154 86.9727 58.4922 86.8769 59.4683C86.7903 60.35 86.7048 61.2471 86.3648 62.0743C86.1156 62.6805 85.7645 63.2244 85.3466 63.7279C84.5162 64.7277 83.4568 65.4858 82.4753 66.3248C81.93 66.7913 81.3919 67.2787 80.9255 67.8257C80.7099 68.0784 80.5279 68.3506 80.3436 68.6262C80.144 68.9239 79.9971 69.2423 79.7627 69.5152C79.6551 69.6408 79.4708 69.5301 79.4609 69.39C79.42 68.8056 79.7688 68.2113 80.0974 67.749C80.4458 67.2589 80.8504 66.8119 81.2915 66.4034C82.196 65.5659 83.1882 64.8296 84.0831 63.9802C85.0265 63.0847 85.7244 62.0819 85.9851 60.7886C86.166 59.8908 86.2248 58.964 86.3186 58.054C86.4133 57.1394 86.5098 56.2236 86.577 55.3067C86.651 54.2955 86.6838 53.2523 86.5083 52.2495C86.4251 51.7742 86.2957 51.307 86.1183 50.8581C86.0259 50.6241 85.9187 50.3947 85.8054 50.1702C85.7882 50.1363 85.7535 50.0538 85.7119 49.9633C85.663 49.987 85.6081 49.9977 85.5542 49.9897C85.2356 49.9404 84.9593 49.6774 84.7616 49.4366C84.5491 49.1774 84.396 48.8869 84.2754 48.575C84.1255 48.1868 84.0529 47.773 84.0037 47.3611C83.9579 46.976 83.8927 46.5641 83.9594 46.1785C83.9621 46.1633 83.9659 46.1476 83.9694 46.1324C83.6893 46.4072 83.4538 46.7164 83.2668 47.0886C82.9813 47.657 82.8096 48.2838 82.7287 48.9128C82.6264 49.7072 82.6455 50.5107 82.6413 51.3101C82.6375 52.106 82.5749 52.8923 82.4559 53.679C82.4623 53.6779 82.4681 53.6767 82.4761 53.6756C82.6024 53.6546 82.7272 53.6187 82.847 53.5733C82.963 53.5294 83.068 53.4679 83.176 53.4084C83.2325 53.3771 83.2893 53.3477 83.3443 53.313C83.3748 53.2939 83.4019 53.274 83.4351 53.2607C83.4618 53.25 83.4912 53.2443 83.5156 53.2294C83.5862 53.1859 83.6782 53.2737 83.6316 53.3454C83.6103 53.3782 83.6022 53.4176 83.5809 53.4504C83.5576 53.4863 83.524 53.5168 83.4942 53.547C83.4309 53.6111 83.3641 53.6718 83.2893 53.7226C83.1454 53.8195 82.9897 53.8966 82.8279 53.9588C82.6902 54.0119 82.5432 54.0566 82.3944 54.0569C82.2765 54.7398 82.1254 55.4166 81.962 56.09C81.8121 56.7084 81.664 57.3291 81.4529 57.9303C81.0324 59.1266 80.3512 60.2019 79.1476 60.7188C78.4397 61.0226 77.6619 61.1417 77.0467 61.6353C76.4919 62.0804 76.1072 62.7194 75.832 63.3676C75.7672 63.5206 75.5187 63.439 75.5252 63.2844C75.5825 61.9193 76.6598 60.9215 77.8684 60.4554C78.5175 60.205 79.1903 60.0336 79.7002 59.5324C80.1245 59.1152 80.4218 58.5693 80.6374 58.0189C80.8706 57.423 81.0309 56.8023 81.1843 56.182C81.3854 55.3693 81.5896 54.5562 81.7392 53.7321C81.9975 52.3083 81.9174 50.8623 82.0532 49.4305C81.3117 48.0078 80.5718 46.5839 79.7284 45.217C78.798 43.7092 77.744 42.2777 76.6125 40.915C76.0767 40.2695 75.5107 39.6514 74.9245 39.0518C74.8955 39.0537 74.8658 39.051 74.8337 39.0388C74.4277 38.88 74.0518 38.6082 73.6873 38.3719C73.3435 38.149 73.0283 37.8967 72.7687 37.5775C72.481 37.2237 72.233 36.7977 72.0822 36.3469C72.0032 36.6648 71.9349 36.9863 71.8807 37.3088C71.7529 38.0646 71.7273 38.8334 71.7941 39.5969C71.8616 40.3699 72.0295 41.136 72.2864 41.8677C72.5684 42.6724 72.9645 43.4343 73.3389 44.1985C73.3801 44.1802 73.4202 44.16 73.4583 44.1337C73.5866 44.0451 73.69 43.9214 73.7942 43.8069C73.9235 43.6645 74.0617 43.5343 74.2113 43.4137C74.3632 43.2912 74.5242 43.1931 74.6933 43.0969C74.7761 43.0496 74.8772 43.1687 74.799 43.2339C74.5376 43.4515 74.2994 43.7054 74.0777 43.9626C73.9067 44.1615 73.7312 44.3925 73.4908 44.5112C74.2193 46.0041 74.9337 47.5035 75.6603 48.9972C76.029 49.7549 76.4598 50.5096 76.7376 51.307C76.8105 51.517 76.8628 51.7353 76.8922 51.9563C77.0185 51.9475 77.1429 51.9338 77.2677 51.9017C77.4223 51.8624 77.5787 51.8094 77.7245 51.7448C77.8722 51.6796 78.0107 51.5685 78.1679 51.5345C78.205 51.5265 78.2477 51.5593 78.2336 51.6002C78.1767 51.7651 78.0141 51.8765 77.8741 51.972C77.713 52.0811 77.5406 52.1602 77.3539 52.2151C77.2124 52.2567 77.0635 52.2823 76.9155 52.2961C76.9155 52.3392 76.9189 52.3819 76.917 52.4251C76.8975 52.8381 76.7979 53.2431 76.7182 53.6474C76.5285 54.6062 76.364 55.5697 76.2461 56.5401C76.1873 57.0233 76.1427 57.5077 76.0942 57.9921C76.045 58.4861 76.0316 58.9812 75.8843 59.4576C75.824 59.653 75.5073 59.6828 75.4569 59.4633C75.3817 59.6763 75.1104 59.8004 74.899 59.6011C74.7952 59.5034 74.7288 59.3854 74.6543 59.2652C74.6181 59.2064 74.6158 59.1415 74.6337 59.0823C74.6284 59.0709 74.6234 59.0591 74.6181 59.0476C73.7816 60.3771 72.8348 61.6475 71.9299 62.929C70.945 64.3238 69.9688 65.7251 68.9995 67.131C68.8648 67.3264 68.7285 67.5215 68.5934 67.7166C68.653 67.7353 68.7113 67.7589 68.7655 67.7807C68.893 67.8326 69.0159 67.8933 69.133 67.9658C69.3574 68.1048 69.5574 68.288 69.7383 68.4789C69.9234 68.6743 70.0905 68.8858 70.2516 69.1014C70.3409 69.2213 70.6267 69.5733 70.3813 69.6878C70.3039 69.724 70.202 69.6202 70.2817 69.5584C70.3267 69.5233 69.5223 68.6739 69.4311 68.5918C69.2693 68.4464 69.0941 68.3174 68.9063 68.2074C68.8163 68.1548 68.7228 68.1067 68.6255 68.0693C68.5518 68.041 68.4744 68.0223 68.4003 67.996C66.6338 70.5447 64.8459 73.0775 63.1278 75.6595C62.1814 77.0821 61.2376 78.5067 60.3 79.9351C59.3723 81.3479 58.4079 82.75 57.6138 84.244C56.8562 85.6694 56.2834 87.1986 56.0117 88.793C55.8705 89.6218 55.8495 90.4619 55.7644 91.2968C55.6801 92.1232 55.5087 92.9313 55.2824 93.7299C54.8222 95.3534 54.2853 96.9329 54.0078 98.6034C53.7315 100.266 53.6296 101.941 53.5014 103.619C53.4686 104.049 53.4323 104.476 53.3758 104.904C53.3224 105.309 52.7332 105.339 52.7221 104.904C52.6782 103.199 52.8435 101.462 53.0587 99.771L53.0564 99.773ZM82.557 73.1386C82.2444 73.8031 81.9098 74.457 81.5526 75.0987C81.4022 75.369 81.245 75.6343 81.0839 75.8965C81.7682 75.3911 82.4536 74.904 83.1828 74.4654C83.4637 74.2967 83.7518 74.1123 83.943 73.8394C84.1785 73.5031 84.2193 73.0458 84.1735 72.6469C84.1346 72.3072 83.9862 71.9888 83.6427 71.8758C83.4889 71.825 83.3515 71.835 83.2172 71.8667C83.0104 72.2995 82.7951 72.7274 82.557 73.1386ZM89.2407 41.4849C89.3354 41.6089 89.4571 41.72 89.5983 41.788C89.6868 41.8303 89.7731 41.8506 89.8567 41.8792C89.9303 41.1887 90.0517 40.508 90.0276 39.8068C90.0169 39.4907 89.8773 37.6959 89.2506 38.2249C88.9694 38.4624 89.0137 38.9552 88.9934 39.285C88.9694 39.6793 88.9297 40.0759 88.9408 40.4714C88.9507 40.826 89.0205 41.1967 89.2403 41.4849H89.2407ZM84.4666 46.6797C84.4983 47.0844 84.5414 47.4959 84.6258 47.8932C84.7021 48.2532 84.8192 48.5949 85.0276 48.9002C85.1505 49.08 85.3028 49.2068 85.4627 49.3285C85.4775 49.3213 85.4928 49.3159 85.5077 49.311C85.5352 49.24 85.576 49.1701 85.5951 49.098C85.6416 48.922 85.6397 48.735 85.6462 48.554C85.6603 48.1578 85.6725 47.7612 85.6474 47.3653C85.629 47.0779 85.3722 45.2193 84.7963 45.6586C84.488 45.8938 84.4388 46.3259 84.4666 46.6797ZM72.5062 35.8689C72.6394 36.4198 72.9168 36.9313 73.3103 37.3393C73.553 37.5913 73.8331 37.7928 74.1262 37.9818C74.2937 38.0898 74.4693 38.194 74.6402 38.3047C74.6536 38.2948 74.6681 38.286 74.6826 38.2784C74.6215 38.1169 74.5456 37.9631 74.5196 37.8967C74.4029 37.5955 74.2868 37.2928 74.1586 36.9958C73.9258 36.4572 73.6507 35.8522 73.2401 35.4239C73.0805 35.2574 72.8527 35.1055 72.6138 35.1952C72.344 35.2964 72.4551 35.6575 72.5062 35.8689ZM68.3763 37.342C68.2175 37.0561 68.0427 36.7797 67.8649 36.5053C67.5176 35.9697 67.1192 35.4559 66.6624 35.0089C66.5536 34.9024 66.4399 34.799 66.3148 34.7116C66.2533 34.6684 66.1896 34.6283 66.1236 34.5921C66.0575 34.5558 65.9663 34.536 65.9022 34.4963C65.8995 34.5081 65.8969 34.518 65.8969 34.5196C65.8843 34.5917 65.8793 34.6654 65.8786 34.7387C65.8766 34.8982 65.8957 35.0551 65.9339 35.2097C66.0892 35.8354 66.5155 36.3098 66.9952 36.7175C67.5081 37.1534 68.0626 37.5168 68.6404 37.8551C68.6438 37.8489 68.6472 37.8428 68.651 37.8371C68.5545 37.6753 68.4679 37.5077 68.3759 37.3424L68.3763 37.342ZM75.4031 59.1106C75.3313 58.3807 75.4596 57.6077 75.542 56.8916C75.6427 56.0121 75.7698 55.1349 75.9236 54.2635C76.0637 53.4718 76.4026 52.5904 76.1957 51.7876C76.0957 51.399 75.9156 51.0398 75.7401 50.681C75.5435 50.279 75.347 49.8771 75.1505 49.4755C74.3567 47.8528 73.5473 46.2377 72.7581 44.6131C72.3829 43.8409 71.9883 43.0736 71.7097 42.2598C71.5685 41.8475 71.4609 41.4253 71.3785 40.9978C71.3193 40.9718 71.2678 40.926 71.2079 40.8741C71.0747 40.7584 70.9442 40.6416 70.8194 40.5168C70.5634 40.2614 70.3111 40.0038 70.0661 39.7377C69.6467 39.2823 69.2395 38.8181 68.8441 38.3425C68.79 38.3891 68.7159 38.4147 68.6323 38.3982C68.2366 38.32 67.9092 38.1097 67.5894 37.8734C67.2833 37.647 66.9837 37.4088 66.6987 37.1565C66.1423 36.6633 65.6297 36.0484 65.4458 35.3116C65.4248 35.2277 65.4069 35.1376 65.3931 35.0452C65.316 35.1601 65.2424 35.2769 65.1802 35.401C65.0054 35.7502 64.9066 36.1442 64.8474 36.5286C64.7161 37.3829 64.8142 38.2837 65.0367 39.1144C65.2653 39.9687 65.6694 40.7749 66.2022 41.4807C66.7506 42.2075 67.452 42.8011 67.9561 43.563C67.9584 43.5588 67.9603 43.5546 67.9626 43.5504C68.0725 43.3626 68.2187 43.1904 68.3461 43.0141C68.4133 42.9213 68.4785 42.8266 68.5511 42.7377C68.6102 42.6652 68.6671 42.5835 68.7438 42.5281C68.8655 42.4396 69.0972 42.4861 69.0712 42.6694C69.0666 42.7026 69.0227 42.7056 69.0025 42.6877C68.9376 42.63 68.8289 42.8705 68.8106 42.9022C68.7281 43.0484 68.6301 43.1862 68.5381 43.3267C68.4522 43.458 68.3618 43.5874 68.2824 43.7229C68.2503 43.7771 68.2164 43.8302 68.1992 43.8913C68.1946 43.9073 68.1923 43.9233 68.1885 43.9394C68.5724 44.6043 68.8735 45.3166 69.2555 45.9827C69.7154 46.7851 70.3252 47.3936 71.0286 47.9841C71.7014 48.5487 72.3864 49.1316 72.8226 49.908C72.8283 49.903 72.8344 49.8981 72.8397 49.8927C72.9378 49.8 73.0393 49.7114 73.1347 49.6156C73.2278 49.5224 73.3126 49.4217 73.4038 49.327C73.4511 49.2778 73.4976 49.2255 73.548 49.1797C73.577 49.1533 73.6118 49.1247 73.6461 49.1079C73.6747 49.0942 73.6999 49.0835 73.7274 49.0659C73.7911 49.0254 73.8705 49.0922 73.8518 49.1617C73.8434 49.1923 73.8403 49.2216 73.8346 49.2526C73.8274 49.2911 73.8091 49.332 73.79 49.3667C73.7579 49.4259 73.7152 49.4827 73.6759 49.5373C73.5904 49.6553 73.4877 49.7637 73.3877 49.8691C73.2954 49.9664 73.2011 50.0653 73.0985 50.1519C73.0615 50.1832 73.0233 50.213 72.9855 50.2431C73.316 51.0505 73.2767 51.9288 73.416 52.7908C73.769 54.9784 74.4418 57.1157 75.4035 59.111L75.4031 59.1106Z" fill="black"/>
<path d="M70.3329 103.622C70.3535 102.884 70.3917 102.145 70.4466 101.409C70.5581 99.9149 70.7577 98.4274 71.0069 96.9509C71.4972 94.0463 72.2326 91.1487 73.2943 88.3987C73.5866 87.6418 73.898 86.8917 74.227 86.1496C74.5552 85.4102 74.8712 84.609 75.4112 83.9955C75.4673 83.9318 75.5527 84.0016 75.5405 84.0711C75.4165 84.791 75.0826 85.4675 74.8147 86.1423C74.5487 86.813 74.298 87.4894 74.0625 88.1716C74.0392 88.2388 74.0175 88.3067 73.9942 88.3739C74.0576 88.3388 74.1304 88.3208 74.2106 88.3319C74.5197 88.3739 74.5888 88.7988 74.4125 88.9476C74.4178 88.9686 74.4231 88.9904 74.4293 89.0079C74.4708 89.1366 74.5147 89.2648 74.5579 89.3931C74.6437 89.65 74.7304 89.9065 74.8177 90.1627C74.9921 90.6753 75.1685 91.1872 75.3474 91.6983C75.6959 92.6943 76.0504 93.6883 76.419 94.6773C77.0155 96.2783 77.7104 97.9036 78.8786 99.1778C80.1937 100.612 82.0407 101.137 83.7801 101.867C85.557 102.612 87.2873 103.477 88.9359 104.475C90.7944 105.601 92.509 106.911 94.0897 108.4C94.2267 108.529 94.0279 108.714 93.8874 108.602C90.5299 105.913 86.8129 103.621 82.7811 102.101C81.7827 101.724 80.7604 101.372 79.8464 100.812C79.0179 100.304 78.3287 99.626 77.7631 98.8385C76.5976 97.215 75.9634 95.2571 75.2917 93.3951C74.8326 92.1217 74.3873 90.8429 73.956 89.5595C73.9003 89.3931 73.8156 89.2095 73.7752 89.0251C73.4096 90.1272 73.0699 91.238 72.7719 92.3602C72.0292 95.1548 71.5553 98.0098 71.3312 100.892C71.2679 101.707 71.2213 102.523 71.1977 103.34C71.1858 103.748 71.1836 104.157 71.1782 104.565C71.1733 104.945 71.2225 105.397 70.897 105.654C70.8313 105.706 70.7252 105.744 70.6474 105.686C70.331 105.45 70.3268 105.127 70.3192 104.754C70.3112 104.377 70.323 103.999 70.3337 103.622L70.3329 103.622Z" fill="black"/>
<path d="M76.2567 58.8823C76.3556 58.9354 76.4517 58.9926 76.5231 59.0816C76.5986 59.1755 76.6605 59.277 76.7192 59.3816C76.7765 59.4835 76.8402 59.5881 76.8822 59.6973C76.9017 59.7481 76.9127 59.8019 76.931 59.8527C76.952 59.9107 76.9761 59.9676 76.9971 60.0256C77.0337 60.126 76.873 60.1935 76.8246 60.0985C76.7994 60.0496 76.7742 60.0004 76.7475 59.9523C76.7204 59.9034 76.6849 59.8615 76.6544 59.8153C76.5914 59.7214 76.5437 59.6152 76.4857 59.5179C76.4288 59.4232 76.3674 59.3312 76.3162 59.2331C76.2628 59.1312 76.2403 59.0236 76.2178 58.9121C76.2132 58.8892 76.2357 58.8705 76.2571 58.8819L76.2567 58.8823Z" fill="black"/>
<path d="M75.4885 71.6449C75.7113 71.3818 75.9476 71.1318 76.1933 70.8902C76.288 70.797 76.8047 70.25 76.9169 70.5611C76.9635 70.6898 76.8623 70.8138 76.7894 70.9097C76.7017 71.0249 76.6001 71.1288 76.5047 71.2376C76.3048 71.4658 76.1128 71.701 75.9231 71.9376C75.7663 72.1338 75.59 72.3411 75.503 72.5801C75.4652 72.6835 75.4385 72.7996 75.4362 72.9103C75.4339 73.0332 75.4782 73.1775 75.4446 73.2943C75.4057 73.4287 75.2202 73.4913 75.1202 73.3802C74.6062 72.8095 75.0889 72.1174 75.4889 71.6452L75.4885 71.6449Z" fill="black"/>
<path d="M57.3297 85.5598C57.7281 85.4571 58.1487 85.4751 58.5479 85.5629C59.4489 85.761 60.251 86.329 61.0883 86.6974C61.9618 87.0814 62.8804 87.3665 63.8142 87.5608C64.861 87.7788 65.9242 87.883 66.9844 88.0116C68.0819 88.1449 69.1676 88.2273 70.2709 88.109C70.3778 88.0975 70.3976 88.2689 70.2961 88.2945C69.842 88.409 69.4203 88.5487 68.9505 88.6018C68.4628 88.6568 67.9774 88.6522 67.4881 88.6228C66.5287 88.5651 65.5655 88.4556 64.6145 88.3155C63.6841 88.1785 62.7659 87.9803 61.8787 87.665C60.9918 87.3497 60.1583 86.9306 59.313 86.5218C58.9157 86.3294 58.4868 86.1473 58.0418 86.1103C57.8426 86.0939 57.6434 86.1042 57.4495 86.1527C57.2782 86.1958 57.0504 86.2836 56.9012 86.1374C56.634 85.8755 57.1271 85.6125 57.3297 85.5602V85.5598Z" fill="black"/>
<path d="M72.001 9.32615C72.5941 9.35172 73.1852 9.41471 73.771 9.51052C74.3568 9.60633 74.9345 9.74795 75.502 9.92164C75.7943 10.0113 76.0825 10.1091 76.3649 10.2259C76.5885 10.3186 76.8465 10.4102 76.9865 10.6179C77.0029 10.6423 76.9873 10.6836 76.9575 10.6889C76.7415 10.7278 76.5221 10.6427 76.3183 10.5748C76.0447 10.4835 75.7707 10.3927 75.4951 10.3083C74.9578 10.1442 74.4113 10.0155 73.8603 9.90675C73.3096 9.79796 72.7528 9.72161 72.193 9.67848C71.9121 9.65672 71.6266 9.63496 71.345 9.64412C71.1462 9.65061 70.8699 9.7552 70.6943 9.64565C70.6749 9.63343 70.6627 9.60824 70.6699 9.58534C70.7985 9.18605 71.6908 9.31202 72.0014 9.32538L72.001 9.32615Z" fill="black"/>
<path d="M26.6176 27.1088C26.7314 26.3758 27.0046 25.7063 27.3885 25.0749C27.7514 24.4775 28.1842 23.916 28.4754 23.2774C28.802 22.5605 28.8028 21.7841 28.8471 21.013C28.8917 20.2316 29.0211 19.4567 29.2611 18.7104C29.5 17.9684 29.8404 17.2622 30.243 16.5957C30.6468 15.9273 31.1005 15.2883 31.4562 14.592C32.1828 13.1693 32.4599 11.5695 33.1445 10.1282C33.8265 8.69249 34.7485 7.34348 35.7342 6.09944C34.7706 6.53079 33.8593 7.0736 33.0743 7.7565C32.6728 8.10578 32.3007 8.49857 31.9859 8.92839C31.6497 9.38723 31.3761 9.89034 31.0719 10.3702C31.0441 10.4137 30.9845 10.3843 30.9922 10.3366C31.1582 9.32004 31.8287 8.42223 32.5629 7.72825C33.293 7.0381 34.1531 6.49567 35.0496 6.04943C35.4247 5.86277 35.8094 5.6971 36.1983 5.54289C37.8434 3.66061 39.9603 2.22914 42.3386 1.44928C41.3597 1.47524 40.3808 1.61571 39.4245 1.80848C38.4193 2.01118 37.403 2.35969 36.3757 2.40244C36.3398 2.40397 36.3257 2.35129 36.3574 2.33488C37.2035 1.88597 38.1964 1.68022 39.1287 1.48325C40.0671 1.28476 41.0174 1.13665 41.9768 1.09809C42.4729 1.07824 42.9759 1.08741 43.4762 1.13092C46.2441 0.492298 49.2192 0.765612 51.8039 1.94514C52.1611 2.10813 52.4905 2.31617 52.8145 2.53643C52.8992 2.59407 52.8488 2.75516 52.7397 2.71355C51.3284 2.17226 49.9077 1.72183 48.4064 1.51188C47.3813 1.36835 46.3395 1.35461 45.3106 1.46608C45.79 1.60464 46.2563 1.7852 46.7009 2.01347C47.4966 2.42268 48.1652 2.97923 48.7391 3.66404C48.7746 3.70641 48.7162 3.76749 48.6777 3.72588C47.6416 2.60667 46.13 1.93636 44.655 1.63632C44.5783 1.62067 44.5016 1.60769 44.4249 1.59395C44.2883 1.61876 44.152 1.64358 44.0166 1.67297C41.6303 2.19097 39.4279 3.35714 37.6782 5.04474C38.8505 4.71684 40.061 4.52674 41.2819 4.49315C41.8814 4.47673 42.4954 4.48322 43.0907 4.56109C43.5983 4.62751 44.0978 4.76722 44.4951 5.10352C44.5035 5.11077 44.4924 5.1249 44.4833 5.11879C44.0532 4.81799 43.5433 4.7844 43.0354 4.76417C42.5275 4.74356 42.0218 4.72829 41.5135 4.7489C40.477 4.79089 39.4482 4.93213 38.4411 5.18216C38.0255 5.28522 37.608 5.4047 37.1931 5.54021C37.0981 5.64252 37.0031 5.7452 36.9111 5.85056C35.8975 7.01481 35.0175 8.34054 34.2833 9.69681C33.9097 10.387 33.5994 11.1027 33.3437 11.8444C33.0999 12.5521 32.8881 13.2709 32.6114 13.9668C32.3225 14.694 31.9474 15.3582 31.5131 16.0078C31.0883 16.6434 30.6376 17.2683 30.3106 17.9623C29.9992 18.6238 29.7839 19.333 29.6592 20.053C29.526 20.8199 29.5603 21.6016 29.4504 22.3712C29.3352 23.1785 28.9803 23.8733 28.533 24.5455C28.1163 25.1715 27.6392 25.7731 27.3866 26.4904C27.1046 27.2905 27.0836 28.1432 27.1714 28.9796C27.2504 29.7335 27.3877 30.4862 27.5087 31.2363C28.2701 29.4182 29.0734 27.6065 29.7065 25.7403C30.0351 24.7715 30.3449 23.7954 30.6399 22.8159C30.9334 21.8417 31.2272 20.8664 31.623 19.9278C33.0167 16.6217 35.7071 14.0775 38.475 11.899C41.5425 9.48457 44.7821 7.2114 48.5208 5.97614C50.3675 5.36615 52.2962 5.00847 54.2379 4.90846C55.2302 4.85731 56.2212 4.8722 57.2123 4.94511C58.264 5.02298 59.3055 5.1123 60.3614 5.07222C61.3983 5.0329 62.444 4.9264 63.4801 5.0268C64.3204 5.1081 65.1478 5.29209 65.9423 5.57724C67.4917 6.13379 68.9712 7.04879 70.0547 8.30046C70.3157 8.60202 70.5454 8.92878 70.7572 9.2666C70.7961 9.32882 70.7046 9.40173 70.6546 9.346C69.5616 8.11838 68.245 7.06215 66.7361 6.39489C65.969 6.05592 65.155 5.81849 64.3276 5.68527C63.4018 5.53601 62.4604 5.55243 61.5273 5.60434C60.5004 5.6616 59.483 5.71962 58.4545 5.65855C57.4687 5.59976 56.4872 5.50586 55.4988 5.50777C53.5831 5.5112 51.665 5.78223 49.8168 6.28458C47.9637 6.78845 46.196 7.529 44.5382 8.49819C42.8751 9.47082 41.3162 10.616 39.784 11.781C37.0581 13.8534 34.3321 16.1884 32.7289 19.2731C31.8291 21.005 31.4127 22.909 30.7762 24.7409C30.1064 26.6679 29.3233 28.5757 28.5009 30.442C28.2994 30.8993 28.0964 31.3562 27.8934 31.8127C27.7778 32.0723 27.3629 31.9402 27.3435 31.6997C27.3217 31.6837 27.3023 31.662 27.29 31.6295C26.7443 30.1843 26.3795 28.6612 26.6199 27.1088H26.6176Z" fill="black"/>
<path d="M0.663025 48.4273C1.04388 46.9137 1.55717 45.4365 2.2067 44.0176C2.83294 42.6499 3.60572 41.3604 4.2892 40.0217C4.47161 39.6644 4.64449 39.3022 4.80515 38.9342C4.68494 38.0723 4.87384 37.1691 5.38636 36.4557C5.92064 35.7124 6.89835 35.1463 7.80051 35.5926C8.08672 35.7342 8.30731 35.9472 8.47369 36.2003C8.50193 36.1648 8.53017 36.1293 8.55841 36.0938C8.80189 35.7884 9.04536 35.483 9.28883 35.1776C9.7548 34.5932 10.2261 34.0134 10.6955 33.4316C10.8481 33.2427 10.9886 33.0476 11.126 32.851C11.3771 32.1208 11.7423 31.3558 12.3506 30.8928C12.6593 30.6576 13.0379 30.5073 13.4306 30.5744C13.8294 30.6428 14.1282 30.9195 14.372 31.2253C14.8819 31.8643 15.2158 32.6205 15.3356 33.4305C15.4074 33.9172 15.4394 34.5837 15.2612 35.1173C15.5307 35.1204 15.797 35.1994 16.0294 35.3742C16.5584 35.7728 16.7251 36.4625 16.7915 37.0878C16.8526 37.6619 16.8457 38.3517 16.6698 38.9456C16.7892 38.8807 16.9102 38.8178 17.0323 38.7571C17.7338 38.4089 18.4501 38.1028 19.1316 37.7356C19.4461 37.5268 19.7693 37.3298 20.0979 37.1416C20.2502 37.0328 20.3994 36.9191 20.544 36.7958C20.5959 36.7515 20.6677 36.7618 20.7131 36.7984C21.0627 36.6064 21.4134 36.4175 21.7595 36.2236C22.24 35.9548 22.7265 35.6911 23.1726 35.3662C23.6085 35.0486 23.9851 34.6585 24.3408 34.2554C24.6881 33.8618 25.0178 33.4526 25.3799 33.0724C25.5456 32.8987 25.7173 32.7316 25.8997 32.5762C26.0798 32.4227 26.2829 32.2323 26.5187 32.1742C26.8366 32.0964 27.1178 32.2842 27.2487 32.5552C27.2854 32.5346 27.3331 32.5338 27.3758 32.5728C28.6691 33.7405 27.9845 35.6323 27.2575 36.9C26.4012 38.3933 25.3525 39.8293 24.0019 40.9127C23.9885 40.9234 23.9748 40.9337 23.9615 40.9443C23.5207 42.7556 23.2192 44.5772 23.0975 46.44C22.9715 48.3704 23.0959 50.2909 23.3138 52.2098C23.5314 54.1249 23.784 56.0362 24.0214 57.949C24.2564 59.8424 24.4202 61.7716 24.9762 63.6046C25.491 65.3029 26.3008 66.91 27.2709 68.3922C28.1078 69.6714 29.0813 70.8631 30.201 71.9052C31.3123 72.9397 32.5689 73.8203 33.96 74.4364C35.5422 75.1369 37.2541 75.4278 38.9779 75.4239C40.8734 75.4197 42.7476 75.0972 44.6034 74.741C46.5165 74.3738 48.4311 74.0158 50.3445 73.6501C50.7956 73.5638 51.2406 73.5142 51.6974 73.4794C51.8302 73.4695 51.8374 73.6577 51.7271 73.6982C50.7876 74.0432 49.8084 74.244 48.8333 74.4689C47.8594 74.6933 46.8836 74.9048 45.904 75.1037C44.0024 75.4896 42.0897 75.882 40.151 76.0221C38.4433 76.1458 36.7088 76.0408 35.0659 75.5396C35.1144 75.6442 35.1647 75.748 35.2239 75.8492C35.2911 75.9641 35.1231 76.0565 35.0483 75.9519C34.9964 75.8793 34.9411 75.811 34.8842 75.7442C35.0087 77.6754 35.1491 79.6015 35.3857 81.5243C35.6494 83.6684 35.9307 85.8091 36.1287 87.9609C36.484 91.8239 36.5512 95.7675 35.6605 99.568C35.4197 100.595 35.1025 101.603 34.7007 102.579C34.5026 103.06 34.2885 103.534 34.0515 103.998C33.931 104.233 33.805 104.466 33.6734 104.696C33.6077 104.81 33.5375 104.922 33.4738 105.038C33.4253 105.126 33.3047 105.289 33.2956 105.384C33.2795 105.543 33.1047 105.695 32.9456 105.585C32.4709 105.256 32.6537 104.766 32.8964 104.344C33.1311 103.936 33.3482 103.519 33.5482 103.093C33.9497 102.239 34.274 101.351 34.5385 100.445C35.0709 98.6209 35.3636 96.7402 35.475 94.8453C35.72 90.6799 35.1067 86.5642 34.7182 82.429C34.4961 80.0676 34.2382 77.6723 34.3542 75.2972C33.0296 74.7899 31.8065 74.0341 30.7101 73.1386C28.1856 71.0773 26.2478 68.1937 25.0258 65.1895C24.3034 63.4134 23.963 61.5452 23.713 59.6526C23.4516 57.6745 23.1898 55.6965 22.9341 53.7176C22.6815 51.7624 22.4689 49.8057 22.4529 47.8322C22.4373 45.8755 22.6361 43.9283 23.0292 42.0113C23.0589 41.8654 23.0929 41.7208 23.1257 41.5757C22.675 41.9082 22.2258 42.2418 21.8125 42.6236C21.0962 43.2855 20.4334 44.0077 19.7533 44.7066C18.4985 45.9965 17.0453 47.2657 16.4091 48.9972C16.06 49.9481 15.8588 50.9455 15.4929 51.8914C15.1712 52.7228 14.7804 53.5554 14.2774 54.2978C15.046 55.7087 15.707 57.1825 16.4095 58.6273C17.0884 60.0233 17.7933 61.4093 18.4027 62.8374C18.6947 63.5214 18.9572 64.2142 19.1706 64.9273C19.2083 65.0536 19.2461 65.1804 19.2847 65.3064C19.3499 65.0327 19.4511 64.7723 19.598 64.5398C19.8167 64.1944 20.1242 63.9073 20.5078 63.7573C20.9871 63.5699 21.5569 63.6207 22.0564 63.6871C23.0292 63.8165 23.6875 64.386 24.2045 65.1899C24.7171 65.9873 25.2048 66.8874 25.4162 67.8177C25.5364 68.3468 25.5574 68.8907 25.6051 69.4294C25.6284 69.6927 25.665 69.9538 25.7242 70.2119C25.7562 70.3512 25.8184 70.4886 25.8535 70.628C26.7618 71.4265 27.5239 72.3957 28.1288 73.4397C28.829 74.6475 29.3274 75.971 29.6679 77.323C30.0186 78.7178 30.2617 80.1623 30.3574 81.5976C30.4086 82.3656 30.3914 83.1493 30.2059 83.8997C30.03 84.6113 29.6827 85.2388 29.2236 85.8045C28.8012 86.3248 28.3005 86.7734 27.8258 87.244C27.3533 87.7128 26.9656 88.2094 26.5943 88.7599C26.2993 89.1977 25.6868 88.7759 25.9054 88.3777C26.3477 87.2959 27.3816 86.5459 28.1769 85.7324C28.5856 85.3144 28.9626 84.8624 29.2065 84.3265C29.4801 83.7257 29.5724 83.0542 29.5862 82.3996C29.6144 81.0261 29.4095 79.6034 29.1248 78.2624C28.8298 76.8741 28.3932 75.501 27.7338 74.241C27.1591 73.1424 26.4237 72.1316 25.512 71.2883C24.6285 70.4711 23.5936 69.9321 22.5155 69.4187C21.5103 68.9396 20.4566 68.4411 19.6915 67.6066C19.5648 67.6249 19.424 67.5658 19.3801 67.4177C19.3492 67.3123 19.3213 67.2035 19.2973 67.0921C18.7031 66.1683 18.5043 65.054 18.1127 64.0249C17.8093 63.2267 17.4361 62.461 17.0858 61.683C16.732 60.8974 16.3866 60.108 16.0371 59.3209C15.3494 57.7723 14.6117 56.2366 13.9862 54.6612C13.7389 54.8082 13.3749 54.5627 13.5577 54.2631C14.0175 53.5088 14.464 52.7583 14.801 51.9388C15.1296 51.1398 15.3395 50.3092 15.5826 49.4824C15.8276 48.6491 16.1512 47.8547 16.6675 47.1508C16.824 46.9374 16.9915 46.734 17.1636 46.5343C17.1533 46.4648 17.1384 46.3961 17.1148 46.327C17.0644 46.1801 16.9846 46.0388 16.885 45.9194C16.7816 45.7957 16.661 45.6972 16.5271 45.6086C16.3939 45.5208 16.2389 45.4418 16.0817 45.4113C15.9985 45.3952 16.0176 45.2605 16.1016 45.2639C16.192 45.2678 16.2897 45.2708 16.379 45.288C16.4706 45.3059 16.5618 45.346 16.6454 45.3853C16.8133 45.4643 16.9644 45.5953 17.0846 45.735C17.2136 45.8846 17.3269 46.0701 17.3987 46.2679C17.712 45.922 18.0387 45.588 18.3665 45.2552C19.5755 44.0271 20.7234 42.6942 22.0781 41.6204C22.0709 41.615 22.064 41.6089 22.0598 41.6013C21.9942 41.4849 22.0236 41.3272 22.0033 41.1978C21.982 41.0596 21.9457 40.9203 21.8954 40.7897C21.8469 40.6645 21.7793 40.5454 21.7011 40.4363C21.6591 40.3783 21.6042 40.3282 21.5721 40.2641C21.5576 40.2351 21.5359 40.2072 21.524 40.1775C21.5195 40.1656 21.5187 40.1546 21.5149 40.1431C21.5122 40.1351 21.5126 40.1336 21.5122 40.1313C21.5099 40.129 21.5072 40.1263 21.5 40.1164C21.4767 40.0843 21.5206 40.0523 21.5496 40.0668C21.5588 40.0713 21.5679 40.0759 21.5771 40.0805C21.6259 40.0782 21.6736 40.1099 21.7164 40.1347C21.7824 40.1729 21.8301 40.2408 21.8763 40.3008C21.9743 40.4275 22.0537 40.5649 22.1159 40.7126C22.1774 40.8592 22.2163 41.0077 22.2342 41.1657C22.2457 41.2673 22.2602 41.3936 22.2312 41.4994C22.28 41.462 22.327 41.4219 22.3766 41.3849C22.7021 41.1425 23.0299 40.9066 23.3509 40.6626C23.3558 40.6443 23.36 40.626 23.365 40.6077C23.4157 40.4233 23.5703 40.358 23.7157 40.3782C23.9721 40.1714 24.2213 39.9549 24.4572 39.7202C25.0483 39.1312 25.5734 38.4769 26.0527 37.7947C26.9736 36.4843 28.4593 34.4482 27.3232 32.8655C27.3384 33.3557 26.9179 33.7405 26.5847 34.0447C25.7467 34.81 24.6709 35.4681 23.5535 35.7189C23.542 35.7216 23.5295 35.7216 23.5176 35.7231C22.9849 36.1071 22.4021 36.4179 21.8183 36.7278C21.2523 37.0286 20.6902 37.3443 20.1174 37.6356C19.5022 38.1753 18.7256 38.538 17.9891 38.8788C17.4578 39.1251 16.9243 39.3697 16.4263 39.6797C15.8749 40.0232 15.4322 40.466 15.0143 40.9604C14.5846 41.4685 14.1782 41.9945 13.6668 42.4247C13.2001 42.8175 12.6921 43.1561 12.1899 43.5008C11.1634 44.205 10.2391 44.9979 9.81089 46.2056C9.5678 46.8912 9.4869 47.602 9.38539 48.3173C9.33425 48.6785 9.28082 49.0388 9.22091 49.3988C9.16175 49.7542 9.1152 50.1187 8.97972 50.4542C8.93431 50.5665 8.78281 50.5493 8.77022 50.426C8.70382 49.7713 8.75724 49.0648 8.79311 48.4074C8.82784 47.7722 8.92019 47.129 9.08009 46.5129C9.24037 45.8961 9.48957 45.2933 9.87196 44.7795C10.241 44.2837 10.6955 43.879 11.187 43.5084C11.6747 43.1408 12.1869 42.8075 12.6796 42.4472C13.2089 42.0597 13.6836 41.6204 14.1221 41.1322C14.5804 40.6222 15.0162 40.0923 15.5577 39.6663C15.7959 39.4793 16.0447 39.311 16.3019 39.1556C16.3286 38.9216 16.3698 38.6903 16.3916 38.454C16.4217 38.1242 16.4221 37.794 16.3996 37.4638C16.3626 36.924 16.295 36.2831 15.9127 35.8632C15.8218 35.7636 15.7196 35.696 15.6112 35.6533C15.5761 35.9888 15.2879 36.3675 15.117 36.5793C14.7166 37.0748 14.1938 37.4703 13.6077 37.7188C13.531 37.7512 13.4455 37.7516 13.3707 37.7276C13.2203 38.0368 13.07 38.3456 12.8887 38.6384C12.641 39.0384 12.3582 39.4148 12.0785 39.7927C10.8981 41.3856 10.128 43.2286 9.40638 45.0635C8.9969 46.1049 8.65802 47.1752 8.09818 48.1471C8.05582 48.2208 7.915 48.1952 7.92683 48.1005C8.09818 46.7359 8.67481 45.443 9.19687 44.1791C9.71358 42.9274 10.2124 41.6376 10.9374 40.4889C11.2813 39.9438 11.682 39.4369 12.0483 38.9071C12.4159 38.3761 12.7078 37.8134 12.9974 37.2378C13.202 36.8317 13.4249 36.427 13.7141 36.0755C13.8523 35.848 14.021 35.6414 14.2381 35.4742C14.4396 35.3189 14.6743 35.2078 14.917 35.1536C14.9372 34.9902 14.9643 34.8265 14.9792 34.6631C15.009 34.3352 14.9994 34.0061 14.9594 33.6798C14.875 32.9976 14.6338 32.3391 14.2408 31.7738C14.0534 31.5047 13.8088 31.1913 13.4855 31.0844C13.4447 31.0711 13.4039 31.0619 13.3634 31.0569C13.4012 31.1291 13.4043 31.2157 13.3428 31.3012C12.9978 31.7795 12.6563 32.2605 12.3155 32.7419C12.0739 33.0831 11.8148 33.5374 11.3584 33.5645C11.2557 33.7027 11.1515 33.8397 11.0447 33.9756C10.6115 34.5268 10.1654 35.0669 9.7216 35.6094C9.48537 35.898 9.24876 36.1869 9.01254 36.4755C8.92515 36.5824 8.83738 36.6893 8.74999 36.7962C8.87669 37.2054 8.91141 37.6508 8.87821 38.0543C8.78204 39.219 8.2928 40.35 7.90088 41.4394C7.67152 42.0762 7.44293 42.7133 7.2132 43.35C6.98002 43.9955 6.77509 44.6639 6.4488 45.2685C6.3866 45.3838 6.22937 45.2998 6.2496 45.1845C6.34004 44.6662 6.5194 44.176 6.68197 43.6763C6.84416 43.1782 7.01017 42.6816 7.17503 42.1846C7.49483 41.2222 7.85165 40.2679 8.14054 39.2961C8.33517 38.6414 8.48933 37.8867 8.34164 37.2019C8.3302 37.2096 8.31914 37.2172 8.31036 37.2264C8.11192 37.4386 7.79364 37.1195 7.9917 36.9076C7.9482 36.9542 8.05658 36.7148 8.03598 36.7496C8.06116 36.7076 8.09398 36.6667 8.12794 36.6267C8.11497 36.6034 8.10352 36.5793 8.08978 36.5564C7.88981 36.2243 7.56658 35.9575 7.16473 35.9461C6.75868 35.935 6.37745 36.1686 6.09924 36.4465C6.09428 36.4515 6.09046 36.4576 6.0855 36.4625C6.1935 36.4198 6.31523 36.4014 6.45376 36.4182C6.63274 36.4396 6.78883 36.5851 6.73082 36.782C6.44995 37.7371 6.01223 38.6326 5.41041 39.427C5.35279 39.503 5.26654 39.5465 5.17953 39.556C5.07687 39.7705 4.97192 39.9839 4.86316 40.1946C4.2125 41.4578 3.4668 42.6705 2.86651 43.9596C2.25706 45.2681 1.74989 46.6309 1.36369 48.0223C1.01412 49.2812 0.728287 50.576 0.695847 51.8868C0.679058 52.5686 0.722557 53.2595 0.890469 53.9222C1.06372 54.6055 1.39537 55.2197 1.68196 55.8587C1.72242 55.9492 1.69875 56.0377 1.64647 56.0973C1.79988 56.4053 1.94795 56.7153 2.08267 57.0321C2.42994 57.8478 2.72569 58.6773 2.96077 59.5324C3.19432 60.3825 3.36263 61.2433 3.51947 62.1098C3.59351 62.5194 3.67556 62.9278 3.78928 63.3286C3.90606 63.7405 4.15372 64.1463 4.22089 64.5662C4.24188 64.6979 4.09649 64.8758 3.95757 64.7685C3.63319 64.5181 3.48436 64.099 3.35346 63.7233C3.21684 63.3313 3.12335 62.9255 3.04168 62.519C2.86575 61.6449 2.71883 60.7688 2.49253 59.905C2.26241 59.0278 1.9884 58.1559 1.67624 57.3047C1.52549 56.8943 1.36903 56.4855 1.20188 56.0816C1.16448 55.9915 1.12402 55.9007 1.08281 55.8098C0.360397 54.9154 0.166153 53.5664 0.131809 52.4655C0.089447 51.1032 0.331776 49.7408 0.663025 48.4246V48.4273ZM19.8548 66.6508C19.8789 66.689 19.9018 66.7275 19.9277 66.7649C20.5646 67.6788 21.6343 68.1949 22.6105 68.6609C23.5501 69.1095 24.4606 69.5568 25.2918 70.1718C25.2872 70.1539 25.2819 70.1352 25.2777 70.1184C25.1754 69.7259 25.1315 69.3164 25.0876 68.914C24.9876 67.996 24.7205 67.1986 24.271 66.392C23.8951 65.7178 23.497 64.9158 22.8074 64.512C22.4109 64.2795 21.9461 64.2349 21.4958 64.2196C21.0504 64.2043 20.641 64.2463 20.3147 64.5776C20.0201 64.8769 19.8628 65.2949 19.8212 65.7079C19.7888 66.0286 19.8193 66.3397 19.8548 66.6512V66.6508ZM25.8581 33.9783C26.0249 33.8466 26.1852 33.7061 26.3393 33.5595C26.5069 33.3996 26.7462 33.2053 26.7969 32.9678C26.8305 32.8098 26.7542 32.6296 26.5767 32.7098C26.3699 32.8029 26.1791 33.0152 26.0161 33.1702C25.499 33.6611 25.0624 34.2268 24.5846 34.7539C25.0311 34.5436 25.457 34.2951 25.8585 33.9786L25.8581 33.9783ZM14.153 36.3957C14.0652 36.5526 13.9927 36.7198 13.9328 36.8923C14.0946 36.7847 14.2492 36.666 14.3919 36.5316C14.5487 36.3839 14.6941 36.2232 14.8208 36.0487C14.8453 36.0151 14.9494 35.8537 15.0155 35.7418C14.6678 35.8773 14.3877 36.1121 14.1534 36.3953L14.153 36.3957Z" fill="black"/>
<path d="M21.8705 104.994C21.8701 104.985 21.8705 104.978 21.8682 104.964C21.8598 104.913 21.8698 104.843 21.8701 104.789C21.872 104.642 21.8732 104.496 21.8698 104.35C21.8621 104.025 21.8892 103.705 21.919 103.382C21.9747 102.779 22.0384 102.177 22.1125 101.576C22.2628 100.359 22.4525 99.1454 22.7093 97.9449C23.2077 95.6149 23.9584 93.3157 25.1155 91.225C25.2845 90.9196 25.4582 90.6158 25.6493 90.3238C25.8096 90.0791 25.9779 89.7688 26.197 89.5718C26.3199 89.4615 26.5393 89.429 26.669 89.5531C26.7732 89.6531 26.7324 89.781 26.6015 89.8249C26.563 89.8378 26.532 89.8291 26.5095 89.81C26.4843 89.8253 26.4656 89.8474 26.4592 89.884C26.4176 89.9436 26.3939 90.0161 26.3607 90.0806C26.2943 90.2104 26.2176 90.3352 26.147 90.4631C25.9924 90.7437 25.8367 91.0239 25.6894 91.3086C25.4013 91.8663 25.1338 92.4362 24.8956 93.0168C24.4316 94.1483 24.0641 95.3175 23.7592 96.5012C23.4432 97.7266 23.2073 98.9717 23.0219 100.223C22.8402 101.449 22.7513 102.68 22.6155 103.91C22.5765 104.263 22.5136 104.613 22.4659 104.964C22.4334 105.203 22.3105 105.489 22.0205 105.46C21.6644 105.424 21.7297 105.126 21.8705 104.994Z" fill="black"/>
<path d="M4.37883 64.6177C4.39333 64.6001 4.42958 64.5994 4.44408 64.6177C4.63375 64.8574 4.66505 65.1071 4.7055 65.4056C4.75053 65.7384 4.78029 66.0717 4.83639 66.4034C4.94935 67.0699 5.10391 67.7261 5.29815 68.3735C5.68359 69.6576 6.20146 70.8936 6.69604 72.138C7.74283 74.7708 8.50531 77.4841 9.0308 80.268C9.32618 81.8319 9.56546 83.4104 9.61469 85.0025C9.6185 85.1193 9.43799 85.1449 9.41013 85.03C9.07087 83.6318 8.84991 82.2121 8.574 80.8005C8.30076 79.4023 8.00195 78.0101 7.62491 76.6355C7.25245 75.2781 6.81053 73.9444 6.29916 72.6328C5.80114 71.3559 5.26534 70.0916 4.83907 68.788C4.61048 68.0891 4.4105 67.3749 4.28685 66.6492C4.22656 66.2942 4.17848 65.9312 4.16054 65.5713C4.14337 65.2277 4.15367 64.8903 4.37883 64.6173V64.6177Z" fill="black"/>
<path d="M0.794251 105.884C0.998038 105.169 1.27661 104.501 1.6632 103.866C2.05131 103.229 2.46194 102.607 2.86989 101.982C3.66863 100.76 4.47347 99.5195 5.03216 98.1644C5.59162 96.8074 5.81831 95.3687 5.98279 93.9185C6.14345 92.5015 6.24153 91.0411 6.67734 89.6749C6.91395 88.9339 7.23985 88.2159 7.69017 87.5796C8.2023 86.8554 8.86518 86.2561 9.40327 85.5522C9.49905 85.4267 9.6994 85.532 9.62079 85.6794C9.25519 86.3626 8.72437 86.9368 8.27443 87.5635C7.86381 88.1361 7.55316 88.7687 7.33487 89.4378C6.88914 90.8051 6.75519 92.2431 6.61589 93.6669C6.47584 95.0988 6.31594 96.5394 5.83014 97.9022C5.33785 99.2836 4.59559 100.554 3.81364 101.788C3.36867 102.49 2.90997 103.184 2.47339 103.892C2.02842 104.612 1.56169 105.307 1.0816 106.004C0.984673 106.145 0.742351 106.063 0.79387 105.883L0.794251 105.884Z" fill="black"/>
<path d="M16.0058 84.5937C17.2823 83.7314 18.9695 83.5382 20.4696 83.7348C21.2279 83.8341 21.9591 84.044 22.6544 84.3624C23.028 84.5334 23.386 84.7399 23.7718 84.8838C23.9817 84.9621 24.2026 85.0243 24.427 85.0396C24.5404 85.0472 24.6667 85.0552 24.7694 84.9934C24.8121 84.9674 24.7957 84.8792 24.8064 84.9346C24.7999 84.9018 24.8205 84.8712 24.8556 84.8701C24.8972 84.8689 24.9182 84.8735 24.9548 84.8911C24.9964 84.9113 25.0212 84.9731 25.006 85.017C24.9086 85.2991 24.5923 85.298 24.3396 85.2793C23.9557 85.2507 23.5932 85.1205 23.2413 84.9712C22.4686 84.643 21.7255 84.3399 20.894 84.191C19.2374 83.8948 17.6399 84.2238 16.0619 84.7266C15.9798 84.7525 15.9401 84.638 16.0058 84.5937Z" fill="black"/>
<path d="M9.8862 64.5624C10.0331 64.402 10.1339 64.2551 10.3075 64.1184C10.4346 64.0188 10.5682 63.9295 10.7044 63.8432C11.0162 63.6455 11.3459 63.4794 11.6844 63.3328C12.1507 63.1313 12.6285 62.9992 13.1113 62.8713C13.0189 62.4701 12.9273 62.0689 12.8232 61.6735C12.6079 60.8547 12.332 60.0412 11.9073 59.3056C11.4882 58.5804 10.8872 57.9784 10.1865 57.5211C10.1113 57.4718 10.1571 57.3417 10.2499 57.3707C11.6794 57.8135 12.448 59.3213 12.8987 60.6478C13.1353 61.3437 13.2971 62.0617 13.4643 62.7778C13.5532 62.7538 13.6425 62.7297 13.7318 62.7045C14.0714 62.6091 14.4046 62.4904 14.7023 62.2976C15.0305 62.085 15.2747 61.7826 15.4983 61.467C15.6414 61.265 16.2146 60.2134 16.5253 60.8413C16.5543 60.8997 16.4738 60.9478 16.4375 60.8925C16.2562 60.6165 15.8422 61.4666 15.7742 61.5777C15.6101 61.8445 15.4216 62.1037 15.1949 62.3213C14.7622 62.7366 14.197 62.9511 13.6299 63.1133C13.6032 63.121 13.5765 63.1282 13.5498 63.1355C13.7265 63.8734 13.9219 64.6055 14.2264 65.3048C14.5473 66.0423 14.9954 66.7256 15.6285 67.2318C16.015 67.5413 16.4486 67.7868 16.8401 68.0903C17.1901 68.3617 17.5064 68.6724 17.7953 69.0079C18.3914 69.7015 18.8757 70.481 19.3436 71.2639C19.8324 72.0816 20.3018 72.911 20.7334 73.7608C21.2116 74.7029 21.6371 75.669 21.9806 76.6687C22.3282 77.6807 22.545 78.6949 22.6576 79.7569C22.6606 79.784 22.616 79.7897 22.6099 79.7634C22.208 77.9349 21.5135 76.1557 20.6861 74.4807C20.2709 73.6401 19.8145 72.821 19.3355 72.0151C18.873 71.2372 18.409 70.4489 17.8739 69.7179C17.6095 69.3568 17.319 69.0125 16.9951 68.7029C16.6504 68.3735 16.2623 68.1151 15.8685 67.8494C15.1942 67.3944 14.6416 66.847 14.2302 66.1412C13.7043 65.2388 13.4334 64.2406 13.1956 63.2332C12.706 63.3676 12.219 63.5027 11.75 63.7065C11.4524 63.8359 11.1623 63.9844 10.8784 64.1413C10.7235 64.2268 10.5724 64.3192 10.4182 64.4055C10.2613 64.4933 10.0923 64.5429 9.93542 64.6265C9.89382 64.6486 9.85376 64.5967 9.88543 64.5616L9.8862 64.5624Z" fill="black"/>
<path d="M5.76511 49.924C5.75672 49.511 5.89143 49.1285 6.04866 48.7525C6.23489 48.3067 6.39975 47.862 6.47875 47.3829C6.5192 47.1382 6.54018 46.8912 6.54095 46.6431C6.54171 46.4198 6.46997 46.148 6.54782 45.9369C6.56232 45.898 6.61689 45.8724 6.64895 45.9102C6.85083 46.148 6.83098 46.6252 6.83556 46.9206C6.84128 47.3065 6.79892 47.6932 6.71191 48.0692C6.61689 48.48 6.43256 48.856 6.30968 49.2575C6.19214 49.6412 6.19023 50.008 6.3009 50.3924C6.49706 51.0742 6.91341 51.6693 7.11453 52.3503C7.35228 53.1553 7.12254 53.9592 7.20802 54.7738C7.24962 55.1693 7.40303 55.5491 7.63887 55.869C7.81328 56.1057 8.28534 56.3977 8.27924 56.7157C8.27847 56.7592 8.25596 56.8031 8.21704 56.8244C7.93616 56.9775 7.59003 56.6783 7.40494 56.4889C7.1546 56.2328 6.96149 55.9171 6.82716 55.5865C6.50469 54.791 6.69131 53.9825 6.68864 53.1549C6.68597 52.3594 6.27648 51.6845 5.9979 50.9631C5.86967 50.631 5.7735 50.2821 5.76587 49.9236L5.76511 49.924Z" fill="black"/>
<path d="M37.5633 99.7562C37.6304 99.9092 37.7209 100.047 37.7915 100.199C37.8628 100.352 37.9243 100.509 37.9915 100.664C38.1277 100.976 38.2624 101.288 38.4089 101.596C38.6967 102.202 39.0974 102.752 39.3481 103.373C39.3878 103.471 39.2512 103.522 39.1863 103.467C38.6643 103.023 38.3315 102.347 38.0434 101.736C37.901 101.434 37.769 101.118 37.6713 100.799C37.6182 100.625 37.5671 100.451 37.5362 100.272C37.5076 100.108 37.5102 99.9413 37.4911 99.7756C37.4869 99.7382 37.5484 99.7214 37.5633 99.7562Z" fill="black"/>
</g>
<defs>
<clipPath id="clip0_1261_8678">
<rect width="94.0081" height="108" fill="white" transform="matrix(-1 0 0 1 94.135 0.636597)"/>
</clipPath>
</defs>
</svg>
