<svg width="87" height="108" viewBox="0 0 87 108" fill="none" xmlns="http://www.w3.org/2000/svg">
<mask id="mask0_1261_11527" style="mask-type:luminance" maskUnits="userSpaceOnUse" x="1" y="24" width="85" height="82">
<path d="M43.3819 106C66.5784 106 85.3828 87.8002 85.3828 65.3496C85.3828 42.899 66.5784 24.6992 43.3819 24.6992C20.1853 24.6992 1.38086 42.899 1.38086 65.3496C1.38086 87.8002 20.1853 106 43.3819 106Z" fill="white"/>
</mask>
<g mask="url(#mask0_1261_11527)">
<path d="M71.321 50.4932C72.0046 49.8882 72.8361 49.3895 73.7905 49.0353C76.6407 47.9798 79.9153 45.7101 82.8343 47.7305C84.973 49.211 87.4644 52.1877 87.0648 54.9334C86.7881 56.8376 85.276 58.3068 83.8487 59.623C80.5375 62.6747 73.6793 62.7668 70.7091 59.0888C68.3172 56.1263 68.8852 52.6467 71.3196 50.4946L71.321 50.4932Z" fill="#FFE9DD" stroke="black" stroke-width="0.976287" stroke-miterlimit="10"/>
<path d="M76.0901 53.6073C76.7737 53.0023 77.6052 52.5036 78.5596 52.1494C81.4097 51.0939 84.6844 48.8242 87.6033 50.8445C89.742 52.3251 92.2335 55.3018 91.8338 58.0475C91.5572 59.9516 90.045 61.4208 88.6177 62.737C85.3065 65.7888 78.4483 65.8809 75.4782 62.2029C73.0862 59.2404 73.6542 55.7608 76.0886 53.6087L76.0901 53.6073Z" fill="#FFE9DD" stroke="black" stroke-width="0.976287" stroke-miterlimit="10"/>
<path d="M81.3938 57.9738C82.0774 57.3688 82.9089 56.8701 83.8633 56.5159C86.7134 55.4604 89.9881 53.1907 92.907 55.2111C95.0457 56.6916 97.5372 59.6683 97.1376 62.414C96.8609 64.3182 95.3487 65.7874 93.9215 67.1036C90.6102 70.1553 83.752 70.2474 80.7819 66.5694C78.3899 63.6069 78.9579 60.1273 81.3923 57.9752L81.3938 57.9738Z" fill="#FFE9DD" stroke="black" stroke-width="0.976287" stroke-miterlimit="10"/>
<path d="M86.2331 62.295C86.9167 61.69 87.7482 61.1913 88.7027 60.8371C91.5528 59.7816 94.8274 57.5119 97.7464 59.5323C99.8851 61.0128 102.377 63.9895 101.977 66.7352C101.7 68.6394 100.188 70.1086 98.7608 71.4248C95.4496 74.4765 88.5914 74.5686 85.6212 70.8907C83.2293 67.9282 83.7973 64.4485 86.2317 62.2964L86.2331 62.295Z" fill="#FFE9DD" stroke="black" stroke-width="0.976287" stroke-miterlimit="10"/>
<path d="M62.1396 50.9905C62.8862 50.3303 63.7952 49.7834 64.8375 49.398C67.9511 48.2447 71.5288 45.7654 74.7171 47.9727C77.0534 49.5907 79.7747 52.8422 79.3399 55.8401C79.0384 57.92 77.3857 59.5252 75.8267 60.9618C72.2095 64.2955 64.7175 64.3961 61.4721 60.3781C58.8591 57.1422 59.4798 53.3395 62.1396 50.9891V50.9905Z" fill="#FFE9DD" stroke="black" stroke-width="1.06633" stroke-miterlimit="10"/>
<path d="M67.3496 54.3921C68.0961 53.7319 69.0052 53.185 70.0475 52.7997C73.1611 51.6464 76.7388 49.167 79.927 51.3744C82.2634 52.9924 84.9847 56.2439 84.5499 59.2418C84.2484 61.3216 82.5957 62.9269 81.0366 64.3635C77.4195 67.6972 69.9274 67.7978 66.6821 63.7798C64.0691 60.5438 64.6898 56.7412 67.3496 54.3907V54.3921Z" fill="#FFE9DD" stroke="black" stroke-width="1.06633" stroke-miterlimit="10"/>
<path d="M73.145 59.1625C73.8916 58.5023 74.8006 57.9554 75.8429 57.57C78.9565 56.4167 82.5342 53.9374 85.7225 56.1447C88.0588 57.7627 90.7801 61.0142 90.3453 64.0121C90.0438 66.092 88.3911 67.6972 86.8321 69.1338C83.2149 72.4675 75.7228 72.5681 72.4775 68.5501C69.8645 65.3142 70.4852 61.5115 73.145 59.1611V59.1625Z" fill="#FFE9DD" stroke="black" stroke-width="1.06633" stroke-miterlimit="10"/>
<path d="M78.4311 63.8832C79.1777 63.223 80.0867 62.6761 81.129 62.2908C84.2426 61.1375 87.8203 58.6581 91.0086 60.8655C93.3449 62.4835 96.0662 65.735 95.6314 68.7329C95.3299 70.8127 93.6772 72.418 92.1182 73.8546C88.501 77.1883 81.009 77.2889 77.7636 73.2709C75.1506 70.0349 75.7713 66.2323 78.4311 63.8818V63.8832Z" fill="#FFE9DD" stroke="black" stroke-width="1.06633" stroke-miterlimit="10"/>
<path d="M84.5044 70.1851C85.2509 69.5248 86.16 68.978 87.2023 68.5926C90.3159 67.4393 93.8935 64.96 97.0818 67.1673C99.4181 68.7853 102.139 72.0368 101.705 75.0347C101.403 77.1146 99.7504 78.7198 98.1914 80.1564C94.5742 83.4901 87.0822 83.5907 83.8368 79.5727C81.2239 76.3367 81.8445 72.5341 84.5044 70.1836V70.1851Z" fill="#FFE9DD" stroke="black" stroke-width="1.06633" stroke-miterlimit="10"/>
<path d="M52.4925 52.1806C53.3093 51.4594 54.3003 50.863 55.4407 50.4408C58.8412 49.1798 62.7497 46.4723 66.2337 48.8837C68.7866 50.6504 71.7583 54.2037 71.2825 57.4793C70.9532 59.7519 69.1482 61.5059 67.4443 63.0757C63.4933 66.7168 55.3074 66.8273 51.7635 62.4381C48.9104 58.9032 49.5882 54.7492 52.4925 52.182V52.1806Z" fill="#FFE9DD" stroke="black" stroke-width="1.16586" stroke-miterlimit="10"/>
<path d="M58.1843 55.8954C59.0012 55.1743 59.9922 54.5778 61.1326 54.1556C64.5331 52.8961 68.4416 50.1872 71.9256 52.5985C74.4785 54.3653 77.4502 57.9186 76.9744 61.1942C76.6451 63.4667 74.8401 65.2207 73.1362 66.7905C69.1852 70.4316 60.9993 70.5421 57.4553 66.1529C54.6023 62.6181 55.2801 58.464 58.1843 55.8968V55.8954Z" fill="#FFE9DD" stroke="black" stroke-width="1.16586" stroke-miterlimit="10"/>
<path d="M64.5139 61.1064C65.3308 60.3852 66.3218 59.7887 67.4621 59.3665C70.8627 58.1056 74.7712 55.3981 78.2552 57.8095C80.8081 59.5762 83.7798 63.1295 83.304 66.4051C82.9746 68.6777 81.1697 70.4316 79.4658 72.0014C75.5148 75.6426 67.3289 75.7531 63.7849 71.3639C60.9319 67.829 61.6096 63.675 64.5139 61.1078V61.1064Z" fill="#FFE9DD" stroke="black" stroke-width="1.16586" stroke-miterlimit="10"/>
<path d="M70.2903 66.2634C71.1071 65.5423 72.0982 64.9458 73.2385 64.5236C76.6391 63.2641 80.5476 60.5552 84.0315 62.9666C86.5845 64.7333 89.5561 68.2866 89.0804 71.5622C88.751 73.8347 86.9461 75.5887 85.2421 77.1585C81.2912 80.7997 73.1053 80.9102 69.5613 76.521C66.7082 72.9861 67.386 68.8321 70.2903 66.2649V66.2634Z" fill="#FFE9DD" stroke="black" stroke-width="1.16586" stroke-miterlimit="10"/>
<path d="M76.9246 73.149C77.7414 72.4279 78.7324 71.8314 79.8728 71.4092C83.2733 70.1483 87.1818 67.4408 90.6658 69.8522C93.2188 71.6189 96.1904 75.1722 95.7147 78.4478C95.3853 80.7203 93.5803 82.4743 91.8764 84.0441C87.9255 87.6852 79.7396 87.7957 76.1956 83.4065C73.3425 79.8717 74.0203 75.7176 76.9246 73.1504V73.149Z" fill="#FFE9DD" stroke="black" stroke-width="1.16586" stroke-miterlimit="10"/>
<path d="M85.9109 80.539C86.7277 79.8178 87.7188 79.2213 88.8591 78.7991C92.2597 77.5396 96.1682 74.8307 99.6521 77.2421C102.205 79.0088 105.177 82.5621 104.701 85.8377C104.372 88.1103 102.567 89.8642 100.863 91.434C96.9118 95.0752 88.7259 95.1857 85.1819 90.7965C82.3289 87.2616 83.0066 83.1076 85.9109 80.5404V80.539Z" fill="#FFE9DD" stroke="black" stroke-width="1.16586" stroke-miterlimit="10"/>
<path d="M39.8392 53.9997C40.7307 53.212 41.8139 52.5602 43.0582 52.0998C46.772 50.7241 51.0406 47.7658 54.8467 50.3996C57.6338 52.3293 60.8807 56.2099 60.361 59.7873C60.0009 62.2695 58.0291 64.185 56.17 65.8993C51.8545 69.8762 42.9148 69.9966 39.0443 65.2022C35.9278 61.3415 36.6685 56.8049 39.8407 54.0011L39.8392 53.9997Z" fill="#FFE9DD" stroke="black" stroke-width="1.27486" stroke-miterlimit="10"/>
<path d="M46.056 58.0574C46.9475 57.2696 48.0307 56.6179 49.275 56.1575C52.9888 54.7818 57.2574 51.8235 61.0635 54.4573C63.8506 56.387 67.0975 60.2676 66.5778 63.8449C66.2177 66.3271 64.2459 68.2426 62.3868 69.957C58.0713 73.9339 49.1316 74.0543 45.2611 69.2599C42.1446 65.3992 42.8853 60.8626 46.0575 58.0588L46.056 58.0574Z" fill="#FFE9DD" stroke="black" stroke-width="1.27486" stroke-miterlimit="10"/>
<path d="M52.9686 63.7487C53.8601 62.9609 54.9433 62.3092 56.1876 61.8487C59.9014 60.473 64.17 57.5148 67.9761 60.1486C70.7632 62.0783 74.0101 65.9588 73.4904 69.5362C73.1303 72.0184 71.1585 73.9339 69.2994 75.6482C64.9839 79.6252 56.0442 79.7456 52.1737 74.9512C49.0572 71.0904 49.7979 66.5539 52.9701 63.7501L52.9686 63.7487Z" fill="#FFE9DD" stroke="black" stroke-width="1.27486" stroke-miterlimit="10"/>
<path d="M59.2762 69.3804C60.1677 68.5926 61.2509 67.9409 62.4952 67.4805C66.209 66.1048 70.4776 63.1465 74.2837 65.7803C77.0709 67.71 80.3177 71.5906 79.798 75.1679C79.4379 77.6501 77.4661 79.5656 75.607 81.2799C71.2916 85.2569 62.3518 85.3773 58.4813 80.5829C55.3648 76.7222 56.1055 72.1856 59.2777 69.3818L59.2762 69.3804Z" fill="#FFE9DD" stroke="black" stroke-width="1.27486" stroke-miterlimit="10"/>
<path d="M66.5223 76.9006C67.4138 76.1129 68.4971 75.4612 69.7413 75.0007C73.4551 73.625 77.7237 70.6668 81.5298 73.3006C84.317 75.2302 87.5638 79.1108 87.0441 82.6882C86.684 85.1704 84.7122 87.0859 82.8531 88.8002C78.5377 92.7771 69.5979 92.8976 65.7274 88.1032C62.6109 84.2424 63.3516 79.7059 66.5238 76.9021L66.5223 76.9006Z" fill="#FFE9DD" stroke="black" stroke-width="1.27486" stroke-miterlimit="10"/>
<path d="M76.3363 84.972C77.2278 84.1843 78.311 83.5326 79.5553 83.0721C83.2691 81.6964 87.5377 78.7382 91.3437 81.372C94.1309 83.3017 97.3778 87.1822 96.8581 90.7596C96.498 93.2418 94.5262 95.1573 92.6671 96.8716C88.3516 100.849 79.4118 100.969 75.5414 96.1746C72.4248 92.3138 73.1656 87.7773 76.3377 84.9735L76.3363 84.972Z" fill="#FFE9DD" stroke="black" stroke-width="1.27486" stroke-miterlimit="10"/>
<path d="M24.4089 57.3617C25.3531 56.5272 26.5007 55.8373 27.8182 55.3485C31.7516 53.8906 36.2735 50.7581 40.3035 53.5477C43.2561 55.5922 46.6947 59.7008 46.1442 63.4893C45.7622 66.1175 43.6747 68.1463 41.7044 69.9626C37.1342 74.1747 27.666 74.3022 23.5657 69.2245C20.2647 65.1356 21.0493 60.3313 24.4089 57.3603V57.3617Z" fill="#FFE9DD" stroke="black" stroke-width="1.35069" stroke-miterlimit="10"/>
<path d="M30.9934 61.6603C31.9376 60.8258 33.0852 60.1358 34.4027 59.647C38.3361 58.1891 42.8579 55.0566 46.8879 57.8463C49.8405 59.8907 53.2791 63.9994 52.7287 67.7879C52.3466 70.416 50.2592 72.4448 48.2888 74.2611C43.7187 78.4733 34.2504 78.6008 30.1502 73.523C26.8492 69.4342 27.6338 64.6298 30.9934 61.6588V61.6603Z" fill="#FFE9DD" stroke="black" stroke-width="1.35069" stroke-miterlimit="10"/>
<path d="M38.3137 67.6873C39.2579 66.8528 40.4055 66.1628 41.723 65.674C45.6564 64.2162 50.1782 61.0837 54.2082 63.8733C57.1608 65.9177 60.5994 70.0264 60.049 73.8149C59.667 76.443 57.5795 78.4719 55.6092 80.2882C51.039 84.5003 41.5708 84.6278 37.4705 79.55C34.1695 75.4612 34.9541 70.6569 38.3137 67.6859V67.6873Z" fill="#FFE9DD" stroke="black" stroke-width="1.35069" stroke-miterlimit="10"/>
<path d="M44.9948 73.652C45.939 72.8175 47.0867 72.1275 48.4042 71.6387C52.3375 70.1808 56.8594 67.0483 60.8894 69.838C63.842 71.8824 67.2806 75.9911 66.7302 79.7796C66.3481 82.4077 64.2607 84.4365 62.2903 86.2528C57.7201 90.465 48.2519 90.5925 44.1516 85.5147C40.8507 81.4259 41.6353 76.6215 44.9948 73.6505V73.652Z" fill="#FFE9DD" stroke="black" stroke-width="1.35069" stroke-miterlimit="10"/>
<path d="M52.6701 81.6157C53.6143 80.7812 54.762 80.0912 56.0794 79.6025C60.0128 78.1446 64.5347 75.0121 68.5647 77.8017C71.5173 79.8461 74.9559 83.9548 74.4055 87.7433C74.0234 90.3714 71.9359 92.4003 69.9656 94.2166C65.3954 98.4287 55.9272 98.5562 51.8269 93.4784C48.5259 89.3896 49.3106 84.5853 52.6701 81.6143V81.6157Z" fill="#FFE9DD" stroke="black" stroke-width="1.35069" stroke-miterlimit="10"/>
<path d="M63.0632 90.166C64.0074 89.3315 65.155 88.6415 66.4725 88.1527C70.4059 86.6949 74.9277 83.5624 78.9577 86.352C81.9103 88.3964 85.349 92.5051 84.7985 96.2936C84.4165 98.9217 82.329 100.951 80.3587 102.767C75.7885 106.979 66.3203 107.107 62.22 102.029C58.919 97.9399 59.7036 93.1356 63.0632 90.1646V90.166Z" fill="#FFE9DD" stroke="black" stroke-width="1.35069" stroke-miterlimit="10"/>
<path d="M8.58858 62.0159C9.53277 61.1814 10.6804 60.4914 11.9979 60.0027C15.9313 58.5448 20.4531 55.4123 24.4831 58.2019C27.4357 60.2463 30.8743 64.355 30.3239 68.1435C29.9419 70.7716 27.8544 72.8005 25.8841 74.6168C21.3139 78.8289 11.8457 78.9564 7.7454 73.8787C4.4444 69.7898 5.22903 64.9855 8.58858 62.0145V62.0159Z" fill="#FFE9DD" stroke="black" stroke-width="1.35069" stroke-miterlimit="10"/>
<path d="M15.1731 66.3144C16.1172 65.4799 17.2649 64.79 18.5824 64.3012C22.5158 62.8433 27.0376 59.7108 31.0676 62.5004C34.0202 64.5449 37.4588 68.6535 36.9084 72.442C36.5263 75.0702 34.4389 77.099 32.4685 78.9153C27.8984 83.1274 18.4301 83.2549 14.3299 78.1772C11.0289 74.0883 11.8135 69.284 15.1731 66.313V66.3144Z" fill="#FFE9DD" stroke="black" stroke-width="1.35069" stroke-miterlimit="10"/>
<path d="M22.4939 72.3414C23.438 71.5069 24.5857 70.8169 25.9032 70.3282C29.8366 68.8703 34.3584 65.7378 38.3884 68.5274C41.341 70.5718 44.7796 74.6805 44.2292 78.469C43.8471 81.0971 41.7597 83.126 39.7893 84.9423C35.2192 89.1544 25.7509 89.2819 21.6507 84.2042C18.3497 80.1153 19.1343 75.311 22.4939 72.34V72.3414Z" fill="#FFE9DD" stroke="black" stroke-width="1.35069" stroke-miterlimit="10"/>
<path d="M29.175 78.3061C30.1192 77.4716 31.2669 76.7816 32.5843 76.2928C36.5177 74.8349 41.0396 71.7024 45.0696 74.4921C48.0222 76.5365 51.4608 80.6452 50.9104 84.4337C50.5283 87.0618 48.4408 89.0906 46.4705 90.907C41.9003 95.1191 32.4321 95.2466 28.3318 90.1688C25.0308 86.08 25.8155 81.2756 29.175 78.3047V78.3061Z" fill="#FFE9DD" stroke="black" stroke-width="1.35069" stroke-miterlimit="10"/>
<path d="M36.8503 86.2698C37.7945 85.4353 38.9422 84.7454 40.2596 84.2566C44.193 82.7987 48.7149 79.6662 52.7449 82.4558C55.6975 84.5002 59.1361 88.6089 58.5857 92.3974C58.2036 95.0256 56.1161 97.0544 54.1458 98.8707C49.5756 103.083 40.1074 103.21 36.0071 98.1326C32.7061 94.0437 33.4907 89.2394 36.8503 86.2684V86.2698Z" fill="#FFE9DD" stroke="black" stroke-width="1.35069" stroke-miterlimit="10"/>
<path d="M47.2434 94.8202C48.1876 93.9857 49.3352 93.2957 50.6527 92.8069C54.5861 91.349 59.1079 88.2165 63.1379 91.0062C66.0905 93.0506 69.5291 97.1593 68.9787 100.948C68.5967 103.576 66.5092 105.605 64.5388 107.421C59.9687 111.633 50.5004 111.761 46.4002 106.683C43.0992 102.594 43.8838 97.7897 47.2434 94.8187V94.8202Z" fill="#FFE9DD" stroke="black" stroke-width="1.35069" stroke-miterlimit="10"/>
<path d="M-8.3936 67.3954C-7.42159 66.5354 -6.24026 65.8256 -4.88327 65.3227C-0.832772 63.8223 3.82083 60.5977 7.9694 63.4695C11.0098 65.5735 14.5494 69.8054 13.9829 73.7058C13.5906 76.4119 11.4402 78.5002 9.41277 80.3689C4.70646 84.7057 -5.0399 84.8375 -9.26166 79.6095C-12.6607 75.4003 -11.8527 70.4529 -8.3936 67.3954Z" fill="#FFE9DD" stroke="black" stroke-width="1.3886" stroke-miterlimit="10"/>
<path d="M-2.24516 72.1261C-1.27316 71.2661 -0.0918245 70.5563 1.26517 70.0533C5.31567 68.553 9.96927 65.3284 14.1178 68.2002C17.1583 70.3041 20.6979 74.536 20.1314 78.4365C19.7391 81.1425 17.5886 83.2309 15.5612 85.0996C10.8549 89.4364 1.10854 89.5681 -3.11323 84.3402C-6.5123 80.1309 -5.70425 75.1835 -2.24516 72.1261Z" fill="#FFE9DD" stroke="black" stroke-width="1.3886" stroke-miterlimit="10"/>
<path d="M4.34664 78.027C5.31864 77.167 6.49997 76.4572 7.85697 75.9542C11.9075 74.4538 16.5611 71.2292 20.7096 74.1011C23.7501 76.205 27.2897 80.4369 26.7232 84.3373C26.3308 87.0434 24.1804 89.1317 22.153 91.0005C17.4467 95.3372 7.70034 95.469 3.47857 90.2411C0.0794941 86.0318 0.887543 81.0844 4.34664 78.027Z" fill="#FFE9DD" stroke="black" stroke-width="1.3886" stroke-miterlimit="10"/>
<path d="M11.7553 85.3503C12.7273 84.4903 13.9087 83.7805 15.2657 83.2776C19.3162 81.7772 23.9698 78.5526 28.1183 81.4244C31.1588 83.5283 34.6984 87.7603 34.1319 91.6607C33.7395 94.3668 31.5906 96.4551 29.5617 98.3238C24.8554 102.661 15.109 102.792 10.8873 97.5644C7.48819 93.3552 8.29623 88.4077 11.7553 85.3503Z" fill="#FFE9DD" stroke="black" stroke-width="1.3886" stroke-miterlimit="10"/>
<path d="M20.4267 94.5056C21.3987 93.6456 22.58 92.9358 23.937 92.4329C27.9875 90.9325 32.6411 87.7079 36.7897 90.5797C39.8301 92.6836 43.3698 96.9156 42.8032 100.816C42.4109 103.522 40.2605 105.61 38.2331 107.479C33.5268 111.816 23.7804 111.948 19.5586 106.72C16.1596 102.51 16.9676 97.563 20.4267 94.5056Z" fill="#FFE9DD" stroke="black" stroke-width="1.3886" stroke-miterlimit="10"/>
<path d="M29.8261 104.27C30.7981 103.41 31.9795 102.7 33.3365 102.197C37.387 100.697 42.0406 97.4724 46.1891 100.344C49.2296 102.448 52.7692 106.68 52.2027 110.58C51.8103 113.287 49.6614 115.375 47.6325 117.244C42.9262 121.58 33.1798 121.712 28.9581 116.484C25.559 112.275 26.367 107.328 29.8261 104.27Z" fill="#FFE9DD" stroke="black" stroke-width="1.3886" stroke-miterlimit="10"/>
</g>
<path d="M43.3819 106C66.5784 106 85.3828 87.8002 85.3828 65.3496C85.3828 42.899 66.5784 24.6992 43.3819 24.6992C20.1853 24.6992 1.38086 42.899 1.38086 65.3496C1.38086 87.8002 20.1853 106 43.3819 106Z" stroke="black" stroke-width="2.08527" stroke-miterlimit="10"/>
<path d="M44.4497 57.1306C45.1638 64.4233 44.2146 71.6168 40.1423 77.9931C33.3392 88.6461 18.5021 88.1685 12.3302 76.8441C3.61226 60.8506 11.1961 42.2443 17.6246 27.4232C20.5578 20.6608 23.3451 13.7743 25.309 6.48001C25.7956 4.6704 26.2381 2.84373 26.6304 1C28.8822 10.3241 32.1297 19.1845 35.6652 27.862C39.183 36.4945 43.4502 46.9087 44.4497 57.1291V57.1306Z" fill="#FFE9DD" stroke="black" stroke-width="1.06633" stroke-linecap="round" stroke-linejoin="round"/>
<path d="M41.0124 49.7293C40.0896 41.9714 36.6761 34.1421 33.8623 27.6526C31.0334 21.1306 28.4208 14.4612 26.5601 7.41504C26.2897 8.82769 25.983 10.231 25.6397 11.6189C25.5681 11.9088 25.4939 12.1988 25.4185 12.4888C27.4678 18.3223 30.0037 23.8675 32.6955 29.2917C35.8098 35.5687 39.5854 43.1406 40.8716 50.8194C41.0463 51.8615 41.1746 52.9066 41.2488 53.9502C41.2651 52.5515 41.1796 51.1404 41.0124 49.7293Z" fill="black"/>
<path d="M29.1863 81.6C18.9458 81.524 11.3871 72.2216 11.9227 53.2974C11.9604 50.2891 12.4332 46.8855 13.1963 43.2972C11.8234 48.3849 10.8603 53.4168 10.8063 57.6299V57.6734C10.546 66.8346 12.6029 73.2869 16.1258 77.7621C18.7359 81.0774 22.0086 83.605 26.2166 83.6391C29.4529 83.6127 32.3295 82.5552 34.673 80.5626C32.9644 81.2402 31.1225 81.586 29.1851 81.6H29.1863Z" fill="black"/>
<path d="M73.7777 27.8742C74.168 30.8664 73.6491 33.8176 71.4236 36.433C67.7043 40.8038 59.5952 40.6068 56.2202 35.9612C51.4555 29.4001 55.6004 21.7664 59.1146 15.6856C60.7171 12.9115 62.2416 10.0865 63.3145 7.0942C63.5809 6.35181 63.8227 5.60233 64.037 4.84576C65.2676 8.67108 67.0431 12.3066 68.9762 15.8655C70.8986 19.4075 73.2312 23.6791 73.7777 27.8728V27.8742Z" fill="#FFE9DD" stroke="black" stroke-width="1.96679" stroke-linecap="round" stroke-linejoin="round"/>
<path d="M71.898 24.8381C71.3929 21.6546 69.5286 18.4427 67.9888 15.7806C66.4429 13.1043 65.0149 10.3685 63.997 7.47821C63.8501 8.05768 63.6817 8.63289 63.4935 9.20386C63.4537 9.32287 63.4139 9.44188 63.3726 9.56089C64.493 11.9538 65.8797 14.2292 67.3506 16.455C69.0526 19.0307 71.1174 22.1363 71.8199 25.2872C71.9148 25.7151 71.9852 26.1429 72.0265 26.5722C72.0357 25.9984 71.9883 25.4204 71.8964 24.8409L71.898 24.8381Z" fill="black"/>
<path d="M65.4328 37.9121C59.8355 37.881 55.7029 34.0641 55.9967 26.3002C56.0182 25.0661 56.2753 23.6692 56.6932 22.1971C55.9432 24.2841 55.4166 26.3483 55.3876 28.0768V28.0938C55.2452 31.8525 56.3702 34.4991 58.2957 36.3352C59.7222 37.6954 61.5115 38.7324 63.8119 38.7466C65.5813 38.7353 67.1532 38.3017 68.4343 37.4843C67.5007 37.7619 66.4935 37.9036 65.4344 37.9093L65.4328 37.9121Z" fill="black"/>
</svg>
